ISO-10303-21;
HEADER;
FILE_DESCRIPTION (( 'STEP AP203' ),
    '1' );
FILE_NAME ('TUP1010W产品图.STEP',
    '2024-03-31T20:17:48',
    ( '' ),
    ( '' ),
    'SwSTEP 2.0',
    'SolidWorks 2014',
    '' );
FILE_SCHEMA (( 'CONFIG_CONTROL_DESIGN' ));
ENDSEC;

DATA;
#1 = CIRCLE ( 'NONE', #571, 0.4999999999999995600 ) ;
#2 = EDGE_LOOP ( 'NONE', ( #371, #201, #315, #862 ) ) ;
#3 = EDGE_CURVE ( 'NONE', #661, #870, #988, .T. ) ;
#4 = ORIENTED_EDGE ( 'NONE', *, *, #551, .T. ) ;
#5 = LINE ( 'NONE', #203, #391 ) ;
#6 = CARTESIAN_POINT ( 'NONE',  ( 0.4499304451882547000, 0.09999999999999999200, -0.1386730092094119200 ) ) ;
#7 = VECTOR ( 'NONE', #891, 1000.000000000000000 ) ;
#8 = VERTEX_POINT ( 'NONE', #845 ) ;
#9 = ORIENTED_EDGE ( 'NONE', *, *, #398, .T. ) ;
#10 = CARTESIAN_POINT ( 'NONE',  ( 2.200000000000001500, -0.2999999999999999900, -4.649999999999998600 ) ) ;
#11 = ORIENTED_EDGE ( 'NONE', *, *, #610, .F. ) ;
#12 = DATE_AND_TIME ( #172, #597 ) ;
#13 = CARTESIAN_POINT ( 'NONE',  ( 0.3018667025955924000, 0.09999999999999999200, -0.4515242637998474500 ) ) ;
#14 = CARTESIAN_POINT ( 'NONE',  ( 2.200000000000001500, 0.0000000000000000000, -4.649999999999997700 ) ) ;
#15 = EDGE_CURVE ( 'NONE', #226, #171, #475, .T. ) ;
#16 =( NAMED_UNIT ( * ) PLANE_ANGLE_UNIT ( ) SI_UNIT ( $, .RADIAN. ) );
#17 = DIRECTION ( 'NONE',  ( 0.0000000000000000000, 0.0000000000000000000, -1.000000000000000000 ) ) ;
#18 = CARTESIAN_POINT ( 'NONE',  ( 0.006711681071016062500, 0.4000000000000000200, -0.5015287827439174300 ) ) ;
#19 = CARTESIAN_POINT ( 'NONE',  ( -5.000000000000000900, 9.500000000000000000, -5.949999999999997500 ) ) ;
#20 = VECTOR ( 'NONE', #723, 1000.000000000000000 ) ;
#21 = DIRECTION ( 'NONE',  ( 0.0000000000000000000, 0.0000000000000000000, 1.000000000000000000 ) ) ;
#22 = VERTEX_POINT ( 'NONE', #454 ) ;
#23 = EDGE_CURVE ( 'NONE', #8, #98, #527, .T. ) ;
#24 = CARTESIAN_POINT ( 'NONE',  ( -0.1645580985708124100, 0.4000000000000000200, 0.4465546692524480800 ) ) ;
#25 = CARTESIAN_POINT ( 'NONE',  ( 2.199999999999999700, -0.2999999999999999900, 4.350000000000002300 ) ) ;
#26 = CARTESIAN_POINT ( 'NONE',  ( -5.510910596163088900E-017, 0.09999999999999999200, -0.5999999999999999800 ) ) ;
#27 = CARTESIAN_POINT ( 'NONE',  ( -5.000000000000000900, 9.500000000000000000, -5.449999999999998400 ) ) ;
#28 = CARTESIAN_POINT ( 'NONE',  ( -0.4152317294031412900, 0.3000000000000001000, -0.2774793127593401200 ) ) ;
#29 = CARTESIAN_POINT ( 'NONE',  ( -0.2270978461650249600, 0.3999999999999999700, 0.5270315623828405500 ) ) ;
#30 = VECTOR ( 'NONE', #633, 1000.000000000000000 ) ;
#31 = CARTESIAN_POINT ( 'NONE',  ( 0.009667640420175354500, 0.3999999999999999700, -0.6021501525610065700 ) ) ;
#32 = CARTESIAN_POINT ( 'NONE',  ( -5.000000000000000900, 0.0000000000000000000, -5.949999999999998400 ) ) ;
#33 = CARTESIAN_POINT ( 'NONE',  ( -5.500000000000000000, 9.500000000000000000, 5.450000000000002000 ) ) ;
#34 = CARTESIAN_POINT ( 'NONE',  ( 0.4375369330044965900, 0.3000000000000000400, 0.1992331604037208000 ) ) ;
#35 = AXIS2_PLACEMENT_3D ( 'NONE', #880, #412, #420 ) ;
#36 = CARTESIAN_POINT ( 'NONE',  ( 0.0000000000000000000, 0.0000000000000000000, 0.0000000000000000000 ) ) ;
#37 = ADVANCED_FACE ( 'NONE', ( #700 ), #72, .T. ) ;
#38 = B_SPLINE_CURVE_WITH_KNOTS ( 'NONE', 3,
 ( #43, #269, #496, #252, #486, #583, #50, #436, #573, #125, #651, #973, #256, #507, #717, #248, #798, #409, #323, #876, #954, #339, #510, #130, #672, #206 ),
 .UNSPECIFIED., .T., .F.,
 ( 4, 2, 2, 2, 2, 2, 2, 2, 2, 2, 2, 2, 4 ),
 ( 0.0000000000000000000, 0.0001697775612253564400, 0.0003395551224507128800, 0.0006791102449014258700, 0.001018665367352138900, 0.001188442928577495300, 0.001358220489802851700, 0.001527998051028208400, 0.001697775612253564800, 0.002037330734704277400, 0.002376885857154990200, 0.002546663418380346700, 0.002716440979605703100 ),
 .UNSPECIFIED. ) ;
#39 = VECTOR ( 'NONE', #504, 1000.000000000000000 ) ;
#40 = DIRECTION ( 'NONE',  ( 1.000000000000000000, 0.0000000000000000000, -7.228014483236694600E-016 ) ) ;
#41 = ORIENTED_EDGE ( 'NONE', *, *, #525, .T. ) ;
#42 = DIRECTION ( 'NONE',  ( 1.000000000000000000, 0.0000000000000000000, 0.0000000000000000000 ) ) ;
#43 = CARTESIAN_POINT ( 'NONE',  ( 2.032879073410320800E-017, 0.4000000000000000800, 0.5000000000000000000 ) ) ;
#44 = ORIENTED_EDGE ( 'NONE', *, *, #384, .T. ) ;
#45 = DIRECTION ( 'NONE',  ( -0.0000000000000000000, -1.000000000000000000, -0.0000000000000000000 ) ) ;
#46 = EDGE_CURVE ( 'NONE', #171, #381, #860, .T. ) ;
#47 = CARTESIAN_POINT ( 'NONE',  ( -0.2794428306915597300, 0.3999999999999999700, 0.4765324487485518800 ) ) ;
#48 = CARTESIAN_POINT ( 'NONE',  ( -0.4214434680632309600, -1.122090219098655600E-015, 0.2561343726423513900 ) ) ;
#49 = ADVANCED_FACE ( 'NONE', ( #726 ), #541, .T. ) ;
#50 = CARTESIAN_POINT ( 'NONE',  ( -0.3500544186205191700, 0.3999999999999999100, 0.1109585457799446400 ) ) ;
#51 = DIRECTION ( 'NONE',  ( -1.000000000000000000, 0.0000000000000000000, 0.0000000000000000000 ) ) ;
#52 = COORDINATED_UNIVERSAL_TIME_OFFSET ( 8, 0, .AHEAD. ) ;
#53 = DIRECTION ( 'NONE',  ( 0.0000000000000000000, 0.0000000000000000000, 1.000000000000000000 ) ) ;
#54 = CARTESIAN_POINT ( 'NONE',  ( -0.1967614864856272200, -1.355252715606880500E-017, 0.6621603450925657200 ) ) ;
#55 = APPLICATION_PROTOCOL_DEFINITION ( 'international standard', 'config_control_design', 1994, #262 ) ;
#56 = CARTESIAN_POINT ( 'NONE',  ( 0.4152363302336971000, 0.3000000000000001000, 0.2770933600468714600 ) ) ;
#57 = DIRECTION ( 'NONE',  ( -0.0000000000000000000, -1.000000000000000000, -0.0000000000000000000 ) ) ;
#58 = CARTESIAN_POINT ( 'NONE',  ( -0.1597759078023577300, -1.355252715606880500E-017, -0.5670739309843831900 ) ) ;
#59 = CC_DESIGN_APPROVAL ( #652, ( #378 ) ) ;
#60 = CARTESIAN_POINT ( 'NONE',  ( 0.5068280825182824900, -1.355252715606880500E-017, 0.3283964221058028900 ) ) ;
#61 = CIRCLE ( 'NONE', #65, 0.4999999999999995600 ) ;
#62 = ORIENTED_EDGE ( 'NONE', *, *, #699, .F. ) ;
#63 = EDGE_LOOP ( 'NONE', ( #294 ) ) ;
#64 = CARTESIAN_POINT ( 'NONE',  ( -0.5499587799103131700, -1.355252715606881500E-017, 0.1645756774747269300 ) ) ;
#65 = AXIS2_PLACEMENT_3D ( 'NONE', #491, #814, #666 ) ;
#66 = CARTESIAN_POINT ( 'NONE',  ( -0.4436993083768435200, -1.128241451149857200E-015, -0.1821515252290226400 ) ) ;
#67 = LINE ( 'NONE', #598, #686 ) ;
#68 = CARTESIAN_POINT ( 'NONE',  ( 0.4408523196451301600, -1.355252715606880500E-017, 0.4288060843462900800 ) ) ;
#69 = ADVANCED_FACE ( 'NONE', ( #464 ), #258, .T. ) ;
#70 = DIRECTION ( 'NONE',  ( 0.0000000000000000000, 0.0000000000000000000, -1.000000000000000000 ) ) ;
#71 = CARTESIAN_POINT ( 'NONE',  ( 0.2169793419693012400, 0.09999999999999999200, 0.5317430777588192400 ) ) ;
#72 = CYLINDRICAL_SURFACE ( 'NONE', #77, 0.4999999999999995600 ) ;
#73 = ORIENTED_EDGE ( 'NONE', *, *, #559, .T. ) ;
#74 = ORIENTED_EDGE ( 'NONE', *, *, #488, .T. ) ;
#75 = CARTESIAN_POINT ( 'NONE',  ( 0.2767304883226369700, -1.355252715606880500E-017, 0.6131490908590283600 ) ) ;
#76 = LINE ( 'NONE', #650, #647 ) ;
#77 = AXIS2_PLACEMENT_3D ( 'NONE', #834, #45, #524 ) ;
#78 = EDGE_CURVE ( 'NONE', #615, #693, #920, .T. ) ;
#79 = VECTOR ( 'NONE', #263, 1000.000000000000000 ) ;
#80 = ORIENTED_EDGE ( 'NONE', *, *, #617, .F. ) ;
#81 = DATE_AND_TIME ( #792, #518 ) ;
#82 = CC_DESIGN_PERSON_AND_ORGANIZATION_ASSIGNMENT ( #994, #502, ( #95 ) ) ;
#83 = FACE_OUTER_BOUND ( 'NONE', #910, .T. ) ;
#84 = VERTEX_POINT ( 'NONE', #734 ) ;
#85 = EDGE_CURVE ( 'NONE', #8, #498, #890, .T. ) ;
#86 = ORIENTED_EDGE ( 'NONE', *, *, #451, .T. ) ;
#87 = CARTESIAN_POINT ( 'NONE',  ( 0.06838119117438108700, 0.1000000000000000100, -0.6003231326221099000 ) ) ;
#88 = LINE ( 'NONE', #593, #321 ) ;
#89 = EDGE_CURVE ( 'NONE', #870, #537, #635, .T. ) ;
#90 = CARTESIAN_POINT ( 'NONE',  ( -0.3023008494212030600, 0.09999999999999999200, 0.4510850605831983600 ) ) ;
#91 = CARTESIAN_POINT ( 'NONE',  ( 0.4149954431204039800, 0.1000000000000000200, -0.2780556891720467000 ) ) ;
#92 = CYLINDRICAL_SURFACE ( 'NONE', #282, 0.2999999999999999300 ) ;
#93 = VERTEX_POINT ( 'NONE', #14 ) ;
#94 = CARTESIAN_POINT ( 'NONE',  ( 5.000000000000000000, 0.0000000000000000000, 5.450000000000002000 ) ) ;
#95 = PRODUCT ( 'TUP1010W产品图', 'TUP1010W产品图', '', ( #665 ) ) ;
#96 = SECURITY_CLASSIFICATION ( '', '', #435 ) ;
#97 = CARTESIAN_POINT ( 'NONE',  ( -0.07153450458495831700, 0.1000000000000000200, -0.5996695018845705800 ) ) ;
#98 = VERTEX_POINT ( 'NONE', #554 ) ;
#99 = CARTESIAN_POINT ( 'NONE',  ( 0.08787960634439495600, 0.3000000000000000400, -0.5907804722409830700 ) ) ;
#100 = CARTESIAN_POINT ( 'NONE',  ( -0.9000000000000000200, 0.3000000000000000400, -0.5999999999999997600 ) ) ;
#101 = DIRECTION ( 'NONE',  ( 1.000000000000000000, 0.0000000000000000000, -0.0000000000000000000 ) ) ;
#102 = FACE_OUTER_BOUND ( 'NONE', #604, .T. ) ;
#103 = CARTESIAN_POINT ( 'NONE',  ( -2.199999999999999700, -0.2999999999999999900, 4.350000000000001400 ) ) ;
#104 = CARTESIAN_POINT ( 'NONE',  ( -5.500000000000000000, 0.0000000000000000000, 5.450000000000002000 ) ) ;
#105 = AXIS2_PLACEMENT_3D ( 'NONE', #606, #921, #70 ) ;
#106 = DIRECTION ( 'NONE',  ( 1.000000000000000000, 0.0000000000000000000, 1.865294060190114700E-016 ) ) ;
#107 = DIRECTION ( 'NONE',  ( -1.000000000000000000, -0.0000000000000000000, 9.326470300950576100E-017 ) ) ;
#108 = CARTESIAN_POINT ( 'NONE',  ( -5.000000000000000900, 9.500000000000000000, -5.949999999999998400 ) ) ;
#109 = CARTESIAN_POINT ( 'NONE',  ( -0.3382323942613385500, 0.4000000000000000200, -0.1753783732167932000 ) ) ;
#110 = CARTESIAN_POINT ( 'NONE',  ( 0.2063910467579973000, 0.4000000000000000200, -0.4072321633491951000 ) ) ;
#111 = CARTESIAN_POINT ( 'NONE',  ( 4.600000000000001400, -0.2999999999999999900, -4.349999999999997000 ) ) ;
#112 = FACE_OUTER_BOUND ( 'NONE', #621, .T. ) ;
#113 = DIRECTION ( 'NONE',  ( 0.0000000000000000000, 1.000000000000000000, 0.0000000000000000000 ) ) ;
#114 = ORIENTED_EDGE ( 'NONE', *, *, #488, .F. ) ;
#115 = ORIENTED_EDGE ( 'NONE', *, *, #986, .T. ) ;
#116 = EDGE_CURVE ( 'NONE', #469, #93, #231, .T. ) ;
#117 = CARTESIAN_POINT ( 'NONE',  ( 2.199999999999999700, 0.0000000000000000000, 4.350000000000003200 ) ) ;
#118 = CARTESIAN_POINT ( 'NONE',  ( 0.0000000000000000000, 0.09999999999999999200, 0.5999999999999999800 ) ) ;
#119 = CARTESIAN_POINT ( 'NONE',  ( 5.499999999999999100, 9.500000000000000000, 5.450000000000002000 ) ) ;
#120 = CARTESIAN_POINT ( 'NONE',  ( -0.1378493150956268100, 0.3000000000000001000, -0.5775651903844185600 ) ) ;
#121 = CARTESIAN_POINT ( 'NONE',  ( -0.005671122158184297900, 0.4000000000000000200, 0.5065030954313656200 ) ) ;
#122 = VECTOR ( 'NONE', #170, 1000.000000000000000 ) ;
#123 = CARTESIAN_POINT ( 'NONE',  ( 5.000000000000000000, 9.500000000000000000, 5.450000000000002000 ) ) ;
#124 = DATE_TIME_ROLE ( 'creation_date' ) ;
#125 = CARTESIAN_POINT ( 'NONE',  ( -0.2384182489745405600, 0.4000000000000000200, -0.3693354779624227800 ) ) ;
#126 = CARTESIAN_POINT ( 'NONE',  ( 5.000000000000000000, 9.500000000000000000, 5.450000000000002000 ) ) ;
#127 = CARTESIAN_POINT ( 'NONE',  ( 0.04986671870061013700, 0.4000000000000000200, 0.4947427081453068000 ) ) ;
#128 = DIRECTION ( 'NONE',  ( 0.0000000000000000000, 0.0000000000000000000, -1.000000000000000000 ) ) ;
#129 = AXIS2_PLACEMENT_3D ( 'NONE', #716, #106, #961 ) ;
#130 = CARTESIAN_POINT ( 'NONE',  ( 0.1117431766293555700, 0.3999999999999999100, 0.4786245703472377100 ) ) ;
#131 = DIRECTION ( 'NONE',  ( -2.797941090285173100E-016, 0.0000000000000000000, 1.000000000000000000 ) ) ;
#132 = CARTESIAN_POINT ( 'NONE',  ( -0.3530161076305057300, 0.3000000000000000400, -0.3786952009217932100 ) ) ;
#133 = ORIENTED_EDGE ( 'NONE', *, *, #699, .T. ) ;
#134 = CARTESIAN_POINT ( 'NONE',  ( 0.4500146584004851000, 0.2999999999999999900, 0.1377516217357539200 ) ) ;
#135 = CARTESIAN_POINT ( 'NONE',  ( 6.776263578034402700E-017, -3.134651602192767600E-033, 0.7000000000000000700 ) ) ;
#136 = EDGE_LOOP ( 'NONE', ( #218, #946, #628, #587, #245, #937, #461, #538 ) ) ;
#137 = CARTESIAN_POINT ( 'NONE',  ( 6.776263578034402700E-017, -3.134651602192767600E-033, 0.7000000000000000700 ) ) ;
#138 = PERSON_AND_ORGANIZATION ( #667, #607 ) ;
#139 = LINE ( 'NONE', #33, #623 ) ;
#140 = CARTESIAN_POINT ( 'NONE',  ( -0.3546138933875110900, 5.437919348408252800E-016, -0.3771402906793505100 ) ) ;
#141 = DIRECTION ( 'NONE',  ( -1.000000000000000000, 0.0000000000000000000, -7.228014483236694600E-016 ) ) ;
#142 = EDGE_CURVE ( 'NONE', #281, #682, #61, .T. ) ;
#143 = CARTESIAN_POINT ( 'NONE',  ( 0.09719178946393690300, 0.09999999999999999200, 0.5858384397096336700 ) ) ;
#144 = FACE_OUTER_BOUND ( 'NONE', #855, .T. ) ;
#145 = DIRECTION ( 'NONE',  ( 1.000000000000000000, 0.0000000000000000000, 7.228014483236694600E-016 ) ) ;
#146 = ORIENTED_EDGE ( 'NONE', *, *, #154, .T. ) ;
#147 = ORIENTED_EDGE ( 'NONE', *, *, #471, .T. ) ;
#148 = DIRECTION ( 'NONE',  ( 1.865294060190114700E-016, -0.0000000000000000000, -1.000000000000000000 ) ) ;
#149 = EDGE_CURVE ( 'NONE', #787, #537, #625, .T. ) ;
#150 = CARTESIAN_POINT ( 'NONE',  ( 0.5430482151525225500, -1.355252715606880500E-017, 0.2057696501859673200 ) ) ;
#151 = LINE ( 'NONE', #240, #950 ) ;
#152 = ADVANCED_FACE ( 'NONE', ( #83 ), #643, .F. ) ;
#153 = CARTESIAN_POINT ( 'NONE',  ( 0.4626232109890471300, 0.09999999999999999200, 0.03113879790650963400 ) ) ;
#154 = EDGE_CURVE ( 'NONE', #612, #98, #690, .T. ) ;
#155 = ORIENTED_EDGE ( 'NONE', *, *, #46, .F. ) ;
#156 = VERTEX_POINT ( 'NONE', #119 ) ;
#157 = ORIENTED_EDGE ( 'NONE', *, *, #85, .F. ) ;
#158 = LOCAL_TIME ( 4, 17, 48.00000000000000000, #830 ) ;
#159 = CC_DESIGN_PERSON_AND_ORGANIZATION_ASSIGNMENT ( #373, #268, ( #96 ) ) ;
#160 = CIRCLE ( 'NONE', #824, 0.2999999999999999300 ) ;
#161 = EDGE_CURVE ( 'NONE', #682, #751, #330, .T. ) ;
#162 = VECTOR ( 'NONE', #418, 1000.000000000000000 ) ;
#163 = EDGE_LOOP ( 'NONE', ( #449, #536, #477, #851 ) ) ;
#164 = ORIENTED_EDGE ( 'NONE', *, *, #952, .T. ) ;
#165 = LINE ( 'NONE', #719, #739 ) ;
#166 = PLANE ( 'NONE',  #501 ) ;
#167 = LINE ( 'NONE', #10, #122 ) ;
#168 = ORIENTED_EDGE ( 'NONE', *, *, #545, .T. ) ;
#169 = AXIS2_PLACEMENT_3D ( 'NONE', #123, #916, #670 ) ;
#170 = DIRECTION ( 'NONE',  ( 1.865294060190114700E-016, -0.0000000000000000000, -1.000000000000000000 ) ) ;
#171 = VERTEX_POINT ( 'NONE', #111 ) ;
#172 = CALENDAR_DATE ( 2024, 1, 4 ) ;
#173 = CARTESIAN_POINT ( 'NONE',  ( 0.4570136778007282700, 0.4000000000000060200, 0.07001761157066725700 ) ) ;
#174 = AXIS2_PLACEMENT_3D ( 'NONE', #312, #21, #101 ) ;
#175 = CARTESIAN_POINT ( 'NONE',  ( 0.8999999999999999100, 0.09999999999999999200, 0.5999999999999999800 ) ) ;
#176 = DIRECTION ( 'NONE',  ( -1.000000000000000000, 0.0000000000000000000, -2.797941090285172600E-016 ) ) ;
#177 = CARTESIAN_POINT ( 'NONE',  ( 0.3152858940607352600, 0.4000000000000015800, 0.4362060293477304000 ) ) ;
#178 = CARTESIAN_POINT ( 'NONE',  ( -4.599999999999999600, -0.2999999999999999900, -4.649999999999997700 ) ) ;
#179 = CARTESIAN_POINT ( 'NONE',  ( 0.1363845908081319800, 0.09999999999999999200, -0.5782580587314250000 ) ) ;
#180 = CYLINDRICAL_SURFACE ( 'NONE', #318, 0.2999999999999999300 ) ;
#181 = EDGE_CURVE ( 'NONE', #1001, #368, #468, .T. ) ;
#182 = CARTESIAN_POINT ( 'NONE',  ( -0.03192131517033447400, 0.3000000000000000400, -0.6007434894570334900 ) ) ;
#183 = ORIENTED_EDGE ( 'NONE', *, *, #414, .T. ) ;
#184 = CARTESIAN_POINT ( 'NONE',  ( 5.499999999999999100, 9.500000000000000000, 5.450000000000002000 ) ) ;
#185 = DIRECTION ( 'NONE',  ( 0.0000000000000000000, 0.0000000000000000000, -1.000000000000000000 ) ) ;
#186 = CARTESIAN_POINT ( 'NONE',  ( -0.4388659193117343000, 0.3000000000000000400, 0.1845007964417584600 ) ) ;
#187 = CARTESIAN_POINT ( 'NONE',  ( 0.1547268975873469000, 0.4000000000000000200, 0.4525338085881527300 ) ) ;
#188 = DIRECTION ( 'NONE',  ( 0.0000000000000000000, 1.000000000000000000, -0.0000000000000000000 ) ) ;
#189 = CARTESIAN_POINT ( 'NONE',  ( 0.0000000000000000000, -0.2999999999999999900, 0.0000000000000000000 ) ) ;
#190 = DIRECTION ( 'NONE',  ( 0.0000000000000000000, 0.0000000000000000000, -1.000000000000000000 ) ) ;
#191 = CARTESIAN_POINT ( 'NONE',  ( -0.1474841177048983300, 0.3000000000000000400, -0.5763224124739776400 ) ) ;
#192 = DIRECTION ( 'NONE',  ( 0.0000000000000000000, 8.881784197001254300E-016, -1.000000000000000000 ) ) ;
#193 = DIRECTION ( 'NONE',  ( -0.0000000000000000000, -1.000000000000000000, -0.0000000000000000000 ) ) ;
#194 = CARTESIAN_POINT ( 'NONE',  ( -0.007418588649664496100, 0.3999999999999999700, 0.6090904942472195000 ) ) ;
#195 = CARTESIAN_POINT ( 'NONE',  ( -0.02960968333293316100, 0.09999999999999999200, 0.6045415706762287100 ) ) ;
#196 = APPROVAL_ROLE ( '' ) ;
#197 = CARTESIAN_POINT ( 'NONE',  ( -5.000000000000000900, 0.0000000000000000000, 5.950000000000002000 ) ) ;
#198 = FACE_OUTER_BOUND ( 'NONE', #529, .T. ) ;
#199 = PLANE ( 'NONE',  #773 ) ;
#200 = ORIENTED_EDGE ( 'NONE', *, *, #616, .F. ) ;
#201 = ORIENTED_EDGE ( 'NONE', *, *, #540, .T. ) ;
#202 = EDGE_CURVE ( 'NONE', #381, #513, #837, .T. ) ;
#203 = CARTESIAN_POINT ( 'NONE',  ( -5.500000000000000000, 9.500000000000000000, -5.449999999999998400 ) ) ;
#204 = CARTESIAN_POINT ( 'NONE',  ( 0.03495268462714942000, -5.185672696994939300E-015, 0.6041952274474127200 ) ) ;
#205 = VERTEX_POINT ( 'NONE', #589 ) ;
#206 = CARTESIAN_POINT ( 'NONE',  ( 2.032879073410320800E-017, 0.4000000000000000800, 0.5000000000000000000 ) ) ;
#207 = CARTESIAN_POINT ( 'NONE',  ( 4.600000000000001400, 0.0000000000000000000, -4.649999999999996800 ) ) ;
#208 = CARTESIAN_POINT ( 'NONE',  ( 2.200000000000001500, 0.0000000000000000000, -4.349999999999998800 ) ) ;
#209 = DIRECTION ( 'NONE',  ( 0.0000000000000000000, 1.000000000000000000, 0.0000000000000000000 ) ) ;
#210 = CARTESIAN_POINT ( 'NONE',  ( 2.032879073410320800E-017, 0.3000000000000000400, 0.6000000000000000900 ) ) ;
#211 = CARTESIAN_POINT ( 'NONE',  ( 0.5500524395129791100, -1.355252715606880500E-017, 0.1642189967321025800 ) ) ;
#212 = CARTESIAN_POINT ( 'NONE',  ( -2.199999999999999700, 0.0000000000000000000, -4.349999999999999600 ) ) ;
#213 = CARTESIAN_POINT ( 'NONE',  ( 0.09719178946393690300, 0.09999999999999999200, 0.5858384397096336700 ) ) ;
#214 = CARTESIAN_POINT ( 'NONE',  ( 0.5059765762553581900, -1.355252715606880900E-017, -0.3302355439109101500 ) ) ;
#215 = CARTESIAN_POINT ( 'NONE',  ( -0.03771634839580689800, 0.09999999999999999200, -0.6036784024287792400 ) ) ;
#216 = LINE ( 'NONE', #108, #20 ) ;
#217 = DIRECTION ( 'NONE',  ( -1.000000000000000000, -0.0000000000000000000, 9.326470300950576100E-017 ) ) ;
#218 = ORIENTED_EDGE ( 'NONE', *, *, #986, .F. ) ;
#219 = AXIS2_PLACEMENT_3D ( 'NONE', #27, #565, #896 ) ;
#220 = CARTESIAN_POINT ( 'NONE',  ( -0.06938683974615393600, 0.3000000000000001000, -0.6001134725548218400 ) ) ;
#221 = VECTOR ( 'NONE', #970, 1000.000000000000000 ) ;
#222 = CARTESIAN_POINT ( 'NONE',  ( 0.1522522772614991200, 4.453117099407207900E-015, -0.5708768122419175500 ) ) ;
#223 = CARTESIAN_POINT ( 'NONE',  ( 0.1254807409653527500, -1.355252715606880500E-017, 0.6817536899201739300 ) ) ;
#224 = ADVANCED_FACE ( 'NONE', ( #766 ), #346, .F. ) ;
#225 = LINE ( 'NONE', #968, #7 ) ;
#226 = VERTEX_POINT ( 'NONE', #428 ) ;
#227 = ORIENTED_EDGE ( 'NONE', *, *, #551, .F. ) ;
#228 = PRODUCT_RELATED_PRODUCT_CATEGORY ( 'detail', '', ( #95 ) ) ;
#229 = PERSON_AND_ORGANIZATION ( #667, #607 ) ;
#230 = EDGE_CURVE ( 'NONE', #714, #714, #38, .T. ) ;
#231 = LINE ( 'NONE', #865, #566 ) ;
#232 = EDGE_LOOP ( 'NONE', ( #733 ) ) ;
#233 = EDGE_CURVE ( 'NONE', #98, #205, #259, .T. ) ;
#234 = FACE_OUTER_BOUND ( 'NONE', #2, .T. ) ;
#235 = AXIS2_PLACEMENT_3D ( 'NONE', #976, #580, #337 ) ;
#236 = VECTOR ( 'NONE', #275, 1000.000000000000000 ) ;
#237 = ORIENTED_EDGE ( 'NONE', *, *, #808, .T. ) ;
#238 = EDGE_LOOP ( 'NONE', ( #356, #932, #157, #357 ) ) ;
#239 = CARTESIAN_POINT ( 'NONE',  ( 2.199999999999999700, 0.0000000000000000000, 4.650000000000003000 ) ) ;
#240 = CARTESIAN_POINT ( 'NONE',  ( 5.000000000000000000, 9.500000000000000000, 5.950000000000002000 ) ) ;
#241 = CARTESIAN_POINT ( 'NONE',  ( 5.000000000000000000, 0.0000000000000000000, -5.449999999999998400 ) ) ;
#242 = CARTESIAN_POINT ( 'NONE',  ( -0.1046186773148521700, 0.4000000000000000200, -0.4831724680826204900 ) ) ;
#243 = FACE_OUTER_BOUND ( 'NONE', #925, .T. ) ;
#244 = CARTESIAN_POINT ( 'NONE',  ( -5.000000000000000900, 9.500000000000000000, 5.450000000000002000 ) ) ;
#245 = ORIENTED_EDGE ( 'NONE', *, *, #779, .F. ) ;
#246 = CARTESIAN_POINT ( 'NONE',  ( 0.2137918499537258500, 0.3999999999999985800, 0.5345455610660004900 ) ) ;
#247 =( LENGTH_UNIT ( ) NAMED_UNIT ( * ) SI_UNIT ( .MILLI., .METRE. ) );
#248 = CARTESIAN_POINT ( 'NONE',  ( 0.2027960840948871100, 0.3999999999999999100, -0.4121996776163498500 ) ) ;
#249 = LINE ( 'NONE', #977, #221 ) ;
#250 = CARTESIAN_POINT ( 'NONE',  ( 0.2794076446426569900, 0.4000000000000030200, -0.4766660224323648300 ) ) ;
#251 = DIRECTION ( 'NONE',  ( -0.0000000000000000000, -1.000000000000000000, -0.0000000000000000000 ) ) ;
#252 = CARTESIAN_POINT ( 'NONE',  ( -0.2021853447716029700, 0.4000000000000000200, 0.4126613322827062900 ) ) ;
#253 = CARTESIAN_POINT ( 'NONE',  ( 0.0000000000000000000, 0.4000000000000000200, 0.0000000000000000000 ) ) ;
#254 = CARTESIAN_POINT ( 'NONE',  ( -0.2668258079670600700, 0.4000000000000000200, -0.3270026906261612700 ) ) ;
#255 = CARTESIAN_POINT ( 'NONE',  ( 0.3384666710639309100, 0.4000000000000000200, 0.1748886867262150500 ) ) ;
#256 = CARTESIAN_POINT ( 'NONE',  ( -0.05630886977967015200, 0.4000000000000000200, -0.5001080225192829900 ) ) ;
#257 = DIRECTION ( 'NONE',  ( -0.0000000000000000000, -1.000000000000000000, -0.0000000000000000000 ) ) ;
#258 = PLANE ( 'NONE',  #980 ) ;
#259 = LINE ( 'NONE', #197, #659 ) ;
#260 = CARTESIAN_POINT ( 'NONE',  ( 0.2137919222227409300, 0.3000000000000000400, 0.5345456356530247100 ) ) ;
#261 = VERTEX_POINT ( 'NONE', #829 ) ;
#262 = APPLICATION_CONTEXT ( 'configuration controlled 3d designs of mechanical parts and assemblies' ) ;
#263 = DIRECTION ( 'NONE',  ( -0.0000000000000000000, -1.000000000000000000, -0.0000000000000000000 ) ) ;
#264 = CARTESIAN_POINT ( 'NONE',  ( -0.2537441052699542800, 0.3000000000000001000, -0.5028911684454029400 ) ) ;
#265 = ORIENTED_EDGE ( 'NONE', *, *, #617, .T. ) ;
#266 = CARTESIAN_POINT ( 'NONE',  ( -0.06332572065594435600, 0.4000000000000000200, 0.4974950787519597500 ) ) ;
#267 = CARTESIAN_POINT ( 'NONE',  ( -0.02960968256364451500, -1.355252715606880500E-017, 0.6045415678879644300 ) ) ;
#268 = PERSON_AND_ORGANIZATION_ROLE ( 'classification_officer' ) ;
#269 = CARTESIAN_POINT ( 'NONE',  ( -0.05678833074412251900, 0.3999999999999999700, 0.4999999999999998900 ) ) ;
#270 = CARTESIAN_POINT ( 'NONE',  ( -0.3028481863065395400, 0.3000000000000001000, 0.4502953914314382100 ) ) ;
#271 = FACE_OUTER_BOUND ( 'NONE', #238, .T. ) ;
#272 = CARTESIAN_POINT ( 'NONE',  ( 4.599999999999998800, -0.2999999999999999900, 4.350000000000004100 ) ) ;
#273 = CARTESIAN_POINT ( 'NONE',  ( 0.1381077802111502500, 0.3000000000000000400, 0.5775500137286531100 ) ) ;
#274 = CARTESIAN_POINT ( 'NONE',  ( -0.2354229806167088800, 0.4000000000000000200, -0.3743527041722605200 ) ) ;
#275 = DIRECTION ( 'NONE',  ( 0.0000000000000000000, 0.0000000000000000000, 1.000000000000000000 ) ) ;
#276 = CARTESIAN_POINT ( 'NONE',  ( -0.3596987191817974100, 0.09999999999999999200, 0.3951829426761469500 ) ) ;
#277 = CARTESIAN_POINT ( 'NONE',  ( -4.599999999999998800, 0.0000000000000000000, 4.650000000000002100 ) ) ;
#278 = CARTESIAN_POINT ( 'NONE',  ( 0.08160520161040861500, -1.355252715606880500E-017, -0.7002902830977501000 ) ) ;
#279 = LINE ( 'NONE', #423, #39 ) ;
#280 = DIRECTION ( 'NONE',  ( -0.0000000000000000000, -1.000000000000000000, -0.0000000000000000000 ) ) ;
#281 = VERTEX_POINT ( 'NONE', #755 ) ;
#282 = AXIS2_PLACEMENT_3D ( 'NONE', #508, #51, #590 ) ;
#283 = CARTESIAN_POINT ( 'NONE',  ( -0.4625760477397675200, 0.09999999999999999200, -0.03100437444350105700 ) ) ;
#284 = CARTESIAN_POINT ( 'NONE',  ( 0.1628786580243002100, -1.355252715606880900E-017, -0.6762803070983728300 ) ) ;
#285 = CARTESIAN_POINT ( 'NONE',  ( -0.5178016338854138900, -1.355252715606880500E-017, 0.2886834243084932500 ) ) ;
#286 = VERTEX_POINT ( 'NONE', #118 ) ;
#287 = CARTESIAN_POINT ( 'NONE',  ( -0.4594711953618603700, -1.355252715606880500E-017, -0.3965886811608322300 ) ) ;
#288 = EDGE_CURVE ( 'NONE', #934, #934, #334, .T. ) ;
#289 = CARTESIAN_POINT ( 'NONE',  ( 0.4213541295824490600, 0.09999999999999999200, -0.2565630847027451400 ) ) ;
#290 = AXIS2_PLACEMENT_3D ( 'NONE', #791, #415, #316 ) ;
#291 = CARTESIAN_POINT ( 'NONE',  ( 4.600000000000001400, 0.0000000000000000000, -4.349999999999997000 ) ) ;
#292 = CARTESIAN_POINT ( 'NONE',  ( 0.4484990180168450500, 0.0000000000000000000, -0.4490893989726731900 ) ) ;
#293 = VECTOR ( 'NONE', #280, 1000.000000000000000 ) ;
#294 = ORIENTED_EDGE ( 'NONE', *, *, #230, .T. ) ;
#295 = ORIENTED_EDGE ( 'NONE', *, *, #616, .T. ) ;
#296 = ADVANCED_FACE ( 'NONE', ( #144 ), #848, .T. ) ;
#297 = EDGE_CURVE ( 'NONE', #513, #469, #695, .T. ) ;
#298 = FACE_OUTER_BOUND ( 'NONE', #861, .T. ) ;
#299 = ADVANCED_FACE ( 'NONE', ( #112 ), #732, .F. ) ;
#300 = ADVANCED_FACE ( 'NONE', ( #780 ), #457, .T. ) ;
#301 = ORIENTED_EDGE ( 'NONE', *, *, #388, .T. ) ;
#302 = EDGE_LOOP ( 'NONE', ( #626 ) ) ;
#303 = EDGE_LOOP ( 'NONE', ( #86 ) ) ;
#304 = LOCAL_TIME ( 4, 17, 48.00000000000000000, #52 ) ;
#305 = AXIS2_PLACEMENT_3D ( 'NONE', #503, #188, #658 ) ;
#306 = VECTOR ( 'NONE', #743, 1000.000000000000000 ) ;
#307 = VERTEX_POINT ( 'NONE', #738 ) ;
#308 = ORIENTED_EDGE ( 'NONE', *, *, #297, .T. ) ;
#309 = EDGE_CURVE ( 'NONE', #537, #893, #225, .T. ) ;
#310 = AXIS2_PLACEMENT_3D ( 'NONE', #36, #319, #42 ) ;
#311 = VECTOR ( 'NONE', #322, 1000.000000000000000 ) ;
#312 = CARTESIAN_POINT ( 'NONE',  ( -5.000000000000000900, 9.500000000000000000, -5.949999999999998400 ) ) ;
#313 = PLANE ( 'NONE',  #996 ) ;
#314 = ORIENTED_EDGE ( 'NONE', *, *, #326, .T. ) ;
#315 = ORIENTED_EDGE ( 'NONE', *, *, #525, .F. ) ;
#316 = DIRECTION ( 'NONE',  ( 0.0000000000000000000, 0.0000000000000000000, 1.000000000000000000 ) ) ;
#317 = CARTESIAN_POINT ( 'NONE',  ( 0.3561310515078399100, 0.4000000000000000800, 0.06118587625708276500 ) ) ;
#318 = AXIS2_PLACEMENT_3D ( 'NONE', #905, #141, #917 ) ;
#319 = DIRECTION ( 'NONE',  ( 0.0000000000000000000, 0.0000000000000000000, 1.000000000000000000 ) ) ;
#320 = DATE_AND_TIME ( #949, #158 ) ;
#321 = VECTOR ( 'NONE', #57, 1000.000000000000000 ) ;
#322 = DIRECTION ( 'NONE',  ( -1.000000000000000000, -0.0000000000000000000, -0.0000000000000000000 ) ) ;
#323 = CARTESIAN_POINT ( 'NONE',  ( 0.3499913500423710300, 0.4000000000000001900, -0.1117244691641853500 ) ) ;
#324 = CARTESIAN_POINT ( 'NONE',  ( 2.032879073410320800E-017, 0.09999999999999999200, 0.6000000000000000900 ) ) ;
#325 = CARTESIAN_POINT ( 'NONE',  ( 0.1382139310022859300, 0.2999999999999999900, -0.5774781365433692100 ) ) ;
#326 = EDGE_CURVE ( 'NONE', #787, #943, #279, .T. ) ;
#327 = CARTESIAN_POINT ( 'NONE',  ( -0.2794428996910204900, 0.3000000000000000400, 0.4765324999222357900 ) ) ;
#328 = CARTESIAN_POINT ( 'NONE',  ( 0.2351790527145452600, 0.4000000000000000200, 0.3745820904573594600 ) ) ;
#329 = CARTESIAN_POINT ( 'NONE',  ( 5.000000000000000000, 0.0000000000000000000, 5.450000000000002000 ) ) ;
#330 = LINE ( 'NONE', #731, #79 ) ;
#331 = APPROVAL ( #350, '未指定' ) ;
#332 = CARTESIAN_POINT ( 'NONE',  ( 4.599999999999998800, 0.0000000000000000000, 4.650000000000003000 ) ) ;
#333 = DIRECTION ( 'NONE',  ( 0.0000000000000000000, 0.0000000000000000000, 1.000000000000000000 ) ) ;
#334 = B_SPLINE_CURVE_WITH_KNOTS ( 'NONE', 3,
 ( #210, #595, #273, #904, #439, #56, #134, #676, #832, #360, #548, #325, #725, #220, #120, #264, #574, #28, #417, #897, #579, #270, #963, #430, #805, #818 ),
 .UNSPECIFIED., .T., .F.,
 ( 4, 2, 2, 2, 2, 2, 2, 2, 2, 2, 2, 2, 4 ),
 ( 0.0000000000000000000, 0.0002087171660885099700, 0.0004174343321770199400, 0.0008348686643540396700, 0.001252302996531059600, 0.001461020162619569400, 0.001669737328708079100, 0.001878454494796588800, 0.002087171660885098900, 0.002504605993062118200, 0.002922040325239138000, 0.003130757491327648300, 0.003339474657416157400 ),
 .UNSPECIFIED. ) ;
#335 = ORIENTED_EDGE ( 'NONE', *, *, #779, .T. ) ;
#336 = ORIENTED_EDGE ( 'NONE', *, *, #181, .F. ) ;
#337 = DIRECTION ( 'NONE',  ( 0.0000000000000000000, 0.0000000000000000000, -1.000000000000000000 ) ) ;
#338 = CARTESIAN_POINT ( 'NONE',  ( 0.3067864005179997100, 0.4000000000000000200, -0.2716529721379767900 ) ) ;
#339 = CARTESIAN_POINT ( 'NONE',  ( 0.2390074969462277500, 0.4000000000000000200, 0.3684647308871460400 ) ) ;
#340 = CARTESIAN_POINT ( 'NONE',  ( -5.000000000000000900, 9.500000000000000000, 5.950000000000002000 ) ) ;
#341 = CARTESIAN_POINT ( 'NONE',  ( 0.07058291002504506200, 0.3999999999999999700, 0.5925733752032871200 ) ) ;
#342 = FACE_OUTER_BOUND ( 'NONE', #394, .T. ) ;
#343 = CARTESIAN_POINT ( 'NONE',  ( 0.2794076924469368600, 0.3000000000000000400, -0.4766660578310270000 ) ) ;
#344 = ADVANCED_FACE ( 'NONE', ( #936 ), #199, .T. ) ;
#345 = APPROVAL_ROLE ( '' ) ;
#346 = PLANE ( 'NONE',  #369 ) ;
#347 = DIRECTION ( 'NONE',  ( -1.000000000000000000, 0.0000000000000000000, 0.0000000000000000000 ) ) ;
#348 = CARTESIAN_POINT ( 'NONE',  ( 5.000000000000000000, 9.500000000000000000, -5.949999999999998400 ) ) ;
#349 = CARTESIAN_POINT ( 'NONE',  ( -0.2113459834302195700, 0.09999999999999999200, 0.5358524034803093800 ) ) ;
#350 = APPROVAL_STATUS ( 'not_yet_approved' ) ;
#351 = DIRECTION ( 'NONE',  ( 0.0000000000000000000, 0.0000000000000000000, -1.000000000000000000 ) ) ;
#352 = ADVANCED_FACE ( 'NONE', ( #243 ), #744, .F. ) ;
#353 = EDGE_CURVE ( 'NONE', #156, #281, #819, .T. ) ;
#354 = CARTESIAN_POINT ( 'NONE',  ( -0.4570873924822516600, 0.4000000000000030200, -0.07083299846214950700 ) ) ;
#355 = CARTESIAN_POINT ( 'NONE',  ( 0.04576040611661431900, -1.355252715606880500E-017, 0.7052663764864690600 ) ) ;
#356 = ORIENTED_EDGE ( 'NONE', *, *, #233, .T. ) ;
#357 = ORIENTED_EDGE ( 'NONE', *, *, #23, .T. ) ;
#358 = ORIENTED_EDGE ( 'NONE', *, *, #480, .T. ) ;
#359 = CARTESIAN_POINT ( 'NONE',  ( -0.3546138957205338700, 0.09999999999999999200, -0.3771402917452492700 ) ) ;
#360 = CARTESIAN_POINT ( 'NONE',  ( 0.3027193052269234700, 0.2999999999999999900, -0.4505483889757340700 ) ) ;
#361 = CARTESIAN_POINT ( 'NONE',  ( 0.3647024794681346700, -1.355252715606880500E-017, -0.5330636845470658700 ) ) ;
#362 = PERSON_AND_ORGANIZATION ( #667, #607 ) ;
#363 = FACE_BOUND ( 'NONE', #800, .T. ) ;
#364 = CARTESIAN_POINT ( 'NONE',  ( -0.5436245976877088800, -1.355252715606880500E-017, -0.2040769704922556200 ) ) ;
#365 = CARTESIAN_POINT ( 'NONE',  ( -0.3663067930455572400, -1.355252715606881200E-017, -0.5311656763514955900 ) ) ;
#366 = CARTESIAN_POINT ( 'NONE',  ( -0.4436993037107978000, 0.09999999999999999200, -0.1821515230972251000 ) ) ;
#367 = VECTOR ( 'NONE', #410, 1000.000000000000000 ) ;
#368 = VERTEX_POINT ( 'NONE', #653 ) ;
#369 = AXIS2_PLACEMENT_3D ( 'NONE', #184, #638, #722 ) ;
#370 = CARTESIAN_POINT ( 'NONE',  ( 0.1594308943007243200, 4.941727208185700000E-015, 0.5674816519718547400 ) ) ;
#371 = ORIENTED_EDGE ( 'NONE', *, *, #116, .T. ) ;
#372 = DIRECTION ( 'NONE',  ( 0.0000000000000000000, 0.0000000000000000000, 1.000000000000000000 ) ) ;
#373 = PERSON_AND_ORGANIZATION ( #667, #607 ) ;
#374 = CARTESIAN_POINT ( 'NONE',  ( 0.5177006990702695000, 0.0000000000000000000, -0.2891681167839971200 ) ) ;
#375 = ADVANCED_FACE ( 'NONE', ( #385 ), #92, .T. ) ;
#376 = CYLINDRICAL_SURFACE ( 'NONE', #235, 0.4999999999999995600 ) ;
#377 = CARTESIAN_POINT ( 'NONE',  ( 0.2109526394700677300, -1.671102282850256300E-015, -0.5361005523978171800 ) ) ;
#378 = PRODUCT_DEFINITION_FORMATION_WITH_SPECIFIED_SOURCE ( '任何', '', #95, .NOT_KNOWN. ) ;
#379 = FACE_OUTER_BOUND ( 'NONE', #850, .T. ) ;
#380 = EDGE_LOOP ( 'NONE', ( #974 ) ) ;
#381 = VERTEX_POINT ( 'NONE', #207 ) ;
#382 = ORIENTED_EDGE ( 'NONE', *, *, #674, .F. ) ;
#383 = APPROVAL_PERSON_ORGANIZATION ( #556, #619, #967 ) ;
#384 = EDGE_CURVE ( 'NONE', #171, #701, #908, .T. ) ;
#385 = FACE_OUTER_BOUND ( 'NONE', #856, .T. ) ;
#386 = ORIENTED_EDGE ( 'NONE', *, *, #3, .F. ) ;
#387 = ORIENTED_EDGE ( 'NONE', *, *, #85, .T. ) ;
#388 = EDGE_CURVE ( 'NONE', #893, #943, #869, .T. ) ;
#389 =( GEOMETRIC_REPRESENTATION_CONTEXT ( 3 ) GLOBAL_UNCERTAINTY_ASSIGNED_CONTEXT ( ( #786 ) ) GLOBAL_UNIT_ASSIGNED_CONTEXT ( ( #247, #16, #481 ) ) REPRESENTATION_CONTEXT ( 'NONE', 'WORKASPACE' ) );
#390 = PERSON_AND_ORGANIZATION ( #667, #607 ) ;
#391 = VECTOR ( 'NONE', #956, 1000.000000000000000 ) ;
#392 = AXIS2_PLACEMENT_3D ( 'NONE', #291, #452, #372 ) ;
#393 = FACE_OUTER_BOUND ( 'NONE', #163, .T. ) ;
#394 = EDGE_LOOP ( 'NONE', ( #147, #750, #991, #709 ) ) ;
#395 = CARTESIAN_POINT ( 'NONE',  ( -0.3155946061091501300, 0.4000000000000015200, -0.4359156933501532900 ) ) ;
#396 = ORIENTED_EDGE ( 'NONE', *, *, #89, .F. ) ;
#397 = ORIENTED_EDGE ( 'NONE', *, *, #857, .T. ) ;
#398 = EDGE_CURVE ( 'NONE', #682, #1001, #216, .T. ) ;
#399 = CARTESIAN_POINT ( 'NONE',  ( 0.3027981476617991900, 0.1000000000000000100, 0.4504395101612522800 ) ) ;
#400 = CARTESIAN_POINT ( 'NONE',  ( -0.9000000000000000200, 0.09999999999999999200, -0.5999999999999997600 ) ) ;
#401 = DIRECTION ( 'NONE',  ( -1.000000000000000000, 0.0000000000000000000, 0.0000000000000000000 ) ) ;
#402 = CARTESIAN_POINT ( 'NONE',  ( 0.009667648867102925100, 0.3000000000000000400, -0.6021502106670692000 ) ) ;
#403 = CARTESIAN_POINT ( 'NONE',  ( 0.8999999999999999100, 0.3000000000000000400, -0.6000000000000000900 ) ) ;
#404 = CARTESIAN_POINT ( 'NONE',  ( 0.4500693529659459700, 0.1000000000000000500, 0.1378693261343265100 ) ) ;
#405 = VECTOR ( 'NONE', #401, 1000.000000000000000 ) ;
#406 = DIRECTION ( 'NONE',  ( -7.228014483236697500E-016, 0.0000000000000000000, -1.000000000000000000 ) ) ;
#407 = ORIENTED_EDGE ( 'NONE', *, *, #540, .F. ) ;
#408 = DIRECTION ( 'NONE',  ( 1.000000000000000000, 0.0000000000000000000, -7.228014483236695600E-016 ) ) ;
#409 = CARTESIAN_POINT ( 'NONE',  ( 0.3243387068192539200, 0.4000000000000000200, -0.2239276130104917400 ) ) ;
#410 = DIRECTION ( 'NONE',  ( 0.0000000000000000000, 0.0000000000000000000, -1.000000000000000000 ) ) ;
#411 = ORIENTED_EDGE ( 'NONE', *, *, #838, .F. ) ;
#412 = DIRECTION ( 'NONE',  ( 1.000000000000000000, 0.0000000000000000000, 2.797941090285172600E-016 ) ) ;
#413 = CARTESIAN_POINT ( 'NONE',  ( 0.4018491029080081300, 0.3999999999999939200, -0.3113147134195026200 ) ) ;
#414 = EDGE_CURVE ( 'NONE', #483, #483, #463, .T. ) ;
#415 = DIRECTION ( 'NONE',  ( 1.000000000000000000, -0.0000000000000000000, -0.0000000000000000000 ) ) ;
#416 = DIRECTION ( 'NONE',  ( 1.000000000000000000, 0.0000000000000000000, -9.326470300950576100E-017 ) ) ;
#417 = CARTESIAN_POINT ( 'NONE',  ( -0.4499276687602124500, 0.3000000000000001600, -0.1377993483704391100 ) ) ;
#418 = DIRECTION ( 'NONE',  ( -1.000000000000000000, -0.0000000000000000000, -0.0000000000000000000 ) ) ;
#419 = CIRCLE ( 'NONE', #929, 0.4999999999999995600 ) ;
#420 = DIRECTION ( 'NONE',  ( 0.0000000000000000000, 0.0000000000000000000, 1.000000000000000000 ) ) ;
#421 = CARTESIAN_POINT ( 'NONE',  ( 0.4375369892084774400, 0.3999999999999999700, 0.1992331868746614600 ) ) ;
#422 = DIRECTION ( 'NONE',  ( -9.326470300950576100E-017, 0.0000000000000000000, -1.000000000000000000 ) ) ;
#423 = CARTESIAN_POINT ( 'NONE',  ( -4.599999999999999600, -0.2999999999999999900, -4.649999999999997700 ) ) ;
#424 = ADVANCED_FACE ( 'NONE', ( #198 ), #180, .T. ) ;
#425 = EDGE_CURVE ( 'NONE', #701, #776, #955, .T. ) ;
#426 = CARTESIAN_POINT ( 'NONE',  ( -2.199999999999999700, -0.2999999999999999900, -4.349999999999999600 ) ) ;
#427 = CARTESIAN_POINT ( 'NONE',  ( 0.4570136728309589500, 0.3000000000000000400, 0.07001761192471869800 ) ) ;
#428 = CARTESIAN_POINT ( 'NONE',  ( 2.200000000000001500, -0.2999999999999999900, -4.349999999999998800 ) ) ;
#429 = VECTOR ( 'NONE', #145, 1000.000000000000000 ) ;
#430 = CARTESIAN_POINT ( 'NONE',  ( -0.1386073316758753300, 0.3000000000000001000, 0.5772568776035239500 ) ) ;
#431 = ORIENTED_EDGE ( 'NONE', *, *, #15, .T. ) ;
#432 = EDGE_LOOP ( 'NONE', ( #237, #227, #80, #295 ) ) ;
#433 = CARTESIAN_POINT ( 'NONE',  ( -0.09068627512471680300, 0.3999999999999999700, 0.5956740998505233300 ) ) ;
#434 = CARTESIAN_POINT ( 'NONE',  ( -0.03771634453288879400, -1.355252715606880500E-017, -0.6036783895476761600 ) ) ;
#435 = SECURITY_CLASSIFICATION_LEVEL ( 'unclassified' ) ;
#436 = CARTESIAN_POINT ( 'NONE',  ( -0.3499454135258168200, 0.4000000000000000800, -0.1116441040970043200 ) ) ;
#437 = CARTESIAN_POINT ( 'NONE',  ( 4.600000000000001400, -0.2999999999999999900, -4.649999999999996800 ) ) ;
#438 = PERSON_AND_ORGANIZATION_ROLE ( 'creator' ) ;
#439 = CARTESIAN_POINT ( 'NONE',  ( 0.3028678158940686400, 0.3000000000000000400, 0.4502812528757681500 ) ) ;
#440 = CARTESIAN_POINT ( 'NONE',  ( -0.08322893873932421500, -2.256949153578792000E-033, 0.7000000000000001800 ) ) ;
#441 = CARTESIAN_POINT ( 'NONE',  ( 0.0000000000000000000, -0.2999999999999999900, 4.350000000000002300 ) ) ;
#442 = CARTESIAN_POINT ( 'NONE',  ( -0.2056136613184021700, -1.355252715606880500E-017, -0.6577275607851988900 ) ) ;
#443 = CARTESIAN_POINT ( 'NONE',  ( 0.3054806079666091400, -1.355252715606880200E-017, 0.5915181457872703600 ) ) ;
#444 = EDGE_CURVE ( 'NONE', #84, #775, #446, .T. ) ;
#445 = CARTESIAN_POINT ( 'NONE',  ( -0.2175802685237178100, -1.641428015698698500E-015, -0.5313240323071214400 ) ) ;
#446 = LINE ( 'NONE', #836, #799 ) ;
#447 = CARTESIAN_POINT ( 'NONE',  ( -0.5389111503221840600, -1.355252715606880500E-017, -0.1635667741805459700 ) ) ;
#448 = ORIENTED_EDGE ( 'NONE', *, *, #796, .F. ) ;
#449 = ORIENTED_EDGE ( 'NONE', *, *, #384, .F. ) ;
#450 = CARTESIAN_POINT ( 'NONE',  ( -0.3148377396902395900, 0.09999999999999999200, -0.4361754299481329600 ) ) ;
#451 = EDGE_CURVE ( 'NONE', #286, #286, #683, .T. ) ;
#452 = DIRECTION ( 'NONE',  ( 1.000000000000000000, 0.0000000000000000000, 2.797941090285172600E-016 ) ) ;
#453 = CARTESIAN_POINT ( 'NONE',  ( 0.2109526505796394100, 0.09999999999999999200, -0.5361005641453529000 ) ) ;
#454 = CARTESIAN_POINT ( 'NONE',  ( -5.000000000000000900, 0.0000000000000000000, -5.949999999999997500 ) ) ;
#455 =( BOUNDED_SURFACE ( )  B_SPLINE_SURFACE ( 3, 2, ( 
 ( #987, #828, #213 ),
 ( #355, #204, #835 ),
 ( #509, #267, #195 ),
 ( #54, #759, #594 ),
 ( #981, #678, #349 ),
 ( #506, #753, #276 ),
 ( #285, #48, #599 ),
 ( #900, #831, #283 ),
 ( #364, #66, #366 ),
 ( #911, #140, #359 ),
 ( #907, #515, #450 ),
 ( #586, #445, #523 ),
 ( #442, #58, #984 ),
 ( #519, #434, #215 ),
 ( #763, #765, #609 ),
 ( #534, #222, #768 ),
 ( #605, #377, #453 ),
 ( #292, #927, #846 ),
 ( #374, #689, #289 ),
 ( #992, #923, #153 ),
 ( #150, #456, #526 ),
 ( #68, #998, #692 ),
 ( #997, #531, #460 ),
 ( #75, #611, #71 ),
 ( #687, #370, #918 ),
 ( #223, #771, #143 ) ),
 .UNSPECIFIED., .T., .F., .F. ) 
 B_SPLINE_SURFACE_WITH_KNOTS ( ( 4, 2, 2, 2, 2, 2, 2, 2, 2, 2, 2, 2, 4 ),
 ( 3, 3 ),
 ( 0.0000000000000000000, 0.0002449251630802147000, 0.0004898503261604294000, 0.0009797006523208588000, 0.001469550978481288200, 0.001714476141561502900, 0.001959401304641717600, 0.002204326467721932300, 0.002449251630802147000, 0.002939101956962576400, 0.003428952283123005800, 0.003673877446203220500, 0.003918802609283435200 ),
 ( 0.0000000000000000000, 1.000000000000000000 ),
 .UNSPECIFIED. ) 
 GEOMETRIC_REPRESENTATION_ITEM ( )  RATIONAL_B_SPLINE_SURFACE ( (
 ( 1.000000000000000000, 0.7071067811865471300, 1.000000000000000000),
 ( 1.000000000000000000, 0.7071067811865471300, 1.000000000000000000),
 ( 1.000000000000000000, 0.7071067811865475700, 1.000000000000000000),
 ( 1.000000000000000000, 0.7071067811865475700, 1.000000000000000000),
 ( 1.000000000000000000, 0.7071067811865475700, 1.000000000000000000),
 ( 1.000000000000000000, 0.7071067811865475700, 1.000000000000000000),
 ( 1.000000000000000000, 0.7071067811865475700, 1.000000000000000000),
 ( 1.000000000000000000, 0.7071067811865475700, 1.000000000000000000),
 ( 1.000000000000000000, 0.7071067811865475700, 1.000000000000000000),
 ( 1.000000000000000000, 0.7071067811865475700, 1.000000000000000000),
 ( 1.000000000000000000, 0.7071067811865476800, 1.000000000000000000),
 ( 1.000000000000000000, 0.7071067811865476800, 1.000000000000000000),
 ( 1.000000000000000000, 0.7071067811865475700, 1.000000000000000000),
 ( 1.000000000000000000, 0.7071067811865475700, 1.000000000000000000),
 ( 1.000000000000000000, 0.7071067811865475700, 1.000000000000000000),
 ( 1.000000000000000000, 0.7071067811865475700, 1.000000000000000000),
 ( 1.000000000000000000, 0.7071067811865475700, 1.000000000000000000),
 ( 1.000000000000000000, 0.7071067811865475700, 1.000000000000000000),
 ( 1.000000000000000000, 0.7071067811865475700, 1.000000000000000000),
 ( 1.000000000000000000, 0.7071067811865475700, 1.000000000000000000),
 ( 1.000000000000000000, 0.7071067811865472400, 1.000000000000000000),
 ( 1.000000000000000000, 0.7071067811865472400, 1.000000000000000000),
 ( 1.000000000000000000, 0.7071067811865475700, 1.000000000000000000),
 ( 1.000000000000000000, 0.7071067811865475700, 1.000000000000000000),
 ( 1.000000000000000000, 0.7071067811865471300, 1.000000000000000000),
 ( 1.000000000000000000, 0.7071067811865471300, 1.000000000000000000) ) ) 
 REPRESENTATION_ITEM ( '' )  SURFACE ( )  );
#456 = CARTESIAN_POINT ( 'NONE',  ( 0.4431919263430022000, -4.514527139295571800E-015, 0.1836365755433821400 ) ) ;
#457 = CYLINDRICAL_SURFACE ( 'NONE', #698, 0.4999999999999995600 ) ;
#458 = ORIENTED_EDGE ( 'NONE', *, *, #116, .F. ) ;
#459 = AXIS2_PLACEMENT_3D ( 'NONE', #126, #193, #185 ) ;
#460 = CARTESIAN_POINT ( 'NONE',  ( 0.3142154077840222400, 0.09999999999999999200, 0.4369510148416870200 ) ) ;
#461 = ORIENTED_EDGE ( 'NONE', *, *, #471, .F. ) ;
#462 = ADVANCED_FACE ( 'NONE', ( #393 ), #166, .F. ) ;
#463 = B_SPLINE_CURVE_WITH_KNOTS ( 'NONE', 3,
 ( #137, #600, #517, #443, #511, #60, #211, #596, #214, #361, #761, #284, #278, #756, #985, #983, #365, #287, #912, #447, #909, #64, #684, #842, #522, #603, #440, #135 ),
 .UNSPECIFIED., .T., .F.,
 ( 4, 2, 2, 2, 2, 2, 2, 2, 2, 2, 2, 2, 2, 4 ),
 ( 0.0000000000000000000, 0.0002470882113479948900, 0.0004941764226959897900, 0.0009883528453919795800, 0.001482529268087969600, 0.001729617479435964200, 0.001976705690783958700, 0.002223793902131953700, 0.002470882113479948300, 0.002717970324827943300, 0.002965058536175938300, 0.003459234958871927900, 0.003706323170219922400, 0.003953411381567917400 ),
 .UNSPECIFIED. ) ;
#464 = FACE_OUTER_BOUND ( 'NONE', #567, .T. ) ;
#465 = ORIENTED_EDGE ( 'NONE', *, *, #451, .F. ) ;
#466 = CC_DESIGN_PERSON_AND_ORGANIZATION_ASSIGNMENT ( #138, #438, ( #378 ) ) ;
#467 = LINE ( 'NONE', #441, #964 ) ;
#468 = CIRCLE ( 'NONE', #219, 0.4999999999999995600 ) ;
#469 = VERTEX_POINT ( 'NONE', #239 ) ;
#470 = ORIENTED_EDGE ( 'NONE', *, *, #149, .T. ) ;
#471 = EDGE_CURVE ( 'NONE', #775, #751, #1, .T. ) ;
#472 = CARTESIAN_POINT ( 'NONE',  ( -5.500000000000000000, 9.500000000000000000, 5.450000000000002000 ) ) ;
#473 = CARTESIAN_POINT ( 'NONE',  ( 0.2531057030247242900, 0.09999999999999997800, -0.5035489160493978900 ) ) ;
#474 = CARTESIAN_POINT ( 'NONE',  ( 0.0000000000000000000, 0.3000000000000000400, 0.5999999999999999800 ) ) ;
#475 = LINE ( 'NONE', #530, #429 ) ;
#476 = CARTESIAN_POINT ( 'NONE',  ( -3.144186300207963300E-015, -0.2999999999999999900, -4.350000000000001400 ) ) ;
#477 = ORIENTED_EDGE ( 'NONE', *, *, #202, .T. ) ;
#478 = EDGE_LOOP ( 'NONE', ( #11, #308, #382, #945 ) ) ;
#479 = CARTESIAN_POINT ( 'NONE',  ( 0.1256765934924329600, 0.4000000000000015200, -0.5781306171639669600 ) ) ;
#480 = EDGE_CURVE ( 'NONE', #261, #8, #774, .T. ) ;
#481 =( NAMED_UNIT ( * ) SI_UNIT ( $, .STERADIAN. ) SOLID_ANGLE_UNIT ( ) );
#482 = DIRECTION ( 'NONE',  ( -2.797941090285172600E-016, 0.0000000000000000000, 1.000000000000000000 ) ) ;
#483 = VERTEX_POINT ( 'NONE', #721 ) ;
#484 = CARTESIAN_POINT ( 'NONE',  ( -0.2134222907218528700, 0.3000000000000000400, -0.5348950637716770600 ) ) ;
#485 = CARTESIAN_POINT ( 'NONE',  ( -0.8999999999999999100, 0.3000000000000000400, 0.5999999999999999800 ) ) ;
#486 = CARTESIAN_POINT ( 'NONE',  ( -0.2389398534700779000, 0.4000000000000000800, 0.3685665171848195900 ) ) ;
#487 = CARTESIAN_POINT ( 'NONE',  ( 5.499999999999999100, 9.500000000000000000, 5.450000000000002000 ) ) ;
#488 = EDGE_CURVE ( 'NONE', #943, #615, #999, .T. ) ;
#489 = CARTESIAN_POINT ( 'NONE',  ( -0.4570873680063026700, 0.3000000000000000400, -0.07083300020883304100 ) ) ;
#490 = CARTESIAN_POINT ( 'NONE',  ( 0.0000000000000000000, 0.09999999999999999200, 0.5999999999999999800 ) ) ;
#491 = CARTESIAN_POINT ( 'NONE',  ( 5.000000000000000000, 9.500000000000000000, -5.449999999999998400 ) ) ;
#492 = VECTOR ( 'NONE', #333, 1000.000000000000000 ) ;
#493 = CARTESIAN_POINT ( 'NONE',  ( -0.03192129810879065100, 0.3999999999999999700, -0.6007434087202248000 ) ) ;
#494 = ADVANCED_FACE ( 'NONE', ( #379 ), #552, .F. ) ;
#495 = ORIENTED_EDGE ( 'NONE', *, *, #545, .F. ) ;
#496 = CARTESIAN_POINT ( 'NONE',  ( -0.1119023946934451100, 0.4000000000000001300, 0.4785161170476502400 ) ) ;
#497 = DIRECTION ( 'NONE',  ( -1.000000000000000000, 0.0000000000000000000, 0.0000000000000000000 ) ) ;
#498 = VERTEX_POINT ( 'NONE', #941 ) ;
#499 = CARTESIAN_POINT ( 'NONE',  ( 0.07058291002504506200, 0.3000000000000000400, 0.5925733752032871200 ) ) ;
#500 = CARTESIAN_POINT ( 'NONE',  ( -3.144186300207963300E-015, 0.0000000000000000000, -4.350000000000001400 ) ) ;
#501 = AXIS2_PLACEMENT_3D ( 'NONE', #872, #176, #482 ) ;
#502 = PERSON_AND_ORGANIZATION_ROLE ( 'design_owner' ) ;
#503 = CARTESIAN_POINT ( 'NONE',  ( -5.000000000000000900, 0.0000000000000000000, 5.450000000000002000 ) ) ;
#504 = DIRECTION ( 'NONE',  ( -9.326470300950576100E-017, -0.0000000000000000000, -1.000000000000000000 ) ) ;
#505 = CIRCLE ( 'NONE', #859, 0.4999999999999995600 ) ;
#506 = CARTESIAN_POINT ( 'NONE',  ( -0.4491941987653805300, -1.355252715606880500E-017, 0.4481304724217468600 ) ) ;
#507 = CARTESIAN_POINT ( 'NONE',  ( 0.05721644857744451200, 0.3999999999999999100, -0.4998911104285501100 ) ) ;
#508 = CARTESIAN_POINT ( 'NONE',  ( 0.0000000000000000000, 0.0000000000000000000, 4.350000000000002300 ) ) ;
#509 = CARTESIAN_POINT ( 'NONE',  ( -0.03880193327540140000, -1.355252715606880500E-017, 0.7057416946828734000 ) ) ;
#510 = CARTESIAN_POINT ( 'NONE',  ( 0.2022851153107836400, 0.4000000000000000200, 0.4125962365447658500 ) ) ;
#511 = CARTESIAN_POINT ( 'NONE',  ( 0.3654941250913544800, -1.355252715606880500E-017, 0.5322314567754535800 ) ) ;
#512 = ORIENTED_EDGE ( 'NONE', *, *, #149, .F. ) ;
#513 = VERTEX_POINT ( 'NONE', #547 ) ;
#514 = DIRECTION ( 'NONE',  ( 0.0000000000000000000, 0.0000000000000000000, -1.000000000000000000 ) ) ;
#515 = CARTESIAN_POINT ( 'NONE',  ( -0.3148377439181625500, 1.695638124322973600E-015, -0.4361754342697630200 ) ) ;
#516 = ORIENTED_EDGE ( 'NONE', *, *, #444, .T. ) ;
#517 = CARTESIAN_POINT ( 'NONE',  ( 0.1645885405655986800, -1.355252715606881200E-017, 0.6755775262776131400 ) ) ;
#518 = LOCAL_TIME ( 4, 17, 48.00000000000000000, #877 ) ;
#519 = CARTESIAN_POINT ( 'NONE',  ( -0.04932889864538171600, -1.355252715606880500E-017, -0.7045957965801628000 ) ) ;
#520 = CC_DESIGN_PERSON_AND_ORGANIZATION_ASSIGNMENT ( #229, #742, ( #378 ) ) ;
#521 = LINE ( 'NONE', #19, #30 ) ;
#522 = CARTESIAN_POINT ( 'NONE',  ( -0.3054577093455158000, -1.355252715606880900E-017, 0.5915401804767729300 ) ) ;
#523 = CARTESIAN_POINT ( 'NONE',  ( -0.2175802727516408200, 0.09999999999999999200, -0.5313240366287514900 ) ) ;
#524 = DIRECTION ( 'NONE',  ( 0.0000000000000000000, 0.0000000000000000000, -1.000000000000000000 ) ) ;
#525 = EDGE_CURVE ( 'NONE', #776, #226, #167, .T. ) ;
#526 = CARTESIAN_POINT ( 'NONE',  ( 0.4431919115846351700, 0.09999999999999999200, 0.1836365687810616300 ) ) ;
#527 = LINE ( 'NONE', #757, #293 ) ;
#528 = ORIENTED_EDGE ( 'NONE', *, *, #559, .F. ) ;
#529 = EDGE_LOOP ( 'NONE', ( #407, #133, #155, #990 ) ) ;
#530 = CARTESIAN_POINT ( 'NONE',  ( 4.600000000000001400, -0.2999999999999999900, -4.349999999999997000 ) ) ;
#531 = CARTESIAN_POINT ( 'NONE',  ( 0.3142154183347687900, -1.355252715606880500E-017, 0.4369510256644612000 ) ) ;
#532 = ADVANCED_FACE ( 'NONE', ( #940 ), #313, .F. ) ;
#533 = LINE ( 'NONE', #32, #311 ) ;
#534 = CARTESIAN_POINT ( 'NONE',  ( 0.1961249693226022100, -1.355252715606880500E-017, -0.6625573809760274500 ) ) ;
#535 = MANIFOLD_SOLID_BREP ( '圆角2', #568 ) ;
#536 = ORIENTED_EDGE ( 'NONE', *, *, #46, .T. ) ;
#537 = VERTEX_POINT ( 'NONE', #277 ) ;
#538 = ORIENTED_EDGE ( 'NONE', *, *, #444, .F. ) ;
#539 = CALENDAR_DATE ( 2024, 1, 4 ) ;
#540 = EDGE_CURVE ( 'NONE', #93, #226, #844, .T. ) ;
#541 = CYLINDRICAL_SURFACE ( 'NONE', #105, 0.2999999999999999300 ) ;
#542 = EDGE_CURVE ( 'NONE', #693, #787, #467, .T. ) ;
#543 = EDGE_LOOP ( 'NONE', ( #516, #448, #781, #73 ) ) ;
#544 = FACE_BOUND ( 'NONE', #922, .T. ) ;
#545 = EDGE_CURVE ( 'NONE', #615, #661, #160, .T. ) ;
#546 = CARTESIAN_POINT ( 'NONE',  ( 2.032879073410320800E-017, 0.09999999999999999200, 0.6000000000000000900 ) ) ;
#547 = CARTESIAN_POINT ( 'NONE',  ( 4.599999999999998800, 0.0000000000000000000, 4.650000000000003000 ) ) ;
#548 = CARTESIAN_POINT ( 'NONE',  ( 0.2546364969713176800, 0.3000000000000001600, -0.5021666949665790600 ) ) ;
#549 = ORIENTED_EDGE ( 'NONE', *, *, #915, .T. ) ;
#550 = EDGE_LOOP ( 'NONE', ( #146, #681, #640, #4 ) ) ;
#551 = EDGE_CURVE ( 'NONE', #261, #612, #88, .T. ) ;
#552 = PLANE ( 'NONE',  #174 ) ;
#553 = ORIENTED_EDGE ( 'NONE', *, *, #309, .F. ) ;
#554 = CARTESIAN_POINT ( 'NONE',  ( -5.000000000000000900, 0.0000000000000000000, 5.950000000000002000 ) ) ;
#555 = PLANE ( 'NONE',  #769 ) ;
#556 = PERSON_AND_ORGANIZATION ( #667, #607 ) ;
#557 = CARTESIAN_POINT ( 'NONE',  ( -0.4153292903833017400, 0.1000000000000000300, -0.2766659510095650900 ) ) ;
#558 = CIRCLE ( 'NONE', #35, 0.2999999999999999300 ) ;
#559 = EDGE_CURVE ( 'NONE', #156, #84, #67, .T. ) ;
#560 = CARTESIAN_POINT ( 'NONE',  ( 0.2269008472923318100, 0.3999999999999969700, -0.5270017760566699800 ) ) ;
#561 = DIRECTION ( 'NONE',  ( 0.0000000000000000000, 1.000000000000000000, 0.0000000000000000000 ) ) ;
#562 = CARTESIAN_POINT ( 'NONE',  ( -0.06985145105868241500, 0.09999999999999997800, 0.5999999999999999800 ) ) ;
#563 = CARTESIAN_POINT ( 'NONE',  ( -2.199999999999999700, -0.0000000000000000000, -4.649999999999999500 ) ) ;
#564 = CARTESIAN_POINT ( 'NONE',  ( -4.599999999999998800, -0.2999999999999999900, 4.350000000000003200 ) ) ;
#565 = DIRECTION ( 'NONE',  ( 0.0000000000000000000, 1.000000000000000000, -0.0000000000000000000 ) ) ;
#566 = VECTOR ( 'NONE', #148, 1000.000000000000000 ) ;
#567 = EDGE_LOOP ( 'NONE', ( #41, #431, #44, #931 ) ) ;
#568 = CLOSED_SHELL ( 'NONE', ( #919, #296, #224, #671, #494, #37, #532, #300, #737, #822, #352, #152, #299, #462, #930, #69, #375, #772, #424, #49, #926, #344, #745, #849 ) ) ;
#569 = CARTESIAN_POINT ( 'NONE',  ( -0.3061092585929836600, 0.4000000000000000200, 0.2727078795125576500 ) ) ;
#570 = CARTESIAN_POINT ( 'NONE',  ( 0.2269007597902388500, 0.3000000000000000400, -0.5270016028222024300 ) ) ;
#571 = AXIS2_PLACEMENT_3D ( 'NONE', #241, #789, #712 ) ;
#572 = CARTESIAN_POINT ( 'NONE',  ( -4.599999999999999600, -0.2999999999999999900, -4.349999999999997900 ) ) ;
#573 = CARTESIAN_POINT ( 'NONE',  ( -0.3244293232323592900, 0.4000000000000001300, -0.2241506439213010500 ) ) ;
#574 = CARTESIAN_POINT ( 'NONE',  ( -0.3021533220698959800, 0.3000000000000001000, -0.4511912265298566000 ) ) ;
#575 = FACE_OUTER_BOUND ( 'NONE', #302, .T. ) ;
#576 = CARTESIAN_POINT ( 'NONE',  ( 0.3528652550762547700, 0.3000000000000000400, 0.3790108803175067400 ) ) ;
#577 = CARTESIAN_POINT ( 'NONE',  ( -5.000000000000000900, 9.500000000000000000, -5.949999999999997500 ) ) ;
#578 = CARTESIAN_POINT ( 'NONE',  ( -4.599999999999998800, 0.0000000000000000000, 4.350000000000002300 ) ) ;
#579 = CARTESIAN_POINT ( 'NONE',  ( -0.4151535595241753200, 0.2999999999999998200, 0.2772531351540795700 ) ) ;
#580 = DIRECTION ( 'NONE',  ( -0.0000000000000000000, -1.000000000000000000, -0.0000000000000000000 ) ) ;
#581 = CARTESIAN_POINT ( 'NONE',  ( 5.500000000000000000, 0.0000000000000000000, -5.449999999999998400 ) ) ;
#582 = APPROVAL_STATUS ( 'not_yet_approved' ) ;
#583 = CARTESIAN_POINT ( 'NONE',  ( -0.3241785151322175700, 0.4000000000000001300, 0.2243494489762692700 ) ) ;
#584 = VECTOR ( 'NONE', #785, 1000.000000000000000 ) ;
#585 = CARTESIAN_POINT ( 'NONE',  ( -0.4010349386045018400, 0.3999999999999999700, 0.3125855311367918300 ) ) ;
#586 = CARTESIAN_POINT ( 'NONE',  ( -0.2774704126588388200, -1.355252715606880500E-017, -0.6126290043036442000 ) ) ;
#587 = ORIENTED_EDGE ( 'NONE', *, *, #808, .F. ) ;
#588 = PERSON_AND_ORGANIZATION_ROLE ( 'creator' ) ;
#589 = CARTESIAN_POINT ( 'NONE',  ( 5.000000000000000000, 0.0000000000000000000, 5.950000000000002000 ) ) ;
#590 = DIRECTION ( 'NONE',  ( 0.0000000000000000000, 0.0000000000000000000, 1.000000000000000000 ) ) ;
#591 = ORIENTED_EDGE ( 'NONE', *, *, #142, .T. ) ;
#592 = ORIENTED_EDGE ( 'NONE', *, *, #297, .F. ) ;
#593 = CARTESIAN_POINT ( 'NONE',  ( -5.500000000000000900, 9.500000000000000000, 5.450000000000002000 ) ) ;
#594 = CARTESIAN_POINT ( 'NONE',  ( -0.1527607580991802700, 0.09999999999999999200, 0.5705639259338839400 ) ) ;
#595 = CARTESIAN_POINT ( 'NONE',  ( 0.06995644395462034800, 0.3000000000000000400, 0.5999999999999999800 ) ) ;
#596 = CARTESIAN_POINT ( 'NONE',  ( 0.5499474688746941500, -1.355252715606880500E-017, -0.1647932826918185600 ) ) ;
#597 = LOCAL_TIME ( 4, 17, 48.00000000000000000, #713 ) ;
#598 = CARTESIAN_POINT ( 'NONE',  ( 5.499999999999999100, 9.500000000000000000, 5.450000000000002000 ) ) ;
#599 = CARTESIAN_POINT ( 'NONE',  ( -0.4214434779724270900, 0.09999999999999999200, 0.2561343740618417500 ) ) ;
#600 = CARTESIAN_POINT ( 'NONE',  ( 0.08322893873932435400, -4.012354050806743900E-033, 0.6999999999999999600 ) ) ;
#601 = AXIS2_PLACEMENT_3D ( 'NONE', #578, #107, #192 ) ;
#602 = DIRECTION ( 'NONE',  ( 0.0000000000000000000, 1.000000000000000000, -0.0000000000000000000 ) ) ;
#603 = CARTESIAN_POINT ( 'NONE',  ( -0.1645353623787374800, -1.355252715606880500E-017, 0.6756008762037050100 ) ) ;
#604 = EDGE_LOOP ( 'NONE', ( #801 ) ) ;
#605 = CARTESIAN_POINT ( 'NONE',  ( 0.2693211897236588700, 0.0000000000000000000, -0.6185366644386393100 ) ) ;
#606 = CARTESIAN_POINT ( 'NONE',  ( 0.0000000000000000000, 0.0000000000000000000, 4.350000000000003200 ) ) ;
#607 = ORGANIZATION ( '未指定', '未指定', '' ) ;
#608 = VECTOR ( 'NONE', #840, 1000.000000000000000 ) ;
#609 = CARTESIAN_POINT ( 'NONE',  ( 0.02833842477970431600, 0.09999999999999999200, -0.6047172111958424300 ) ) ;
#610 = EDGE_CURVE ( 'NONE', #513, #701, #558, .T. ) ;
#611 = CARTESIAN_POINT ( 'NONE',  ( 0.2169793314185546900, -1.355252715606880500E-017, 0.5317430669360450100 ) ) ;
#612 = VERTEX_POINT ( 'NONE', #906 ) ;
#613 = ADVANCED_BREP_SHAPE_REPRESENTATION ( 'TUP1010W产品图', ( #535, #310 ), #389 ) ;
#614 = ORIENTED_EDGE ( 'NONE', *, *, #309, .T. ) ;
#615 = VERTEX_POINT ( 'NONE', #426 ) ;
#616 = EDGE_CURVE ( 'NONE', #368, #307, #5, .T. ) ;
#617 = EDGE_CURVE ( 'NONE', #368, #261, #139, .T. ) ;
#618 = VECTOR ( 'NONE', #646, 1000.000000000000000 ) ;
#619 = APPROVAL ( #582, '未指定' ) ;
#620 = ORIENTED_EDGE ( 'NONE', *, *, #202, .F. ) ;
#621 = EDGE_LOOP ( 'NONE', ( #729, #767, #314, #74 ) ) ;
#622 = APPROVAL_DATE_TIME ( #852, #652 ) ;
#623 = VECTOR ( 'NONE', #641, 1000.000000000000000 ) ;
#624 = AXIS2_PLACEMENT_3D ( 'NONE', #178, #416, #422 ) ;
#625 = CIRCLE ( 'NONE', #601, 0.2999999999999999300 ) ;
#626 = ORIENTED_EDGE ( 'NONE', *, *, #288, .F. ) ;
#627 = DIRECTION ( 'NONE',  ( 0.0000000000000000000, 0.0000000000000000000, -1.000000000000000000 ) ) ;
#628 = ORIENTED_EDGE ( 'NONE', *, *, #154, .F. ) ;
#629 = CARTESIAN_POINT ( 'NONE',  ( -0.3155944983093387800, 0.3000000000000000400, -0.4359155820731036000 ) ) ;
#630 = LOCAL_TIME ( 4, 17, 48.00000000000000000, #685 ) ;
#631 = CC_DESIGN_DATE_AND_TIME_ASSIGNMENT ( #12, #825, ( #96 ) ) ;
#632 = CARTESIAN_POINT ( 'NONE',  ( 0.06206382763931402000, 0.4000000000000000200, -0.4934822533291817700 ) ) ;
#633 = DIRECTION ( 'NONE',  ( -0.0000000000000000000, -1.000000000000000000, -0.0000000000000000000 ) ) ;
#634 = CARTESIAN_POINT ( 'NONE',  ( -0.3033585601478396800, 0.09999999999999996400, -0.4496659415079051800 ) ) ;
#635 = LINE ( 'NONE', #654, #162 ) ;
#636 = CARTESIAN_POINT ( 'NONE',  ( 0.08928480214926010100, 0.4000000000000000200, -0.4844796894953087900 ) ) ;
#637 = EDGE_LOOP ( 'NONE', ( #696, #549, #495, #114 ) ) ;
#638 = DIRECTION ( 'NONE',  ( -1.000000000000000000, 0.0000000000000000000, 0.0000000000000000000 ) ) ;
#639 = CARTESIAN_POINT ( 'NONE',  ( -0.4500644654550764500, 0.1000000000000000100, -0.1377161312250801100 ) ) ;
#640 = ORIENTED_EDGE ( 'NONE', *, *, #480, .F. ) ;
#641 = DIRECTION ( 'NONE',  ( -0.0000000000000000000, -0.0000000000000000000, 1.000000000000000000 ) ) ;
#642 = CARTESIAN_POINT ( 'NONE',  ( -0.1474841518279859700, 0.3999999999999999700, -0.5763225739475949000 ) ) ;
#643 = PLANE ( 'NONE',  #624 ) ;
#644 = APPROVAL_PERSON_ORGANIZATION ( #362, #652, #196 ) ;
#645 = DIRECTION ( 'NONE',  ( 0.0000000000000000000, -0.0000000000000000000, 1.000000000000000000 ) ) ;
#646 = DIRECTION ( 'NONE',  ( 1.000000000000000000, 0.0000000000000000000, 0.0000000000000000000 ) ) ;
#647 = VECTOR ( 'NONE', #408, 1000.000000000000000 ) ;
#648 = CARTESIAN_POINT ( 'NONE',  ( -0.4372603573758258000, 0.3999999999999999700, -0.1998114116053992800 ) ) ;
#649 = CARTESIAN_POINT ( 'NONE',  ( 0.1485844086997545900, 0.3999999999999999700, 0.5760562561593548500 ) ) ;
#650 = CARTESIAN_POINT ( 'NONE',  ( -4.599999999999999600, -0.0000000000000000000, -4.649999999999997700 ) ) ;
#651 = CARTESIAN_POINT ( 'NONE',  ( -0.2017117506111117100, 0.3999999999999999700, -0.4131584611671138000 ) ) ;
#652 = APPROVAL ( #817, '未指定' ) ;
#653 = CARTESIAN_POINT ( 'NONE',  ( -5.500000000000000000, 9.500000000000000000, -5.449999999999998400 ) ) ;
#654 = CARTESIAN_POINT ( 'NONE',  ( -4.599999999999998800, 0.0000000000000000000, 4.650000000000002100 ) ) ;
#655 = DIRECTION ( 'NONE',  ( -1.000000000000000000, -0.0000000000000000000, -1.865294060190114700E-016 ) ) ;
#656 = CARTESIAN_POINT ( 'NONE',  ( -0.2134221829220415400, 0.3999999999999985200, -0.5348949524946272600 ) ) ;
#657 = CARTESIAN_POINT ( 'NONE',  ( 0.0000000000000000000, 0.09999999999999999200, 0.5999999999999999800 ) ) ;
#658 = DIRECTION ( 'NONE',  ( 0.0000000000000000000, 0.0000000000000000000, -1.000000000000000000 ) ) ;
#659 = VECTOR ( 'NONE', #748, 1000.000000000000000 ) ;
#660 = CARTESIAN_POINT ( 'NONE',  ( 0.0000000000000000000, -0.2999999999999999900, 0.0000000000000000000 ) ) ;
#661 = VERTEX_POINT ( 'NONE', #563 ) ;
#662 = ORIENTED_EDGE ( 'NONE', *, *, #398, .F. ) ;
#663 = CARTESIAN_POINT ( 'NONE',  ( -5.000000000000000900, 0.0000000000000000000, -5.449999999999998400 ) ) ;
#664 = AXIS2_PLACEMENT_3D ( 'NONE', #960, #497, #673 ) ;
#665 = MECHANICAL_CONTEXT ( 'NONE', #262, 'mechanical' ) ;
#666 = DIRECTION ( 'NONE',  ( 0.0000000000000000000, 0.0000000000000000000, -1.000000000000000000 ) ) ;
#667 = PERSON ( '未指定', '未指定', '未指定', ('未指定'), ('未指定'), ('未指定') ) ;
#668 = CARTESIAN_POINT ( 'NONE',  ( -2.199999999999999700, -0.0000000000000000000, -4.649999999999999500 ) ) ;
#669 = CARTESIAN_POINT ( 'NONE',  ( -0.3402651471624866800, 0.4000000000000000200, 0.1613297682769965800 ) ) ;
#670 = DIRECTION ( 'NONE',  ( 0.0000000000000000000, -0.0000000000000000000, 1.000000000000000000 ) ) ;
#671 = ADVANCED_FACE ( 'NONE', ( #342 ), #376, .T. ) ;
#672 = CARTESIAN_POINT ( 'NONE',  ( 0.05678833074412256000, 0.4000000000000001300, 0.5000000000000001100 ) ) ;
#673 = DIRECTION ( 'NONE',  ( 0.0000000000000000000, 0.0000000000000000000, 1.000000000000000000 ) ) ;
#674 = EDGE_CURVE ( 'NONE', #776, #469, #899, .T. ) ;
#675 = DIRECTION ( 'NONE',  ( -1.000000000000000000, -0.0000000000000000000, -1.865294060190114700E-016 ) ) ;
#676 = CARTESIAN_POINT ( 'NONE',  ( 0.4499853325463290500, 0.3000000000000000400, -0.1379218280657864600 ) ) ;
#677 = DIRECTION ( 'NONE',  ( -1.000000000000000000, 0.0000000000000000000, 0.0000000000000000000 ) ) ;
#678 = CARTESIAN_POINT ( 'NONE',  ( -0.2113459675838559900, 1.103211625146107200E-015, 0.5358523867684300600 ) ) ;
#679 = VECTOR ( 'NONE', #347, 1000.000000000000000 ) ;
#680 = CARTESIAN_POINT ( 'NONE',  ( -4.599999999999999600, 0.0000000000000000000, -4.349999999999997900 ) ) ;
#681 = ORIENTED_EDGE ( 'NONE', *, *, #23, .F. ) ;
#682 = VERTEX_POINT ( 'NONE', #348 ) ;
#683 = B_SPLINE_CURVE_WITH_KNOTS ( 'NONE', 3,
 ( #324, #562, #864, #868, #90, #948, #944, #639, #557, #634, #708, #704, #97, #87, #179, #473, #13, #91, #6, #404, #942, #399, #705, #718, #879, #546 ),
 .UNSPECIFIED., .T., .F.,
 ( 4, 2, 2, 2, 2, 2, 2, 2, 2, 2, 2, 2, 4 ),
 ( 0.0000000000000000000, 0.0002093788331419361400, 0.0004187576662838722700, 0.0008375153325677447700, 0.001256272998851617200, 0.001465651831993553600, 0.001675030665135490000, 0.001884409498277426100, 0.002093788331419362100, 0.002512545997703234400, 0.002931303663987106700, 0.003140682497129042900, 0.003350061330270979100 ),
 .UNSPECIFIED. ) ;
#684 = CARTESIAN_POINT ( 'NONE',  ( -0.5064983427958774700, -1.355252715606880900E-017, 0.3290688754496310900 ) ) ;
#685 = COORDINATED_UNIVERSAL_TIME_OFFSET ( 8, 0, .AHEAD. ) ;
#686 = VECTOR ( 'NONE', #752, 1000.000000000000000 ) ;
#687 = CARTESIAN_POINT ( 'NONE',  ( 0.2052010758140911700, -1.355252715606880500E-017, 0.6582410033538789200 ) ) ;
#688 = AXIS2_PLACEMENT_3D ( 'NONE', #244, #794, #627 ) ;
#689 = CARTESIAN_POINT ( 'NONE',  ( 0.4213541260924870100, 0.0000000000000000000, -0.2565630842021307500 ) ) ;
#690 = CIRCLE ( 'NONE', #305, 0.4999999999999995600 ) ;
#691 = ORIENTED_EDGE ( 'NONE', *, *, #542, .F. ) ;
#692 = CARTESIAN_POINT ( 'NONE',  ( 0.3544139904471417800, 0.09999999999999999200, 0.3773891643202880700 ) ) ;
#693 = VERTEX_POINT ( 'NONE', #103 ) ;
#694 = CYLINDRICAL_SURFACE ( 'NONE', #878, 0.2999999999999999300 ) ;
#695 = LINE ( 'NONE', #332, #679 ) ;
#696 = ORIENTED_EDGE ( 'NONE', *, *, #388, .F. ) ;
#697 = ORIENTED_EDGE ( 'NONE', *, *, #181, .T. ) ;
#698 = AXIS2_PLACEMENT_3D ( 'NONE', #815, #257, #351 ) ;
#699 = EDGE_CURVE ( 'NONE', #93, #381, #165, .T. ) ;
#700 = FACE_OUTER_BOUND ( 'NONE', #782, .T. ) ;
#701 = VERTEX_POINT ( 'NONE', #272 ) ;
#702 = ORIENTED_EDGE ( 'NONE', *, *, #78, .F. ) ;
#703 = FACE_OUTER_BOUND ( 'NONE', #136, .T. ) ;
#704 = CARTESIAN_POINT ( 'NONE',  ( -0.1390752724820713800, 0.1000000000000000100, -0.5771059256661912300 ) ) ;
#705 = CARTESIAN_POINT ( 'NONE',  ( 0.2546315701665977100, 0.1000000000000000300, 0.5021983725419672000 ) ) ;
#706 = CARTESIAN_POINT ( 'NONE',  ( 0.8999999999999999100, 0.3000000000000000400, 0.5999999999999999800 ) ) ;
#707 = ORIENTED_EDGE ( 'NONE', *, *, #326, .F. ) ;
#708 = CARTESIAN_POINT ( 'NONE',  ( -0.2553476768088182600, 0.09999999999999997800, -0.5015191555863169900 ) ) ;
#709 = ORIENTED_EDGE ( 'NONE', *, *, #796, .T. ) ;
#710 = CARTESIAN_POINT ( 'NONE',  ( 0.2666980604186332500, 0.4000000000000000200, 0.3272700604371649400 ) ) ;
#711 = CARTESIAN_POINT ( 'NONE',  ( -5.510910596163088900E-017, 0.3000000000000000400, -0.5999999999999999800 ) ) ;
#712 = DIRECTION ( 'NONE',  ( 0.0000000000000000000, 0.0000000000000000000, -1.000000000000000000 ) ) ;
#713 = COORDINATED_UNIVERSAL_TIME_OFFSET ( 8, 0, .AHEAD. ) ;
#714 = VERTEX_POINT ( 'NONE', #867 ) ;
#715 = CARTESIAN_POINT ( 'NONE',  ( 0.3152858217917202100, 0.3000000000000000400, 0.4362059547607061700 ) ) ;
#716 = CARTESIAN_POINT ( 'NONE',  ( 2.200000000000001500, -0.2999999999999999900, -4.649999999999998600 ) ) ;
#717 = CARTESIAN_POINT ( 'NONE',  ( 0.1114154911442445500, 0.3999999999999999700, -0.4788874207165181300 ) ) ;
#718 = CARTESIAN_POINT ( 'NONE',  ( 0.1379784334928844400, 0.1000000000000000100, 0.5776019258889779600 ) ) ;
#719 = CARTESIAN_POINT ( 'NONE',  ( 4.600000000000001400, 0.0000000000000000000, -4.649999999999996800 ) ) ;
#720 = CARTESIAN_POINT ( 'NONE',  ( 0.08787961479132254400, 0.3999999999999999700, -0.5907805303470454700 ) ) ;
#721 = CARTESIAN_POINT ( 'NONE',  ( 0.0000000000000000000, 0.0000000000000000000, 0.6999999999999999600 ) ) ;
#722 = DIRECTION ( 'NONE',  ( 0.0000000000000000000, 0.0000000000000000000, 1.000000000000000000 ) ) ;
#723 = DIRECTION ( 'NONE',  ( -1.000000000000000000, -0.0000000000000000000, -0.0000000000000000000 ) ) ;
#724 = CARTESIAN_POINT ( 'NONE',  ( -2.199999999999999700, -0.2999999999999999900, -4.649999999999999500 ) ) ;
#725 = CARTESIAN_POINT ( 'NONE',  ( 0.07048635206974893100, 0.3000000000000002100, -0.5998856319431036300 ) ) ;
#726 = FACE_OUTER_BOUND ( 'NONE', #478, .T. ) ;
#727 = CARTESIAN_POINT ( 'NONE',  ( -0.4372602609234905200, 0.3000000000000000400, -0.1998113661818128900 ) ) ;
#728 = CARTESIAN_POINT ( 'NONE',  ( 0.07058291002504506200, 0.3999999999999999700, 0.5925733752032871200 ) ) ;
#729 = ORIENTED_EDGE ( 'NONE', *, *, #78, .T. ) ;
#730 = PLANE ( 'NONE',  #129 ) ;
#731 = CARTESIAN_POINT ( 'NONE',  ( 5.000000000000000000, 9.500000000000000000, -5.949999999999998400 ) ) ;
#732 = PLANE ( 'NONE',  #762 ) ;
#733 = ORIENTED_EDGE ( 'NONE', *, *, #288, .T. ) ;
#734 = CARTESIAN_POINT ( 'NONE',  ( 5.499999999999999100, 0.0000000000000000000, 5.450000000000002000 ) ) ;
#735 = DIRECTION ( 'NONE',  ( 1.000000000000000000, -0.0000000000000000000, 7.228014483236695600E-016 ) ) ;
#736 = CARTESIAN_POINT ( 'NONE',  ( 0.1644272433202332600, 0.4000000000000000200, -0.4465248169645345000 ) ) ;
#737 = ADVANCED_FACE ( 'NONE', ( #271 ), #894, .F. ) ;
#738 = CARTESIAN_POINT ( 'NONE',  ( -5.500000000000000000, 0.0000000000000000000, -5.449999999999998400 ) ) ;
#739 = VECTOR ( 'NONE', #735, 1000.000000000000000 ) ;
#740 = CARTESIAN_POINT ( 'NONE',  ( -0.007418561312176605500, 0.3000000000000000400, 0.6090906233464653500 ) ) ;
#741 = PLANE ( 'NONE',  #169 ) ;
#742 = PERSON_AND_ORGANIZATION_ROLE ( 'design_supplier' ) ;
#743 = DIRECTION ( 'NONE',  ( -2.797941090285173100E-016, 0.0000000000000000000, 1.000000000000000000 ) ) ;
#744 = PLANE ( 'NONE',  #664 ) ;
#745 = ADVANCED_FACE ( 'NONE', ( #575, #102 ), #993, .F. ) ;
#746 = CARTESIAN_POINT ( 'NONE',  ( -0.4388658948357853100, 0.3999999999999969700, 0.1845007946950749400 ) ) ;
#747 = DIRECTION ( 'NONE',  ( 0.0000000000000000000, 0.0000000000000000000, 1.000000000000000000 ) ) ;
#748 = DIRECTION ( 'NONE',  ( 1.000000000000000000, 0.0000000000000000000, 0.0000000000000000000 ) ) ;
#749 = DIRECTION ( 'NONE',  ( 0.0000000000000000000, 0.0000000000000000000, -1.000000000000000000 ) ) ;
#750 = ORIENTED_EDGE ( 'NONE', *, *, #161, .F. ) ;
#751 = VERTEX_POINT ( 'NONE', #874 ) ;
#752 = DIRECTION ( 'NONE',  ( -0.0000000000000000000, -1.000000000000000000, -0.0000000000000000000 ) ) ;
#753 = CARTESIAN_POINT ( 'NONE',  ( -0.3596987508745247400, -2.247080831760420900E-015, 0.3951829760999057100 ) ) ;
#754 = APPLICATION_CONTEXT ( 'configuration controlled 3d designs of mechanical parts and assemblies' ) ;
#755 = CARTESIAN_POINT ( 'NONE',  ( 5.500000000000000000, 9.500000000000000000, -5.449999999999998400 ) ) ;
#756 = CARTESIAN_POINT ( 'NONE',  ( -0.08468858168577618500, -1.355252715606880500E-017, -0.6997042841866825100 ) ) ;
#757 = CARTESIAN_POINT ( 'NONE',  ( -5.000000000000000900, 9.500000000000000000, 5.950000000000002000 ) ) ;
#758 = DIRECTION ( 'NONE',  ( 1.000000000000000000, -0.0000000000000000000, -0.0000000000000000000 ) ) ;
#759 = CARTESIAN_POINT ( 'NONE',  ( -0.1527607588684689300, -1.355252715606880500E-017, 0.5705639287221483400 ) ) ;
#760 = FACE_OUTER_BOUND ( 'NONE', #232, .T. ) ;
#761 = CARTESIAN_POINT ( 'NONE',  ( 0.3043414983529277900, -1.355252715606880900E-017, -0.5925088054992131400 ) ) ;
#762 = AXIS2_PLACEMENT_3D ( 'NONE', #660, #113, #645 ) ;
#763 = CARTESIAN_POINT ( 'NONE',  ( 0.03715544571300954300, -1.355252715606880500E-017, -0.7059713408086052400 ) ) ;
#764 = DIRECTION ( 'NONE',  ( 0.0000000000000000000, 0.0000000000000000000, -1.000000000000000000 ) ) ;
#765 = CARTESIAN_POINT ( 'NONE',  ( 0.02833842720450463800, -4.480222153719345500E-015, -0.6047172200747736900 ) ) ;
#766 = FACE_OUTER_BOUND ( 'NONE', #543, .T. ) ;
#767 = ORIENTED_EDGE ( 'NONE', *, *, #542, .T. ) ;
#768 = CARTESIAN_POINT ( 'NONE',  ( 0.1522522796862994800, 0.09999999999999999200, -0.5708768211208488100 ) ) ;
#769 = AXIS2_PLACEMENT_3D ( 'NONE', #94, #561, #875 ) ;
#770 = FACE_OUTER_BOUND ( 'NONE', #380, .T. ) ;
#771 = CARTESIAN_POINT ( 'NONE',  ( 0.09719178946393689000, -1.219727444046192500E-016, 0.5858384397096336700 ) ) ;
#772 = ADVANCED_FACE ( 'NONE', ( #995 ), #694, .T. ) ;
#773 = AXIS2_PLACEMENT_3D ( 'NONE', #253, #902, #883 ) ;
#774 = CIRCLE ( 'NONE', #688, 0.4999999999999995600 ) ;
#775 = VERTEX_POINT ( 'NONE', #581 ) ;
#776 = VERTEX_POINT ( 'NONE', #25 ) ;
#777 = ORIENTED_EDGE ( 'NONE', *, *, #915, .F. ) ;
#778 = FACE_BOUND ( 'NONE', #975, .T. ) ;
#779 = EDGE_CURVE ( 'NONE', #22, #307, #419, .T. ) ;
#780 = FACE_OUTER_BOUND ( 'NONE', #550, .T. ) ;
#781 = ORIENTED_EDGE ( 'NONE', *, *, #353, .F. ) ;
#782 = EDGE_LOOP ( 'NONE', ( #335, #200, #336, #826 ) ) ;
#783 = PERSON_AND_ORGANIZATION ( #667, #607 ) ;
#784 = CIRCLE ( 'NONE', #290, 0.2999999999999999300 ) ;
#785 = DIRECTION ( 'NONE',  ( 1.000000000000000000, 0.0000000000000000000, -7.228014483236694600E-016 ) ) ;
#786 = UNCERTAINTY_MEASURE_WITH_UNIT (LENGTH_MEASURE( 1.000000000000000100E-005 ), #247, 'distance_accuracy_value', 'NONE');
#787 = VERTEX_POINT ( 'NONE', #564 ) ;
#788 = ORIENTED_EDGE ( 'NONE', *, *, #89, .T. ) ;
#789 = DIRECTION ( 'NONE',  ( 0.0000000000000000000, 1.000000000000000000, -0.0000000000000000000 ) ) ;
#790 = ORIENTED_EDGE ( 'NONE', *, *, #935, .T. ) ;
#791 = CARTESIAN_POINT ( 'NONE',  ( -2.199999999999999700, 0.0000000000000000000, 4.350000000000002300 ) ) ;
#792 = CALENDAR_DATE ( 2024, 1, 4 ) ;
#793 = CARTESIAN_POINT ( 'NONE',  ( 0.3403416034105130100, 0.4000000000000000800, -0.1604484636822328900 ) ) ;
#794 = DIRECTION ( 'NONE',  ( 0.0000000000000000000, 1.000000000000000000, -0.0000000000000000000 ) ) ;
#795 = CARTESIAN_POINT ( 'NONE',  ( 0.1054045595594045600, 0.4000000000000000200, 0.4829823208592479200 ) ) ;
#796 = EDGE_CURVE ( 'NONE', #281, #775, #249, .T. ) ;
#797 = CARTESIAN_POINT ( 'NONE',  ( -0.8999999999999999100, 0.09999999999999999200, 0.5999999999999999800 ) ) ;
#798 = CARTESIAN_POINT ( 'NONE',  ( 0.2391251966073728900, 0.4000000000000001300, -0.3683279818195168700 ) ) ;
#799 = VECTOR ( 'NONE', #17, 1000.000000000000000 ) ;
#800 = EDGE_LOOP ( 'NONE', ( #620, #62, #458, #592 ) ) ;
#801 = ORIENTED_EDGE ( 'NONE', *, *, #230, .F. ) ;
#802 = DIRECTION ( 'NONE',  ( -1.000000000000000000, 0.0000000000000000000, -0.0000000000000000000 ) ) ;
#803 = CARTESIAN_POINT ( 'NONE',  ( 0.4389533784045796500, 0.3000000000000000400, -0.1834923715287318800 ) ) ;
#804 = CARTESIAN_POINT ( 'NONE',  ( -2.199999999999999700, 0.0000000000000000000, 4.650000000000002100 ) ) ;
#805 = CARTESIAN_POINT ( 'NONE',  ( -0.06995644395462005700, 0.2999999999999999900, 0.6000000000000000900 ) ) ;
#806 = DIRECTION ( 'NONE',  ( 0.0000000000000000000, -1.000000000000000000, 0.0000000000000000000 ) ) ;
#807 = APPROVAL_DATE_TIME ( #913, #619 ) ;
#808 = EDGE_CURVE ( 'NONE', #307, #612, #811, .T. ) ;
#809 =( BOUNDED_SURFACE ( )  B_SPLINE_SURFACE ( 3, 1, ( 
 ( #953, #657 ),
 ( #485, #797 ),
 ( #100, #400 ),
 ( #711, #26 ),
 ( #403, #882 ),
 ( #706, #175 ),
 ( #889, #490 ) ),
 .UNSPECIFIED., .T., .F., .F. ) 
 B_SPLINE_SURFACE_WITH_KNOTS ( ( 4, 3, 4 ),
 ( 2, 2 ),
 ( 0.0000000000000000000, 0.5000000000000000000, 1.000000000000000000 ),
 ( 0.0000000000000000000, 1.000000000000000000 ),
 .UNSPECIFIED. ) 
 GEOMETRIC_REPRESENTATION_ITEM ( )  RATIONAL_B_SPLINE_SURFACE ( (
 ( 1.000000000000000000, 1.000000000000000000),
 ( 0.3333333333333333700, 0.3333333333333333700),
 ( 0.3333333333333333700, 0.3333333333333333700),
 ( 1.000000000000000000, 1.000000000000000000),
 ( 0.3333333333333333700, 0.3333333333333333700),
 ( 0.3333333333333333700, 0.3333333333333333700),
 ( 1.000000000000000000, 1.000000000000000000) ) ) 
 REPRESENTATION_ITEM ( '' )  SURFACE ( )  );
#810 = CARTESIAN_POINT ( 'NONE',  ( -0.3530160594043381100, 0.3999999999999999700, -0.3786951782100000400 ) ) ;
#811 = LINE ( 'NONE', #104, #608 ) ;
#812 = CARTESIAN_POINT ( 'NONE',  ( 0.1256766372434794100, 0.3000000000000000400, -0.5781307037812006800 ) ) ;
#813 = DIRECTION ( 'NONE',  ( 0.0000000000000000000, 0.0000000000000000000, 1.000000000000000000 ) ) ;
#814 = DIRECTION ( 'NONE',  ( 0.0000000000000000000, 1.000000000000000000, -0.0000000000000000000 ) ) ;
#815 = CARTESIAN_POINT ( 'NONE',  ( -5.000000000000000900, 9.500000000000000000, 5.450000000000002000 ) ) ;
#816 = CARTESIAN_POINT ( 'NONE',  ( 0.1485843813622666800, 0.3000000000000000400, 0.5760561270601090000 ) ) ;
#817 = APPROVAL_STATUS ( 'not_yet_approved' ) ;
#818 = CARTESIAN_POINT ( 'NONE',  ( 2.032879073410320800E-017, 0.3000000000000000400, 0.6000000000000000900 ) ) ;
#819 = LINE ( 'NONE', #487, #367 ) ;
#820 = CARTESIAN_POINT ( 'NONE',  ( -0.09068632699171372300, 0.3000000000000000400, 0.5956742029241007800 ) ) ;
#821 = CARTESIAN_POINT ( 'NONE',  ( 5.000000000000000000, 9.500000000000000000, 5.450000000000002000 ) ) ;
#822 = ADVANCED_FACE ( 'NONE', ( #298 ), #741, .T. ) ;
#823 = ORIENTED_EDGE ( 'NONE', *, *, #838, .T. ) ;
#824 = AXIS2_PLACEMENT_3D ( 'NONE', #212, #758, #53 ) ;
#825 = DATE_TIME_ROLE ( 'classification_date' ) ;
#826 = ORIENTED_EDGE ( 'NONE', *, *, #873, .T. ) ;
#827 = CARTESIAN_POINT ( 'NONE',  ( -0.3561954744911982100, 0.4000000000000000200, -0.06189841633789101200 ) ) ;
#828 = CARTESIAN_POINT ( 'NONE',  ( 0.09719178946393689000, -1.219727444046192500E-016, 0.5858384397096336700 ) ) ;
#829 = CARTESIAN_POINT ( 'NONE',  ( -5.500000000000000900, 9.500000000000000000, 5.450000000000002000 ) ) ;
#830 = COORDINATED_UNIVERSAL_TIME_OFFSET ( 8, 0, .AHEAD. ) ;
#831 = CARTESIAN_POINT ( 'NONE',  ( -0.4625760576489635900, 1.094985164786518000E-015, -0.03100437302401066700 ) ) ;
#832 = CARTESIAN_POINT ( 'NONE',  ( 0.4158211950350140800, 0.3000000000000003200, -0.2761153031530406700 ) ) ;
#833 = CARTESIAN_POINT ( 'NONE',  ( 2.199999999999999700, -0.2999999999999999900, 4.350000000000003200 ) ) ;
#834 = CARTESIAN_POINT ( 'NONE',  ( -5.000000000000000900, 9.500000000000000000, -5.449999999999998400 ) ) ;
#835 = CARTESIAN_POINT ( 'NONE',  ( 0.03495263690167670100, 0.09999999999999999200, 0.6041950656315615600 ) ) ;
#836 = CARTESIAN_POINT ( 'NONE',  ( 5.499999999999999100, 0.0000000000000000000, 5.450000000000002000 ) ) ;
#837 = LINE ( 'NONE', #901, #306 ) ;
#838 = EDGE_CURVE ( 'NONE', #498, #156, #858, .T. ) ;
#839 = EDGE_LOOP ( 'NONE', ( #465 ) ) ;
#840 = DIRECTION ( 'NONE',  ( -0.0000000000000000000, -0.0000000000000000000, 1.000000000000000000 ) ) ;
#841 = CC_DESIGN_DATE_AND_TIME_ASSIGNMENT ( #81, #124, ( #947 ) ) ;
#842 = CARTESIAN_POINT ( 'NONE',  ( -0.3652687608128328300, -1.355252715606880500E-017, 0.5324576258543424200 ) ) ;
#843 = APPROVAL_PERSON_ORGANIZATION ( #390, #331, #345 ) ;
#844 = CIRCLE ( 'NONE', #888, 0.2999999999999999300 ) ;
#845 = CARTESIAN_POINT ( 'NONE',  ( -5.000000000000000900, 9.500000000000000000, 5.950000000000002000 ) ) ;
#846 = CARTESIAN_POINT ( 'NONE',  ( 0.3591051258711448500, 0.09999999999999999200, -0.3959936591917576600 ) ) ;
#847 = DESIGN_CONTEXT ( 'detailed design', #754, 'design' ) ;
#848 = CYLINDRICAL_SURFACE ( 'NONE', #459, 0.4999999999999995600 ) ;
#849 = ADVANCED_FACE ( 'NONE', ( #770, #982 ), #455, .T. ) ;
#850 = EDGE_LOOP ( 'NONE', ( #790, #892, #662, #958 ) ) ;
#851 = ORIENTED_EDGE ( 'NONE', *, *, #610, .T. ) ;
#852 = DATE_AND_TIME ( #539, #304 ) ;
#853 = AXIS2_PLACEMENT_3D ( 'NONE', #821, #209, #747 ) ;
#854 = VECTOR ( 'NONE', #131, 1000.000000000000000 ) ;
#855 = EDGE_LOOP ( 'NONE', ( #115, #528, #411, #164 ) ) ;
#856 = EDGE_LOOP ( 'NONE', ( #938, #788, #512, #691 ) ) ;
#857 = EDGE_CURVE ( 'NONE', #870, #693, #784, .T. ) ;
#858 = CIRCLE ( 'NONE', #853, 0.4999999999999995600 ) ;
#859 = AXIS2_PLACEMENT_3D ( 'NONE', #329, #871, #813 ) ;
#860 = CIRCLE ( 'NONE', #392, 0.2999999999999999300 ) ;
#861 = EDGE_LOOP ( 'NONE', ( #823, #978, #591, #9, #697, #265, #358, #387 ) ) ;
#862 = ORIENTED_EDGE ( 'NONE', *, *, #674, .T. ) ;
#863 = AXIS2_PLACEMENT_3D ( 'NONE', #117, #655, #190 ) ;
#864 = CARTESIAN_POINT ( 'NONE',  ( -0.1380677471446139500, 0.1000000000000000200, 0.5774768677644410700 ) ) ;
#865 = CARTESIAN_POINT ( 'NONE',  ( 2.200000000000001500, 0.0000000000000000000, -4.649999999999998600 ) ) ;
#866 = DIRECTION ( 'NONE',  ( 1.000000000000000000, -0.0000000000000000000, 0.0000000000000000000 ) ) ;
#867 = CARTESIAN_POINT ( 'NONE',  ( 0.0000000000000000000, 0.4000000000000000200, 0.4999999999999998900 ) ) ;
#868 = CARTESIAN_POINT ( 'NONE',  ( -0.2539720102857470100, 0.09999999999999997800, 0.5026917022849593000 ) ) ;
#869 = CIRCLE ( 'NONE', #939, 0.2999999999999999300 ) ;
#870 = VERTEX_POINT ( 'NONE', #804 ) ;
#871 = DIRECTION ( 'NONE',  ( 0.0000000000000000000, 1.000000000000000000, 0.0000000000000000000 ) ) ;
#872 = CARTESIAN_POINT ( 'NONE',  ( 4.600000000000001400, -0.2999999999999999900, -4.649999999999996800 ) ) ;
#873 = EDGE_CURVE ( 'NONE', #1001, #22, #521, .T. ) ;
#874 = CARTESIAN_POINT ( 'NONE',  ( 5.000000000000000000, 0.0000000000000000000, -5.949999999999998400 ) ) ;
#875 = DIRECTION ( 'NONE',  ( 0.0000000000000000000, -0.0000000000000000000, 1.000000000000000000 ) ) ;
#876 = CARTESIAN_POINT ( 'NONE',  ( 0.3500086457596511300, 0.4000000000000000200, 0.1116160517397208800 ) ) ;
#877 = COORDINATED_UNIVERSAL_TIME_OFFSET ( 8, 0, .AHEAD. ) ;
#878 = AXIS2_PLACEMENT_3D ( 'NONE', #500, #40, #406 ) ;
#879 = CARTESIAN_POINT ( 'NONE',  ( 0.06985145105868244300, 0.09999999999999999200, 0.6000000000000000900 ) ) ;
#880 = CARTESIAN_POINT ( 'NONE',  ( 4.599999999999998800, 0.0000000000000000000, 4.350000000000003200 ) ) ;
#881 = CARTESIAN_POINT ( 'NONE',  ( 0.04986671870061013700, 0.4000000000000000200, 0.4947427081453068000 ) ) ;
#882 = CARTESIAN_POINT ( 'NONE',  ( 0.8999999999999999100, 0.09999999999999999200, -0.6000000000000000900 ) ) ;
#883 = DIRECTION ( 'NONE',  ( 0.0000000000000000000, -0.0000000000000000000, -1.000000000000000000 ) ) ;
#884 = DIRECTION ( 'NONE',  ( 0.0000000000000000000, -0.0000000000000000000, -1.000000000000000000 ) ) ;
#885 = PRODUCT_DEFINITION_SHAPE ( 'NONE', 'NONE',  #947 ) ;
#886 = DIRECTION ( 'NONE',  ( 0.0000000000000000000, 0.0000000000000000000, -1.000000000000000000 ) ) ;
#887 = CARTESIAN_POINT ( 'NONE',  ( -0.02234051525831554800, 0.4000000000000000200, -0.5005596064835259300 ) ) ;
#888 = AXIS2_PLACEMENT_3D ( 'NONE', #208, #675, #514 ) ;
#889 = CARTESIAN_POINT ( 'NONE',  ( 0.0000000000000000000, 0.3000000000000000400, 0.5999999999999999800 ) ) ;
#890 = LINE ( 'NONE', #340, #618 ) ;
#891 = DIRECTION ( 'NONE',  ( -9.326470300950576100E-017, -0.0000000000000000000, -1.000000000000000000 ) ) ;
#892 = ORIENTED_EDGE ( 'NONE', *, *, #873, .F. ) ;
#893 = VERTEX_POINT ( 'NONE', #959 ) ;
#894 = PLANE ( 'NONE',  #971 ) ;
#895 = CARTESIAN_POINT ( 'NONE',  ( 0.4389533734348103300, 0.3999999999999940300, -0.1834923711746804200 ) ) ;
#896 = DIRECTION ( 'NONE',  ( 0.0000000000000000000, 0.0000000000000000000, -1.000000000000000000 ) ) ;
#897 = CARTESIAN_POINT ( 'NONE',  ( -0.4500721101473960100, 0.2999999999999999900, 0.1369582208142217600 ) ) ;
#898 = CARTESIAN_POINT ( 'NONE',  ( -0.2270977942980280700, 0.3000000000000000400, 0.5270314593092629800 ) ) ;
#899 = CIRCLE ( 'NONE', #863, 0.2999999999999999300 ) ;
#900 = CARTESIAN_POINT ( 'NONE',  ( -0.5641968924579710000, -1.355252715606880500E-017, -0.03519297143081393700 ) ) ;
#901 = CARTESIAN_POINT ( 'NONE',  ( 4.600000000000001400, 0.0000000000000000000, -4.649999999999996800 ) ) ;
#902 = DIRECTION ( 'NONE',  ( 0.0000000000000000000, -1.000000000000000000, 0.0000000000000000000 ) ) ;
#903 = CARTESIAN_POINT ( 'NONE',  ( -0.4010348006055803300, 0.3000000000000000400, 0.3125854287894240200 ) ) ;
#904 = CARTESIAN_POINT ( 'NONE',  ( 0.2547697057736780200, 0.3000000000000000400, 0.5020773137475078600 ) ) ;
#905 = CARTESIAN_POINT ( 'NONE',  ( 3.144186300207962500E-015, 0.0000000000000000000, -4.350000000000000500 ) ) ;
#906 = CARTESIAN_POINT ( 'NONE',  ( -5.500000000000000900, 0.0000000000000000000, 5.450000000000002000 ) ) ;
#907 = CARTESIAN_POINT ( 'NONE',  ( -0.3948105112910258500, -1.355252715606880500E-017, -0.4978332755657525800 ) ) ;
#908 = LINE ( 'NONE', #437, #854 ) ;
#909 = CARTESIAN_POINT ( 'NONE',  ( -0.5500205676429004200, -1.355252715606880900E-017, -0.08194948205717683700 ) ) ;
#910 = EDGE_LOOP ( 'NONE', ( #707, #470, #614, #301 ) ) ;
#911 = CARTESIAN_POINT ( 'NONE',  ( -0.4410862579160483900, -1.355252715606880500E-017, -0.4285112529137035700 ) ) ;
#912 = CARTESIAN_POINT ( 'NONE',  ( -0.4939116072986057800, -1.355252715606880900E-017, -0.3203914135442750300 ) ) ;
#913 = DATE_AND_TIME ( #1002, #630 ) ;
#914 = SHAPE_DEFINITION_REPRESENTATION ( #885, #613 ) ;
#915 = EDGE_CURVE ( 'NONE', #893, #661, #76, .T. ) ;
#916 = DIRECTION ( 'NONE',  ( 0.0000000000000000000, 1.000000000000000000, 0.0000000000000000000 ) ) ;
#917 = DIRECTION ( 'NONE',  ( -7.228014483236697500E-016, 0.0000000000000000000, 1.000000000000000000 ) ) ;
#918 = CARTESIAN_POINT ( 'NONE',  ( 0.1594309420261970900, 0.09999999999999999200, 0.5674818137877057900 ) ) ;
#919 = ADVANCED_FACE ( 'NONE', ( #778, #544, #703, #363 ), #555, .F. ) ;
#920 = LINE ( 'NONE', #724, #492 ) ;
#921 = DIRECTION ( 'NONE',  ( 1.000000000000000000, 0.0000000000000000000, 0.0000000000000000000 ) ) ;
#922 = EDGE_LOOP ( 'NONE', ( #386, #777, #553, #396 ) ) ;
#923 = CARTESIAN_POINT ( 'NONE',  ( 0.4626232144790091100, 0.0000000000000000000, 0.03113879740589524400 ) ) ;
#924 = CC_DESIGN_APPROVAL ( #331, ( #96 ) ) ;
#925 = EDGE_LOOP ( 'NONE', ( #1000, #397, #702, #168 ) ) ;
#926 = ADVANCED_FACE ( 'NONE', ( #760, #928 ), #809, .F. ) ;
#927 = CARTESIAN_POINT ( 'NONE',  ( 0.3591051480902882100, 3.342204565700512500E-015, -0.3959936826868291600 ) ) ;
#928 = FACE_OUTER_BOUND ( 'NONE', #303, .T. ) ;
#929 = AXIS2_PLACEMENT_3D ( 'NONE', #663, #602, #128 ) ;
#930 = ADVANCED_FACE ( 'NONE', ( #234 ), #730, .F. ) ;
#931 = ORIENTED_EDGE ( 'NONE', *, *, #425, .T. ) ;
#932 = ORIENTED_EDGE ( 'NONE', *, *, #952, .F. ) ;
#933 = APPROVAL_DATE_TIME ( #320, #331 ) ;
#934 = VERTEX_POINT ( 'NONE', #474 ) ;
#935 = EDGE_CURVE ( 'NONE', #751, #22, #533, .T. ) ;
#936 = FACE_OUTER_BOUND ( 'NONE', #63, .T. ) ;
#937 = ORIENTED_EDGE ( 'NONE', *, *, #935, .F. ) ;
#938 = ORIENTED_EDGE ( 'NONE', *, *, #857, .F. ) ;
#939 = AXIS2_PLACEMENT_3D ( 'NONE', #680, #217, #764 ) ;
#940 = FACE_OUTER_BOUND ( 'NONE', #432, .T. ) ;
#941 = CARTESIAN_POINT ( 'NONE',  ( 5.000000000000000000, 9.500000000000000000, 5.950000000000002000 ) ) ;
#942 = CARTESIAN_POINT ( 'NONE',  ( 0.4157591910161131400, 0.1000000000000000200, 0.2761854793913829400 ) ) ;
#943 = VERTEX_POINT ( 'NONE', #572 ) ;
#944 = CARTESIAN_POINT ( 'NONE',  ( -0.4499353597230423800, 0.1000000000000000200, 0.1384640817350577800 ) ) ;
#945 = ORIENTED_EDGE ( 'NONE', *, *, #425, .F. ) ;
#946 = ORIENTED_EDGE ( 'NONE', *, *, #233, .F. ) ;
#947 = PRODUCT_DEFINITION ( '未知', '', #378, #847 ) ;
#948 = CARTESIAN_POINT ( 'NONE',  ( -0.4158462923675898000, 0.09999999999999997800, 0.2762928304865764400 ) ) ;
#949 = CALENDAR_DATE ( 2024, 1, 4 ) ;
#950 = VECTOR ( 'NONE', #251, 1000.000000000000000 ) ;
#951 = CARTESIAN_POINT ( 'NONE',  ( 0.4018490072994483900, 0.3000000000000000400, -0.3113146426221782800 ) ) ;
#952 = EDGE_CURVE ( 'NONE', #498, #205, #151, .T. ) ;
#953 = CARTESIAN_POINT ( 'NONE',  ( 0.0000000000000000000, 0.3000000000000000400, 0.5999999999999999800 ) ) ;
#954 = CARTESIAN_POINT ( 'NONE',  ( 0.3241327521339228400, 0.4000000000000002400, 0.2244015341460086900 ) ) ;
#955 = LINE ( 'NONE', #833, #405 ) ;
#956 = DIRECTION ( 'NONE',  ( -0.0000000000000000000, -1.000000000000000000, -0.0000000000000000000 ) ) ;
#957 = CARTESIAN_POINT ( 'NONE',  ( 0.07058291002504506200, 0.3000000000000000400, 0.5925733752032871200 ) ) ;
#958 = ORIENTED_EDGE ( 'NONE', *, *, #161, .T. ) ;
#959 = CARTESIAN_POINT ( 'NONE',  ( -4.599999999999998800, 0.0000000000000000000, -4.649999999999997700 ) ) ;
#960 = CARTESIAN_POINT ( 'NONE',  ( -2.199999999999999700, -0.2999999999999999900, -4.649999999999999500 ) ) ;
#961 = DIRECTION ( 'NONE',  ( 1.865294060190114700E-016, 0.0000000000000000000, -1.000000000000000000 ) ) ;
#962 = CC_DESIGN_SECURITY_CLASSIFICATION ( #96, ( #378 ) ) ;
#963 = CARTESIAN_POINT ( 'NONE',  ( -0.2545251648307266800, 0.3000000000000002700, 0.5022054084469478300 ) ) ;
#964 = VECTOR ( 'NONE', #677, 1000.000000000000000 ) ;
#965 = CARTESIAN_POINT ( 'NONE',  ( -5.000000000000000900, 9.500000000000000000, 5.950000000000002000 ) ) ;
#966 = CARTESIAN_POINT ( 'NONE',  ( 0.3528652269742643700, 0.3999999999999999700, 0.3790108670820364100 ) ) ;
#967 = APPROVAL_ROLE ( '' ) ;
#968 = CARTESIAN_POINT ( 'NONE',  ( -4.599999999999999600, -0.0000000000000000000, -4.649999999999997700 ) ) ;
#969 = CARTESIAN_POINT ( 'NONE',  ( -0.2064247048461662300, 0.4000000000000000200, 0.4071161579328373400 ) ) ;
#970 = DIRECTION ( 'NONE',  ( -0.0000000000000000000, -1.000000000000000000, -0.0000000000000000000 ) ) ;
#971 = AXIS2_PLACEMENT_3D ( 'NONE', #965, #886, #802 ) ;
#972 = APPLICATION_PROTOCOL_DEFINITION ( 'international standard', 'config_control_design', 1994, #754 ) ;
#973 = CARTESIAN_POINT ( 'NONE',  ( -0.1111926986413829700, 0.3999999999999999100, -0.4788801148027310700 ) ) ;
#974 = ORIENTED_EDGE ( 'NONE', *, *, #414, .F. ) ;
#975 = EDGE_LOOP ( 'NONE', ( #183 ) ) ;
#976 = CARTESIAN_POINT ( 'NONE',  ( 5.000000000000000000, 9.500000000000000000, -5.449999999999998400 ) ) ;
#977 = CARTESIAN_POINT ( 'NONE',  ( 5.500000000000000000, 9.500000000000000000, -5.449999999999998400 ) ) ;
#978 = ORIENTED_EDGE ( 'NONE', *, *, #353, .T. ) ;
#979 = CARTESIAN_POINT ( 'NONE',  ( -0.1544346523967713200, 0.4000000000000000200, -0.4528100064404456700 ) ) ;
#980 = AXIS2_PLACEMENT_3D ( 'NONE', #189, #806, #884 ) ;
#981 = CARTESIAN_POINT ( 'NONE',  ( -0.2698081728673340000, -1.355252715606880500E-017, 0.6182258274024626800 ) ) ;
#982 = FACE_OUTER_BOUND ( 'NONE', #839, .T. ) ;
#983 = CARTESIAN_POINT ( 'NONE',  ( -0.3070559978720970900, -1.355252715606880500E-017, -0.5903681088168805100 ) ) ;
#984 = CARTESIAN_POINT ( 'NONE',  ( -0.1597759039394396300, 0.09999999999999999200, -0.5670739181032801200 ) ) ;
#985 = CARTESIAN_POINT ( 'NONE',  ( -0.1648900665650657700, -1.355252715606881200E-017, -0.6756049982777993000 ) ) ;
#986 = EDGE_CURVE ( 'NONE', #205, #84, #505, .T. ) ;
#987 = CARTESIAN_POINT ( 'NONE',  ( 0.1254807409653527500, -1.355252715606880500E-017, 0.6817536899201739300 ) ) ;
#988 = LINE ( 'NONE', #668, #236 ) ;
#989 = CC_DESIGN_PERSON_AND_ORGANIZATION_ASSIGNMENT ( #783, #588, ( #947 ) ) ;
#990 = ORIENTED_EDGE ( 'NONE', *, *, #15, .F. ) ;
#991 = ORIENTED_EDGE ( 'NONE', *, *, #142, .F. ) ;
#992 = CARTESIAN_POINT ( 'NONE',  ( 0.5642502446381026900, 0.0000000000000000000, 0.03534572334308003200 ) ) ;
#993 =( BOUNDED_SURFACE ( )  B_SPLINE_SURFACE ( 3, 2, ( 
 ( #127, #341, #499 ),
 ( #121, #194, #740 ),
 ( #266, #433, #820 ),
 ( #24, #29, #898 ),
 ( #969, #47, #327 ),
 ( #569, #585, #903 ),
 ( #669, #746, #186 ),
 ( #827, #354, #489 ),
 ( #109, #648, #727 ),
 ( #254, #810, #132 ),
 ( #274, #395, #629 ),
 ( #979, #656, #484 ),
 ( #242, #642, #191 ),
 ( #887, #493, #182 ),
 ( #18, #31, #402 ),
 ( #632, #720, #99 ),
 ( #636, #479, #812 ),
 ( #736, #560, #570 ),
 ( #110, #250, #343 ),
 ( #338, #413, #951 ),
 ( #793, #895, #803 ),
 ( #317, #173, #427 ),
 ( #255, #421, #34 ),
 ( #710, #966, #576 ),
 ( #328, #177, #715 ),
 ( #187, #246, #260 ),
 ( #795, #649, #816 ),
 ( #881, #728, #957 ) ),
 .UNSPECIFIED., .T., .F., .F. ) 
 B_SPLINE_SURFACE_WITH_KNOTS ( ( 4, 2, 2, 2, 2, 2, 2, 2, 2, 2, 2, 2, 2, 4 ),
 ( 3, 3 ),
 ( 0.0000000000000000000, 0.0001674168953343272500, 0.0003348337906686545000, 0.0006696675813373090000, 0.001004501372005963500, 0.001171918267340290600, 0.001339335162674618000, 0.001423043610341781600, 0.001506752058008945400, 0.001674168953343272600, 0.002009002744011926900, 0.002343836534680581200, 0.002511253430014908800, 0.002678670325349236000 ),
 ( 0.0000000000000000000, 1.000000000000000000 ),
 .UNSPECIFIED. ) 
 GEOMETRIC_REPRESENTATION_ITEM ( )  RATIONAL_B_SPLINE_SURFACE ( (
 ( 1.000000000000000000, 0.7071067811865475700, 1.000000000000000000),
 ( 1.000000000000000000, 0.7071067811865475700, 1.000000000000000000),
 ( 1.000000000000000000, 0.7071067811865475700, 1.000000000000000000),
 ( 1.000000000000000000, 0.7071067811865475700, 1.000000000000000000),
 ( 1.000000000000000000, 0.7071067811865475700, 1.000000000000000000),
 ( 1.000000000000000000, 0.7071067811865475700, 1.000000000000000000),
 ( 1.000000000000000000, 0.7071067811865475700, 1.000000000000000000),
 ( 1.000000000000000000, 0.7071067811865475700, 1.000000000000000000),
 ( 1.000000000000000000, 0.7071067811865475700, 1.000000000000000000),
 ( 1.000000000000000000, 0.7071067811865475700, 1.000000000000000000),
 ( 1.000000000000000000, 0.7071067811865474600, 1.000000000000000000),
 ( 1.000000000000000000, 0.7071067811865474600, 1.000000000000000000),
 ( 1.000000000000000000, 0.7071067811865475700, 1.000000000000000000),
 ( 1.000000000000000000, 0.7071067811865475700, 1.000000000000000000),
 ( 1.000000000000000000, 0.7071067811865475700, 1.000000000000000000),
 ( 1.000000000000000000, 0.7071067811865475700, 1.000000000000000000),
 ( 1.000000000000000000, 0.7071067811865475700, 1.000000000000000000),
 ( 1.000000000000000000, 0.7071067811865475700, 1.000000000000000000),
 ( 1.000000000000000000, 0.7071067811865475700, 1.000000000000000000),
 ( 1.000000000000000000, 0.7071067811865475700, 1.000000000000000000),
 ( 1.000000000000000000, 0.7071067811865476800, 1.000000000000000000),
 ( 1.000000000000000000, 0.7071067811865476800, 1.000000000000000000),
 ( 1.000000000000000000, 0.7071067811865475700, 1.000000000000000000),
 ( 1.000000000000000000, 0.7071067811865475700, 1.000000000000000000),
 ( 1.000000000000000000, 0.7071067811865476800, 1.000000000000000000),
 ( 1.000000000000000000, 0.7071067811865476800, 1.000000000000000000),
 ( 1.000000000000000000, 0.7071067811865475700, 1.000000000000000000),
 ( 1.000000000000000000, 0.7071067811865475700, 1.000000000000000000) ) ) 
 REPRESENTATION_ITEM ( '' )  SURFACE ( )  );
#994 = PERSON_AND_ORGANIZATION ( #667, #607 ) ;
#995 = FACE_OUTER_BOUND ( 'NONE', #637, .T. ) ;
#996 = AXIS2_PLACEMENT_3D ( 'NONE', #472, #866, #749 ) ;
#997 = CARTESIAN_POINT ( 'NONE',  ( 0.3940743963260741600, -1.355252715606880500E-017, 0.4987546740212915900 ) ) ;
#998 = CARTESIAN_POINT ( 'NONE',  ( 0.3544139830679582400, 2.135290825243166700E-015, 0.3773891609391277200 ) ) ;
#999 = LINE ( 'NONE', #476, #584 ) ;
#1000 = ORIENTED_EDGE ( 'NONE', *, *, #3, .T. ) ;
#1001 = VERTEX_POINT ( 'NONE', #577 ) ;
#1002 = CALENDAR_DATE ( 2024, 1, 4 ) ;
#1003 = CC_DESIGN_APPROVAL ( #619, ( #947 ) ) ;
ENDSEC;
END-ISO-10303-21;
