G04 #@! TF.GenerationSoftware,KiCad,Pcbnew,8.0.8*
G04 #@! TF.CreationDate,2025-02-25T21:21:12+02:00*
G04 #@! TF.ProjectId,minisumo_2025,6d696e69-7375-46d6-9f5f-323032352e6b,rev?*
G04 #@! TF.SameCoordinates,Original*
G04 #@! TF.FileFunction,Legend,Bot*
G04 #@! TF.FilePolarity,Positive*
%FSLAX46Y46*%
G04 Gerber Fmt 4.6, Leading zero omitted, Abs format (unit mm)*
G04 Created by KiCad (PCBNEW 8.0.8) date 2025-02-25 21:21:12*
%MOMM*%
%LPD*%
G01*
G04 APERTURE LIST*
G04 Aperture macros list*
%AMRoundRect*
0 Rectangle with rounded corners*
0 $1 Rounding radius*
0 $2 $3 $4 $5 $6 $7 $8 $9 X,Y pos of 4 corners*
0 Add a 4 corners polygon primitive as box body*
4,1,4,$2,$3,$4,$5,$6,$7,$8,$9,$2,$3,0*
0 Add four circle primitives for the rounded corners*
1,1,$1+$1,$2,$3*
1,1,$1+$1,$4,$5*
1,1,$1+$1,$6,$7*
1,1,$1+$1,$8,$9*
0 Add four rect primitives between the rounded corners*
20,1,$1+$1,$2,$3,$4,$5,0*
20,1,$1+$1,$4,$5,$6,$7,0*
20,1,$1+$1,$6,$7,$8,$9,0*
20,1,$1+$1,$8,$9,$2,$3,0*%
%AMFreePoly0*
4,1,19,0.550000,-0.750000,0.000000,-0.750000,0.000000,-0.744911,-0.071157,-0.744911,-0.207708,-0.704816,-0.327430,-0.627875,-0.420627,-0.520320,-0.479746,-0.390866,-0.500000,-0.250000,-0.500000,0.250000,-0.479746,0.390866,-0.420627,0.520320,-0.327430,0.627875,-0.207708,0.704816,-0.071157,0.744911,0.000000,0.744911,0.000000,0.750000,0.550000,0.750000,0.550000,-0.750000,0.550000,-0.750000,
$1*%
%AMFreePoly1*
4,1,19,0.000000,0.744911,0.071157,0.744911,0.207708,0.704816,0.327430,0.627875,0.420627,0.520320,0.479746,0.390866,0.500000,0.250000,0.500000,-0.250000,0.479746,-0.390866,0.420627,-0.520320,0.327430,-0.627875,0.207708,-0.704816,0.071157,-0.744911,0.000000,-0.744911,0.000000,-0.750000,-0.550000,-0.750000,-0.550000,0.750000,0.000000,0.750000,0.000000,0.744911,0.000000,0.744911,
$1*%
G04 Aperture macros list end*
%ADD10C,0.150000*%
%ADD11C,0.100000*%
%ADD12C,0.254000*%
%ADD13C,0.120000*%
%ADD14C,1.600000*%
%ADD15C,0.499999*%
%ADD16RoundRect,0.760000X1.140000X1.140000X-1.140000X1.140000X-1.140000X-1.140000X1.140000X-1.140000X0*%
%ADD17C,4.000000*%
%ADD18RoundRect,0.250000X0.750000X-0.600000X0.750000X0.600000X-0.750000X0.600000X-0.750000X-0.600000X0*%
%ADD19O,2.000000X1.700000*%
%ADD20RoundRect,0.250000X0.725000X-0.600000X0.725000X0.600000X-0.725000X0.600000X-0.725000X-0.600000X0*%
%ADD21O,1.950000X1.700000*%
%ADD22R,1.700000X1.700000*%
%ADD23O,1.700000X1.700000*%
%ADD24RoundRect,0.250000X-0.615000X0.265000X-0.615000X-0.265000X0.615000X-0.265000X0.615000X0.265000X0*%
%ADD25O,1.730000X1.030000*%
%ADD26RoundRect,0.135000X-0.185000X0.135000X-0.185000X-0.135000X0.185000X-0.135000X0.185000X0.135000X0*%
%ADD27RoundRect,0.140000X-0.140000X-0.170000X0.140000X-0.170000X0.140000X0.170000X-0.140000X0.170000X0*%
%ADD28C,0.650000*%
%ADD29RoundRect,0.150000X0.150000X0.500000X-0.150000X0.500000X-0.150000X-0.500000X0.150000X-0.500000X0*%
%ADD30RoundRect,0.075000X0.075000X0.575000X-0.075000X0.575000X-0.075000X-0.575000X0.075000X-0.575000X0*%
%ADD31O,1.000000X1.600000*%
%ADD32O,1.000000X2.100000*%
%ADD33FreePoly0,90.000000*%
%ADD34R,1.500000X1.000000*%
%ADD35FreePoly1,90.000000*%
%ADD36RoundRect,0.135000X0.135000X0.185000X-0.135000X0.185000X-0.135000X-0.185000X0.135000X-0.185000X0*%
%ADD37RoundRect,0.225000X-0.225000X-0.375000X0.225000X-0.375000X0.225000X0.375000X-0.225000X0.375000X0*%
%ADD38RoundRect,0.093750X-0.093750X0.156250X-0.093750X-0.156250X0.093750X-0.156250X0.093750X0.156250X0*%
%ADD39RoundRect,0.075000X-0.075000X0.250000X-0.075000X-0.250000X0.075000X-0.250000X0.075000X0.250000X0*%
%ADD40R,1.200000X1.200000*%
%ADD41RoundRect,0.225000X0.225000X0.250000X-0.225000X0.250000X-0.225000X-0.250000X0.225000X-0.250000X0*%
%ADD42RoundRect,0.225000X-0.225000X-0.250000X0.225000X-0.250000X0.225000X0.250000X-0.225000X0.250000X0*%
%ADD43RoundRect,0.140000X0.170000X-0.140000X0.170000X0.140000X-0.170000X0.140000X-0.170000X-0.140000X0*%
%ADD44RoundRect,0.135000X0.185000X-0.135000X0.185000X0.135000X-0.185000X0.135000X-0.185000X-0.135000X0*%
%ADD45R,0.900000X1.500000*%
%ADD46R,1.500000X0.900000*%
%ADD47C,0.600000*%
%ADD48R,3.900000X3.900000*%
G04 APERTURE END LIST*
D10*
X147709875Y-50960588D02*
X147709875Y-50389160D01*
X147709875Y-50674874D02*
X146709875Y-50674874D01*
X146709875Y-50674874D02*
X146852732Y-50579636D01*
X146852732Y-50579636D02*
X146947970Y-50484398D01*
X146947970Y-50484398D02*
X146995589Y-50389160D01*
X147328922Y-51389160D02*
X147328922Y-52151065D01*
X147709875Y-52627255D02*
X146709875Y-52627255D01*
X147709875Y-53103445D02*
X146709875Y-53103445D01*
X146709875Y-53103445D02*
X147709875Y-53674873D01*
X147709875Y-53674873D02*
X146709875Y-53674873D01*
X146709875Y-54008207D02*
X147709875Y-54341540D01*
X147709875Y-54341540D02*
X146709875Y-54674873D01*
X147805113Y-54770112D02*
X147805113Y-55532016D01*
X147709875Y-56293921D02*
X147709875Y-55722493D01*
X147709875Y-56008207D02*
X146709875Y-56008207D01*
X146709875Y-56008207D02*
X146852732Y-55912969D01*
X146852732Y-55912969D02*
X146947970Y-55817731D01*
X146947970Y-55817731D02*
X146995589Y-55722493D01*
X146805113Y-57436779D02*
X146757494Y-57484398D01*
X146757494Y-57484398D02*
X146709875Y-57579636D01*
X146709875Y-57579636D02*
X146709875Y-57817731D01*
X146709875Y-57817731D02*
X146757494Y-57912969D01*
X146757494Y-57912969D02*
X146805113Y-57960588D01*
X146805113Y-57960588D02*
X146900351Y-58008207D01*
X146900351Y-58008207D02*
X146995589Y-58008207D01*
X146995589Y-58008207D02*
X147138446Y-57960588D01*
X147138446Y-57960588D02*
X147709875Y-57389160D01*
X147709875Y-57389160D02*
X147709875Y-58008207D01*
X147328922Y-58436779D02*
X147328922Y-59198684D01*
X147662256Y-59627255D02*
X147709875Y-59770112D01*
X147709875Y-59770112D02*
X147709875Y-60008207D01*
X147709875Y-60008207D02*
X147662256Y-60103445D01*
X147662256Y-60103445D02*
X147614636Y-60151064D01*
X147614636Y-60151064D02*
X147519398Y-60198683D01*
X147519398Y-60198683D02*
X147424160Y-60198683D01*
X147424160Y-60198683D02*
X147328922Y-60151064D01*
X147328922Y-60151064D02*
X147281303Y-60103445D01*
X147281303Y-60103445D02*
X147233684Y-60008207D01*
X147233684Y-60008207D02*
X147186065Y-59817731D01*
X147186065Y-59817731D02*
X147138446Y-59722493D01*
X147138446Y-59722493D02*
X147090827Y-59674874D01*
X147090827Y-59674874D02*
X146995589Y-59627255D01*
X146995589Y-59627255D02*
X146900351Y-59627255D01*
X146900351Y-59627255D02*
X146805113Y-59674874D01*
X146805113Y-59674874D02*
X146757494Y-59722493D01*
X146757494Y-59722493D02*
X146709875Y-59817731D01*
X146709875Y-59817731D02*
X146709875Y-60055826D01*
X146709875Y-60055826D02*
X146757494Y-60198683D01*
X147709875Y-61103445D02*
X147709875Y-60627255D01*
X147709875Y-60627255D02*
X146709875Y-60627255D01*
X147186065Y-61436779D02*
X147186065Y-61770112D01*
X147709875Y-61912969D02*
X147709875Y-61436779D01*
X147709875Y-61436779D02*
X146709875Y-61436779D01*
X146709875Y-61436779D02*
X146709875Y-61912969D01*
X146709875Y-62246303D02*
X147709875Y-62484398D01*
X147709875Y-62484398D02*
X146995589Y-62674874D01*
X146995589Y-62674874D02*
X147709875Y-62865350D01*
X147709875Y-62865350D02*
X146709875Y-63103446D01*
X147805113Y-63246303D02*
X147805113Y-64008207D01*
X147709875Y-64770112D02*
X147709875Y-64198684D01*
X147709875Y-64484398D02*
X146709875Y-64484398D01*
X146709875Y-64484398D02*
X146852732Y-64389160D01*
X146852732Y-64389160D02*
X146947970Y-64293922D01*
X146947970Y-64293922D02*
X146995589Y-64198684D01*
X146709875Y-65865351D02*
X146709875Y-66484398D01*
X146709875Y-66484398D02*
X147090827Y-66151065D01*
X147090827Y-66151065D02*
X147090827Y-66293922D01*
X147090827Y-66293922D02*
X147138446Y-66389160D01*
X147138446Y-66389160D02*
X147186065Y-66436779D01*
X147186065Y-66436779D02*
X147281303Y-66484398D01*
X147281303Y-66484398D02*
X147519398Y-66484398D01*
X147519398Y-66484398D02*
X147614636Y-66436779D01*
X147614636Y-66436779D02*
X147662256Y-66389160D01*
X147662256Y-66389160D02*
X147709875Y-66293922D01*
X147709875Y-66293922D02*
X147709875Y-66008208D01*
X147709875Y-66008208D02*
X147662256Y-65912970D01*
X147662256Y-65912970D02*
X147614636Y-65865351D01*
X147328922Y-66912970D02*
X147328922Y-67674875D01*
X147709875Y-68151065D02*
X146709875Y-68151065D01*
X146709875Y-68151065D02*
X146709875Y-68389160D01*
X146709875Y-68389160D02*
X146757494Y-68532017D01*
X146757494Y-68532017D02*
X146852732Y-68627255D01*
X146852732Y-68627255D02*
X146947970Y-68674874D01*
X146947970Y-68674874D02*
X147138446Y-68722493D01*
X147138446Y-68722493D02*
X147281303Y-68722493D01*
X147281303Y-68722493D02*
X147471779Y-68674874D01*
X147471779Y-68674874D02*
X147567017Y-68627255D01*
X147567017Y-68627255D02*
X147662256Y-68532017D01*
X147662256Y-68532017D02*
X147709875Y-68389160D01*
X147709875Y-68389160D02*
X147709875Y-68151065D01*
X147709875Y-69674874D02*
X147709875Y-69103446D01*
X147709875Y-69389160D02*
X146709875Y-69389160D01*
X146709875Y-69389160D02*
X146852732Y-69293922D01*
X146852732Y-69293922D02*
X146947970Y-69198684D01*
X146947970Y-69198684D02*
X146995589Y-69103446D01*
X147805113Y-69865351D02*
X147805113Y-70627255D01*
X147709875Y-71389160D02*
X147709875Y-70817732D01*
X147709875Y-71103446D02*
X146709875Y-71103446D01*
X146709875Y-71103446D02*
X146852732Y-71008208D01*
X146852732Y-71008208D02*
X146947970Y-70912970D01*
X146947970Y-70912970D02*
X146995589Y-70817732D01*
X147043208Y-73008208D02*
X147709875Y-73008208D01*
X146662256Y-72770113D02*
X147376541Y-72532018D01*
X147376541Y-72532018D02*
X147376541Y-73151065D01*
X147328922Y-73532018D02*
X147328922Y-74293923D01*
X147709875Y-74770113D02*
X146709875Y-74770113D01*
X146709875Y-74770113D02*
X147709875Y-75341541D01*
X147709875Y-75341541D02*
X146709875Y-75341541D01*
X147709875Y-75817732D02*
X146709875Y-75817732D01*
X146709875Y-75817732D02*
X146709875Y-76055827D01*
X146709875Y-76055827D02*
X146757494Y-76198684D01*
X146757494Y-76198684D02*
X146852732Y-76293922D01*
X146852732Y-76293922D02*
X146947970Y-76341541D01*
X146947970Y-76341541D02*
X147138446Y-76389160D01*
X147138446Y-76389160D02*
X147281303Y-76389160D01*
X147281303Y-76389160D02*
X147471779Y-76341541D01*
X147471779Y-76341541D02*
X147567017Y-76293922D01*
X147567017Y-76293922D02*
X147662256Y-76198684D01*
X147662256Y-76198684D02*
X147709875Y-76055827D01*
X147709875Y-76055827D02*
X147709875Y-75817732D01*
X146805113Y-76770113D02*
X146757494Y-76817732D01*
X146757494Y-76817732D02*
X146709875Y-76912970D01*
X146709875Y-76912970D02*
X146709875Y-77151065D01*
X146709875Y-77151065D02*
X146757494Y-77246303D01*
X146757494Y-77246303D02*
X146805113Y-77293922D01*
X146805113Y-77293922D02*
X146900351Y-77341541D01*
X146900351Y-77341541D02*
X146995589Y-77341541D01*
X146995589Y-77341541D02*
X147138446Y-77293922D01*
X147138446Y-77293922D02*
X147709875Y-76722494D01*
X147709875Y-76722494D02*
X147709875Y-77341541D01*
X147805113Y-77532018D02*
X147805113Y-78293922D01*
X147709875Y-79055827D02*
X147709875Y-78484399D01*
X147709875Y-78770113D02*
X146709875Y-78770113D01*
X146709875Y-78770113D02*
X146852732Y-78674875D01*
X146852732Y-78674875D02*
X146947970Y-78579637D01*
X146947970Y-78579637D02*
X146995589Y-78484399D01*
X148319819Y-50912969D02*
X148319819Y-50436779D01*
X148319819Y-50436779D02*
X148796009Y-50389160D01*
X148796009Y-50389160D02*
X148748390Y-50436779D01*
X148748390Y-50436779D02*
X148700771Y-50532017D01*
X148700771Y-50532017D02*
X148700771Y-50770112D01*
X148700771Y-50770112D02*
X148748390Y-50865350D01*
X148748390Y-50865350D02*
X148796009Y-50912969D01*
X148796009Y-50912969D02*
X148891247Y-50960588D01*
X148891247Y-50960588D02*
X149129342Y-50960588D01*
X149129342Y-50960588D02*
X149224580Y-50912969D01*
X149224580Y-50912969D02*
X149272200Y-50865350D01*
X149272200Y-50865350D02*
X149319819Y-50770112D01*
X149319819Y-50770112D02*
X149319819Y-50532017D01*
X149319819Y-50532017D02*
X149272200Y-50436779D01*
X149272200Y-50436779D02*
X149224580Y-50389160D01*
X148938866Y-51389160D02*
X148938866Y-52151065D01*
X149319819Y-52627255D02*
X148319819Y-52627255D01*
X149319819Y-53103445D02*
X148319819Y-53103445D01*
X148319819Y-53103445D02*
X149319819Y-53674873D01*
X149319819Y-53674873D02*
X148319819Y-53674873D01*
X148319819Y-54008207D02*
X149319819Y-54341540D01*
X149319819Y-54341540D02*
X148319819Y-54674873D01*
X149415057Y-54770112D02*
X149415057Y-55532016D01*
X148415057Y-55722493D02*
X148367438Y-55770112D01*
X148367438Y-55770112D02*
X148319819Y-55865350D01*
X148319819Y-55865350D02*
X148319819Y-56103445D01*
X148319819Y-56103445D02*
X148367438Y-56198683D01*
X148367438Y-56198683D02*
X148415057Y-56246302D01*
X148415057Y-56246302D02*
X148510295Y-56293921D01*
X148510295Y-56293921D02*
X148605533Y-56293921D01*
X148605533Y-56293921D02*
X148748390Y-56246302D01*
X148748390Y-56246302D02*
X149319819Y-55674874D01*
X149319819Y-55674874D02*
X149319819Y-56293921D01*
X148319819Y-57912969D02*
X148319819Y-57722493D01*
X148319819Y-57722493D02*
X148367438Y-57627255D01*
X148367438Y-57627255D02*
X148415057Y-57579636D01*
X148415057Y-57579636D02*
X148557914Y-57484398D01*
X148557914Y-57484398D02*
X148748390Y-57436779D01*
X148748390Y-57436779D02*
X149129342Y-57436779D01*
X149129342Y-57436779D02*
X149224580Y-57484398D01*
X149224580Y-57484398D02*
X149272200Y-57532017D01*
X149272200Y-57532017D02*
X149319819Y-57627255D01*
X149319819Y-57627255D02*
X149319819Y-57817731D01*
X149319819Y-57817731D02*
X149272200Y-57912969D01*
X149272200Y-57912969D02*
X149224580Y-57960588D01*
X149224580Y-57960588D02*
X149129342Y-58008207D01*
X149129342Y-58008207D02*
X148891247Y-58008207D01*
X148891247Y-58008207D02*
X148796009Y-57960588D01*
X148796009Y-57960588D02*
X148748390Y-57912969D01*
X148748390Y-57912969D02*
X148700771Y-57817731D01*
X148700771Y-57817731D02*
X148700771Y-57627255D01*
X148700771Y-57627255D02*
X148748390Y-57532017D01*
X148748390Y-57532017D02*
X148796009Y-57484398D01*
X148796009Y-57484398D02*
X148891247Y-57436779D01*
X148938866Y-58436779D02*
X148938866Y-59198684D01*
X149272200Y-59627255D02*
X149319819Y-59770112D01*
X149319819Y-59770112D02*
X149319819Y-60008207D01*
X149319819Y-60008207D02*
X149272200Y-60103445D01*
X149272200Y-60103445D02*
X149224580Y-60151064D01*
X149224580Y-60151064D02*
X149129342Y-60198683D01*
X149129342Y-60198683D02*
X149034104Y-60198683D01*
X149034104Y-60198683D02*
X148938866Y-60151064D01*
X148938866Y-60151064D02*
X148891247Y-60103445D01*
X148891247Y-60103445D02*
X148843628Y-60008207D01*
X148843628Y-60008207D02*
X148796009Y-59817731D01*
X148796009Y-59817731D02*
X148748390Y-59722493D01*
X148748390Y-59722493D02*
X148700771Y-59674874D01*
X148700771Y-59674874D02*
X148605533Y-59627255D01*
X148605533Y-59627255D02*
X148510295Y-59627255D01*
X148510295Y-59627255D02*
X148415057Y-59674874D01*
X148415057Y-59674874D02*
X148367438Y-59722493D01*
X148367438Y-59722493D02*
X148319819Y-59817731D01*
X148319819Y-59817731D02*
X148319819Y-60055826D01*
X148319819Y-60055826D02*
X148367438Y-60198683D01*
X149319819Y-61103445D02*
X149319819Y-60627255D01*
X149319819Y-60627255D02*
X148319819Y-60627255D01*
X148796009Y-61436779D02*
X148796009Y-61770112D01*
X149319819Y-61912969D02*
X149319819Y-61436779D01*
X149319819Y-61436779D02*
X148319819Y-61436779D01*
X148319819Y-61436779D02*
X148319819Y-61912969D01*
X148319819Y-62246303D02*
X149319819Y-62484398D01*
X149319819Y-62484398D02*
X148605533Y-62674874D01*
X148605533Y-62674874D02*
X149319819Y-62865350D01*
X149319819Y-62865350D02*
X148319819Y-63103446D01*
X149415057Y-63246303D02*
X149415057Y-64008207D01*
X148415057Y-64198684D02*
X148367438Y-64246303D01*
X148367438Y-64246303D02*
X148319819Y-64341541D01*
X148319819Y-64341541D02*
X148319819Y-64579636D01*
X148319819Y-64579636D02*
X148367438Y-64674874D01*
X148367438Y-64674874D02*
X148415057Y-64722493D01*
X148415057Y-64722493D02*
X148510295Y-64770112D01*
X148510295Y-64770112D02*
X148605533Y-64770112D01*
X148605533Y-64770112D02*
X148748390Y-64722493D01*
X148748390Y-64722493D02*
X149319819Y-64151065D01*
X149319819Y-64151065D02*
X149319819Y-64770112D01*
X148319819Y-65865351D02*
X148319819Y-66532017D01*
X148319819Y-66532017D02*
X149319819Y-66103446D01*
X148938866Y-66912970D02*
X148938866Y-67674875D01*
X149319819Y-68151065D02*
X148319819Y-68151065D01*
X148319819Y-68151065D02*
X148319819Y-68389160D01*
X148319819Y-68389160D02*
X148367438Y-68532017D01*
X148367438Y-68532017D02*
X148462676Y-68627255D01*
X148462676Y-68627255D02*
X148557914Y-68674874D01*
X148557914Y-68674874D02*
X148748390Y-68722493D01*
X148748390Y-68722493D02*
X148891247Y-68722493D01*
X148891247Y-68722493D02*
X149081723Y-68674874D01*
X149081723Y-68674874D02*
X149176961Y-68627255D01*
X149176961Y-68627255D02*
X149272200Y-68532017D01*
X149272200Y-68532017D02*
X149319819Y-68389160D01*
X149319819Y-68389160D02*
X149319819Y-68151065D01*
X149319819Y-69674874D02*
X149319819Y-69103446D01*
X149319819Y-69389160D02*
X148319819Y-69389160D01*
X148319819Y-69389160D02*
X148462676Y-69293922D01*
X148462676Y-69293922D02*
X148557914Y-69198684D01*
X148557914Y-69198684D02*
X148605533Y-69103446D01*
X149415057Y-69865351D02*
X149415057Y-70627255D01*
X148415057Y-70817732D02*
X148367438Y-70865351D01*
X148367438Y-70865351D02*
X148319819Y-70960589D01*
X148319819Y-70960589D02*
X148319819Y-71198684D01*
X148319819Y-71198684D02*
X148367438Y-71293922D01*
X148367438Y-71293922D02*
X148415057Y-71341541D01*
X148415057Y-71341541D02*
X148510295Y-71389160D01*
X148510295Y-71389160D02*
X148605533Y-71389160D01*
X148605533Y-71389160D02*
X148748390Y-71341541D01*
X148748390Y-71341541D02*
X149319819Y-70770113D01*
X149319819Y-70770113D02*
X149319819Y-71389160D01*
X148748390Y-72722494D02*
X148700771Y-72627256D01*
X148700771Y-72627256D02*
X148653152Y-72579637D01*
X148653152Y-72579637D02*
X148557914Y-72532018D01*
X148557914Y-72532018D02*
X148510295Y-72532018D01*
X148510295Y-72532018D02*
X148415057Y-72579637D01*
X148415057Y-72579637D02*
X148367438Y-72627256D01*
X148367438Y-72627256D02*
X148319819Y-72722494D01*
X148319819Y-72722494D02*
X148319819Y-72912970D01*
X148319819Y-72912970D02*
X148367438Y-73008208D01*
X148367438Y-73008208D02*
X148415057Y-73055827D01*
X148415057Y-73055827D02*
X148510295Y-73103446D01*
X148510295Y-73103446D02*
X148557914Y-73103446D01*
X148557914Y-73103446D02*
X148653152Y-73055827D01*
X148653152Y-73055827D02*
X148700771Y-73008208D01*
X148700771Y-73008208D02*
X148748390Y-72912970D01*
X148748390Y-72912970D02*
X148748390Y-72722494D01*
X148748390Y-72722494D02*
X148796009Y-72627256D01*
X148796009Y-72627256D02*
X148843628Y-72579637D01*
X148843628Y-72579637D02*
X148938866Y-72532018D01*
X148938866Y-72532018D02*
X149129342Y-72532018D01*
X149129342Y-72532018D02*
X149224580Y-72579637D01*
X149224580Y-72579637D02*
X149272200Y-72627256D01*
X149272200Y-72627256D02*
X149319819Y-72722494D01*
X149319819Y-72722494D02*
X149319819Y-72912970D01*
X149319819Y-72912970D02*
X149272200Y-73008208D01*
X149272200Y-73008208D02*
X149224580Y-73055827D01*
X149224580Y-73055827D02*
X149129342Y-73103446D01*
X149129342Y-73103446D02*
X148938866Y-73103446D01*
X148938866Y-73103446D02*
X148843628Y-73055827D01*
X148843628Y-73055827D02*
X148796009Y-73008208D01*
X148796009Y-73008208D02*
X148748390Y-72912970D01*
X148938866Y-73532018D02*
X148938866Y-74293923D01*
X149319819Y-74770113D02*
X148319819Y-74770113D01*
X148319819Y-74770113D02*
X149319819Y-75341541D01*
X149319819Y-75341541D02*
X148319819Y-75341541D01*
X149319819Y-75817732D02*
X148319819Y-75817732D01*
X148319819Y-75817732D02*
X148319819Y-76055827D01*
X148319819Y-76055827D02*
X148367438Y-76198684D01*
X148367438Y-76198684D02*
X148462676Y-76293922D01*
X148462676Y-76293922D02*
X148557914Y-76341541D01*
X148557914Y-76341541D02*
X148748390Y-76389160D01*
X148748390Y-76389160D02*
X148891247Y-76389160D01*
X148891247Y-76389160D02*
X149081723Y-76341541D01*
X149081723Y-76341541D02*
X149176961Y-76293922D01*
X149176961Y-76293922D02*
X149272200Y-76198684D01*
X149272200Y-76198684D02*
X149319819Y-76055827D01*
X149319819Y-76055827D02*
X149319819Y-75817732D01*
X148415057Y-76770113D02*
X148367438Y-76817732D01*
X148367438Y-76817732D02*
X148319819Y-76912970D01*
X148319819Y-76912970D02*
X148319819Y-77151065D01*
X148319819Y-77151065D02*
X148367438Y-77246303D01*
X148367438Y-77246303D02*
X148415057Y-77293922D01*
X148415057Y-77293922D02*
X148510295Y-77341541D01*
X148510295Y-77341541D02*
X148605533Y-77341541D01*
X148605533Y-77341541D02*
X148748390Y-77293922D01*
X148748390Y-77293922D02*
X149319819Y-76722494D01*
X149319819Y-76722494D02*
X149319819Y-77341541D01*
X149415057Y-77532018D02*
X149415057Y-78293922D01*
X148415057Y-78484399D02*
X148367438Y-78532018D01*
X148367438Y-78532018D02*
X148319819Y-78627256D01*
X148319819Y-78627256D02*
X148319819Y-78865351D01*
X148319819Y-78865351D02*
X148367438Y-78960589D01*
X148367438Y-78960589D02*
X148415057Y-79008208D01*
X148415057Y-79008208D02*
X148510295Y-79055827D01*
X148510295Y-79055827D02*
X148605533Y-79055827D01*
X148605533Y-79055827D02*
X148748390Y-79008208D01*
X148748390Y-79008208D02*
X149319819Y-78436780D01*
X149319819Y-78436780D02*
X149319819Y-79055827D01*
X117980180Y-111013220D02*
X118980180Y-111013220D01*
X118980180Y-111013220D02*
X118980180Y-110775125D01*
X118980180Y-110775125D02*
X118932561Y-110632268D01*
X118932561Y-110632268D02*
X118837323Y-110537030D01*
X118837323Y-110537030D02*
X118742085Y-110489411D01*
X118742085Y-110489411D02*
X118551609Y-110441792D01*
X118551609Y-110441792D02*
X118408752Y-110441792D01*
X118408752Y-110441792D02*
X118218276Y-110489411D01*
X118218276Y-110489411D02*
X118123038Y-110537030D01*
X118123038Y-110537030D02*
X118027800Y-110632268D01*
X118027800Y-110632268D02*
X117980180Y-110775125D01*
X117980180Y-110775125D02*
X117980180Y-111013220D01*
X117980180Y-110013220D02*
X118980180Y-110013220D01*
X118027800Y-109584649D02*
X117980180Y-109441792D01*
X117980180Y-109441792D02*
X117980180Y-109203697D01*
X117980180Y-109203697D02*
X118027800Y-109108459D01*
X118027800Y-109108459D02*
X118075419Y-109060840D01*
X118075419Y-109060840D02*
X118170657Y-109013221D01*
X118170657Y-109013221D02*
X118265895Y-109013221D01*
X118265895Y-109013221D02*
X118361133Y-109060840D01*
X118361133Y-109060840D02*
X118408752Y-109108459D01*
X118408752Y-109108459D02*
X118456371Y-109203697D01*
X118456371Y-109203697D02*
X118503990Y-109394173D01*
X118503990Y-109394173D02*
X118551609Y-109489411D01*
X118551609Y-109489411D02*
X118599228Y-109537030D01*
X118599228Y-109537030D02*
X118694466Y-109584649D01*
X118694466Y-109584649D02*
X118789704Y-109584649D01*
X118789704Y-109584649D02*
X118884942Y-109537030D01*
X118884942Y-109537030D02*
X118932561Y-109489411D01*
X118932561Y-109489411D02*
X118980180Y-109394173D01*
X118980180Y-109394173D02*
X118980180Y-109156078D01*
X118980180Y-109156078D02*
X118932561Y-109013221D01*
X118980180Y-108727506D02*
X118980180Y-108156078D01*
X117980180Y-108441792D02*
X118980180Y-108441792D01*
X117884942Y-108060840D02*
X117884942Y-107298935D01*
X117980180Y-106584649D02*
X117980180Y-107060839D01*
X117980180Y-107060839D02*
X118980180Y-107060839D01*
X118330180Y-76663220D02*
X119330180Y-76663220D01*
X119330180Y-76663220D02*
X119330180Y-76425125D01*
X119330180Y-76425125D02*
X119282561Y-76282268D01*
X119282561Y-76282268D02*
X119187323Y-76187030D01*
X119187323Y-76187030D02*
X119092085Y-76139411D01*
X119092085Y-76139411D02*
X118901609Y-76091792D01*
X118901609Y-76091792D02*
X118758752Y-76091792D01*
X118758752Y-76091792D02*
X118568276Y-76139411D01*
X118568276Y-76139411D02*
X118473038Y-76187030D01*
X118473038Y-76187030D02*
X118377800Y-76282268D01*
X118377800Y-76282268D02*
X118330180Y-76425125D01*
X118330180Y-76425125D02*
X118330180Y-76663220D01*
X118330180Y-75663220D02*
X119330180Y-75663220D01*
X118377800Y-75234649D02*
X118330180Y-75091792D01*
X118330180Y-75091792D02*
X118330180Y-74853697D01*
X118330180Y-74853697D02*
X118377800Y-74758459D01*
X118377800Y-74758459D02*
X118425419Y-74710840D01*
X118425419Y-74710840D02*
X118520657Y-74663221D01*
X118520657Y-74663221D02*
X118615895Y-74663221D01*
X118615895Y-74663221D02*
X118711133Y-74710840D01*
X118711133Y-74710840D02*
X118758752Y-74758459D01*
X118758752Y-74758459D02*
X118806371Y-74853697D01*
X118806371Y-74853697D02*
X118853990Y-75044173D01*
X118853990Y-75044173D02*
X118901609Y-75139411D01*
X118901609Y-75139411D02*
X118949228Y-75187030D01*
X118949228Y-75187030D02*
X119044466Y-75234649D01*
X119044466Y-75234649D02*
X119139704Y-75234649D01*
X119139704Y-75234649D02*
X119234942Y-75187030D01*
X119234942Y-75187030D02*
X119282561Y-75139411D01*
X119282561Y-75139411D02*
X119330180Y-75044173D01*
X119330180Y-75044173D02*
X119330180Y-74806078D01*
X119330180Y-74806078D02*
X119282561Y-74663221D01*
X119330180Y-74377506D02*
X119330180Y-73806078D01*
X118330180Y-74091792D02*
X119330180Y-74091792D01*
X118234942Y-73710840D02*
X118234942Y-72948935D01*
X118330180Y-72139411D02*
X118806371Y-72472744D01*
X118330180Y-72710839D02*
X119330180Y-72710839D01*
X119330180Y-72710839D02*
X119330180Y-72329887D01*
X119330180Y-72329887D02*
X119282561Y-72234649D01*
X119282561Y-72234649D02*
X119234942Y-72187030D01*
X119234942Y-72187030D02*
X119139704Y-72139411D01*
X119139704Y-72139411D02*
X118996847Y-72139411D01*
X118996847Y-72139411D02*
X118901609Y-72187030D01*
X118901609Y-72187030D02*
X118853990Y-72234649D01*
X118853990Y-72234649D02*
X118806371Y-72329887D01*
X118806371Y-72329887D02*
X118806371Y-72710839D01*
X146169819Y-98862969D02*
X146169819Y-98386779D01*
X146169819Y-98386779D02*
X146646009Y-98339160D01*
X146646009Y-98339160D02*
X146598390Y-98386779D01*
X146598390Y-98386779D02*
X146550771Y-98482017D01*
X146550771Y-98482017D02*
X146550771Y-98720112D01*
X146550771Y-98720112D02*
X146598390Y-98815350D01*
X146598390Y-98815350D02*
X146646009Y-98862969D01*
X146646009Y-98862969D02*
X146741247Y-98910588D01*
X146741247Y-98910588D02*
X146979342Y-98910588D01*
X146979342Y-98910588D02*
X147074580Y-98862969D01*
X147074580Y-98862969D02*
X147122200Y-98815350D01*
X147122200Y-98815350D02*
X147169819Y-98720112D01*
X147169819Y-98720112D02*
X147169819Y-98482017D01*
X147169819Y-98482017D02*
X147122200Y-98386779D01*
X147122200Y-98386779D02*
X147074580Y-98339160D01*
X142715057Y-93639160D02*
X142667438Y-93686779D01*
X142667438Y-93686779D02*
X142619819Y-93782017D01*
X142619819Y-93782017D02*
X142619819Y-94020112D01*
X142619819Y-94020112D02*
X142667438Y-94115350D01*
X142667438Y-94115350D02*
X142715057Y-94162969D01*
X142715057Y-94162969D02*
X142810295Y-94210588D01*
X142810295Y-94210588D02*
X142905533Y-94210588D01*
X142905533Y-94210588D02*
X143048390Y-94162969D01*
X143048390Y-94162969D02*
X143619819Y-93591541D01*
X143619819Y-93591541D02*
X143619819Y-94210588D01*
X146119819Y-94115350D02*
X146119819Y-93924874D01*
X146119819Y-93924874D02*
X146167438Y-93829636D01*
X146167438Y-93829636D02*
X146215057Y-93782017D01*
X146215057Y-93782017D02*
X146357914Y-93686779D01*
X146357914Y-93686779D02*
X146548390Y-93639160D01*
X146548390Y-93639160D02*
X146929342Y-93639160D01*
X146929342Y-93639160D02*
X147024580Y-93686779D01*
X147024580Y-93686779D02*
X147072200Y-93734398D01*
X147072200Y-93734398D02*
X147119819Y-93829636D01*
X147119819Y-93829636D02*
X147119819Y-94020112D01*
X147119819Y-94020112D02*
X147072200Y-94115350D01*
X147072200Y-94115350D02*
X147024580Y-94162969D01*
X147024580Y-94162969D02*
X146929342Y-94210588D01*
X146929342Y-94210588D02*
X146691247Y-94210588D01*
X146691247Y-94210588D02*
X146596009Y-94162969D01*
X146596009Y-94162969D02*
X146548390Y-94115350D01*
X146548390Y-94115350D02*
X146500771Y-94020112D01*
X146500771Y-94020112D02*
X146500771Y-93829636D01*
X146500771Y-93829636D02*
X146548390Y-93734398D01*
X146548390Y-93734398D02*
X146596009Y-93686779D01*
X146596009Y-93686779D02*
X146691247Y-93639160D01*
X118030180Y-61487030D02*
X118030180Y-61963220D01*
X118030180Y-61963220D02*
X119030180Y-61963220D01*
X118030180Y-61153696D02*
X119030180Y-61153696D01*
X118030180Y-60677506D02*
X119030180Y-60677506D01*
X119030180Y-60677506D02*
X118030180Y-60106078D01*
X118030180Y-60106078D02*
X119030180Y-60106078D01*
X118553990Y-59629887D02*
X118553990Y-59296554D01*
X118030180Y-59153697D02*
X118030180Y-59629887D01*
X118030180Y-59629887D02*
X119030180Y-59629887D01*
X119030180Y-59629887D02*
X119030180Y-59153697D01*
X117934942Y-58963221D02*
X117934942Y-58201316D01*
X118030180Y-57391792D02*
X118506371Y-57725125D01*
X118030180Y-57963220D02*
X119030180Y-57963220D01*
X119030180Y-57963220D02*
X119030180Y-57582268D01*
X119030180Y-57582268D02*
X118982561Y-57487030D01*
X118982561Y-57487030D02*
X118934942Y-57439411D01*
X118934942Y-57439411D02*
X118839704Y-57391792D01*
X118839704Y-57391792D02*
X118696847Y-57391792D01*
X118696847Y-57391792D02*
X118601609Y-57439411D01*
X118601609Y-57439411D02*
X118553990Y-57487030D01*
X118553990Y-57487030D02*
X118506371Y-57582268D01*
X118506371Y-57582268D02*
X118506371Y-57963220D01*
X118080180Y-124937030D02*
X118080180Y-125413220D01*
X118080180Y-125413220D02*
X119080180Y-125413220D01*
X118080180Y-124603696D02*
X119080180Y-124603696D01*
X118080180Y-124127506D02*
X119080180Y-124127506D01*
X119080180Y-124127506D02*
X118080180Y-123556078D01*
X118080180Y-123556078D02*
X119080180Y-123556078D01*
X118603990Y-123079887D02*
X118603990Y-122746554D01*
X118080180Y-122603697D02*
X118080180Y-123079887D01*
X118080180Y-123079887D02*
X119080180Y-123079887D01*
X119080180Y-123079887D02*
X119080180Y-122603697D01*
X117984942Y-122413221D02*
X117984942Y-121651316D01*
X118080180Y-120937030D02*
X118080180Y-121413220D01*
X118080180Y-121413220D02*
X119080180Y-121413220D01*
X118030180Y-103663220D02*
X119030180Y-103663220D01*
X119030180Y-103663220D02*
X119030180Y-103425125D01*
X119030180Y-103425125D02*
X118982561Y-103282268D01*
X118982561Y-103282268D02*
X118887323Y-103187030D01*
X118887323Y-103187030D02*
X118792085Y-103139411D01*
X118792085Y-103139411D02*
X118601609Y-103091792D01*
X118601609Y-103091792D02*
X118458752Y-103091792D01*
X118458752Y-103091792D02*
X118268276Y-103139411D01*
X118268276Y-103139411D02*
X118173038Y-103187030D01*
X118173038Y-103187030D02*
X118077800Y-103282268D01*
X118077800Y-103282268D02*
X118030180Y-103425125D01*
X118030180Y-103425125D02*
X118030180Y-103663220D01*
X118030180Y-102663220D02*
X119030180Y-102663220D01*
X118077800Y-102234649D02*
X118030180Y-102091792D01*
X118030180Y-102091792D02*
X118030180Y-101853697D01*
X118030180Y-101853697D02*
X118077800Y-101758459D01*
X118077800Y-101758459D02*
X118125419Y-101710840D01*
X118125419Y-101710840D02*
X118220657Y-101663221D01*
X118220657Y-101663221D02*
X118315895Y-101663221D01*
X118315895Y-101663221D02*
X118411133Y-101710840D01*
X118411133Y-101710840D02*
X118458752Y-101758459D01*
X118458752Y-101758459D02*
X118506371Y-101853697D01*
X118506371Y-101853697D02*
X118553990Y-102044173D01*
X118553990Y-102044173D02*
X118601609Y-102139411D01*
X118601609Y-102139411D02*
X118649228Y-102187030D01*
X118649228Y-102187030D02*
X118744466Y-102234649D01*
X118744466Y-102234649D02*
X118839704Y-102234649D01*
X118839704Y-102234649D02*
X118934942Y-102187030D01*
X118934942Y-102187030D02*
X118982561Y-102139411D01*
X118982561Y-102139411D02*
X119030180Y-102044173D01*
X119030180Y-102044173D02*
X119030180Y-101806078D01*
X119030180Y-101806078D02*
X118982561Y-101663221D01*
X119030180Y-101377506D02*
X119030180Y-100806078D01*
X118030180Y-101091792D02*
X119030180Y-101091792D01*
X117934942Y-100710840D02*
X117934942Y-99948935D01*
X118030180Y-99234649D02*
X118030180Y-99710839D01*
X118030180Y-99710839D02*
X119030180Y-99710839D01*
X118553990Y-98567982D02*
X118553990Y-98901315D01*
X118030180Y-98901315D02*
X119030180Y-98901315D01*
X119030180Y-98901315D02*
X119030180Y-98425125D01*
X118280180Y-70363220D02*
X119280180Y-70363220D01*
X119280180Y-70363220D02*
X119280180Y-70125125D01*
X119280180Y-70125125D02*
X119232561Y-69982268D01*
X119232561Y-69982268D02*
X119137323Y-69887030D01*
X119137323Y-69887030D02*
X119042085Y-69839411D01*
X119042085Y-69839411D02*
X118851609Y-69791792D01*
X118851609Y-69791792D02*
X118708752Y-69791792D01*
X118708752Y-69791792D02*
X118518276Y-69839411D01*
X118518276Y-69839411D02*
X118423038Y-69887030D01*
X118423038Y-69887030D02*
X118327800Y-69982268D01*
X118327800Y-69982268D02*
X118280180Y-70125125D01*
X118280180Y-70125125D02*
X118280180Y-70363220D01*
X118280180Y-69363220D02*
X119280180Y-69363220D01*
X118327800Y-68934649D02*
X118280180Y-68791792D01*
X118280180Y-68791792D02*
X118280180Y-68553697D01*
X118280180Y-68553697D02*
X118327800Y-68458459D01*
X118327800Y-68458459D02*
X118375419Y-68410840D01*
X118375419Y-68410840D02*
X118470657Y-68363221D01*
X118470657Y-68363221D02*
X118565895Y-68363221D01*
X118565895Y-68363221D02*
X118661133Y-68410840D01*
X118661133Y-68410840D02*
X118708752Y-68458459D01*
X118708752Y-68458459D02*
X118756371Y-68553697D01*
X118756371Y-68553697D02*
X118803990Y-68744173D01*
X118803990Y-68744173D02*
X118851609Y-68839411D01*
X118851609Y-68839411D02*
X118899228Y-68887030D01*
X118899228Y-68887030D02*
X118994466Y-68934649D01*
X118994466Y-68934649D02*
X119089704Y-68934649D01*
X119089704Y-68934649D02*
X119184942Y-68887030D01*
X119184942Y-68887030D02*
X119232561Y-68839411D01*
X119232561Y-68839411D02*
X119280180Y-68744173D01*
X119280180Y-68744173D02*
X119280180Y-68506078D01*
X119280180Y-68506078D02*
X119232561Y-68363221D01*
X119280180Y-68077506D02*
X119280180Y-67506078D01*
X118280180Y-67791792D02*
X119280180Y-67791792D01*
X118184942Y-67410840D02*
X118184942Y-66648935D01*
X118280180Y-65839411D02*
X118756371Y-66172744D01*
X118280180Y-66410839D02*
X119280180Y-66410839D01*
X119280180Y-66410839D02*
X119280180Y-66029887D01*
X119280180Y-66029887D02*
X119232561Y-65934649D01*
X119232561Y-65934649D02*
X119184942Y-65887030D01*
X119184942Y-65887030D02*
X119089704Y-65839411D01*
X119089704Y-65839411D02*
X118946847Y-65839411D01*
X118946847Y-65839411D02*
X118851609Y-65887030D01*
X118851609Y-65887030D02*
X118803990Y-65934649D01*
X118803990Y-65934649D02*
X118756371Y-66029887D01*
X118756371Y-66029887D02*
X118756371Y-66410839D01*
X118280180Y-65363220D02*
X118280180Y-65172744D01*
X118280180Y-65172744D02*
X118327800Y-65077506D01*
X118327800Y-65077506D02*
X118375419Y-65029887D01*
X118375419Y-65029887D02*
X118518276Y-64934649D01*
X118518276Y-64934649D02*
X118708752Y-64887030D01*
X118708752Y-64887030D02*
X119089704Y-64887030D01*
X119089704Y-64887030D02*
X119184942Y-64934649D01*
X119184942Y-64934649D02*
X119232561Y-64982268D01*
X119232561Y-64982268D02*
X119280180Y-65077506D01*
X119280180Y-65077506D02*
X119280180Y-65267982D01*
X119280180Y-65267982D02*
X119232561Y-65363220D01*
X119232561Y-65363220D02*
X119184942Y-65410839D01*
X119184942Y-65410839D02*
X119089704Y-65458458D01*
X119089704Y-65458458D02*
X118851609Y-65458458D01*
X118851609Y-65458458D02*
X118756371Y-65410839D01*
X118756371Y-65410839D02*
X118708752Y-65363220D01*
X118708752Y-65363220D02*
X118661133Y-65267982D01*
X118661133Y-65267982D02*
X118661133Y-65077506D01*
X118661133Y-65077506D02*
X118708752Y-64982268D01*
X118708752Y-64982268D02*
X118756371Y-64934649D01*
X118756371Y-64934649D02*
X118851609Y-64887030D01*
X119280180Y-64267982D02*
X119280180Y-64172744D01*
X119280180Y-64172744D02*
X119232561Y-64077506D01*
X119232561Y-64077506D02*
X119184942Y-64029887D01*
X119184942Y-64029887D02*
X119089704Y-63982268D01*
X119089704Y-63982268D02*
X118899228Y-63934649D01*
X118899228Y-63934649D02*
X118661133Y-63934649D01*
X118661133Y-63934649D02*
X118470657Y-63982268D01*
X118470657Y-63982268D02*
X118375419Y-64029887D01*
X118375419Y-64029887D02*
X118327800Y-64077506D01*
X118327800Y-64077506D02*
X118280180Y-64172744D01*
X118280180Y-64172744D02*
X118280180Y-64267982D01*
X118280180Y-64267982D02*
X118327800Y-64363220D01*
X118327800Y-64363220D02*
X118375419Y-64410839D01*
X118375419Y-64410839D02*
X118470657Y-64458458D01*
X118470657Y-64458458D02*
X118661133Y-64506077D01*
X118661133Y-64506077D02*
X118899228Y-64506077D01*
X118899228Y-64506077D02*
X119089704Y-64458458D01*
X119089704Y-64458458D02*
X119184942Y-64410839D01*
X119184942Y-64410839D02*
X119232561Y-64363220D01*
X119232561Y-64363220D02*
X119280180Y-64267982D01*
X146219819Y-89041541D02*
X146219819Y-89708207D01*
X146219819Y-89708207D02*
X147219819Y-89279636D01*
X117980180Y-118863220D02*
X118980180Y-118863220D01*
X118980180Y-118863220D02*
X118980180Y-118625125D01*
X118980180Y-118625125D02*
X118932561Y-118482268D01*
X118932561Y-118482268D02*
X118837323Y-118387030D01*
X118837323Y-118387030D02*
X118742085Y-118339411D01*
X118742085Y-118339411D02*
X118551609Y-118291792D01*
X118551609Y-118291792D02*
X118408752Y-118291792D01*
X118408752Y-118291792D02*
X118218276Y-118339411D01*
X118218276Y-118339411D02*
X118123038Y-118387030D01*
X118123038Y-118387030D02*
X118027800Y-118482268D01*
X118027800Y-118482268D02*
X117980180Y-118625125D01*
X117980180Y-118625125D02*
X117980180Y-118863220D01*
X117980180Y-117863220D02*
X118980180Y-117863220D01*
X118027800Y-117434649D02*
X117980180Y-117291792D01*
X117980180Y-117291792D02*
X117980180Y-117053697D01*
X117980180Y-117053697D02*
X118027800Y-116958459D01*
X118027800Y-116958459D02*
X118075419Y-116910840D01*
X118075419Y-116910840D02*
X118170657Y-116863221D01*
X118170657Y-116863221D02*
X118265895Y-116863221D01*
X118265895Y-116863221D02*
X118361133Y-116910840D01*
X118361133Y-116910840D02*
X118408752Y-116958459D01*
X118408752Y-116958459D02*
X118456371Y-117053697D01*
X118456371Y-117053697D02*
X118503990Y-117244173D01*
X118503990Y-117244173D02*
X118551609Y-117339411D01*
X118551609Y-117339411D02*
X118599228Y-117387030D01*
X118599228Y-117387030D02*
X118694466Y-117434649D01*
X118694466Y-117434649D02*
X118789704Y-117434649D01*
X118789704Y-117434649D02*
X118884942Y-117387030D01*
X118884942Y-117387030D02*
X118932561Y-117339411D01*
X118932561Y-117339411D02*
X118980180Y-117244173D01*
X118980180Y-117244173D02*
X118980180Y-117006078D01*
X118980180Y-117006078D02*
X118932561Y-116863221D01*
X118980180Y-116577506D02*
X118980180Y-116006078D01*
X117980180Y-116291792D02*
X118980180Y-116291792D01*
X117884942Y-115910840D02*
X117884942Y-115148935D01*
X117980180Y-114434649D02*
X117980180Y-114910839D01*
X117980180Y-114910839D02*
X118980180Y-114910839D01*
X117980180Y-114053696D02*
X117980180Y-113863220D01*
X117980180Y-113863220D02*
X118027800Y-113767982D01*
X118027800Y-113767982D02*
X118075419Y-113720363D01*
X118075419Y-113720363D02*
X118218276Y-113625125D01*
X118218276Y-113625125D02*
X118408752Y-113577506D01*
X118408752Y-113577506D02*
X118789704Y-113577506D01*
X118789704Y-113577506D02*
X118884942Y-113625125D01*
X118884942Y-113625125D02*
X118932561Y-113672744D01*
X118932561Y-113672744D02*
X118980180Y-113767982D01*
X118980180Y-113767982D02*
X118980180Y-113958458D01*
X118980180Y-113958458D02*
X118932561Y-114053696D01*
X118932561Y-114053696D02*
X118884942Y-114101315D01*
X118884942Y-114101315D02*
X118789704Y-114148934D01*
X118789704Y-114148934D02*
X118551609Y-114148934D01*
X118551609Y-114148934D02*
X118456371Y-114101315D01*
X118456371Y-114101315D02*
X118408752Y-114053696D01*
X118408752Y-114053696D02*
X118361133Y-113958458D01*
X118361133Y-113958458D02*
X118361133Y-113767982D01*
X118361133Y-113767982D02*
X118408752Y-113672744D01*
X118408752Y-113672744D02*
X118456371Y-113625125D01*
X118456371Y-113625125D02*
X118551609Y-113577506D01*
X118980180Y-112958458D02*
X118980180Y-112863220D01*
X118980180Y-112863220D02*
X118932561Y-112767982D01*
X118932561Y-112767982D02*
X118884942Y-112720363D01*
X118884942Y-112720363D02*
X118789704Y-112672744D01*
X118789704Y-112672744D02*
X118599228Y-112625125D01*
X118599228Y-112625125D02*
X118361133Y-112625125D01*
X118361133Y-112625125D02*
X118170657Y-112672744D01*
X118170657Y-112672744D02*
X118075419Y-112720363D01*
X118075419Y-112720363D02*
X118027800Y-112767982D01*
X118027800Y-112767982D02*
X117980180Y-112863220D01*
X117980180Y-112863220D02*
X117980180Y-112958458D01*
X117980180Y-112958458D02*
X118027800Y-113053696D01*
X118027800Y-113053696D02*
X118075419Y-113101315D01*
X118075419Y-113101315D02*
X118170657Y-113148934D01*
X118170657Y-113148934D02*
X118361133Y-113196553D01*
X118361133Y-113196553D02*
X118599228Y-113196553D01*
X118599228Y-113196553D02*
X118789704Y-113148934D01*
X118789704Y-113148934D02*
X118884942Y-113101315D01*
X118884942Y-113101315D02*
X118932561Y-113053696D01*
X118932561Y-113053696D02*
X118980180Y-112958458D01*
X142669819Y-88991541D02*
X142669819Y-89610588D01*
X142669819Y-89610588D02*
X143050771Y-89277255D01*
X143050771Y-89277255D02*
X143050771Y-89420112D01*
X143050771Y-89420112D02*
X143098390Y-89515350D01*
X143098390Y-89515350D02*
X143146009Y-89562969D01*
X143146009Y-89562969D02*
X143241247Y-89610588D01*
X143241247Y-89610588D02*
X143479342Y-89610588D01*
X143479342Y-89610588D02*
X143574580Y-89562969D01*
X143574580Y-89562969D02*
X143622200Y-89515350D01*
X143622200Y-89515350D02*
X143669819Y-89420112D01*
X143669819Y-89420112D02*
X143669819Y-89134398D01*
X143669819Y-89134398D02*
X143622200Y-89039160D01*
X143622200Y-89039160D02*
X143574580Y-88991541D01*
X146598390Y-84579636D02*
X146550771Y-84484398D01*
X146550771Y-84484398D02*
X146503152Y-84436779D01*
X146503152Y-84436779D02*
X146407914Y-84389160D01*
X146407914Y-84389160D02*
X146360295Y-84389160D01*
X146360295Y-84389160D02*
X146265057Y-84436779D01*
X146265057Y-84436779D02*
X146217438Y-84484398D01*
X146217438Y-84484398D02*
X146169819Y-84579636D01*
X146169819Y-84579636D02*
X146169819Y-84770112D01*
X146169819Y-84770112D02*
X146217438Y-84865350D01*
X146217438Y-84865350D02*
X146265057Y-84912969D01*
X146265057Y-84912969D02*
X146360295Y-84960588D01*
X146360295Y-84960588D02*
X146407914Y-84960588D01*
X146407914Y-84960588D02*
X146503152Y-84912969D01*
X146503152Y-84912969D02*
X146550771Y-84865350D01*
X146550771Y-84865350D02*
X146598390Y-84770112D01*
X146598390Y-84770112D02*
X146598390Y-84579636D01*
X146598390Y-84579636D02*
X146646009Y-84484398D01*
X146646009Y-84484398D02*
X146693628Y-84436779D01*
X146693628Y-84436779D02*
X146788866Y-84389160D01*
X146788866Y-84389160D02*
X146979342Y-84389160D01*
X146979342Y-84389160D02*
X147074580Y-84436779D01*
X147074580Y-84436779D02*
X147122200Y-84484398D01*
X147122200Y-84484398D02*
X147169819Y-84579636D01*
X147169819Y-84579636D02*
X147169819Y-84770112D01*
X147169819Y-84770112D02*
X147122200Y-84865350D01*
X147122200Y-84865350D02*
X147074580Y-84912969D01*
X147074580Y-84912969D02*
X146979342Y-84960588D01*
X146979342Y-84960588D02*
X146788866Y-84960588D01*
X146788866Y-84960588D02*
X146693628Y-84912969D01*
X146693628Y-84912969D02*
X146646009Y-84865350D01*
X146646009Y-84865350D02*
X146598390Y-84770112D01*
X143003152Y-84965350D02*
X143669819Y-84965350D01*
X142622200Y-84727255D02*
X143336485Y-84489160D01*
X143336485Y-84489160D02*
X143336485Y-85108207D01*
X118030180Y-96063220D02*
X119030180Y-96063220D01*
X119030180Y-96063220D02*
X119030180Y-95825125D01*
X119030180Y-95825125D02*
X118982561Y-95682268D01*
X118982561Y-95682268D02*
X118887323Y-95587030D01*
X118887323Y-95587030D02*
X118792085Y-95539411D01*
X118792085Y-95539411D02*
X118601609Y-95491792D01*
X118601609Y-95491792D02*
X118458752Y-95491792D01*
X118458752Y-95491792D02*
X118268276Y-95539411D01*
X118268276Y-95539411D02*
X118173038Y-95587030D01*
X118173038Y-95587030D02*
X118077800Y-95682268D01*
X118077800Y-95682268D02*
X118030180Y-95825125D01*
X118030180Y-95825125D02*
X118030180Y-96063220D01*
X118030180Y-95063220D02*
X119030180Y-95063220D01*
X118077800Y-94634649D02*
X118030180Y-94491792D01*
X118030180Y-94491792D02*
X118030180Y-94253697D01*
X118030180Y-94253697D02*
X118077800Y-94158459D01*
X118077800Y-94158459D02*
X118125419Y-94110840D01*
X118125419Y-94110840D02*
X118220657Y-94063221D01*
X118220657Y-94063221D02*
X118315895Y-94063221D01*
X118315895Y-94063221D02*
X118411133Y-94110840D01*
X118411133Y-94110840D02*
X118458752Y-94158459D01*
X118458752Y-94158459D02*
X118506371Y-94253697D01*
X118506371Y-94253697D02*
X118553990Y-94444173D01*
X118553990Y-94444173D02*
X118601609Y-94539411D01*
X118601609Y-94539411D02*
X118649228Y-94587030D01*
X118649228Y-94587030D02*
X118744466Y-94634649D01*
X118744466Y-94634649D02*
X118839704Y-94634649D01*
X118839704Y-94634649D02*
X118934942Y-94587030D01*
X118934942Y-94587030D02*
X118982561Y-94539411D01*
X118982561Y-94539411D02*
X119030180Y-94444173D01*
X119030180Y-94444173D02*
X119030180Y-94206078D01*
X119030180Y-94206078D02*
X118982561Y-94063221D01*
X119030180Y-93777506D02*
X119030180Y-93206078D01*
X118030180Y-93491792D02*
X119030180Y-93491792D01*
X117934942Y-93110840D02*
X117934942Y-92348935D01*
X118125419Y-91539411D02*
X118077800Y-91587030D01*
X118077800Y-91587030D02*
X118030180Y-91729887D01*
X118030180Y-91729887D02*
X118030180Y-91825125D01*
X118030180Y-91825125D02*
X118077800Y-91967982D01*
X118077800Y-91967982D02*
X118173038Y-92063220D01*
X118173038Y-92063220D02*
X118268276Y-92110839D01*
X118268276Y-92110839D02*
X118458752Y-92158458D01*
X118458752Y-92158458D02*
X118601609Y-92158458D01*
X118601609Y-92158458D02*
X118792085Y-92110839D01*
X118792085Y-92110839D02*
X118887323Y-92063220D01*
X118887323Y-92063220D02*
X118982561Y-91967982D01*
X118982561Y-91967982D02*
X119030180Y-91825125D01*
X119030180Y-91825125D02*
X119030180Y-91729887D01*
X119030180Y-91729887D02*
X118982561Y-91587030D01*
X118982561Y-91587030D02*
X118934942Y-91539411D01*
X118553990Y-91110839D02*
X118553990Y-90777506D01*
X118030180Y-90634649D02*
X118030180Y-91110839D01*
X118030180Y-91110839D02*
X119030180Y-91110839D01*
X119030180Y-91110839D02*
X119030180Y-90634649D01*
X118030180Y-90206077D02*
X119030180Y-90206077D01*
X119030180Y-90206077D02*
X118030180Y-89634649D01*
X118030180Y-89634649D02*
X119030180Y-89634649D01*
X119030180Y-89301315D02*
X119030180Y-88729887D01*
X118030180Y-89015601D02*
X119030180Y-89015601D01*
X118553990Y-88396553D02*
X118553990Y-88063220D01*
X118030180Y-87920363D02*
X118030180Y-88396553D01*
X118030180Y-88396553D02*
X119030180Y-88396553D01*
X119030180Y-88396553D02*
X119030180Y-87920363D01*
X118030180Y-86920363D02*
X118506371Y-87253696D01*
X118030180Y-87491791D02*
X119030180Y-87491791D01*
X119030180Y-87491791D02*
X119030180Y-87110839D01*
X119030180Y-87110839D02*
X118982561Y-87015601D01*
X118982561Y-87015601D02*
X118934942Y-86967982D01*
X118934942Y-86967982D02*
X118839704Y-86920363D01*
X118839704Y-86920363D02*
X118696847Y-86920363D01*
X118696847Y-86920363D02*
X118601609Y-86967982D01*
X118601609Y-86967982D02*
X118553990Y-87015601D01*
X118553990Y-87015601D02*
X118506371Y-87110839D01*
X118506371Y-87110839D02*
X118506371Y-87491791D01*
D11*
X116692580Y-68059523D02*
X115978295Y-68059523D01*
X115978295Y-68059523D02*
X115835438Y-68107142D01*
X115835438Y-68107142D02*
X115740200Y-68202380D01*
X115740200Y-68202380D02*
X115692580Y-68345237D01*
X115692580Y-68345237D02*
X115692580Y-68440475D01*
X115692580Y-67059523D02*
X115692580Y-67630951D01*
X115692580Y-67345237D02*
X116692580Y-67345237D01*
X116692580Y-67345237D02*
X116549723Y-67440475D01*
X116549723Y-67440475D02*
X116454485Y-67535713D01*
X116454485Y-67535713D02*
X116406866Y-67630951D01*
X116692580Y-66440475D02*
X116692580Y-66345237D01*
X116692580Y-66345237D02*
X116644961Y-66249999D01*
X116644961Y-66249999D02*
X116597342Y-66202380D01*
X116597342Y-66202380D02*
X116502104Y-66154761D01*
X116502104Y-66154761D02*
X116311628Y-66107142D01*
X116311628Y-66107142D02*
X116073533Y-66107142D01*
X116073533Y-66107142D02*
X115883057Y-66154761D01*
X115883057Y-66154761D02*
X115787819Y-66202380D01*
X115787819Y-66202380D02*
X115740200Y-66249999D01*
X115740200Y-66249999D02*
X115692580Y-66345237D01*
X115692580Y-66345237D02*
X115692580Y-66440475D01*
X115692580Y-66440475D02*
X115740200Y-66535713D01*
X115740200Y-66535713D02*
X115787819Y-66583332D01*
X115787819Y-66583332D02*
X115883057Y-66630951D01*
X115883057Y-66630951D02*
X116073533Y-66678570D01*
X116073533Y-66678570D02*
X116311628Y-66678570D01*
X116311628Y-66678570D02*
X116502104Y-66630951D01*
X116502104Y-66630951D02*
X116597342Y-66583332D01*
X116597342Y-66583332D02*
X116644961Y-66535713D01*
X116644961Y-66535713D02*
X116692580Y-66440475D01*
D10*
X134714819Y-125493333D02*
X134238628Y-125160000D01*
X134714819Y-124921905D02*
X133714819Y-124921905D01*
X133714819Y-124921905D02*
X133714819Y-125302857D01*
X133714819Y-125302857D02*
X133762438Y-125398095D01*
X133762438Y-125398095D02*
X133810057Y-125445714D01*
X133810057Y-125445714D02*
X133905295Y-125493333D01*
X133905295Y-125493333D02*
X134048152Y-125493333D01*
X134048152Y-125493333D02*
X134143390Y-125445714D01*
X134143390Y-125445714D02*
X134191009Y-125398095D01*
X134191009Y-125398095D02*
X134238628Y-125302857D01*
X134238628Y-125302857D02*
X134238628Y-124921905D01*
X133810057Y-125874286D02*
X133762438Y-125921905D01*
X133762438Y-125921905D02*
X133714819Y-126017143D01*
X133714819Y-126017143D02*
X133714819Y-126255238D01*
X133714819Y-126255238D02*
X133762438Y-126350476D01*
X133762438Y-126350476D02*
X133810057Y-126398095D01*
X133810057Y-126398095D02*
X133905295Y-126445714D01*
X133905295Y-126445714D02*
X134000533Y-126445714D01*
X134000533Y-126445714D02*
X134143390Y-126398095D01*
X134143390Y-126398095D02*
X134714819Y-125826667D01*
X134714819Y-125826667D02*
X134714819Y-126445714D01*
D11*
X116542580Y-92133333D02*
X115828295Y-92133333D01*
X115828295Y-92133333D02*
X115685438Y-92180952D01*
X115685438Y-92180952D02*
X115590200Y-92276190D01*
X115590200Y-92276190D02*
X115542580Y-92419047D01*
X115542580Y-92419047D02*
X115542580Y-92514285D01*
X116114009Y-91514285D02*
X116161628Y-91609523D01*
X116161628Y-91609523D02*
X116209247Y-91657142D01*
X116209247Y-91657142D02*
X116304485Y-91704761D01*
X116304485Y-91704761D02*
X116352104Y-91704761D01*
X116352104Y-91704761D02*
X116447342Y-91657142D01*
X116447342Y-91657142D02*
X116494961Y-91609523D01*
X116494961Y-91609523D02*
X116542580Y-91514285D01*
X116542580Y-91514285D02*
X116542580Y-91323809D01*
X116542580Y-91323809D02*
X116494961Y-91228571D01*
X116494961Y-91228571D02*
X116447342Y-91180952D01*
X116447342Y-91180952D02*
X116352104Y-91133333D01*
X116352104Y-91133333D02*
X116304485Y-91133333D01*
X116304485Y-91133333D02*
X116209247Y-91180952D01*
X116209247Y-91180952D02*
X116161628Y-91228571D01*
X116161628Y-91228571D02*
X116114009Y-91323809D01*
X116114009Y-91323809D02*
X116114009Y-91514285D01*
X116114009Y-91514285D02*
X116066390Y-91609523D01*
X116066390Y-91609523D02*
X116018771Y-91657142D01*
X116018771Y-91657142D02*
X115923533Y-91704761D01*
X115923533Y-91704761D02*
X115733057Y-91704761D01*
X115733057Y-91704761D02*
X115637819Y-91657142D01*
X115637819Y-91657142D02*
X115590200Y-91609523D01*
X115590200Y-91609523D02*
X115542580Y-91514285D01*
X115542580Y-91514285D02*
X115542580Y-91323809D01*
X115542580Y-91323809D02*
X115590200Y-91228571D01*
X115590200Y-91228571D02*
X115637819Y-91180952D01*
X115637819Y-91180952D02*
X115733057Y-91133333D01*
X115733057Y-91133333D02*
X115923533Y-91133333D01*
X115923533Y-91133333D02*
X116018771Y-91180952D01*
X116018771Y-91180952D02*
X116066390Y-91228571D01*
X116066390Y-91228571D02*
X116114009Y-91323809D01*
D10*
X147259580Y-122283333D02*
X147307200Y-122235714D01*
X147307200Y-122235714D02*
X147354819Y-122092857D01*
X147354819Y-122092857D02*
X147354819Y-121997619D01*
X147354819Y-121997619D02*
X147307200Y-121854762D01*
X147307200Y-121854762D02*
X147211961Y-121759524D01*
X147211961Y-121759524D02*
X147116723Y-121711905D01*
X147116723Y-121711905D02*
X146926247Y-121664286D01*
X146926247Y-121664286D02*
X146783390Y-121664286D01*
X146783390Y-121664286D02*
X146592914Y-121711905D01*
X146592914Y-121711905D02*
X146497676Y-121759524D01*
X146497676Y-121759524D02*
X146402438Y-121854762D01*
X146402438Y-121854762D02*
X146354819Y-121997619D01*
X146354819Y-121997619D02*
X146354819Y-122092857D01*
X146354819Y-122092857D02*
X146402438Y-122235714D01*
X146402438Y-122235714D02*
X146450057Y-122283333D01*
X147354819Y-123235714D02*
X147354819Y-122664286D01*
X147354819Y-122950000D02*
X146354819Y-122950000D01*
X146354819Y-122950000D02*
X146497676Y-122854762D01*
X146497676Y-122854762D02*
X146592914Y-122759524D01*
X146592914Y-122759524D02*
X146640533Y-122664286D01*
X133883333Y-134114819D02*
X133883333Y-134829104D01*
X133883333Y-134829104D02*
X133930952Y-134971961D01*
X133930952Y-134971961D02*
X134026190Y-135067200D01*
X134026190Y-135067200D02*
X134169047Y-135114819D01*
X134169047Y-135114819D02*
X134264285Y-135114819D01*
X132883333Y-135114819D02*
X133454761Y-135114819D01*
X133169047Y-135114819D02*
X133169047Y-134114819D01*
X133169047Y-134114819D02*
X133264285Y-134257676D01*
X133264285Y-134257676D02*
X133359523Y-134352914D01*
X133359523Y-134352914D02*
X133454761Y-134400533D01*
D11*
X116942580Y-75309523D02*
X116228295Y-75309523D01*
X116228295Y-75309523D02*
X116085438Y-75357142D01*
X116085438Y-75357142D02*
X115990200Y-75452380D01*
X115990200Y-75452380D02*
X115942580Y-75595237D01*
X115942580Y-75595237D02*
X115942580Y-75690475D01*
X115942580Y-74309523D02*
X115942580Y-74880951D01*
X115942580Y-74595237D02*
X116942580Y-74595237D01*
X116942580Y-74595237D02*
X116799723Y-74690475D01*
X116799723Y-74690475D02*
X116704485Y-74785713D01*
X116704485Y-74785713D02*
X116656866Y-74880951D01*
X115942580Y-73357142D02*
X115942580Y-73928570D01*
X115942580Y-73642856D02*
X116942580Y-73642856D01*
X116942580Y-73642856D02*
X116799723Y-73738094D01*
X116799723Y-73738094D02*
X116704485Y-73833332D01*
X116704485Y-73833332D02*
X116656866Y-73928570D01*
D10*
X144952857Y-52184819D02*
X145286190Y-51708628D01*
X145524285Y-52184819D02*
X145524285Y-51184819D01*
X145524285Y-51184819D02*
X145143333Y-51184819D01*
X145143333Y-51184819D02*
X145048095Y-51232438D01*
X145048095Y-51232438D02*
X145000476Y-51280057D01*
X145000476Y-51280057D02*
X144952857Y-51375295D01*
X144952857Y-51375295D02*
X144952857Y-51518152D01*
X144952857Y-51518152D02*
X145000476Y-51613390D01*
X145000476Y-51613390D02*
X145048095Y-51661009D01*
X145048095Y-51661009D02*
X145143333Y-51708628D01*
X145143333Y-51708628D02*
X145524285Y-51708628D01*
X144000476Y-52184819D02*
X144571904Y-52184819D01*
X144286190Y-52184819D02*
X144286190Y-51184819D01*
X144286190Y-51184819D02*
X144381428Y-51327676D01*
X144381428Y-51327676D02*
X144476666Y-51422914D01*
X144476666Y-51422914D02*
X144571904Y-51470533D01*
X143095714Y-51184819D02*
X143571904Y-51184819D01*
X143571904Y-51184819D02*
X143619523Y-51661009D01*
X143619523Y-51661009D02*
X143571904Y-51613390D01*
X143571904Y-51613390D02*
X143476666Y-51565771D01*
X143476666Y-51565771D02*
X143238571Y-51565771D01*
X143238571Y-51565771D02*
X143143333Y-51613390D01*
X143143333Y-51613390D02*
X143095714Y-51661009D01*
X143095714Y-51661009D02*
X143048095Y-51756247D01*
X143048095Y-51756247D02*
X143048095Y-51994342D01*
X143048095Y-51994342D02*
X143095714Y-52089580D01*
X143095714Y-52089580D02*
X143143333Y-52137200D01*
X143143333Y-52137200D02*
X143238571Y-52184819D01*
X143238571Y-52184819D02*
X143476666Y-52184819D01*
X143476666Y-52184819D02*
X143571904Y-52137200D01*
X143571904Y-52137200D02*
X143619523Y-52089580D01*
X127238094Y-131654819D02*
X127238094Y-130654819D01*
X127238094Y-130654819D02*
X126999999Y-130654819D01*
X126999999Y-130654819D02*
X126857142Y-130702438D01*
X126857142Y-130702438D02*
X126761904Y-130797676D01*
X126761904Y-130797676D02*
X126714285Y-130892914D01*
X126714285Y-130892914D02*
X126666666Y-131083390D01*
X126666666Y-131083390D02*
X126666666Y-131226247D01*
X126666666Y-131226247D02*
X126714285Y-131416723D01*
X126714285Y-131416723D02*
X126761904Y-131511961D01*
X126761904Y-131511961D02*
X126857142Y-131607200D01*
X126857142Y-131607200D02*
X126999999Y-131654819D01*
X126999999Y-131654819D02*
X127238094Y-131654819D01*
X126333332Y-130654819D02*
X125714285Y-130654819D01*
X125714285Y-130654819D02*
X126047618Y-131035771D01*
X126047618Y-131035771D02*
X125904761Y-131035771D01*
X125904761Y-131035771D02*
X125809523Y-131083390D01*
X125809523Y-131083390D02*
X125761904Y-131131009D01*
X125761904Y-131131009D02*
X125714285Y-131226247D01*
X125714285Y-131226247D02*
X125714285Y-131464342D01*
X125714285Y-131464342D02*
X125761904Y-131559580D01*
X125761904Y-131559580D02*
X125809523Y-131607200D01*
X125809523Y-131607200D02*
X125904761Y-131654819D01*
X125904761Y-131654819D02*
X126190475Y-131654819D01*
X126190475Y-131654819D02*
X126285713Y-131607200D01*
X126285713Y-131607200D02*
X126333332Y-131559580D01*
D11*
X116992580Y-123909523D02*
X116278295Y-123909523D01*
X116278295Y-123909523D02*
X116135438Y-123957142D01*
X116135438Y-123957142D02*
X116040200Y-124052380D01*
X116040200Y-124052380D02*
X115992580Y-124195237D01*
X115992580Y-124195237D02*
X115992580Y-124290475D01*
X115992580Y-122909523D02*
X115992580Y-123480951D01*
X115992580Y-123195237D02*
X116992580Y-123195237D01*
X116992580Y-123195237D02*
X116849723Y-123290475D01*
X116849723Y-123290475D02*
X116754485Y-123385713D01*
X116754485Y-123385713D02*
X116706866Y-123480951D01*
X116992580Y-122004761D02*
X116992580Y-122480951D01*
X116992580Y-122480951D02*
X116516390Y-122528570D01*
X116516390Y-122528570D02*
X116564009Y-122480951D01*
X116564009Y-122480951D02*
X116611628Y-122385713D01*
X116611628Y-122385713D02*
X116611628Y-122147618D01*
X116611628Y-122147618D02*
X116564009Y-122052380D01*
X116564009Y-122052380D02*
X116516390Y-122004761D01*
X116516390Y-122004761D02*
X116421152Y-121957142D01*
X116421152Y-121957142D02*
X116183057Y-121957142D01*
X116183057Y-121957142D02*
X116087819Y-122004761D01*
X116087819Y-122004761D02*
X116040200Y-122052380D01*
X116040200Y-122052380D02*
X115992580Y-122147618D01*
X115992580Y-122147618D02*
X115992580Y-122385713D01*
X115992580Y-122385713D02*
X116040200Y-122480951D01*
X116040200Y-122480951D02*
X116087819Y-122528570D01*
D10*
X134324404Y-122954819D02*
X134324404Y-123764342D01*
X134324404Y-123764342D02*
X134276785Y-123859580D01*
X134276785Y-123859580D02*
X134229166Y-123907200D01*
X134229166Y-123907200D02*
X134133928Y-123954819D01*
X134133928Y-123954819D02*
X133943452Y-123954819D01*
X133943452Y-123954819D02*
X133848214Y-123907200D01*
X133848214Y-123907200D02*
X133800595Y-123859580D01*
X133800595Y-123859580D02*
X133752976Y-123764342D01*
X133752976Y-123764342D02*
X133752976Y-122954819D01*
X133324404Y-123050057D02*
X133276785Y-123002438D01*
X133276785Y-123002438D02*
X133181547Y-122954819D01*
X133181547Y-122954819D02*
X132943452Y-122954819D01*
X132943452Y-122954819D02*
X132848214Y-123002438D01*
X132848214Y-123002438D02*
X132800595Y-123050057D01*
X132800595Y-123050057D02*
X132752976Y-123145295D01*
X132752976Y-123145295D02*
X132752976Y-123240533D01*
X132752976Y-123240533D02*
X132800595Y-123383390D01*
X132800595Y-123383390D02*
X133372023Y-123954819D01*
X133372023Y-123954819D02*
X132752976Y-123954819D01*
X122838094Y-50004819D02*
X122838094Y-49004819D01*
X122838094Y-49004819D02*
X122599999Y-49004819D01*
X122599999Y-49004819D02*
X122457142Y-49052438D01*
X122457142Y-49052438D02*
X122361904Y-49147676D01*
X122361904Y-49147676D02*
X122314285Y-49242914D01*
X122314285Y-49242914D02*
X122266666Y-49433390D01*
X122266666Y-49433390D02*
X122266666Y-49576247D01*
X122266666Y-49576247D02*
X122314285Y-49766723D01*
X122314285Y-49766723D02*
X122361904Y-49861961D01*
X122361904Y-49861961D02*
X122457142Y-49957200D01*
X122457142Y-49957200D02*
X122599999Y-50004819D01*
X122599999Y-50004819D02*
X122838094Y-50004819D01*
X121361904Y-49004819D02*
X121838094Y-49004819D01*
X121838094Y-49004819D02*
X121885713Y-49481009D01*
X121885713Y-49481009D02*
X121838094Y-49433390D01*
X121838094Y-49433390D02*
X121742856Y-49385771D01*
X121742856Y-49385771D02*
X121504761Y-49385771D01*
X121504761Y-49385771D02*
X121409523Y-49433390D01*
X121409523Y-49433390D02*
X121361904Y-49481009D01*
X121361904Y-49481009D02*
X121314285Y-49576247D01*
X121314285Y-49576247D02*
X121314285Y-49814342D01*
X121314285Y-49814342D02*
X121361904Y-49909580D01*
X121361904Y-49909580D02*
X121409523Y-49957200D01*
X121409523Y-49957200D02*
X121504761Y-50004819D01*
X121504761Y-50004819D02*
X121742856Y-50004819D01*
X121742856Y-50004819D02*
X121838094Y-49957200D01*
X121838094Y-49957200D02*
X121885713Y-49909580D01*
D11*
X116842580Y-82759523D02*
X116128295Y-82759523D01*
X116128295Y-82759523D02*
X115985438Y-82807142D01*
X115985438Y-82807142D02*
X115890200Y-82902380D01*
X115890200Y-82902380D02*
X115842580Y-83045237D01*
X115842580Y-83045237D02*
X115842580Y-83140475D01*
X115842580Y-81759523D02*
X115842580Y-82330951D01*
X115842580Y-82045237D02*
X116842580Y-82045237D01*
X116842580Y-82045237D02*
X116699723Y-82140475D01*
X116699723Y-82140475D02*
X116604485Y-82235713D01*
X116604485Y-82235713D02*
X116556866Y-82330951D01*
X116747342Y-81378570D02*
X116794961Y-81330951D01*
X116794961Y-81330951D02*
X116842580Y-81235713D01*
X116842580Y-81235713D02*
X116842580Y-80997618D01*
X116842580Y-80997618D02*
X116794961Y-80902380D01*
X116794961Y-80902380D02*
X116747342Y-80854761D01*
X116747342Y-80854761D02*
X116652104Y-80807142D01*
X116652104Y-80807142D02*
X116556866Y-80807142D01*
X116556866Y-80807142D02*
X116414009Y-80854761D01*
X116414009Y-80854761D02*
X115842580Y-81426189D01*
X115842580Y-81426189D02*
X115842580Y-80807142D01*
X116842580Y-116609523D02*
X116128295Y-116609523D01*
X116128295Y-116609523D02*
X115985438Y-116657142D01*
X115985438Y-116657142D02*
X115890200Y-116752380D01*
X115890200Y-116752380D02*
X115842580Y-116895237D01*
X115842580Y-116895237D02*
X115842580Y-116990475D01*
X115842580Y-115609523D02*
X115842580Y-116180951D01*
X115842580Y-115895237D02*
X116842580Y-115895237D01*
X116842580Y-115895237D02*
X116699723Y-115990475D01*
X116699723Y-115990475D02*
X116604485Y-116085713D01*
X116604485Y-116085713D02*
X116556866Y-116180951D01*
X116842580Y-115276189D02*
X116842580Y-114657142D01*
X116842580Y-114657142D02*
X116461628Y-114990475D01*
X116461628Y-114990475D02*
X116461628Y-114847618D01*
X116461628Y-114847618D02*
X116414009Y-114752380D01*
X116414009Y-114752380D02*
X116366390Y-114704761D01*
X116366390Y-114704761D02*
X116271152Y-114657142D01*
X116271152Y-114657142D02*
X116033057Y-114657142D01*
X116033057Y-114657142D02*
X115937819Y-114704761D01*
X115937819Y-114704761D02*
X115890200Y-114752380D01*
X115890200Y-114752380D02*
X115842580Y-114847618D01*
X115842580Y-114847618D02*
X115842580Y-115133332D01*
X115842580Y-115133332D02*
X115890200Y-115228570D01*
X115890200Y-115228570D02*
X115937819Y-115276189D01*
D10*
X128817857Y-75429580D02*
X128865476Y-75477200D01*
X128865476Y-75477200D02*
X129008333Y-75524819D01*
X129008333Y-75524819D02*
X129103571Y-75524819D01*
X129103571Y-75524819D02*
X129246428Y-75477200D01*
X129246428Y-75477200D02*
X129341666Y-75381961D01*
X129341666Y-75381961D02*
X129389285Y-75286723D01*
X129389285Y-75286723D02*
X129436904Y-75096247D01*
X129436904Y-75096247D02*
X129436904Y-74953390D01*
X129436904Y-74953390D02*
X129389285Y-74762914D01*
X129389285Y-74762914D02*
X129341666Y-74667676D01*
X129341666Y-74667676D02*
X129246428Y-74572438D01*
X129246428Y-74572438D02*
X129103571Y-74524819D01*
X129103571Y-74524819D02*
X129008333Y-74524819D01*
X129008333Y-74524819D02*
X128865476Y-74572438D01*
X128865476Y-74572438D02*
X128817857Y-74620057D01*
X128436904Y-74620057D02*
X128389285Y-74572438D01*
X128389285Y-74572438D02*
X128294047Y-74524819D01*
X128294047Y-74524819D02*
X128055952Y-74524819D01*
X128055952Y-74524819D02*
X127960714Y-74572438D01*
X127960714Y-74572438D02*
X127913095Y-74620057D01*
X127913095Y-74620057D02*
X127865476Y-74715295D01*
X127865476Y-74715295D02*
X127865476Y-74810533D01*
X127865476Y-74810533D02*
X127913095Y-74953390D01*
X127913095Y-74953390D02*
X128484523Y-75524819D01*
X128484523Y-75524819D02*
X127865476Y-75524819D01*
X127532142Y-74524819D02*
X126865476Y-74524819D01*
X126865476Y-74524819D02*
X127294047Y-75524819D01*
X143504819Y-98885714D02*
X143504819Y-98314286D01*
X143504819Y-98600000D02*
X142504819Y-98600000D01*
X142504819Y-98600000D02*
X142647676Y-98504762D01*
X142647676Y-98504762D02*
X142742914Y-98409524D01*
X142742914Y-98409524D02*
X142790533Y-98314286D01*
D11*
X116892580Y-109359523D02*
X116178295Y-109359523D01*
X116178295Y-109359523D02*
X116035438Y-109407142D01*
X116035438Y-109407142D02*
X115940200Y-109502380D01*
X115940200Y-109502380D02*
X115892580Y-109645237D01*
X115892580Y-109645237D02*
X115892580Y-109740475D01*
X115892580Y-108359523D02*
X115892580Y-108930951D01*
X115892580Y-108645237D02*
X116892580Y-108645237D01*
X116892580Y-108645237D02*
X116749723Y-108740475D01*
X116749723Y-108740475D02*
X116654485Y-108835713D01*
X116654485Y-108835713D02*
X116606866Y-108930951D01*
X116559247Y-107502380D02*
X115892580Y-107502380D01*
X116940200Y-107740475D02*
X116225914Y-107978570D01*
X116225914Y-107978570D02*
X116225914Y-107359523D01*
D10*
X126214208Y-60284606D02*
X126261827Y-60332226D01*
X126261827Y-60332226D02*
X126404684Y-60379845D01*
X126404684Y-60379845D02*
X126499922Y-60379845D01*
X126499922Y-60379845D02*
X126642779Y-60332226D01*
X126642779Y-60332226D02*
X126738017Y-60236987D01*
X126738017Y-60236987D02*
X126785636Y-60141749D01*
X126785636Y-60141749D02*
X126833255Y-59951273D01*
X126833255Y-59951273D02*
X126833255Y-59808416D01*
X126833255Y-59808416D02*
X126785636Y-59617940D01*
X126785636Y-59617940D02*
X126738017Y-59522702D01*
X126738017Y-59522702D02*
X126642779Y-59427464D01*
X126642779Y-59427464D02*
X126499922Y-59379845D01*
X126499922Y-59379845D02*
X126404684Y-59379845D01*
X126404684Y-59379845D02*
X126261827Y-59427464D01*
X126261827Y-59427464D02*
X126214208Y-59475083D01*
X125833255Y-59475083D02*
X125785636Y-59427464D01*
X125785636Y-59427464D02*
X125690398Y-59379845D01*
X125690398Y-59379845D02*
X125452303Y-59379845D01*
X125452303Y-59379845D02*
X125357065Y-59427464D01*
X125357065Y-59427464D02*
X125309446Y-59475083D01*
X125309446Y-59475083D02*
X125261827Y-59570321D01*
X125261827Y-59570321D02*
X125261827Y-59665559D01*
X125261827Y-59665559D02*
X125309446Y-59808416D01*
X125309446Y-59808416D02*
X125880874Y-60379845D01*
X125880874Y-60379845D02*
X125261827Y-60379845D01*
X124690398Y-59808416D02*
X124785636Y-59760797D01*
X124785636Y-59760797D02*
X124833255Y-59713178D01*
X124833255Y-59713178D02*
X124880874Y-59617940D01*
X124880874Y-59617940D02*
X124880874Y-59570321D01*
X124880874Y-59570321D02*
X124833255Y-59475083D01*
X124833255Y-59475083D02*
X124785636Y-59427464D01*
X124785636Y-59427464D02*
X124690398Y-59379845D01*
X124690398Y-59379845D02*
X124499922Y-59379845D01*
X124499922Y-59379845D02*
X124404684Y-59427464D01*
X124404684Y-59427464D02*
X124357065Y-59475083D01*
X124357065Y-59475083D02*
X124309446Y-59570321D01*
X124309446Y-59570321D02*
X124309446Y-59617940D01*
X124309446Y-59617940D02*
X124357065Y-59713178D01*
X124357065Y-59713178D02*
X124404684Y-59760797D01*
X124404684Y-59760797D02*
X124499922Y-59808416D01*
X124499922Y-59808416D02*
X124690398Y-59808416D01*
X124690398Y-59808416D02*
X124785636Y-59856035D01*
X124785636Y-59856035D02*
X124833255Y-59903654D01*
X124833255Y-59903654D02*
X124880874Y-59998892D01*
X124880874Y-59998892D02*
X124880874Y-60189368D01*
X124880874Y-60189368D02*
X124833255Y-60284606D01*
X124833255Y-60284606D02*
X124785636Y-60332226D01*
X124785636Y-60332226D02*
X124690398Y-60379845D01*
X124690398Y-60379845D02*
X124499922Y-60379845D01*
X124499922Y-60379845D02*
X124404684Y-60332226D01*
X124404684Y-60332226D02*
X124357065Y-60284606D01*
X124357065Y-60284606D02*
X124309446Y-60189368D01*
X124309446Y-60189368D02*
X124309446Y-59998892D01*
X124309446Y-59998892D02*
X124357065Y-59903654D01*
X124357065Y-59903654D02*
X124404684Y-59856035D01*
X124404684Y-59856035D02*
X124499922Y-59808416D01*
X145259580Y-120157142D02*
X145307200Y-120109523D01*
X145307200Y-120109523D02*
X145354819Y-119966666D01*
X145354819Y-119966666D02*
X145354819Y-119871428D01*
X145354819Y-119871428D02*
X145307200Y-119728571D01*
X145307200Y-119728571D02*
X145211961Y-119633333D01*
X145211961Y-119633333D02*
X145116723Y-119585714D01*
X145116723Y-119585714D02*
X144926247Y-119538095D01*
X144926247Y-119538095D02*
X144783390Y-119538095D01*
X144783390Y-119538095D02*
X144592914Y-119585714D01*
X144592914Y-119585714D02*
X144497676Y-119633333D01*
X144497676Y-119633333D02*
X144402438Y-119728571D01*
X144402438Y-119728571D02*
X144354819Y-119871428D01*
X144354819Y-119871428D02*
X144354819Y-119966666D01*
X144354819Y-119966666D02*
X144402438Y-120109523D01*
X144402438Y-120109523D02*
X144450057Y-120157142D01*
X144354819Y-120490476D02*
X144354819Y-121109523D01*
X144354819Y-121109523D02*
X144735771Y-120776190D01*
X144735771Y-120776190D02*
X144735771Y-120919047D01*
X144735771Y-120919047D02*
X144783390Y-121014285D01*
X144783390Y-121014285D02*
X144831009Y-121061904D01*
X144831009Y-121061904D02*
X144926247Y-121109523D01*
X144926247Y-121109523D02*
X145164342Y-121109523D01*
X145164342Y-121109523D02*
X145259580Y-121061904D01*
X145259580Y-121061904D02*
X145307200Y-121014285D01*
X145307200Y-121014285D02*
X145354819Y-120919047D01*
X145354819Y-120919047D02*
X145354819Y-120633333D01*
X145354819Y-120633333D02*
X145307200Y-120538095D01*
X145307200Y-120538095D02*
X145259580Y-120490476D01*
X144450057Y-121490476D02*
X144402438Y-121538095D01*
X144402438Y-121538095D02*
X144354819Y-121633333D01*
X144354819Y-121633333D02*
X144354819Y-121871428D01*
X144354819Y-121871428D02*
X144402438Y-121966666D01*
X144402438Y-121966666D02*
X144450057Y-122014285D01*
X144450057Y-122014285D02*
X144545295Y-122061904D01*
X144545295Y-122061904D02*
X144640533Y-122061904D01*
X144640533Y-122061904D02*
X144783390Y-122014285D01*
X144783390Y-122014285D02*
X145354819Y-121442857D01*
X145354819Y-121442857D02*
X145354819Y-122061904D01*
X148816666Y-123089580D02*
X148864285Y-123137200D01*
X148864285Y-123137200D02*
X149007142Y-123184819D01*
X149007142Y-123184819D02*
X149102380Y-123184819D01*
X149102380Y-123184819D02*
X149245237Y-123137200D01*
X149245237Y-123137200D02*
X149340475Y-123041961D01*
X149340475Y-123041961D02*
X149388094Y-122946723D01*
X149388094Y-122946723D02*
X149435713Y-122756247D01*
X149435713Y-122756247D02*
X149435713Y-122613390D01*
X149435713Y-122613390D02*
X149388094Y-122422914D01*
X149388094Y-122422914D02*
X149340475Y-122327676D01*
X149340475Y-122327676D02*
X149245237Y-122232438D01*
X149245237Y-122232438D02*
X149102380Y-122184819D01*
X149102380Y-122184819D02*
X149007142Y-122184819D01*
X149007142Y-122184819D02*
X148864285Y-122232438D01*
X148864285Y-122232438D02*
X148816666Y-122280057D01*
X148435713Y-122280057D02*
X148388094Y-122232438D01*
X148388094Y-122232438D02*
X148292856Y-122184819D01*
X148292856Y-122184819D02*
X148054761Y-122184819D01*
X148054761Y-122184819D02*
X147959523Y-122232438D01*
X147959523Y-122232438D02*
X147911904Y-122280057D01*
X147911904Y-122280057D02*
X147864285Y-122375295D01*
X147864285Y-122375295D02*
X147864285Y-122470533D01*
X147864285Y-122470533D02*
X147911904Y-122613390D01*
X147911904Y-122613390D02*
X148483332Y-123184819D01*
X148483332Y-123184819D02*
X147864285Y-123184819D01*
X132609580Y-128583333D02*
X132657200Y-128535714D01*
X132657200Y-128535714D02*
X132704819Y-128392857D01*
X132704819Y-128392857D02*
X132704819Y-128297619D01*
X132704819Y-128297619D02*
X132657200Y-128154762D01*
X132657200Y-128154762D02*
X132561961Y-128059524D01*
X132561961Y-128059524D02*
X132466723Y-128011905D01*
X132466723Y-128011905D02*
X132276247Y-127964286D01*
X132276247Y-127964286D02*
X132133390Y-127964286D01*
X132133390Y-127964286D02*
X131942914Y-128011905D01*
X131942914Y-128011905D02*
X131847676Y-128059524D01*
X131847676Y-128059524D02*
X131752438Y-128154762D01*
X131752438Y-128154762D02*
X131704819Y-128297619D01*
X131704819Y-128297619D02*
X131704819Y-128392857D01*
X131704819Y-128392857D02*
X131752438Y-128535714D01*
X131752438Y-128535714D02*
X131800057Y-128583333D01*
X131704819Y-129440476D02*
X131704819Y-129250000D01*
X131704819Y-129250000D02*
X131752438Y-129154762D01*
X131752438Y-129154762D02*
X131800057Y-129107143D01*
X131800057Y-129107143D02*
X131942914Y-129011905D01*
X131942914Y-129011905D02*
X132133390Y-128964286D01*
X132133390Y-128964286D02*
X132514342Y-128964286D01*
X132514342Y-128964286D02*
X132609580Y-129011905D01*
X132609580Y-129011905D02*
X132657200Y-129059524D01*
X132657200Y-129059524D02*
X132704819Y-129154762D01*
X132704819Y-129154762D02*
X132704819Y-129345238D01*
X132704819Y-129345238D02*
X132657200Y-129440476D01*
X132657200Y-129440476D02*
X132609580Y-129488095D01*
X132609580Y-129488095D02*
X132514342Y-129535714D01*
X132514342Y-129535714D02*
X132276247Y-129535714D01*
X132276247Y-129535714D02*
X132181009Y-129488095D01*
X132181009Y-129488095D02*
X132133390Y-129440476D01*
X132133390Y-129440476D02*
X132085771Y-129345238D01*
X132085771Y-129345238D02*
X132085771Y-129154762D01*
X132085771Y-129154762D02*
X132133390Y-129059524D01*
X132133390Y-129059524D02*
X132181009Y-129011905D01*
X132181009Y-129011905D02*
X132276247Y-128964286D01*
D11*
X116892580Y-101909523D02*
X116178295Y-101909523D01*
X116178295Y-101909523D02*
X116035438Y-101957142D01*
X116035438Y-101957142D02*
X115940200Y-102052380D01*
X115940200Y-102052380D02*
X115892580Y-102195237D01*
X115892580Y-102195237D02*
X115892580Y-102290475D01*
X115892580Y-100909523D02*
X115892580Y-101480951D01*
X115892580Y-101195237D02*
X116892580Y-101195237D01*
X116892580Y-101195237D02*
X116749723Y-101290475D01*
X116749723Y-101290475D02*
X116654485Y-101385713D01*
X116654485Y-101385713D02*
X116606866Y-101480951D01*
X116892580Y-100052380D02*
X116892580Y-100242856D01*
X116892580Y-100242856D02*
X116844961Y-100338094D01*
X116844961Y-100338094D02*
X116797342Y-100385713D01*
X116797342Y-100385713D02*
X116654485Y-100480951D01*
X116654485Y-100480951D02*
X116464009Y-100528570D01*
X116464009Y-100528570D02*
X116083057Y-100528570D01*
X116083057Y-100528570D02*
X115987819Y-100480951D01*
X115987819Y-100480951D02*
X115940200Y-100433332D01*
X115940200Y-100433332D02*
X115892580Y-100338094D01*
X115892580Y-100338094D02*
X115892580Y-100147618D01*
X115892580Y-100147618D02*
X115940200Y-100052380D01*
X115940200Y-100052380D02*
X115987819Y-100004761D01*
X115987819Y-100004761D02*
X116083057Y-99957142D01*
X116083057Y-99957142D02*
X116321152Y-99957142D01*
X116321152Y-99957142D02*
X116416390Y-100004761D01*
X116416390Y-100004761D02*
X116464009Y-100052380D01*
X116464009Y-100052380D02*
X116511628Y-100147618D01*
X116511628Y-100147618D02*
X116511628Y-100338094D01*
X116511628Y-100338094D02*
X116464009Y-100433332D01*
X116464009Y-100433332D02*
X116416390Y-100480951D01*
X116416390Y-100480951D02*
X116321152Y-100528570D01*
X116392580Y-60183333D02*
X115678295Y-60183333D01*
X115678295Y-60183333D02*
X115535438Y-60230952D01*
X115535438Y-60230952D02*
X115440200Y-60326190D01*
X115440200Y-60326190D02*
X115392580Y-60469047D01*
X115392580Y-60469047D02*
X115392580Y-60564285D01*
X115392580Y-59659523D02*
X115392580Y-59469047D01*
X115392580Y-59469047D02*
X115440200Y-59373809D01*
X115440200Y-59373809D02*
X115487819Y-59326190D01*
X115487819Y-59326190D02*
X115630676Y-59230952D01*
X115630676Y-59230952D02*
X115821152Y-59183333D01*
X115821152Y-59183333D02*
X116202104Y-59183333D01*
X116202104Y-59183333D02*
X116297342Y-59230952D01*
X116297342Y-59230952D02*
X116344961Y-59278571D01*
X116344961Y-59278571D02*
X116392580Y-59373809D01*
X116392580Y-59373809D02*
X116392580Y-59564285D01*
X116392580Y-59564285D02*
X116344961Y-59659523D01*
X116344961Y-59659523D02*
X116297342Y-59707142D01*
X116297342Y-59707142D02*
X116202104Y-59754761D01*
X116202104Y-59754761D02*
X115964009Y-59754761D01*
X115964009Y-59754761D02*
X115868771Y-59707142D01*
X115868771Y-59707142D02*
X115821152Y-59659523D01*
X115821152Y-59659523D02*
X115773533Y-59564285D01*
X115773533Y-59564285D02*
X115773533Y-59373809D01*
X115773533Y-59373809D02*
X115821152Y-59278571D01*
X115821152Y-59278571D02*
X115868771Y-59230952D01*
X115868771Y-59230952D02*
X115964009Y-59183333D01*
D10*
X144006217Y-75765370D02*
X143530026Y-75432037D01*
X144006217Y-75193942D02*
X143006217Y-75193942D01*
X143006217Y-75193942D02*
X143006217Y-75574894D01*
X143006217Y-75574894D02*
X143053836Y-75670132D01*
X143053836Y-75670132D02*
X143101455Y-75717751D01*
X143101455Y-75717751D02*
X143196693Y-75765370D01*
X143196693Y-75765370D02*
X143339550Y-75765370D01*
X143339550Y-75765370D02*
X143434788Y-75717751D01*
X143434788Y-75717751D02*
X143482407Y-75670132D01*
X143482407Y-75670132D02*
X143530026Y-75574894D01*
X143530026Y-75574894D02*
X143530026Y-75193942D01*
X144006217Y-76717751D02*
X144006217Y-76146323D01*
X144006217Y-76432037D02*
X143006217Y-76432037D01*
X143006217Y-76432037D02*
X143149074Y-76336799D01*
X143149074Y-76336799D02*
X143244312Y-76241561D01*
X143244312Y-76241561D02*
X143291931Y-76146323D01*
X143006217Y-77051085D02*
X143006217Y-77670132D01*
X143006217Y-77670132D02*
X143387169Y-77336799D01*
X143387169Y-77336799D02*
X143387169Y-77479656D01*
X143387169Y-77479656D02*
X143434788Y-77574894D01*
X143434788Y-77574894D02*
X143482407Y-77622513D01*
X143482407Y-77622513D02*
X143577645Y-77670132D01*
X143577645Y-77670132D02*
X143815740Y-77670132D01*
X143815740Y-77670132D02*
X143910978Y-77622513D01*
X143910978Y-77622513D02*
X143958598Y-77574894D01*
X143958598Y-77574894D02*
X144006217Y-77479656D01*
X144006217Y-77479656D02*
X144006217Y-77193942D01*
X144006217Y-77193942D02*
X143958598Y-77098704D01*
X143958598Y-77098704D02*
X143910978Y-77051085D01*
X111300595Y-130405180D02*
X111300595Y-129595657D01*
X111300595Y-129595657D02*
X111348214Y-129500419D01*
X111348214Y-129500419D02*
X111395833Y-129452800D01*
X111395833Y-129452800D02*
X111491071Y-129405180D01*
X111491071Y-129405180D02*
X111681547Y-129405180D01*
X111681547Y-129405180D02*
X111776785Y-129452800D01*
X111776785Y-129452800D02*
X111824404Y-129500419D01*
X111824404Y-129500419D02*
X111872023Y-129595657D01*
X111872023Y-129595657D02*
X111872023Y-130405180D01*
X112252976Y-130405180D02*
X112872023Y-130405180D01*
X112872023Y-130405180D02*
X112538690Y-130024228D01*
X112538690Y-130024228D02*
X112681547Y-130024228D01*
X112681547Y-130024228D02*
X112776785Y-129976609D01*
X112776785Y-129976609D02*
X112824404Y-129928990D01*
X112824404Y-129928990D02*
X112872023Y-129833752D01*
X112872023Y-129833752D02*
X112872023Y-129595657D01*
X112872023Y-129595657D02*
X112824404Y-129500419D01*
X112824404Y-129500419D02*
X112776785Y-129452800D01*
X112776785Y-129452800D02*
X112681547Y-129405180D01*
X112681547Y-129405180D02*
X112395833Y-129405180D01*
X112395833Y-129405180D02*
X112300595Y-129452800D01*
X112300595Y-129452800D02*
X112252976Y-129500419D01*
X130964819Y-125478333D02*
X130488628Y-125145000D01*
X130964819Y-124906905D02*
X129964819Y-124906905D01*
X129964819Y-124906905D02*
X129964819Y-125287857D01*
X129964819Y-125287857D02*
X130012438Y-125383095D01*
X130012438Y-125383095D02*
X130060057Y-125430714D01*
X130060057Y-125430714D02*
X130155295Y-125478333D01*
X130155295Y-125478333D02*
X130298152Y-125478333D01*
X130298152Y-125478333D02*
X130393390Y-125430714D01*
X130393390Y-125430714D02*
X130441009Y-125383095D01*
X130441009Y-125383095D02*
X130488628Y-125287857D01*
X130488628Y-125287857D02*
X130488628Y-124906905D01*
X129964819Y-125811667D02*
X129964819Y-126430714D01*
X129964819Y-126430714D02*
X130345771Y-126097381D01*
X130345771Y-126097381D02*
X130345771Y-126240238D01*
X130345771Y-126240238D02*
X130393390Y-126335476D01*
X130393390Y-126335476D02*
X130441009Y-126383095D01*
X130441009Y-126383095D02*
X130536247Y-126430714D01*
X130536247Y-126430714D02*
X130774342Y-126430714D01*
X130774342Y-126430714D02*
X130869580Y-126383095D01*
X130869580Y-126383095D02*
X130917200Y-126335476D01*
X130917200Y-126335476D02*
X130964819Y-126240238D01*
X130964819Y-126240238D02*
X130964819Y-125954524D01*
X130964819Y-125954524D02*
X130917200Y-125859286D01*
X130917200Y-125859286D02*
X130869580Y-125811667D01*
D12*
G04 #@! TO.C,J10*
X111350000Y-64250000D02*
X117350000Y-64250000D01*
X111350000Y-64251000D02*
X111350000Y-65150000D01*
X111350000Y-69500000D02*
X112050000Y-69500000D01*
X111350000Y-70250000D02*
X111350000Y-69501000D01*
X111350000Y-70250000D02*
X117350000Y-70250000D01*
X112050000Y-65150000D02*
X111350000Y-65150000D01*
X115525000Y-65250000D02*
X113575000Y-65250000D01*
X115525000Y-65250000D02*
X115525000Y-66150000D01*
X115525000Y-66150000D02*
X113575000Y-66150000D01*
X115550000Y-68350000D02*
X113600000Y-68350000D01*
X115550000Y-68350000D02*
X115550000Y-69250000D01*
X115550000Y-69250000D02*
X113600000Y-69250000D01*
X117350000Y-70250000D02*
X117350000Y-64250000D01*
D13*
G04 #@! TO.C,R2*
X135050000Y-125813641D02*
X135050000Y-125506359D01*
X135810000Y-125813641D02*
X135810000Y-125506359D01*
D12*
G04 #@! TO.C,J8*
X111300000Y-87350000D02*
X111300000Y-86500000D01*
X111300000Y-96250000D02*
X112000000Y-96250000D01*
X111300000Y-97000000D02*
X111300000Y-96250000D01*
X111300000Y-97000000D02*
X117300000Y-97000000D01*
X112000000Y-87350000D02*
X111300000Y-87350000D01*
X115425000Y-95050000D02*
X113475000Y-95050000D01*
X115425000Y-95050000D02*
X115425000Y-95950000D01*
X115425000Y-95950000D02*
X113475000Y-95950000D01*
X115575000Y-87550000D02*
X113625000Y-87550000D01*
X115575000Y-87550000D02*
X115575000Y-88450000D01*
X115575000Y-88450000D02*
X113625000Y-88450000D01*
X117300000Y-86500000D02*
X111300000Y-86500000D01*
X117300000Y-86500000D02*
X117300000Y-97000000D01*
D13*
G04 #@! TO.C,C1*
X148727836Y-119680000D02*
X148512164Y-119680000D01*
X148727836Y-120400000D02*
X148512164Y-120400000D01*
G04 #@! TO.C,J1*
X128850000Y-134660000D02*
X128850000Y-132880000D01*
X137150000Y-129960000D02*
X136350000Y-129960000D01*
X138250000Y-134660000D02*
X138250000Y-132880000D01*
D12*
G04 #@! TO.C,J11*
X111350000Y-71600000D02*
X117350000Y-71600000D01*
X111350000Y-71601000D02*
X111350000Y-72500000D01*
X111350000Y-76850000D02*
X112050000Y-76850000D01*
X111350000Y-77600000D02*
X111350000Y-76851000D01*
X111350000Y-77600000D02*
X117350000Y-77600000D01*
X112050000Y-72500000D02*
X111350000Y-72500000D01*
X115525000Y-72600000D02*
X113575000Y-72600000D01*
X115525000Y-72600000D02*
X115525000Y-73500000D01*
X115525000Y-73500000D02*
X113575000Y-73500000D01*
X115550000Y-75700000D02*
X113600000Y-75700000D01*
X115550000Y-75700000D02*
X115550000Y-76600000D01*
X115550000Y-76600000D02*
X113600000Y-76600000D01*
X117350000Y-77600000D02*
X117350000Y-71600000D01*
D13*
G04 #@! TO.C,JP5*
X143910000Y-89260000D02*
X143910000Y-86460000D01*
X144610000Y-85810000D02*
X145210000Y-85810000D01*
X145210000Y-89910000D02*
X144610000Y-89910000D01*
X145910000Y-86460000D02*
X145910000Y-89260000D01*
X143910000Y-86510000D02*
G75*
G02*
X144610000Y-85810000I700000J0D01*
G01*
X144610000Y-89910000D02*
G75*
G02*
X143910000Y-89210000I-1J699999D01*
G01*
X145210000Y-85810000D02*
G75*
G02*
X145910000Y-86510000I0J-700000D01*
G01*
X145910000Y-89210000D02*
G75*
G02*
X145210000Y-89910000I-699999J-1D01*
G01*
G04 #@! TO.C,R16*
X146270000Y-87453641D02*
X146270000Y-87146359D01*
X147030000Y-87453641D02*
X147030000Y-87146359D01*
G04 #@! TO.C,R15*
X144156359Y-52520000D02*
X144463641Y-52520000D01*
X144156359Y-53280000D02*
X144463641Y-53280000D01*
G04 #@! TO.C,D3*
X125902500Y-127570000D02*
X125902500Y-129570000D01*
X129912500Y-127570000D02*
X125902500Y-127570000D01*
X129912500Y-129570000D02*
X125902500Y-129570000D01*
G04 #@! TO.C,R14*
X142770000Y-87663641D02*
X142770000Y-87356359D01*
X143530000Y-87663641D02*
X143530000Y-87356359D01*
D12*
G04 #@! TO.C,J15*
X111350000Y-120150000D02*
X117350000Y-120150000D01*
X111350000Y-120151000D02*
X111350000Y-121050000D01*
X111350000Y-125400000D02*
X112050000Y-125400000D01*
X111350000Y-126150000D02*
X111350000Y-125401000D01*
X111350000Y-126150000D02*
X117350000Y-126150000D01*
X112050000Y-121050000D02*
X111350000Y-121050000D01*
X115525000Y-121150000D02*
X113575000Y-121150000D01*
X115525000Y-121150000D02*
X115525000Y-122050000D01*
X115525000Y-122050000D02*
X113575000Y-122050000D01*
X115550000Y-124250000D02*
X113600000Y-124250000D01*
X115550000Y-124250000D02*
X115550000Y-125150000D01*
X115550000Y-125150000D02*
X113600000Y-125150000D01*
X117350000Y-126150000D02*
X117350000Y-120150000D01*
D13*
G04 #@! TO.C,R20*
X146270000Y-82853641D02*
X146270000Y-82546359D01*
X147030000Y-82853641D02*
X147030000Y-82546359D01*
G04 #@! TO.C,R10*
X146270000Y-92303641D02*
X146270000Y-91996359D01*
X147030000Y-92303641D02*
X147030000Y-91996359D01*
G04 #@! TO.C,U2*
X132560000Y-125250000D02*
X132560000Y-126300000D01*
X134540000Y-125000000D02*
X134540000Y-126300000D01*
X132560000Y-124880000D02*
X132280000Y-124880000D01*
X132560000Y-124600000D01*
X132560000Y-124880000D01*
G36*
X132560000Y-124880000D02*
G01*
X132280000Y-124880000D01*
X132560000Y-124600000D01*
X132560000Y-124880000D01*
G37*
G04 #@! TO.C,D5*
X120700000Y-50600000D02*
X124360000Y-50600000D01*
X120700000Y-52500000D02*
X124360000Y-52500000D01*
X124360000Y-52500000D02*
X124360000Y-50600000D01*
G04 #@! TO.C,JP4*
X147390000Y-98480000D02*
X147390000Y-95680000D01*
X148090000Y-95030000D02*
X148690000Y-95030000D01*
X148690000Y-99130000D02*
X148090000Y-99130000D01*
X149390000Y-95680000D02*
X149390000Y-98480000D01*
X147390000Y-95730000D02*
G75*
G02*
X148090000Y-95030000I700000J0D01*
G01*
X148090000Y-99130000D02*
G75*
G02*
X147390000Y-98430000I-1J699999D01*
G01*
X148690000Y-95030000D02*
G75*
G02*
X149390000Y-95730000I0J-700000D01*
G01*
X149390000Y-98430000D02*
G75*
G02*
X148690000Y-99130000I-699999J-1D01*
G01*
G04 #@! TO.C,JP7*
X143920000Y-84620000D02*
X143920000Y-81820000D01*
X144620000Y-81170000D02*
X145220000Y-81170000D01*
X145220000Y-85270000D02*
X144620000Y-85270000D01*
X145920000Y-81820000D02*
X145920000Y-84620000D01*
X143920000Y-81870000D02*
G75*
G02*
X144620000Y-81170000I700000J0D01*
G01*
X144620000Y-85270000D02*
G75*
G02*
X143920000Y-84570000I-1J699999D01*
G01*
X145220000Y-81170000D02*
G75*
G02*
X145920000Y-81870000I0J-700000D01*
G01*
X145920000Y-84570000D02*
G75*
G02*
X145220000Y-85270000I-699999J-1D01*
G01*
D12*
G04 #@! TO.C,J12*
X111350000Y-78950000D02*
X117350000Y-78950000D01*
X111350000Y-78951000D02*
X111350000Y-79850000D01*
X111350000Y-84200000D02*
X112050000Y-84200000D01*
X111350000Y-84950000D02*
X111350000Y-84201000D01*
X111350000Y-84950000D02*
X117350000Y-84950000D01*
X112050000Y-79850000D02*
X111350000Y-79850000D01*
X115525000Y-79950000D02*
X113575000Y-79950000D01*
X115525000Y-79950000D02*
X115525000Y-80850000D01*
X115525000Y-80850000D02*
X113575000Y-80850000D01*
X115550000Y-83050000D02*
X113600000Y-83050000D01*
X115550000Y-83050000D02*
X115550000Y-83950000D01*
X115550000Y-83950000D02*
X113600000Y-83950000D01*
X117350000Y-84950000D02*
X117350000Y-78950000D01*
D13*
G04 #@! TO.C,R12*
X146270000Y-96953641D02*
X146270000Y-96646359D01*
X147030000Y-96953641D02*
X147030000Y-96646359D01*
D12*
G04 #@! TO.C,J13*
X111350000Y-112900000D02*
X117350000Y-112900000D01*
X111350000Y-112901000D02*
X111350000Y-113800000D01*
X111350000Y-118150000D02*
X112050000Y-118150000D01*
X111350000Y-118900000D02*
X111350000Y-118151000D01*
X111350000Y-118900000D02*
X117350000Y-118900000D01*
X112050000Y-113800000D02*
X111350000Y-113800000D01*
X115525000Y-113900000D02*
X113575000Y-113900000D01*
X115525000Y-113900000D02*
X115525000Y-114800000D01*
X115525000Y-114800000D02*
X113575000Y-114800000D01*
X115550000Y-117000000D02*
X113600000Y-117000000D01*
X115550000Y-117000000D02*
X115550000Y-117900000D01*
X115550000Y-117900000D02*
X113600000Y-117900000D01*
X117350000Y-118900000D02*
X117350000Y-112900000D01*
D13*
G04 #@! TO.C,JP1*
X143900000Y-93880000D02*
X143900000Y-91080000D01*
X144600000Y-90430000D02*
X145200000Y-90430000D01*
X145200000Y-94530000D02*
X144600000Y-94530000D01*
X145900000Y-91080000D02*
X145900000Y-93880000D01*
X143900000Y-91130000D02*
G75*
G02*
X144600000Y-90430000I700000J0D01*
G01*
X144600000Y-94530000D02*
G75*
G02*
X143900000Y-93830000I-1J699999D01*
G01*
X145200000Y-90430000D02*
G75*
G02*
X145900000Y-91130000I0J-700000D01*
G01*
X145900000Y-93830000D02*
G75*
G02*
X145200000Y-94530000I-699999J-1D01*
G01*
G04 #@! TO.C,JP6*
X147460000Y-89240000D02*
X147460000Y-86440000D01*
X148160000Y-85790000D02*
X148760000Y-85790000D01*
X148760000Y-89890000D02*
X148160000Y-89890000D01*
X149460000Y-86440000D02*
X149460000Y-89240000D01*
X147460000Y-86490000D02*
G75*
G02*
X148160000Y-85790000I700000J0D01*
G01*
X148160000Y-89890000D02*
G75*
G02*
X147460000Y-89190000I-1J699999D01*
G01*
X148760000Y-85790000D02*
G75*
G02*
X149460000Y-86490000I0J-700000D01*
G01*
X149460000Y-89190000D02*
G75*
G02*
X148760000Y-89890000I-699999J-1D01*
G01*
G04 #@! TO.C,C27*
X128034420Y-75990000D02*
X128315580Y-75990000D01*
X128034420Y-77010000D02*
X128315580Y-77010000D01*
G04 #@! TO.C,JP3*
X143900000Y-98480000D02*
X143900000Y-95680000D01*
X144600000Y-95030000D02*
X145200000Y-95030000D01*
X145200000Y-99130000D02*
X144600000Y-99130000D01*
X145900000Y-95680000D02*
X145900000Y-98480000D01*
X143900000Y-95730000D02*
G75*
G02*
X144600000Y-95030000I700000J0D01*
G01*
X144600000Y-99130000D02*
G75*
G02*
X143900000Y-98430000I-1J699999D01*
G01*
X145200000Y-95030000D02*
G75*
G02*
X145900000Y-95730000I0J-700000D01*
G01*
X145900000Y-98430000D02*
G75*
G02*
X145200000Y-99130000I-699999J-1D01*
G01*
D12*
G04 #@! TO.C,J14*
X111350000Y-105650000D02*
X117350000Y-105650000D01*
X111350000Y-105651000D02*
X111350000Y-106550000D01*
X111350000Y-110900000D02*
X112050000Y-110900000D01*
X111350000Y-111650000D02*
X111350000Y-110901000D01*
X111350000Y-111650000D02*
X117350000Y-111650000D01*
X112050000Y-106550000D02*
X111350000Y-106550000D01*
X115525000Y-106650000D02*
X113575000Y-106650000D01*
X115525000Y-106650000D02*
X115525000Y-107550000D01*
X115525000Y-107550000D02*
X113575000Y-107550000D01*
X115550000Y-109750000D02*
X113600000Y-109750000D01*
X115550000Y-109750000D02*
X115550000Y-110650000D01*
X115550000Y-110650000D02*
X113600000Y-110650000D01*
X117350000Y-111650000D02*
X117350000Y-105650000D01*
D13*
G04 #@! TO.C,C28*
X125430771Y-60845026D02*
X125711931Y-60845026D01*
X125430771Y-61865026D02*
X125711931Y-61865026D01*
G04 #@! TO.C,R11*
X142770000Y-96753641D02*
X142770000Y-96446359D01*
X143530000Y-96753641D02*
X143530000Y-96446359D01*
G04 #@! TO.C,R9*
X142770000Y-92203641D02*
X142770000Y-91896359D01*
X143530000Y-92203641D02*
X143530000Y-91896359D01*
G04 #@! TO.C,C32*
X146497836Y-119680000D02*
X146282164Y-119680000D01*
X146497836Y-120400000D02*
X146282164Y-120400000D01*
G04 #@! TO.C,JP8*
X147450000Y-84630000D02*
X147450000Y-81830000D01*
X148150000Y-81180000D02*
X148750000Y-81180000D01*
X148750000Y-85280000D02*
X148150000Y-85280000D01*
X149450000Y-81830000D02*
X149450000Y-84630000D01*
X147450000Y-81880000D02*
G75*
G02*
X148150000Y-81180000I700000J0D01*
G01*
X148150000Y-85280000D02*
G75*
G02*
X147450000Y-84580000I-1J699999D01*
G01*
X148750000Y-81180000D02*
G75*
G02*
X149450000Y-81880000I0J-700000D01*
G01*
X149450000Y-84580000D02*
G75*
G02*
X148750000Y-85280000I-699999J-1D01*
G01*
G04 #@! TO.C,R19*
X142820000Y-82813641D02*
X142820000Y-82506359D01*
X143580000Y-82813641D02*
X143580000Y-82506359D01*
G04 #@! TO.C,C2*
X148790580Y-120790000D02*
X148509420Y-120790000D01*
X148790580Y-121810000D02*
X148509420Y-121810000D01*
G04 #@! TO.C,C6*
X130790000Y-128682164D02*
X130790000Y-128897836D01*
X131510000Y-128682164D02*
X131510000Y-128897836D01*
D12*
G04 #@! TO.C,J16*
X111350000Y-98300000D02*
X117350000Y-98300000D01*
X111350000Y-98301000D02*
X111350000Y-99200000D01*
X111350000Y-103550000D02*
X112050000Y-103550000D01*
X111350000Y-104300000D02*
X111350000Y-103551000D01*
X111350000Y-104300000D02*
X117350000Y-104300000D01*
X112050000Y-99200000D02*
X111350000Y-99200000D01*
X115525000Y-99300000D02*
X113575000Y-99300000D01*
X115525000Y-99300000D02*
X115525000Y-100200000D01*
X115525000Y-100200000D02*
X113575000Y-100200000D01*
X115550000Y-102400000D02*
X113600000Y-102400000D01*
X115550000Y-102400000D02*
X115550000Y-103300000D01*
X115550000Y-103300000D02*
X113600000Y-103300000D01*
X117350000Y-104300000D02*
X117350000Y-98300000D01*
G04 #@! TO.C,J9*
X111350000Y-56900000D02*
X117350000Y-56900000D01*
X111350000Y-56901000D02*
X111350000Y-57800000D01*
X111350000Y-62150000D02*
X112050000Y-62150000D01*
X111350000Y-62900000D02*
X111350000Y-62151000D01*
X111350000Y-62900000D02*
X117350000Y-62900000D01*
X112050000Y-57800000D02*
X111350000Y-57800000D01*
X115525000Y-57900000D02*
X113575000Y-57900000D01*
X115525000Y-57900000D02*
X115525000Y-58800000D01*
X115525000Y-58800000D02*
X113575000Y-58800000D01*
X115550000Y-61000000D02*
X113600000Y-61000000D01*
X115550000Y-61000000D02*
X115550000Y-61900000D01*
X115550000Y-61900000D02*
X113600000Y-61900000D01*
X117350000Y-62900000D02*
X117350000Y-56900000D01*
D13*
G04 #@! TO.C,R13*
X142001398Y-76254587D02*
X142001398Y-76561869D01*
X142761398Y-76254587D02*
X142761398Y-76561869D01*
G04 #@! TO.C,U3*
X131200000Y-102050000D02*
X131200000Y-100550000D01*
X131200000Y-117450000D02*
X131200000Y-118950000D01*
X131200000Y-118950000D02*
X132200000Y-118950000D01*
X132200000Y-100550000D02*
X131200000Y-100550000D01*
X150850000Y-100550000D02*
X157050000Y-100550000D01*
X150850000Y-118950000D02*
X157050000Y-118950000D01*
X157050000Y-100550000D02*
X157050000Y-118950000D01*
X150175000Y-119450000D02*
X150175000Y-118950000D01*
X150675000Y-118950000D01*
X150175000Y-119450000D01*
G36*
X150175000Y-119450000D02*
G01*
X150175000Y-118950000D01*
X150675000Y-118950000D01*
X150175000Y-119450000D01*
G37*
G04 #@! TO.C,JP2*
X147390000Y-93860000D02*
X147390000Y-91060000D01*
X148090000Y-90410000D02*
X148690000Y-90410000D01*
X148690000Y-94510000D02*
X148090000Y-94510000D01*
X149390000Y-91060000D02*
X149390000Y-93860000D01*
X147390000Y-91110000D02*
G75*
G02*
X148090000Y-90410000I700000J0D01*
G01*
X148090000Y-94510000D02*
G75*
G02*
X147390000Y-93810000I-1J699999D01*
G01*
X148690000Y-90410000D02*
G75*
G02*
X149390000Y-91110000I0J-700000D01*
G01*
X149390000Y-93810000D02*
G75*
G02*
X148690000Y-94510000I-699999J-1D01*
G01*
G04 #@! TO.C,R3*
X131300000Y-125798641D02*
X131300000Y-125491359D01*
X132060000Y-125798641D02*
X132060000Y-125491359D01*
G04 #@! TD*
%LPC*%
D14*
G04 #@! TO.C,C22*
X123260000Y-69900000D03*
X120760000Y-69900000D03*
G04 #@! TD*
D15*
G04 #@! TO.C,U1*
X125605001Y-100109999D03*
X124305001Y-100109999D03*
X123004999Y-100109999D03*
X121704999Y-100109999D03*
X125605001Y-101410001D03*
X124305001Y-101410001D03*
X123004999Y-101410001D03*
X121704999Y-101410001D03*
G04 #@! TD*
D16*
G04 #@! TO.C,J6*
X124640000Y-80530000D03*
D17*
X119640000Y-80530000D03*
G04 #@! TD*
D18*
G04 #@! TO.C,J4*
X143835000Y-70175000D03*
D19*
X143835000Y-67675000D03*
G04 #@! TD*
D14*
G04 #@! TO.C,C24*
X123520000Y-57215000D03*
X121020000Y-57215000D03*
G04 #@! TD*
D20*
G04 #@! TO.C,J2*
X142555000Y-127090000D03*
D21*
X142555000Y-124590000D03*
X142555000Y-122090000D03*
G04 #@! TD*
D22*
G04 #@! TO.C,J3*
X112320000Y-129300000D03*
D23*
X114860000Y-129300000D03*
X117400000Y-129300000D03*
X119940000Y-129300000D03*
G04 #@! TD*
D18*
G04 #@! TO.C,J5*
X143930000Y-59630000D03*
D19*
X143930000Y-57130000D03*
G04 #@! TD*
D24*
G04 #@! TO.C,J10*
X112750000Y-65750000D03*
D25*
X112750000Y-67250000D03*
X112750000Y-68750000D03*
G04 #@! TD*
D26*
G04 #@! TO.C,R2*
X135430000Y-125150000D03*
X135430000Y-126170000D03*
G04 #@! TD*
D25*
G04 #@! TO.C,J8*
X112700000Y-88000000D03*
D24*
X112700000Y-89500000D03*
D25*
X112700000Y-91000000D03*
X112700000Y-92500000D03*
X112700000Y-94000000D03*
X112700000Y-95500000D03*
G04 #@! TD*
D27*
G04 #@! TO.C,C1*
X148140000Y-120040000D03*
X149100000Y-120040000D03*
G04 #@! TD*
D28*
G04 #@! TO.C,J1*
X136440000Y-132055000D03*
X130660000Y-132055000D03*
D29*
X136750000Y-130915000D03*
X135950000Y-130915000D03*
D30*
X134800000Y-130915000D03*
X133800000Y-130915000D03*
X133300000Y-130915000D03*
X132300000Y-130915000D03*
D29*
X131150000Y-130915000D03*
X130350000Y-130915000D03*
X130350000Y-130915000D03*
X131150000Y-130915000D03*
D30*
X131800000Y-130915000D03*
X132800000Y-130915000D03*
X134300000Y-130915000D03*
X135300000Y-130915000D03*
D29*
X135950000Y-130915000D03*
X136750000Y-130915000D03*
D31*
X137870000Y-135735000D03*
D32*
X137870000Y-131555000D03*
D31*
X129230000Y-135735000D03*
D32*
X129230000Y-131555000D03*
G04 #@! TD*
D24*
G04 #@! TO.C,J11*
X112750000Y-73100000D03*
D25*
X112750000Y-74600000D03*
X112750000Y-76100000D03*
G04 #@! TD*
D33*
G04 #@! TO.C,JP5*
X144910000Y-89160000D03*
D34*
X144910000Y-87860000D03*
D35*
X144910000Y-86560000D03*
G04 #@! TD*
D26*
G04 #@! TO.C,R16*
X146650000Y-86790000D03*
X146650000Y-87810000D03*
G04 #@! TD*
D36*
G04 #@! TO.C,R15*
X144820000Y-52900000D03*
X143800000Y-52900000D03*
G04 #@! TD*
D37*
G04 #@! TO.C,D3*
X126612500Y-128570000D03*
X129912500Y-128570000D03*
G04 #@! TD*
D26*
G04 #@! TO.C,R14*
X143150000Y-87000000D03*
X143150000Y-88020000D03*
G04 #@! TD*
D24*
G04 #@! TO.C,J15*
X112750000Y-121650000D03*
D25*
X112750000Y-123150000D03*
X112750000Y-124650000D03*
G04 #@! TD*
D26*
G04 #@! TO.C,R20*
X146650000Y-82190000D03*
X146650000Y-83210000D03*
G04 #@! TD*
G04 #@! TO.C,R10*
X146650000Y-91640000D03*
X146650000Y-92660000D03*
G04 #@! TD*
D38*
G04 #@! TO.C,U2*
X133012500Y-124800000D03*
D39*
X133550000Y-124725000D03*
D38*
X134087500Y-124800000D03*
X134087500Y-126500000D03*
D39*
X133550000Y-126575000D03*
D38*
X133012500Y-126500000D03*
G04 #@! TD*
D40*
G04 #@! TO.C,D5*
X123500000Y-51550000D03*
X120700000Y-51550000D03*
G04 #@! TD*
D33*
G04 #@! TO.C,JP4*
X148390000Y-98380000D03*
D34*
X148390000Y-97080000D03*
D35*
X148390000Y-95780000D03*
G04 #@! TD*
D33*
G04 #@! TO.C,JP7*
X144920000Y-84520000D03*
D34*
X144920000Y-83220000D03*
D35*
X144920000Y-81920000D03*
G04 #@! TD*
D24*
G04 #@! TO.C,J12*
X112750000Y-80450000D03*
D25*
X112750000Y-81950000D03*
X112750000Y-83450000D03*
G04 #@! TD*
D26*
G04 #@! TO.C,R12*
X146650000Y-96290000D03*
X146650000Y-97310000D03*
G04 #@! TD*
D24*
G04 #@! TO.C,J13*
X112750000Y-114400000D03*
D25*
X112750000Y-115900000D03*
X112750000Y-117400000D03*
G04 #@! TD*
D33*
G04 #@! TO.C,JP1*
X144900000Y-93780000D03*
D34*
X144900000Y-92480000D03*
D35*
X144900000Y-91180000D03*
G04 #@! TD*
D33*
G04 #@! TO.C,JP6*
X148460000Y-89140000D03*
D34*
X148460000Y-87840000D03*
D35*
X148460000Y-86540000D03*
G04 #@! TD*
D41*
G04 #@! TO.C,C27*
X128950000Y-76500000D03*
X127400000Y-76500000D03*
G04 #@! TD*
D33*
G04 #@! TO.C,JP3*
X144900000Y-98380000D03*
D34*
X144900000Y-97080000D03*
D35*
X144900000Y-95780000D03*
G04 #@! TD*
D24*
G04 #@! TO.C,J14*
X112750000Y-107150000D03*
D25*
X112750000Y-108650000D03*
X112750000Y-110150000D03*
G04 #@! TD*
D41*
G04 #@! TO.C,C28*
X126346351Y-61355026D03*
X124796351Y-61355026D03*
G04 #@! TD*
D26*
G04 #@! TO.C,R11*
X143150000Y-96090000D03*
X143150000Y-97110000D03*
G04 #@! TD*
G04 #@! TO.C,R9*
X143150000Y-91540000D03*
X143150000Y-92560000D03*
G04 #@! TD*
D27*
G04 #@! TO.C,C32*
X145910000Y-120040000D03*
X146870000Y-120040000D03*
G04 #@! TD*
D33*
G04 #@! TO.C,JP8*
X148450000Y-84530000D03*
D34*
X148450000Y-83230000D03*
D35*
X148450000Y-81930000D03*
G04 #@! TD*
D26*
G04 #@! TO.C,R19*
X143200000Y-82150000D03*
X143200000Y-83170000D03*
G04 #@! TD*
D42*
G04 #@! TO.C,C2*
X147875000Y-121300000D03*
X149425000Y-121300000D03*
G04 #@! TD*
D43*
G04 #@! TO.C,C6*
X131150000Y-129270000D03*
X131150000Y-128310000D03*
G04 #@! TD*
D24*
G04 #@! TO.C,J16*
X112750000Y-99800000D03*
D25*
X112750000Y-101300000D03*
X112750000Y-102800000D03*
G04 #@! TD*
D24*
G04 #@! TO.C,J9*
X112750000Y-58400000D03*
D25*
X112750000Y-59900000D03*
X112750000Y-61400000D03*
G04 #@! TD*
D44*
G04 #@! TO.C,R13*
X142381398Y-76918228D03*
X142381398Y-75898228D03*
G04 #@! TD*
D45*
G04 #@! TO.C,U3*
X149410000Y-118500000D03*
X148140000Y-118500000D03*
X146870000Y-118500000D03*
X145600000Y-118500000D03*
X144330000Y-118500000D03*
X143060000Y-118500000D03*
X141790000Y-118500000D03*
X140520000Y-118500000D03*
X139250000Y-118500000D03*
X137980000Y-118500000D03*
X136710000Y-118500000D03*
X135440000Y-118500000D03*
X134170000Y-118500000D03*
X132900000Y-118500000D03*
D46*
X131650000Y-116735000D03*
X131650000Y-115465000D03*
X131650000Y-114195000D03*
X131650000Y-112925000D03*
X131650000Y-111655000D03*
X131650000Y-110385000D03*
X131650000Y-109115000D03*
X131650000Y-107845000D03*
X131650000Y-106575000D03*
X131650000Y-105305000D03*
X131650000Y-104035000D03*
X131650000Y-102765000D03*
D45*
X132900000Y-101000000D03*
X134170000Y-101000000D03*
X135440000Y-101000000D03*
X136710000Y-101000000D03*
X137980000Y-101000000D03*
X139250000Y-101000000D03*
X140520000Y-101000000D03*
X141790000Y-101000000D03*
X143060000Y-101000000D03*
X144330000Y-101000000D03*
X145600000Y-101000000D03*
X146870000Y-101000000D03*
X148140000Y-101000000D03*
X149410000Y-101000000D03*
D47*
X140990000Y-112650000D03*
X142390000Y-112650000D03*
X140290000Y-111950000D03*
X141690000Y-111950000D03*
X143090000Y-111950000D03*
X140990000Y-111250000D03*
D48*
X141690000Y-111250000D03*
D47*
X142390000Y-111250000D03*
X140290000Y-110550000D03*
X141690000Y-110550000D03*
X143090000Y-110550000D03*
X140990000Y-109850000D03*
X142390000Y-109850000D03*
G04 #@! TD*
D33*
G04 #@! TO.C,JP2*
X148390000Y-93760000D03*
D34*
X148390000Y-92460000D03*
D35*
X148390000Y-91160000D03*
G04 #@! TD*
D26*
G04 #@! TO.C,R3*
X131680000Y-125135000D03*
X131680000Y-126155000D03*
G04 #@! TD*
%LPD*%
M02*
