%TF.GenerationSoftware,KiCad,Pcbnew,8.0.8*%
%TF.CreationDate,2025-02-25T21:21:12+02:00*%
%TF.ProjectId,minisumo_2025,6d696e69-7375-46d6-9f5f-323032352e6b,rev?*%
%TF.SameCoordinates,Original*%
%TF.FileFunction,Drillmap*%
%TF.FilePolarity,Positive*%
%FSLAX45Y45*%
G04 Gerber Fmt 4.5, Leading zero omitted, Abs format (unit mm)*
G04 Created by KiCad (PCBNEW 8.0.8) date 2025-02-25 21:21:12*
%MOMM*%
%LPD*%
G01*
G04 APERTURE LIST*
%ADD10C,0.200000*%
%ADD11C,0.100000*%
%ADD12C,0.270000*%
G04 APERTURE END LIST*
D10*
X11038438Y-13845000D02*
X15050000Y-13845000D01*
X11038438Y-4845000D02*
X11038438Y-13845000D01*
X15050000Y-4845000D02*
X11038438Y-4845000D01*
X11340038Y-13545000D02*
G75*
G02*
X11140038Y-13545000I-100000J0D01*
G01*
X11140038Y-13545000D02*
G75*
G02*
X11340038Y-13545000I100000J0D01*
G01*
X11340038Y-5145000D02*
G75*
G02*
X11140038Y-5145000I-100000J0D01*
G01*
X11140038Y-5145000D02*
G75*
G02*
X11340038Y-5145000I100000J0D01*
G01*
X15050000Y-13845000D02*
X15050000Y-4845000D01*
D11*
X14019000Y-11045000D02*
X14039000Y-11065000D01*
X14039000Y-11045000D02*
X14019000Y-11065000D01*
X14019000Y-11185000D02*
X14039000Y-11205000D01*
X14039000Y-11185000D02*
X14019000Y-11205000D01*
X14089000Y-10975000D02*
X14109000Y-10995000D01*
X14109000Y-10975000D02*
X14089000Y-10995000D01*
X14089000Y-11115000D02*
X14109000Y-11135000D01*
X14109000Y-11115000D02*
X14089000Y-11135000D01*
X14089000Y-11255000D02*
X14109000Y-11275000D01*
X14109000Y-11255000D02*
X14089000Y-11275000D01*
X14159000Y-11045000D02*
X14179000Y-11065000D01*
X14179000Y-11045000D02*
X14159000Y-11065000D01*
X14159000Y-11185000D02*
X14179000Y-11205000D01*
X14179000Y-11185000D02*
X14159000Y-11205000D01*
X14229000Y-10975000D02*
X14249000Y-10995000D01*
X14249000Y-10975000D02*
X14229000Y-10995000D01*
X14229000Y-11115000D02*
X14249000Y-11135000D01*
X14249000Y-11115000D02*
X14229000Y-11135000D01*
X14229000Y-11255000D02*
X14249000Y-11275000D01*
X14249000Y-11255000D02*
X14229000Y-11275000D01*
X14299000Y-11045000D02*
X14319000Y-11065000D01*
X14319000Y-11045000D02*
X14299000Y-11065000D01*
X14299000Y-11185000D02*
X14319000Y-11205000D01*
X14319000Y-11185000D02*
X14299000Y-11205000D01*
X12180660Y-10011000D02*
G75*
G02*
X12160340Y-10011000I-10160J0D01*
G01*
X12160340Y-10011000D02*
G75*
G02*
X12180660Y-10011000I10160J0D01*
G01*
X12180660Y-10141000D02*
G75*
G02*
X12160340Y-10141000I-10160J0D01*
G01*
X12160340Y-10141000D02*
G75*
G02*
X12180660Y-10141000I10160J0D01*
G01*
X12310660Y-10011000D02*
G75*
G02*
X12290340Y-10011000I-10160J0D01*
G01*
X12290340Y-10011000D02*
G75*
G02*
X12310660Y-10011000I10160J0D01*
G01*
X12310660Y-10141000D02*
G75*
G02*
X12290340Y-10141000I-10160J0D01*
G01*
X12290340Y-10141000D02*
G75*
G02*
X12310660Y-10141000I10160J0D01*
G01*
X12440660Y-10011000D02*
G75*
G02*
X12420340Y-10011000I-10160J0D01*
G01*
X12420340Y-10011000D02*
G75*
G02*
X12440660Y-10011000I10160J0D01*
G01*
X12440660Y-10141000D02*
G75*
G02*
X12420340Y-10141000I-10160J0D01*
G01*
X12420340Y-10141000D02*
G75*
G02*
X12440660Y-10141000I10160J0D01*
G01*
X12570660Y-10011000D02*
G75*
G02*
X12550340Y-10011000I-10160J0D01*
G01*
X12550340Y-10011000D02*
G75*
G02*
X12570660Y-10011000I10160J0D01*
G01*
X12570660Y-10141000D02*
G75*
G02*
X12550340Y-10141000I-10160J0D01*
G01*
X12550340Y-10141000D02*
G75*
G02*
X12570660Y-10141000I10160J0D01*
G01*
X11200000Y-5435000D02*
X11200000Y-5465000D01*
X11185000Y-5450000D02*
X11215000Y-5450000D01*
X11200000Y-5635000D02*
X11200000Y-5665000D01*
X11185000Y-5650000D02*
X11215000Y-5650000D01*
X11250000Y-12635000D02*
X11250000Y-12665000D01*
X11235000Y-12650000D02*
X11265000Y-12650000D01*
X11350000Y-5535000D02*
X11350000Y-5565000D01*
X11335000Y-5550000D02*
X11365000Y-5550000D01*
X11390000Y-6296763D02*
X11390000Y-6326763D01*
X11375000Y-6311763D02*
X11405000Y-6311763D01*
X11450000Y-12635000D02*
X11450000Y-12665000D01*
X11435000Y-12650000D02*
X11465000Y-12650000D01*
X11490000Y-10900000D02*
X11490000Y-10930000D01*
X11475000Y-10915000D02*
X11505000Y-10915000D01*
X11500000Y-5435000D02*
X11500000Y-5465000D01*
X11485000Y-5450000D02*
X11515000Y-5450000D01*
X11500000Y-5635000D02*
X11500000Y-5665000D01*
X11485000Y-5650000D02*
X11515000Y-5650000D01*
X11520000Y-11255000D02*
X11520000Y-11285000D01*
X11505000Y-11270000D02*
X11535000Y-11270000D01*
X11520000Y-11760000D02*
X11520000Y-11790000D01*
X11505000Y-11775000D02*
X11535000Y-11775000D01*
X11550000Y-12320000D02*
X11550000Y-12350000D01*
X11535000Y-12335000D02*
X11565000Y-12335000D01*
X11560000Y-9380000D02*
X11560000Y-9410000D01*
X11545000Y-9395000D02*
X11575000Y-9395000D01*
X11560000Y-10970000D02*
X11560000Y-11000000D01*
X11545000Y-10985000D02*
X11575000Y-10985000D01*
X11600000Y-6485000D02*
X11600000Y-6515000D01*
X11585000Y-6500000D02*
X11615000Y-6500000D01*
X11620000Y-9465000D02*
X11620000Y-9495000D01*
X11605000Y-9480000D02*
X11635000Y-9480000D01*
X11625000Y-11035000D02*
X11625000Y-11065000D01*
X11610000Y-11050000D02*
X11640000Y-11050000D01*
X11650000Y-5535000D02*
X11650000Y-5565000D01*
X11635000Y-5550000D02*
X11665000Y-5550000D01*
X11650000Y-5835000D02*
X11650000Y-5865000D01*
X11635000Y-5850000D02*
X11665000Y-5850000D01*
X11655000Y-11510000D02*
X11655000Y-11540000D01*
X11640000Y-11525000D02*
X11670000Y-11525000D01*
X11700000Y-6335000D02*
X11700000Y-6365000D01*
X11685000Y-6350000D02*
X11715000Y-6350000D01*
X11700000Y-11100000D02*
X11700000Y-11130000D01*
X11685000Y-11115000D02*
X11715000Y-11115000D01*
X11705000Y-10605000D02*
X11705000Y-10635000D01*
X11690000Y-10620000D02*
X11720000Y-10620000D01*
X11710000Y-10385000D02*
X11710000Y-10415000D01*
X11695000Y-10400000D02*
X11725000Y-10400000D01*
X11750000Y-11785000D02*
X11750000Y-11815000D01*
X11735000Y-11800000D02*
X11765000Y-11800000D01*
X11775000Y-13290000D02*
X11775000Y-13320000D01*
X11760000Y-13305000D02*
X11790000Y-13305000D01*
X11800000Y-5435000D02*
X11800000Y-5465000D01*
X11785000Y-5450000D02*
X11815000Y-5450000D01*
X11800000Y-5635000D02*
X11800000Y-5665000D01*
X11785000Y-5650000D02*
X11815000Y-5650000D01*
X11800000Y-5835000D02*
X11800000Y-5865000D01*
X11785000Y-5850000D02*
X11815000Y-5850000D01*
X11800000Y-6035000D02*
X11800000Y-6065000D01*
X11785000Y-6050000D02*
X11815000Y-6050000D01*
X11800000Y-6235000D02*
X11800000Y-6265000D01*
X11785000Y-6250000D02*
X11815000Y-6250000D01*
X11800000Y-6485000D02*
X11800000Y-6515000D01*
X11785000Y-6500000D02*
X11815000Y-6500000D01*
X11800000Y-11435000D02*
X11800000Y-11465000D01*
X11785000Y-11450000D02*
X11815000Y-11450000D01*
X11800000Y-11930000D02*
X11800000Y-11960000D01*
X11785000Y-11945000D02*
X11815000Y-11945000D01*
X11813000Y-10196000D02*
X11813000Y-10226000D01*
X11798000Y-10211000D02*
X11828000Y-10211000D01*
X11851000Y-11358000D02*
X11851000Y-11388000D01*
X11836000Y-11373000D02*
X11866000Y-11373000D01*
X11860000Y-10855000D02*
X11860000Y-10885000D01*
X11845000Y-10870000D02*
X11875000Y-10870000D01*
X11900000Y-11685000D02*
X11900000Y-11715000D01*
X11885000Y-11700000D02*
X11915000Y-11700000D01*
X11940000Y-10935000D02*
X11940000Y-10965000D01*
X11925000Y-10950000D02*
X11955000Y-10950000D01*
X11950000Y-12635000D02*
X11950000Y-12665000D01*
X11935000Y-12650000D02*
X11965000Y-12650000D01*
X11975000Y-5140000D02*
X11975000Y-5170000D01*
X11960000Y-5155000D02*
X11990000Y-5155000D01*
X11990000Y-11375000D02*
X11990000Y-11405000D01*
X11975000Y-11390000D02*
X12005000Y-11390000D01*
X12000000Y-5435000D02*
X12000000Y-5465000D01*
X11985000Y-5450000D02*
X12015000Y-5450000D01*
X12000000Y-6035000D02*
X12000000Y-6065000D01*
X11985000Y-6050000D02*
X12015000Y-6050000D01*
X12000000Y-6235000D02*
X12000000Y-6265000D01*
X11985000Y-6250000D02*
X12015000Y-6250000D01*
X12000000Y-6485000D02*
X12000000Y-6515000D01*
X11985000Y-6500000D02*
X12015000Y-6500000D01*
X12000000Y-11785000D02*
X12000000Y-11815000D01*
X11985000Y-11800000D02*
X12015000Y-11800000D01*
X12005000Y-10990000D02*
X12005000Y-11020000D01*
X11990000Y-11005000D02*
X12020000Y-11005000D01*
X12050000Y-12435000D02*
X12050000Y-12465000D01*
X12035000Y-12450000D02*
X12065000Y-12450000D01*
X12070000Y-11045000D02*
X12070000Y-11075000D01*
X12055000Y-11060000D02*
X12085000Y-11060000D01*
X12100000Y-11685000D02*
X12100000Y-11715000D01*
X12085000Y-11700000D02*
X12115000Y-11700000D01*
X12135000Y-11100000D02*
X12135000Y-11130000D01*
X12120000Y-11115000D02*
X12150000Y-11115000D01*
X12150000Y-12285000D02*
X12150000Y-12315000D01*
X12135000Y-12300000D02*
X12165000Y-12300000D01*
X12150000Y-12635000D02*
X12150000Y-12665000D01*
X12135000Y-12650000D02*
X12165000Y-12650000D01*
X12250000Y-11785000D02*
X12250000Y-11815000D01*
X12235000Y-11800000D02*
X12265000Y-11800000D01*
X12250000Y-12435000D02*
X12250000Y-12465000D01*
X12235000Y-12450000D02*
X12265000Y-12450000D01*
X12280000Y-13290000D02*
X12280000Y-13320000D01*
X12265000Y-13305000D02*
X12295000Y-13305000D01*
X12300000Y-12635000D02*
X12300000Y-12665000D01*
X12285000Y-12650000D02*
X12315000Y-12650000D01*
X12302500Y-10972500D02*
X12302500Y-11002500D01*
X12287500Y-10987500D02*
X12317500Y-10987500D01*
X12302500Y-11085000D02*
X12302500Y-11115000D01*
X12287500Y-11100000D02*
X12317500Y-11100000D01*
X12330000Y-10885000D02*
X12330000Y-10915000D01*
X12315000Y-10900000D02*
X12345000Y-10900000D01*
X12350000Y-12285000D02*
X12350000Y-12315000D01*
X12335000Y-12300000D02*
X12365000Y-12300000D01*
X12410000Y-10885000D02*
X12410000Y-10915000D01*
X12395000Y-10900000D02*
X12425000Y-10900000D01*
X12450000Y-12435000D02*
X12450000Y-12465000D01*
X12435000Y-12450000D02*
X12465000Y-12450000D01*
X12460000Y-10625000D02*
X12460000Y-10655000D01*
X12445000Y-10640000D02*
X12475000Y-10640000D01*
X12475000Y-5140000D02*
X12475000Y-5170000D01*
X12460000Y-5155000D02*
X12490000Y-5155000D01*
X12485000Y-7195000D02*
X12485000Y-7225000D01*
X12470000Y-7210000D02*
X12500000Y-7210000D01*
X12490000Y-10885000D02*
X12490000Y-10915000D01*
X12475000Y-10900000D02*
X12505000Y-10900000D01*
X12500000Y-12635000D02*
X12500000Y-12665000D01*
X12485000Y-12650000D02*
X12515000Y-12650000D01*
X12532250Y-12753000D02*
X12532250Y-12783000D01*
X12517250Y-12768000D02*
X12547250Y-12768000D01*
X12532250Y-12942000D02*
X12532250Y-12972000D01*
X12517250Y-12957000D02*
X12547250Y-12957000D01*
X12547500Y-6242500D02*
X12547500Y-6272500D01*
X12532500Y-6257500D02*
X12562500Y-6257500D01*
X12550000Y-12285000D02*
X12550000Y-12315000D01*
X12535000Y-12300000D02*
X12565000Y-12300000D01*
X12592500Y-11667500D02*
X12592500Y-11697500D01*
X12577500Y-11682500D02*
X12607500Y-11682500D01*
X12595000Y-11750000D02*
X12595000Y-11780000D01*
X12580000Y-11765000D02*
X12610000Y-11765000D01*
X12595000Y-11835000D02*
X12595000Y-11865000D01*
X12580000Y-11850000D02*
X12610000Y-11850000D01*
X12620000Y-5935000D02*
X12620000Y-5965000D01*
X12605000Y-5950000D02*
X12635000Y-5950000D01*
X12630000Y-6005000D02*
X12630000Y-6035000D01*
X12615000Y-6020000D02*
X12645000Y-6020000D01*
X12640500Y-7382000D02*
X12640500Y-7412000D01*
X12625500Y-7397000D02*
X12655500Y-7397000D01*
X12650000Y-12435000D02*
X12650000Y-12465000D01*
X12635000Y-12450000D02*
X12665000Y-12450000D01*
X12650000Y-12635000D02*
X12650000Y-12665000D01*
X12635000Y-12650000D02*
X12665000Y-12650000D01*
X12690000Y-5965000D02*
X12690000Y-5995000D01*
X12675000Y-5980000D02*
X12705000Y-5980000D01*
X12692000Y-6251000D02*
X12692000Y-6281000D01*
X12677000Y-6266000D02*
X12707000Y-6266000D01*
X12693500Y-7350000D02*
X12693500Y-7380000D01*
X12678500Y-7365000D02*
X12708500Y-7365000D01*
X12696500Y-7415000D02*
X12696500Y-7445000D01*
X12681500Y-7430000D02*
X12711500Y-7430000D01*
X12720000Y-6535000D02*
X12720000Y-6565000D01*
X12705000Y-6550000D02*
X12735000Y-6550000D01*
X12725000Y-6195000D02*
X12725000Y-6225000D01*
X12710000Y-6210000D02*
X12740000Y-6210000D01*
X12725000Y-8730000D02*
X12725000Y-8760000D01*
X12710000Y-8745000D02*
X12740000Y-8745000D01*
X12730500Y-5505500D02*
X12730500Y-5535500D01*
X12715500Y-5520500D02*
X12745500Y-5520500D01*
X12742841Y-5407438D02*
X12742841Y-5437438D01*
X12727841Y-5422438D02*
X12757841Y-5422438D01*
X12748722Y-6851000D02*
X12748722Y-6881000D01*
X12733722Y-6866000D02*
X12763722Y-6866000D01*
X12750000Y-12285000D02*
X12750000Y-12315000D01*
X12735000Y-12300000D02*
X12765000Y-12300000D01*
X12750050Y-6930989D02*
X12750050Y-6960989D01*
X12735050Y-6945989D02*
X12765050Y-6945989D01*
X12755000Y-13290000D02*
X12755000Y-13320000D01*
X12740000Y-13305000D02*
X12770000Y-13305000D01*
X12757000Y-6248000D02*
X12757000Y-6278000D01*
X12742000Y-6263000D02*
X12772000Y-6263000D01*
X12760000Y-6032500D02*
X12760000Y-6062500D01*
X12745000Y-6047500D02*
X12775000Y-6047500D01*
X12761821Y-7461187D02*
X12761821Y-7491187D01*
X12746821Y-7476187D02*
X12776821Y-7476187D01*
X12770000Y-6120000D02*
X12770000Y-6150000D01*
X12755000Y-6135000D02*
X12785000Y-6135000D01*
X12775250Y-12742000D02*
X12775250Y-12772000D01*
X12760250Y-12757000D02*
X12790250Y-12757000D01*
X12775250Y-12942000D02*
X12775250Y-12972000D01*
X12760250Y-12957000D02*
X12790250Y-12957000D01*
X12780000Y-6495000D02*
X12780000Y-6525000D01*
X12765000Y-6510000D02*
X12795000Y-6510000D01*
X12780000Y-6565000D02*
X12780000Y-6595000D01*
X12765000Y-6580000D02*
X12795000Y-6580000D01*
X12786175Y-6753785D02*
X12786175Y-6783785D01*
X12771175Y-6768785D02*
X12801175Y-6768785D01*
X12805000Y-11750000D02*
X12805000Y-11780000D01*
X12790000Y-11765000D02*
X12820000Y-11765000D01*
X12805000Y-11835000D02*
X12805000Y-11865000D01*
X12790000Y-11850000D02*
X12820000Y-11850000D01*
X12808500Y-5296500D02*
X12808500Y-5326500D01*
X12793500Y-5311500D02*
X12823500Y-5311500D01*
X12817000Y-4915000D02*
X12817000Y-4945000D01*
X12802000Y-4930000D02*
X12832000Y-4930000D01*
X12851000Y-10909000D02*
X12851000Y-10939000D01*
X12836000Y-10924000D02*
X12866000Y-10924000D01*
X12859468Y-13008275D02*
X12859468Y-13038275D01*
X12844468Y-13023275D02*
X12874468Y-13023275D01*
X12895152Y-7540000D02*
X12895152Y-7570000D01*
X12880152Y-7555000D02*
X12910152Y-7555000D01*
X12902000Y-10831000D02*
X12902000Y-10861000D01*
X12887000Y-10846000D02*
X12917000Y-10846000D01*
X12910000Y-4925000D02*
X12910000Y-4955000D01*
X12895000Y-4940000D02*
X12925000Y-4940000D01*
X12940000Y-10998000D02*
X12940000Y-11028000D01*
X12925000Y-11013000D02*
X12955000Y-11013000D01*
X12950000Y-12285000D02*
X12950000Y-12315000D01*
X12935000Y-12300000D02*
X12965000Y-12300000D01*
X12965000Y-10755000D02*
X12965000Y-10785000D01*
X12950000Y-10770000D02*
X12980000Y-10770000D01*
X12977500Y-7857000D02*
X12977500Y-7887000D01*
X12962500Y-7872000D02*
X12992500Y-7872000D01*
X12988306Y-11478306D02*
X12988306Y-11508306D01*
X12973306Y-11493306D02*
X13003306Y-11493306D01*
X13025000Y-10685000D02*
X13025000Y-10715000D01*
X13010000Y-10700000D02*
X13040000Y-10700000D01*
X13027500Y-5508000D02*
X13027500Y-5538000D01*
X13012500Y-5523000D02*
X13042500Y-5523000D01*
X13027500Y-5645500D02*
X13027500Y-5675500D01*
X13012500Y-5660500D02*
X13042500Y-5660500D01*
X13030000Y-5763000D02*
X13030000Y-5793000D01*
X13015000Y-5778000D02*
X13045000Y-5778000D01*
X13030000Y-5890500D02*
X13030000Y-5920500D01*
X13015000Y-5905500D02*
X13045000Y-5905500D01*
X13037500Y-6907500D02*
X13037500Y-6937500D01*
X13022500Y-6922500D02*
X13052500Y-6922500D01*
X13037500Y-7045000D02*
X13037500Y-7075000D01*
X13022500Y-7060000D02*
X13052500Y-7060000D01*
X13037500Y-7163500D02*
X13037500Y-7193500D01*
X13022500Y-7178500D02*
X13052500Y-7178500D01*
X13037500Y-7291000D02*
X13037500Y-7321000D01*
X13022500Y-7306000D02*
X13052500Y-7306000D01*
X13051000Y-7885000D02*
X13051000Y-7915000D01*
X13036000Y-7900000D02*
X13066000Y-7900000D01*
X13100000Y-12385000D02*
X13100000Y-12415000D01*
X13085000Y-12400000D02*
X13115000Y-12400000D01*
X13116000Y-12742000D02*
X13116000Y-12772000D01*
X13101000Y-12757000D02*
X13131000Y-12757000D01*
X13150000Y-5070000D02*
X13150000Y-5100000D01*
X13135000Y-5085000D02*
X13165000Y-5085000D01*
X13150000Y-5195000D02*
X13150000Y-5225000D01*
X13135000Y-5210000D02*
X13165000Y-5210000D01*
X13150000Y-5508000D02*
X13150000Y-5538000D01*
X13135000Y-5523000D02*
X13165000Y-5523000D01*
X13150000Y-5645500D02*
X13150000Y-5675500D01*
X13135000Y-5660500D02*
X13165000Y-5660500D01*
X13150000Y-6185000D02*
X13150000Y-6215000D01*
X13135000Y-6200000D02*
X13165000Y-6200000D01*
X13150000Y-6310000D02*
X13150000Y-6340000D01*
X13135000Y-6325000D02*
X13165000Y-6325000D01*
X13152500Y-5763000D02*
X13152500Y-5793000D01*
X13137500Y-5778000D02*
X13167500Y-5778000D01*
X13152500Y-5890500D02*
X13152500Y-5920500D01*
X13137500Y-5905500D02*
X13167500Y-5905500D01*
X13152500Y-6482000D02*
X13152500Y-6512000D01*
X13137500Y-6497000D02*
X13167500Y-6497000D01*
X13152500Y-6607000D02*
X13152500Y-6637000D01*
X13137500Y-6622000D02*
X13167500Y-6622000D01*
X13152500Y-7607000D02*
X13152500Y-7637000D01*
X13137500Y-7622000D02*
X13167500Y-7622000D01*
X13152500Y-7732000D02*
X13152500Y-7762000D01*
X13137500Y-7747000D02*
X13167500Y-7747000D01*
X13160000Y-6907500D02*
X13160000Y-6937500D01*
X13145000Y-6922500D02*
X13175000Y-6922500D01*
X13160000Y-7045000D02*
X13160000Y-7075000D01*
X13145000Y-7060000D02*
X13175000Y-7060000D01*
X13160000Y-7163500D02*
X13160000Y-7193500D01*
X13145000Y-7178500D02*
X13175000Y-7178500D01*
X13160000Y-7291000D02*
X13160000Y-7321000D01*
X13145000Y-7306000D02*
X13175000Y-7306000D01*
X13270000Y-5505500D02*
X13270000Y-5535500D01*
X13255000Y-5520500D02*
X13285000Y-5520500D01*
X13270000Y-5643000D02*
X13270000Y-5673000D01*
X13255000Y-5658000D02*
X13285000Y-5658000D01*
X13272500Y-5760500D02*
X13272500Y-5790500D01*
X13257500Y-5775500D02*
X13287500Y-5775500D01*
X13272500Y-5888000D02*
X13272500Y-5918000D01*
X13257500Y-5903000D02*
X13287500Y-5903000D01*
X13275000Y-5070000D02*
X13275000Y-5100000D01*
X13260000Y-5085000D02*
X13290000Y-5085000D01*
X13275000Y-5195000D02*
X13275000Y-5225000D01*
X13260000Y-5210000D02*
X13290000Y-5210000D01*
X13275000Y-6185000D02*
X13275000Y-6215000D01*
X13260000Y-6200000D02*
X13290000Y-6200000D01*
X13275000Y-6310000D02*
X13275000Y-6340000D01*
X13260000Y-6325000D02*
X13290000Y-6325000D01*
X13277500Y-6482000D02*
X13277500Y-6512000D01*
X13262500Y-6497000D02*
X13292500Y-6497000D01*
X13277500Y-6607000D02*
X13277500Y-6637000D01*
X13262500Y-6622000D02*
X13292500Y-6622000D01*
X13277500Y-7607000D02*
X13277500Y-7637000D01*
X13262500Y-7622000D02*
X13292500Y-7622000D01*
X13277500Y-7732000D02*
X13277500Y-7762000D01*
X13262500Y-7747000D02*
X13292500Y-7747000D01*
X13280000Y-6905000D02*
X13280000Y-6935000D01*
X13265000Y-6920000D02*
X13295000Y-6920000D01*
X13280000Y-7042500D02*
X13280000Y-7072500D01*
X13265000Y-7057500D02*
X13295000Y-7057500D01*
X13282500Y-7160000D02*
X13282500Y-7190000D01*
X13267500Y-7175000D02*
X13297500Y-7175000D01*
X13282500Y-7287500D02*
X13282500Y-7317500D01*
X13267500Y-7302500D02*
X13297500Y-7302500D01*
X13307500Y-10642500D02*
X13307500Y-10672500D01*
X13292500Y-10657500D02*
X13322500Y-10657500D01*
X13310000Y-11145000D02*
X13310000Y-11175000D01*
X13295000Y-11160000D02*
X13325000Y-11160000D01*
X13354194Y-11374194D02*
X13354194Y-11404194D01*
X13339194Y-11389194D02*
X13369194Y-11389194D01*
X13355000Y-12364000D02*
X13355000Y-12394000D01*
X13340000Y-12379000D02*
X13370000Y-12379000D01*
X13355000Y-12568000D02*
X13355000Y-12598000D01*
X13340000Y-12583000D02*
X13370000Y-12583000D01*
X13397500Y-5505500D02*
X13397500Y-5535500D01*
X13382500Y-5520500D02*
X13412500Y-5520500D01*
X13397500Y-5643000D02*
X13397500Y-5673000D01*
X13382500Y-5658000D02*
X13412500Y-5658000D01*
X13400000Y-5070000D02*
X13400000Y-5100000D01*
X13385000Y-5085000D02*
X13415000Y-5085000D01*
X13400000Y-5195000D02*
X13400000Y-5225000D01*
X13385000Y-5210000D02*
X13415000Y-5210000D01*
X13400000Y-5760500D02*
X13400000Y-5790500D01*
X13385000Y-5775500D02*
X13415000Y-5775500D01*
X13400000Y-5888000D02*
X13400000Y-5918000D01*
X13385000Y-5903000D02*
X13415000Y-5903000D01*
X13400000Y-6185000D02*
X13400000Y-6215000D01*
X13385000Y-6200000D02*
X13415000Y-6200000D01*
X13400000Y-6310000D02*
X13400000Y-6340000D01*
X13385000Y-6325000D02*
X13415000Y-6325000D01*
X13402500Y-6482000D02*
X13402500Y-6512000D01*
X13387500Y-6497000D02*
X13417500Y-6497000D01*
X13402500Y-6607000D02*
X13402500Y-6637000D01*
X13387500Y-6622000D02*
X13417500Y-6622000D01*
X13402500Y-7607000D02*
X13402500Y-7637000D01*
X13387500Y-7622000D02*
X13417500Y-7622000D01*
X13402500Y-7732000D02*
X13402500Y-7762000D01*
X13387500Y-7747000D02*
X13417500Y-7747000D01*
X13407500Y-6905000D02*
X13407500Y-6935000D01*
X13392500Y-6920000D02*
X13422500Y-6920000D01*
X13407500Y-7042500D02*
X13407500Y-7072500D01*
X13392500Y-7057500D02*
X13422500Y-7057500D01*
X13410000Y-7160000D02*
X13410000Y-7190000D01*
X13395000Y-7175000D02*
X13425000Y-7175000D01*
X13410000Y-7287500D02*
X13410000Y-7317500D01*
X13395000Y-7302500D02*
X13425000Y-7302500D01*
X13410000Y-10235000D02*
X13410000Y-10265000D01*
X13395000Y-10250000D02*
X13425000Y-10250000D01*
X13500000Y-8541000D02*
X13500000Y-8571000D01*
X13485000Y-8556000D02*
X13515000Y-8556000D01*
X13500000Y-8740000D02*
X13500000Y-8770000D01*
X13485000Y-8755000D02*
X13515000Y-8755000D01*
X13505000Y-9885000D02*
X13505000Y-9915000D01*
X13490000Y-9900000D02*
X13520000Y-9900000D01*
X13525000Y-5070000D02*
X13525000Y-5100000D01*
X13510000Y-5085000D02*
X13540000Y-5085000D01*
X13525000Y-5195000D02*
X13525000Y-5225000D01*
X13510000Y-5210000D02*
X13540000Y-5210000D01*
X13525000Y-6185000D02*
X13525000Y-6215000D01*
X13510000Y-6200000D02*
X13540000Y-6200000D01*
X13525000Y-6310000D02*
X13525000Y-6340000D01*
X13510000Y-6325000D02*
X13540000Y-6325000D01*
X13527500Y-6482000D02*
X13527500Y-6512000D01*
X13512500Y-6497000D02*
X13542500Y-6497000D01*
X13527500Y-6607000D02*
X13527500Y-6637000D01*
X13512500Y-6622000D02*
X13542500Y-6622000D01*
X13527500Y-7607000D02*
X13527500Y-7637000D01*
X13512500Y-7622000D02*
X13542500Y-7622000D01*
X13527500Y-7732000D02*
X13527500Y-7762000D01*
X13512500Y-7747000D02*
X13542500Y-7747000D01*
X13529073Y-9193927D02*
X13529073Y-9223927D01*
X13514073Y-9208927D02*
X13544073Y-9208927D01*
X13550000Y-12125000D02*
X13550000Y-12155000D01*
X13535000Y-12140000D02*
X13565000Y-12140000D01*
X13600000Y-9885000D02*
X13600000Y-9915000D01*
X13585000Y-9900000D02*
X13615000Y-9900000D01*
X13624876Y-7504650D02*
X13624876Y-7534650D01*
X13609876Y-7519650D02*
X13639876Y-7519650D01*
X13650000Y-5070000D02*
X13650000Y-5100000D01*
X13635000Y-5085000D02*
X13665000Y-5085000D01*
X13650000Y-5195000D02*
X13650000Y-5225000D01*
X13635000Y-5210000D02*
X13665000Y-5210000D01*
X13652500Y-6482000D02*
X13652500Y-6512000D01*
X13637500Y-6497000D02*
X13667500Y-6497000D01*
X13652500Y-6607000D02*
X13652500Y-6637000D01*
X13637500Y-6622000D02*
X13667500Y-6622000D01*
X13652500Y-7607000D02*
X13652500Y-7637000D01*
X13637500Y-7622000D02*
X13667500Y-7622000D01*
X13652500Y-7732000D02*
X13652500Y-7762000D01*
X13637500Y-7747000D02*
X13667500Y-7747000D01*
X13660000Y-6755000D02*
X13660000Y-6785000D01*
X13645000Y-6770000D02*
X13675000Y-6770000D01*
X13660000Y-10670000D02*
X13660000Y-10700000D01*
X13645000Y-10685000D02*
X13675000Y-10685000D01*
X13670000Y-5375000D02*
X13670000Y-5405000D01*
X13655000Y-5390000D02*
X13685000Y-5390000D01*
X13670000Y-7415000D02*
X13670000Y-7445000D01*
X13655000Y-7430000D02*
X13685000Y-7430000D01*
X13675000Y-6185000D02*
X13675000Y-6215000D01*
X13660000Y-6200000D02*
X13690000Y-6200000D01*
X13675000Y-6310000D02*
X13675000Y-6340000D01*
X13660000Y-6325000D02*
X13690000Y-6325000D01*
X13675000Y-8545000D02*
X13675000Y-8575000D01*
X13660000Y-8560000D02*
X13690000Y-8560000D01*
X13675000Y-8740000D02*
X13675000Y-8770000D01*
X13660000Y-8755000D02*
X13690000Y-8755000D01*
X13680000Y-6025000D02*
X13680000Y-6055000D01*
X13665000Y-6040000D02*
X13695000Y-6040000D01*
X13680000Y-12125000D02*
X13680000Y-12155000D01*
X13665000Y-12140000D02*
X13695000Y-12140000D01*
X13684000Y-9264000D02*
X13684000Y-9294000D01*
X13669000Y-9279000D02*
X13699000Y-9279000D01*
X13687500Y-7092500D02*
X13687500Y-7122500D01*
X13672500Y-7107500D02*
X13702500Y-7107500D01*
X13690000Y-5705000D02*
X13690000Y-5735000D01*
X13675000Y-5720000D02*
X13705000Y-5720000D01*
X13695000Y-9912000D02*
X13695000Y-9942000D01*
X13680000Y-9927000D02*
X13710000Y-9927000D01*
X13702500Y-6832000D02*
X13702500Y-6862000D01*
X13687500Y-6847000D02*
X13717500Y-6847000D01*
X13702500Y-6982000D02*
X13702500Y-7012000D01*
X13687500Y-6997000D02*
X13717500Y-6997000D01*
X13702500Y-7282000D02*
X13702500Y-7312000D01*
X13687500Y-7297000D02*
X13717500Y-7297000D01*
X13710000Y-5785000D02*
X13710000Y-5815000D01*
X13695000Y-5800000D02*
X13725000Y-5800000D01*
X13725000Y-5435000D02*
X13725000Y-5465000D01*
X13710000Y-5450000D02*
X13740000Y-5450000D01*
X13725000Y-5585000D02*
X13725000Y-5615000D01*
X13710000Y-5600000D02*
X13740000Y-5600000D01*
X13725000Y-5885000D02*
X13725000Y-5915000D01*
X13710000Y-5900000D02*
X13740000Y-5900000D01*
X13745000Y-6750000D02*
X13745000Y-6780000D01*
X13730000Y-6765000D02*
X13760000Y-6765000D01*
X13757500Y-9130000D02*
X13757500Y-9160000D01*
X13742500Y-9145000D02*
X13772500Y-9145000D01*
X13765000Y-5347500D02*
X13765000Y-5377500D01*
X13750000Y-5362500D02*
X13780000Y-5362500D01*
X13775000Y-5070000D02*
X13775000Y-5100000D01*
X13760000Y-5085000D02*
X13790000Y-5085000D01*
X13775000Y-5195000D02*
X13775000Y-5225000D01*
X13760000Y-5210000D02*
X13790000Y-5210000D01*
X13775000Y-6070000D02*
X13775000Y-6100000D01*
X13760000Y-6085000D02*
X13790000Y-6085000D01*
X13777500Y-6482000D02*
X13777500Y-6512000D01*
X13762500Y-6497000D02*
X13792500Y-6497000D01*
X13777500Y-6607000D02*
X13777500Y-6637000D01*
X13762500Y-6622000D02*
X13792500Y-6622000D01*
X13777500Y-6907000D02*
X13777500Y-6937000D01*
X13762500Y-6922000D02*
X13792500Y-6922000D01*
X13777500Y-7057000D02*
X13777500Y-7087000D01*
X13762500Y-7072000D02*
X13792500Y-7072000D01*
X13777500Y-7207000D02*
X13777500Y-7237000D01*
X13762500Y-7222000D02*
X13792500Y-7222000D01*
X13777500Y-7607000D02*
X13777500Y-7637000D01*
X13762500Y-7622000D02*
X13792500Y-7622000D01*
X13777500Y-7732000D02*
X13777500Y-7762000D01*
X13762500Y-7747000D02*
X13792500Y-7747000D01*
X13780000Y-7345000D02*
X13780000Y-7375000D01*
X13765000Y-7360000D02*
X13795000Y-7360000D01*
X13800000Y-5510000D02*
X13800000Y-5540000D01*
X13785000Y-5525000D02*
X13815000Y-5525000D01*
X13800000Y-5660000D02*
X13800000Y-5690000D01*
X13785000Y-5675000D02*
X13815000Y-5675000D01*
X13800000Y-5810000D02*
X13800000Y-5840000D01*
X13785000Y-5825000D02*
X13815000Y-5825000D01*
X13800000Y-5960000D02*
X13800000Y-5990000D01*
X13785000Y-5975000D02*
X13815000Y-5975000D01*
X13800000Y-6185000D02*
X13800000Y-6215000D01*
X13785000Y-6200000D02*
X13815000Y-6200000D01*
X13800000Y-6310000D02*
X13800000Y-6340000D01*
X13785000Y-6325000D02*
X13815000Y-6325000D01*
X13807000Y-12462000D02*
X13807000Y-12492000D01*
X13792000Y-12477000D02*
X13822000Y-12477000D01*
X13835000Y-9010000D02*
X13835000Y-9040000D01*
X13820000Y-9025000D02*
X13850000Y-9025000D01*
X13897500Y-10263000D02*
X13897500Y-10293000D01*
X13882500Y-10278000D02*
X13912500Y-10278000D01*
X13897500Y-10395000D02*
X13897500Y-10425000D01*
X13882500Y-10410000D02*
X13912500Y-10410000D01*
X13900000Y-5070000D02*
X13900000Y-5100000D01*
X13885000Y-5085000D02*
X13915000Y-5085000D01*
X13900000Y-5195000D02*
X13900000Y-5225000D01*
X13885000Y-5210000D02*
X13915000Y-5210000D01*
X13902500Y-6482000D02*
X13902500Y-6512000D01*
X13887500Y-6497000D02*
X13917500Y-6497000D01*
X13902500Y-6607000D02*
X13902500Y-6637000D01*
X13887500Y-6622000D02*
X13917500Y-6622000D01*
X13902500Y-6832000D02*
X13902500Y-6862000D01*
X13887500Y-6847000D02*
X13917500Y-6847000D01*
X13902500Y-6957000D02*
X13902500Y-6987000D01*
X13887500Y-6972000D02*
X13917500Y-6972000D01*
X13902500Y-7607000D02*
X13902500Y-7637000D01*
X13887500Y-7622000D02*
X13917500Y-7622000D01*
X13902500Y-7732000D02*
X13902500Y-7762000D01*
X13887500Y-7747000D02*
X13917500Y-7747000D01*
X13925000Y-5710000D02*
X13925000Y-5740000D01*
X13910000Y-5725000D02*
X13940000Y-5725000D01*
X13927500Y-7107000D02*
X13927500Y-7137000D01*
X13912500Y-7122000D02*
X13942500Y-7122000D01*
X13927500Y-7232000D02*
X13927500Y-7262000D01*
X13912500Y-7247000D02*
X13942500Y-7247000D01*
X13927500Y-7357000D02*
X13927500Y-7387000D01*
X13912500Y-7372000D02*
X13942500Y-7372000D01*
X13927500Y-7482000D02*
X13927500Y-7512000D01*
X13912500Y-7497000D02*
X13942500Y-7497000D01*
X13946000Y-9940000D02*
X13946000Y-9970000D01*
X13931000Y-9955000D02*
X13961000Y-9955000D01*
X13950000Y-5935000D02*
X13950000Y-5965000D01*
X13935000Y-5950000D02*
X13965000Y-5950000D01*
X13950000Y-6060000D02*
X13950000Y-6090000D01*
X13935000Y-6075000D02*
X13965000Y-6075000D01*
X13950000Y-6185000D02*
X13950000Y-6215000D01*
X13935000Y-6200000D02*
X13965000Y-6200000D01*
X13950000Y-6310000D02*
X13950000Y-6340000D01*
X13935000Y-6325000D02*
X13965000Y-6325000D01*
X13950000Y-11665000D02*
X13950000Y-11695000D01*
X13935000Y-11680000D02*
X13965000Y-11680000D01*
X13975000Y-5335000D02*
X13975000Y-5365000D01*
X13960000Y-5350000D02*
X13990000Y-5350000D01*
X13975000Y-5460000D02*
X13975000Y-5490000D01*
X13960000Y-5475000D02*
X13990000Y-5475000D01*
X13975000Y-5585000D02*
X13975000Y-5615000D01*
X13960000Y-5600000D02*
X13990000Y-5600000D01*
X13992873Y-10207963D02*
X13992873Y-10237963D01*
X13977873Y-10222963D02*
X14007873Y-10222963D01*
X14002500Y-7007000D02*
X14002500Y-7037000D01*
X13987500Y-7022000D02*
X14017500Y-7022000D01*
X14015000Y-9193000D02*
X14015000Y-9223000D01*
X14000000Y-9208000D02*
X14030000Y-9208000D01*
X14025000Y-5070000D02*
X14025000Y-5100000D01*
X14010000Y-5085000D02*
X14040000Y-5085000D01*
X14025000Y-5195000D02*
X14025000Y-5225000D01*
X14010000Y-5210000D02*
X14040000Y-5210000D01*
X14027500Y-6482000D02*
X14027500Y-6512000D01*
X14012500Y-6497000D02*
X14042500Y-6497000D01*
X14027500Y-6607000D02*
X14027500Y-6637000D01*
X14012500Y-6622000D02*
X14042500Y-6622000D01*
X14027500Y-7607000D02*
X14027500Y-7637000D01*
X14012500Y-7622000D02*
X14042500Y-7622000D01*
X14027500Y-7732000D02*
X14027500Y-7762000D01*
X14012500Y-7747000D02*
X14042500Y-7747000D01*
X14047000Y-6756000D02*
X14047000Y-6786000D01*
X14032000Y-6771000D02*
X14062000Y-6771000D01*
X14050000Y-12985000D02*
X14050000Y-13015000D01*
X14035000Y-13000000D02*
X14065000Y-13000000D01*
X14050000Y-13585000D02*
X14050000Y-13615000D01*
X14035000Y-13600000D02*
X14065000Y-13600000D01*
X14052500Y-7107000D02*
X14052500Y-7137000D01*
X14037500Y-7122000D02*
X14067500Y-7122000D01*
X14052500Y-7232000D02*
X14052500Y-7262000D01*
X14037500Y-7247000D02*
X14067500Y-7247000D01*
X14052500Y-7357000D02*
X14052500Y-7387000D01*
X14037500Y-7372000D02*
X14067500Y-7372000D01*
X14052500Y-7482000D02*
X14052500Y-7512000D01*
X14037500Y-7497000D02*
X14067500Y-7497000D01*
X14055000Y-11675000D02*
X14055000Y-11705000D01*
X14040000Y-11690000D02*
X14070000Y-11690000D01*
X14070000Y-9594000D02*
X14070000Y-9624000D01*
X14055000Y-9609000D02*
X14085000Y-9609000D01*
X14075000Y-5935000D02*
X14075000Y-5965000D01*
X14060000Y-5950000D02*
X14090000Y-5950000D01*
X14075000Y-6060000D02*
X14075000Y-6090000D01*
X14060000Y-6075000D02*
X14090000Y-6075000D01*
X14075000Y-6185000D02*
X14075000Y-6215000D01*
X14060000Y-6200000D02*
X14090000Y-6200000D01*
X14075000Y-6310000D02*
X14075000Y-6340000D01*
X14060000Y-6325000D02*
X14090000Y-6325000D01*
X14100000Y-5335000D02*
X14100000Y-5365000D01*
X14085000Y-5350000D02*
X14115000Y-5350000D01*
X14100000Y-5460000D02*
X14100000Y-5490000D01*
X14085000Y-5475000D02*
X14115000Y-5475000D01*
X14100000Y-5585000D02*
X14100000Y-5615000D01*
X14085000Y-5600000D02*
X14115000Y-5600000D01*
X14100000Y-5710000D02*
X14100000Y-5740000D01*
X14085000Y-5725000D02*
X14115000Y-5725000D01*
X14102500Y-6832000D02*
X14102500Y-6862000D01*
X14087500Y-6847000D02*
X14117500Y-6847000D01*
X14102500Y-6957000D02*
X14102500Y-6987000D01*
X14087500Y-6972000D02*
X14117500Y-6972000D01*
X14150000Y-5070000D02*
X14150000Y-5100000D01*
X14135000Y-5085000D02*
X14165000Y-5085000D01*
X14150000Y-5195000D02*
X14150000Y-5225000D01*
X14135000Y-5210000D02*
X14165000Y-5210000D01*
X14150000Y-13435000D02*
X14150000Y-13465000D01*
X14135000Y-13450000D02*
X14165000Y-13450000D01*
X14157000Y-6584000D02*
X14157000Y-6614000D01*
X14142000Y-6599000D02*
X14172000Y-6599000D01*
X14177500Y-6482000D02*
X14177500Y-6512000D01*
X14162500Y-6497000D02*
X14192500Y-6497000D01*
X14177500Y-7107000D02*
X14177500Y-7137000D01*
X14162500Y-7122000D02*
X14192500Y-7122000D01*
X14177500Y-7232000D02*
X14177500Y-7262000D01*
X14162500Y-7247000D02*
X14192500Y-7247000D01*
X14177500Y-7357000D02*
X14177500Y-7387000D01*
X14162500Y-7372000D02*
X14192500Y-7372000D01*
X14177500Y-11680000D02*
X14177500Y-11710000D01*
X14162500Y-11695000D02*
X14192500Y-11695000D01*
X14202500Y-7007000D02*
X14202500Y-7037000D01*
X14187500Y-7022000D02*
X14217500Y-7022000D01*
X14222000Y-6724000D02*
X14222000Y-6754000D01*
X14207000Y-6739000D02*
X14237000Y-6739000D01*
X14225000Y-5935000D02*
X14225000Y-5965000D01*
X14210000Y-5950000D02*
X14240000Y-5950000D01*
X14225000Y-6060000D02*
X14225000Y-6090000D01*
X14210000Y-6075000D02*
X14240000Y-6075000D01*
X14225000Y-6185000D02*
X14225000Y-6215000D01*
X14210000Y-6200000D02*
X14240000Y-6200000D01*
X14225000Y-6310000D02*
X14225000Y-6340000D01*
X14210000Y-6325000D02*
X14240000Y-6325000D01*
X14227500Y-6832000D02*
X14227500Y-6862000D01*
X14212500Y-6847000D02*
X14242500Y-6847000D01*
X14237000Y-8120000D02*
X14237000Y-8150000D01*
X14222000Y-8135000D02*
X14252000Y-8135000D01*
X14237500Y-7467500D02*
X14237500Y-7497500D01*
X14222500Y-7482500D02*
X14252500Y-7482500D01*
X14240000Y-8380000D02*
X14240000Y-8410000D01*
X14225000Y-8395000D02*
X14255000Y-8395000D01*
X14250000Y-5460000D02*
X14250000Y-5490000D01*
X14235000Y-5475000D02*
X14265000Y-5475000D01*
X14250000Y-5585000D02*
X14250000Y-5615000D01*
X14235000Y-5600000D02*
X14265000Y-5600000D01*
X14250000Y-5710000D02*
X14250000Y-5740000D01*
X14235000Y-5725000D02*
X14265000Y-5725000D01*
X14300000Y-13285000D02*
X14300000Y-13315000D01*
X14285000Y-13300000D02*
X14315000Y-13300000D01*
X14300000Y-13585000D02*
X14300000Y-13615000D01*
X14285000Y-13600000D02*
X14315000Y-13600000D01*
X14302500Y-7107000D02*
X14302500Y-7137000D01*
X14287500Y-7122000D02*
X14317500Y-7122000D01*
X14302500Y-7232000D02*
X14302500Y-7262000D01*
X14287500Y-7247000D02*
X14317500Y-7247000D01*
X14302500Y-7357000D02*
X14302500Y-7387000D01*
X14287500Y-7372000D02*
X14317500Y-7372000D01*
X14305000Y-5275000D02*
X14305000Y-5305000D01*
X14290000Y-5290000D02*
X14320000Y-5290000D01*
X14305000Y-11685000D02*
X14305000Y-11715000D01*
X14290000Y-11700000D02*
X14320000Y-11700000D01*
X14325000Y-7715000D02*
X14325000Y-7745000D01*
X14310000Y-7730000D02*
X14340000Y-7730000D01*
X14327500Y-6482000D02*
X14327500Y-6512000D01*
X14312500Y-6497000D02*
X14342500Y-6497000D01*
X14328000Y-6574000D02*
X14328000Y-6604000D01*
X14313000Y-6589000D02*
X14343000Y-6589000D01*
X14350000Y-6185000D02*
X14350000Y-6215000D01*
X14335000Y-6200000D02*
X14365000Y-6200000D01*
X14350000Y-6310000D02*
X14350000Y-6340000D01*
X14335000Y-6325000D02*
X14365000Y-6325000D01*
X14375000Y-5460000D02*
X14375000Y-5490000D01*
X14360000Y-5475000D02*
X14390000Y-5475000D01*
X14400000Y-13135000D02*
X14400000Y-13165000D01*
X14385000Y-13150000D02*
X14415000Y-13150000D01*
X14400000Y-13435000D02*
X14400000Y-13465000D01*
X14385000Y-13450000D02*
X14415000Y-13450000D01*
X14427500Y-7232000D02*
X14427500Y-7262000D01*
X14412500Y-7247000D02*
X14442500Y-7247000D01*
X14427500Y-7357000D02*
X14427500Y-7387000D01*
X14412500Y-7372000D02*
X14442500Y-7372000D01*
X14432500Y-11685000D02*
X14432500Y-11715000D01*
X14417500Y-11700000D02*
X14447500Y-11700000D01*
X14450000Y-5135000D02*
X14450000Y-5165000D01*
X14435000Y-5150000D02*
X14465000Y-5150000D01*
X14475000Y-6185000D02*
X14475000Y-6215000D01*
X14460000Y-6200000D02*
X14490000Y-6200000D01*
X14475000Y-6310000D02*
X14475000Y-6340000D01*
X14460000Y-6325000D02*
X14490000Y-6325000D01*
X14476000Y-6574000D02*
X14476000Y-6604000D01*
X14461000Y-6589000D02*
X14491000Y-6589000D01*
X14477500Y-6482000D02*
X14477500Y-6512000D01*
X14462500Y-6497000D02*
X14492500Y-6497000D01*
X14489242Y-10686000D02*
X14489242Y-10716000D01*
X14474242Y-10701000D02*
X14504242Y-10701000D01*
X14490000Y-9103000D02*
X14490000Y-9133000D01*
X14475000Y-9118000D02*
X14505000Y-9118000D01*
X14490000Y-9563000D02*
X14490000Y-9593000D01*
X14475000Y-9578000D02*
X14505000Y-9578000D01*
X14491000Y-8641000D02*
X14491000Y-8671000D01*
X14476000Y-8656000D02*
X14506000Y-8656000D01*
X14492000Y-8177000D02*
X14492000Y-8207000D01*
X14477000Y-8192000D02*
X14507000Y-8192000D01*
X14500000Y-5460000D02*
X14500000Y-5490000D01*
X14485000Y-5475000D02*
X14515000Y-5475000D01*
X14550000Y-12985000D02*
X14550000Y-13015000D01*
X14535000Y-13000000D02*
X14565000Y-13000000D01*
X14550000Y-13285000D02*
X14550000Y-13315000D01*
X14535000Y-13300000D02*
X14565000Y-13300000D01*
X14550000Y-13585000D02*
X14550000Y-13615000D01*
X14535000Y-13600000D02*
X14565000Y-13600000D01*
X14552500Y-7107000D02*
X14552500Y-7137000D01*
X14537500Y-7122000D02*
X14567500Y-7122000D01*
X14552500Y-7232000D02*
X14552500Y-7262000D01*
X14537500Y-7247000D02*
X14567500Y-7247000D01*
X14552500Y-7357000D02*
X14552500Y-7387000D01*
X14537500Y-7372000D02*
X14567500Y-7372000D01*
X14560000Y-10525000D02*
X14560000Y-10555000D01*
X14545000Y-10540000D02*
X14575000Y-10540000D01*
X14560000Y-11695000D02*
X14560000Y-11725000D01*
X14545000Y-11710000D02*
X14575000Y-11710000D01*
X14561000Y-8535000D02*
X14561000Y-8565000D01*
X14546000Y-8550000D02*
X14576000Y-8550000D01*
X14570000Y-5275000D02*
X14570000Y-5305000D01*
X14555000Y-5290000D02*
X14585000Y-5290000D01*
X14580000Y-10745000D02*
X14580000Y-10775000D01*
X14565000Y-10760000D02*
X14595000Y-10760000D01*
X14585000Y-10640000D02*
X14585000Y-10670000D01*
X14570000Y-10655000D02*
X14600000Y-10655000D01*
X14616642Y-9018358D02*
X14616642Y-9048358D01*
X14601642Y-9033358D02*
X14631642Y-9033358D01*
X14635000Y-9495000D02*
X14635000Y-9525000D01*
X14620000Y-9510000D02*
X14650000Y-9510000D01*
X14637000Y-8560000D02*
X14637000Y-8590000D01*
X14622000Y-8575000D02*
X14652000Y-8575000D01*
X14650000Y-5085000D02*
X14650000Y-5115000D01*
X14635000Y-5100000D02*
X14665000Y-5100000D01*
X14650000Y-13135000D02*
X14650000Y-13165000D01*
X14635000Y-13150000D02*
X14665000Y-13150000D01*
X14650000Y-13435000D02*
X14650000Y-13465000D01*
X14635000Y-13450000D02*
X14665000Y-13450000D01*
X14685000Y-12100000D02*
X14685000Y-12130000D01*
X14670000Y-12115000D02*
X14700000Y-12115000D01*
X14690000Y-10240000D02*
X14690000Y-10270000D01*
X14675000Y-10255000D02*
X14705000Y-10255000D01*
X14700000Y-6185000D02*
X14700000Y-6215000D01*
X14685000Y-6200000D02*
X14715000Y-6200000D01*
X14700000Y-7385000D02*
X14700000Y-7415000D01*
X14685000Y-7400000D02*
X14715000Y-7400000D01*
X14750000Y-5185000D02*
X14750000Y-5215000D01*
X14735000Y-5200000D02*
X14765000Y-5200000D01*
X14750000Y-5585000D02*
X14750000Y-5615000D01*
X14735000Y-5600000D02*
X14765000Y-5600000D01*
X14756647Y-8086647D02*
X14756647Y-8116647D01*
X14741647Y-8101647D02*
X14771647Y-8101647D01*
X14785000Y-12290000D02*
X14785000Y-12320000D01*
X14770000Y-12305000D02*
X14800000Y-12305000D01*
X14795000Y-12195000D02*
X14795000Y-12225000D01*
X14780000Y-12210000D02*
X14810000Y-12210000D01*
X14800000Y-5735000D02*
X14800000Y-5765000D01*
X14785000Y-5750000D02*
X14815000Y-5750000D01*
X14800000Y-12985000D02*
X14800000Y-13015000D01*
X14785000Y-13000000D02*
X14815000Y-13000000D01*
X14800000Y-13285000D02*
X14800000Y-13315000D01*
X14785000Y-13300000D02*
X14815000Y-13300000D01*
X14800000Y-13585000D02*
X14800000Y-13615000D01*
X14785000Y-13600000D02*
X14815000Y-13600000D01*
X14815000Y-10240000D02*
X14815000Y-10270000D01*
X14800000Y-10255000D02*
X14830000Y-10255000D01*
X14837000Y-12570500D02*
X14837000Y-12600500D01*
X14822000Y-12585500D02*
X14852000Y-12585500D01*
X14839000Y-9101000D02*
X14839000Y-9131000D01*
X14824000Y-9116000D02*
X14854000Y-9116000D01*
X14839000Y-9563000D02*
X14839000Y-9593000D01*
X14824000Y-9578000D02*
X14854000Y-9578000D01*
X14845000Y-8178000D02*
X14845000Y-8208000D01*
X14830000Y-8193000D02*
X14860000Y-8193000D01*
X14845000Y-12245000D02*
X14845000Y-12275000D01*
X14830000Y-12260000D02*
X14860000Y-12260000D01*
X14846000Y-8639000D02*
X14846000Y-8669000D01*
X14831000Y-8654000D02*
X14861000Y-8654000D01*
X14850000Y-5385000D02*
X14850000Y-5415000D01*
X14835000Y-5400000D02*
X14865000Y-5400000D01*
X14900000Y-4985000D02*
X14900000Y-5015000D01*
X14885000Y-5000000D02*
X14915000Y-5000000D01*
X14900000Y-13135000D02*
X14900000Y-13165000D01*
X14885000Y-13150000D02*
X14915000Y-13150000D01*
X14900000Y-13435000D02*
X14900000Y-13465000D01*
X14885000Y-13450000D02*
X14915000Y-13450000D01*
X12944213Y-13176713D02*
X12944213Y-13134287D01*
X12901787Y-13134287D01*
X12901787Y-13176713D01*
X12944213Y-13176713D01*
X12953000Y-13210500D02*
X12953000Y-13100500D01*
X12893000Y-13100500D02*
G75*
G02*
X12953000Y-13100500I30000J0D01*
G01*
X12893000Y-13100500D02*
X12893000Y-13210500D01*
X12893000Y-13210500D02*
G75*
G03*
X12953000Y-13210500I30000J0D01*
G01*
X12944213Y-13594713D02*
X12944213Y-13552287D01*
X12901787Y-13552287D01*
X12901787Y-13594713D01*
X12944213Y-13594713D01*
X12953000Y-13603500D02*
X12953000Y-13543500D01*
X12893000Y-13543500D02*
G75*
G02*
X12953000Y-13543500I30000J0D01*
G01*
X12893000Y-13543500D02*
X12893000Y-13603500D01*
X12893000Y-13603500D02*
G75*
G03*
X12953000Y-13603500I30000J0D01*
G01*
X13808213Y-13176713D02*
X13808213Y-13134287D01*
X13765787Y-13134287D01*
X13765787Y-13176713D01*
X13808213Y-13176713D01*
X13817000Y-13210500D02*
X13817000Y-13100500D01*
X13757000Y-13100500D02*
G75*
G02*
X13817000Y-13100500I30000J0D01*
G01*
X13757000Y-13100500D02*
X13757000Y-13210500D01*
X13757000Y-13210500D02*
G75*
G03*
X13817000Y-13210500I30000J0D01*
G01*
X13808213Y-13594713D02*
X13808213Y-13552287D01*
X13765787Y-13552287D01*
X13765787Y-13594713D01*
X13808213Y-13594713D01*
X13817000Y-13603500D02*
X13817000Y-13543500D01*
X13757000Y-13543500D02*
G75*
G02*
X13817000Y-13543500I30000J0D01*
G01*
X13757000Y-13543500D02*
X13757000Y-13603500D01*
X13757000Y-13603500D02*
G75*
G03*
X13817000Y-13603500I30000J0D01*
G01*
X11270000Y-8836500D02*
X11306500Y-8800000D01*
X11270000Y-8763500D01*
X11233500Y-8800000D01*
X11270000Y-8836500D01*
X11270000Y-8986500D02*
X11306500Y-8950000D01*
X11270000Y-8913500D01*
X11233500Y-8950000D01*
X11270000Y-8986500D01*
X11270000Y-9136500D02*
X11306500Y-9100000D01*
X11270000Y-9063500D01*
X11233500Y-9100000D01*
X11270000Y-9136500D01*
X11270000Y-9286500D02*
X11306500Y-9250000D01*
X11270000Y-9213500D01*
X11233500Y-9250000D01*
X11270000Y-9286500D01*
X11270000Y-9436500D02*
X11306500Y-9400000D01*
X11270000Y-9363500D01*
X11233500Y-9400000D01*
X11270000Y-9436500D01*
X11270000Y-9586500D02*
X11306500Y-9550000D01*
X11270000Y-9513500D01*
X11233500Y-9550000D01*
X11270000Y-9586500D01*
X11275000Y-5876500D02*
X11311500Y-5840000D01*
X11275000Y-5803500D01*
X11238500Y-5840000D01*
X11275000Y-5876500D01*
X11275000Y-6026500D02*
X11311500Y-5990000D01*
X11275000Y-5953500D01*
X11238500Y-5990000D01*
X11275000Y-6026500D01*
X11275000Y-6176500D02*
X11311500Y-6140000D01*
X11275000Y-6103500D01*
X11238500Y-6140000D01*
X11275000Y-6176500D01*
X11275000Y-6611500D02*
X11311500Y-6575000D01*
X11275000Y-6538500D01*
X11238500Y-6575000D01*
X11275000Y-6611500D01*
X11275000Y-6761500D02*
X11311500Y-6725000D01*
X11275000Y-6688500D01*
X11238500Y-6725000D01*
X11275000Y-6761500D01*
X11275000Y-6911500D02*
X11311500Y-6875000D01*
X11275000Y-6838500D01*
X11238500Y-6875000D01*
X11275000Y-6911500D01*
X11275000Y-7346500D02*
X11311500Y-7310000D01*
X11275000Y-7273500D01*
X11238500Y-7310000D01*
X11275000Y-7346500D01*
X11275000Y-7496500D02*
X11311500Y-7460000D01*
X11275000Y-7423500D01*
X11238500Y-7460000D01*
X11275000Y-7496500D01*
X11275000Y-7646500D02*
X11311500Y-7610000D01*
X11275000Y-7573500D01*
X11238500Y-7610000D01*
X11275000Y-7646500D01*
X11275000Y-8081500D02*
X11311500Y-8045000D01*
X11275000Y-8008500D01*
X11238500Y-8045000D01*
X11275000Y-8081500D01*
X11275000Y-8231500D02*
X11311500Y-8195000D01*
X11275000Y-8158500D01*
X11238500Y-8195000D01*
X11275000Y-8231500D01*
X11275000Y-8381500D02*
X11311500Y-8345000D01*
X11275000Y-8308500D01*
X11238500Y-8345000D01*
X11275000Y-8381500D01*
X11275000Y-10016500D02*
X11311500Y-9980000D01*
X11275000Y-9943500D01*
X11238500Y-9980000D01*
X11275000Y-10016500D01*
X11275000Y-10166500D02*
X11311500Y-10130000D01*
X11275000Y-10093500D01*
X11238500Y-10130000D01*
X11275000Y-10166500D01*
X11275000Y-10316500D02*
X11311500Y-10280000D01*
X11275000Y-10243500D01*
X11238500Y-10280000D01*
X11275000Y-10316500D01*
X11275000Y-10751500D02*
X11311500Y-10715000D01*
X11275000Y-10678500D01*
X11238500Y-10715000D01*
X11275000Y-10751500D01*
X11275000Y-10901500D02*
X11311500Y-10865000D01*
X11275000Y-10828500D01*
X11238500Y-10865000D01*
X11275000Y-10901500D01*
X11275000Y-11051500D02*
X11311500Y-11015000D01*
X11275000Y-10978500D01*
X11238500Y-11015000D01*
X11275000Y-11051500D01*
X11275000Y-11476500D02*
X11311500Y-11440000D01*
X11275000Y-11403500D01*
X11238500Y-11440000D01*
X11275000Y-11476500D01*
X11275000Y-11626500D02*
X11311500Y-11590000D01*
X11275000Y-11553500D01*
X11238500Y-11590000D01*
X11275000Y-11626500D01*
X11275000Y-11776500D02*
X11311500Y-11740000D01*
X11275000Y-11703500D01*
X11238500Y-11740000D01*
X11275000Y-11776500D01*
X11275000Y-12201500D02*
X11311500Y-12165000D01*
X11275000Y-12128500D01*
X11238500Y-12165000D01*
X11275000Y-12201500D01*
X11275000Y-12351500D02*
X11311500Y-12315000D01*
X11275000Y-12278500D01*
X11238500Y-12315000D01*
X11275000Y-12351500D01*
X11275000Y-12501500D02*
X11311500Y-12465000D01*
X11275000Y-12428500D01*
X11238500Y-12465000D01*
X11275000Y-12501500D01*
X12036000Y-6950000D02*
X12116000Y-7030000D01*
X12116000Y-6950000D02*
X12036000Y-7030000D01*
X12116000Y-6990000D02*
G75*
G02*
X12036000Y-6990000I-40000J0D01*
G01*
X12036000Y-6990000D02*
G75*
G02*
X12116000Y-6990000I40000J0D01*
G01*
X12062000Y-5681500D02*
X12142000Y-5761500D01*
X12142000Y-5681500D02*
X12062000Y-5761500D01*
X12142000Y-5721500D02*
G75*
G02*
X12062000Y-5721500I-40000J0D01*
G01*
X12062000Y-5721500D02*
G75*
G02*
X12142000Y-5721500I40000J0D01*
G01*
X12286000Y-6950000D02*
X12366000Y-7030000D01*
X12366000Y-6950000D02*
X12286000Y-7030000D01*
X12366000Y-6990000D02*
G75*
G02*
X12286000Y-6990000I-40000J0D01*
G01*
X12286000Y-6990000D02*
G75*
G02*
X12366000Y-6990000I40000J0D01*
G01*
X12312000Y-5681500D02*
X12392000Y-5761500D01*
X12392000Y-5681500D02*
X12312000Y-5761500D01*
X12392000Y-5721500D02*
G75*
G02*
X12312000Y-5721500I-40000J0D01*
G01*
X12312000Y-5721500D02*
G75*
G02*
X12392000Y-5721500I40000J0D01*
G01*
X14208000Y-12161500D02*
X14303000Y-12256500D01*
X14303000Y-12161500D02*
X14208000Y-12256500D01*
X14255500Y-12161500D02*
X14255500Y-12256500D01*
X14208000Y-12209000D02*
X14303000Y-12209000D01*
X14208000Y-12411500D02*
X14303000Y-12506500D01*
X14303000Y-12411500D02*
X14208000Y-12506500D01*
X14255500Y-12411500D02*
X14255500Y-12506500D01*
X14208000Y-12459000D02*
X14303000Y-12459000D01*
X14208000Y-12661500D02*
X14303000Y-12756500D01*
X14303000Y-12661500D02*
X14208000Y-12756500D01*
X14255500Y-12661500D02*
X14255500Y-12756500D01*
X14208000Y-12709000D02*
X14303000Y-12709000D01*
X11182000Y-12880000D02*
X11282000Y-12980000D01*
X11282000Y-12880000D02*
X11182000Y-12980000D01*
X11267356Y-12965356D02*
X11267356Y-12894644D01*
X11196644Y-12894644D01*
X11196644Y-12965356D01*
X11267356Y-12965356D01*
X11436000Y-12880000D02*
X11536000Y-12980000D01*
X11536000Y-12880000D02*
X11436000Y-12980000D01*
X11521356Y-12965356D02*
X11521356Y-12894644D01*
X11450644Y-12894644D01*
X11450644Y-12965356D01*
X11521356Y-12965356D01*
X11690000Y-12880000D02*
X11790000Y-12980000D01*
X11790000Y-12880000D02*
X11690000Y-12980000D01*
X11775356Y-12965356D02*
X11775356Y-12894644D01*
X11704644Y-12894644D01*
X11704644Y-12965356D01*
X11775356Y-12965356D01*
X11944000Y-12880000D02*
X12044000Y-12980000D01*
X12044000Y-12880000D02*
X11944000Y-12980000D01*
X12029356Y-12965356D02*
X12029356Y-12894644D01*
X11958644Y-12894644D01*
X11958644Y-12965356D01*
X12029356Y-12965356D01*
X14333500Y-6717500D02*
X14433500Y-6817500D01*
X14433500Y-6717500D02*
X14333500Y-6817500D01*
X14418856Y-6802856D02*
X14418856Y-6732144D01*
X14348144Y-6732144D01*
X14348144Y-6802856D01*
X14418856Y-6802856D01*
X14333500Y-6967500D02*
X14433500Y-7067500D01*
X14433500Y-6967500D02*
X14333500Y-7067500D01*
X14418856Y-7052856D02*
X14418856Y-6982144D01*
X14348144Y-6982144D01*
X14348144Y-7052856D01*
X14418856Y-7052856D01*
X14343000Y-5663000D02*
X14443000Y-5763000D01*
X14443000Y-5663000D02*
X14343000Y-5763000D01*
X14428356Y-5748356D02*
X14428356Y-5677644D01*
X14357644Y-5677644D01*
X14357644Y-5748356D01*
X14428356Y-5748356D01*
X14343000Y-5913000D02*
X14443000Y-6013000D01*
X14443000Y-5913000D02*
X14343000Y-6013000D01*
X14428356Y-5998356D02*
X14428356Y-5927644D01*
X14357644Y-5927644D01*
X14357644Y-5998356D01*
X14428356Y-5998356D01*
D12*
X11829000Y-7918000D02*
X12099000Y-8188000D01*
X12099000Y-7918000D02*
X11829000Y-8188000D01*
X11964000Y-8188000D02*
X12099000Y-8053000D01*
X11964000Y-7918000D01*
X11829000Y-8053000D01*
X11964000Y-8188000D01*
X12329000Y-7918000D02*
X12599000Y-8188000D01*
X12599000Y-7918000D02*
X12329000Y-8188000D01*
X12464000Y-8188000D02*
X12599000Y-8053000D01*
X12464000Y-7918000D01*
X12329000Y-8053000D01*
X12464000Y-8188000D01*
D10*
X11289214Y-14166484D02*
X11289214Y-13966484D01*
X11289214Y-13966484D02*
X11336833Y-13966484D01*
X11336833Y-13966484D02*
X11365405Y-13976008D01*
X11365405Y-13976008D02*
X11384453Y-13995055D01*
X11384453Y-13995055D02*
X11393976Y-14014103D01*
X11393976Y-14014103D02*
X11403500Y-14052198D01*
X11403500Y-14052198D02*
X11403500Y-14080769D01*
X11403500Y-14080769D02*
X11393976Y-14118865D01*
X11393976Y-14118865D02*
X11384453Y-14137912D01*
X11384453Y-14137912D02*
X11365405Y-14156960D01*
X11365405Y-14156960D02*
X11336833Y-14166484D01*
X11336833Y-14166484D02*
X11289214Y-14166484D01*
X11489214Y-14166484D02*
X11489214Y-14033150D01*
X11489214Y-14071246D02*
X11498738Y-14052198D01*
X11498738Y-14052198D02*
X11508262Y-14042674D01*
X11508262Y-14042674D02*
X11527310Y-14033150D01*
X11527310Y-14033150D02*
X11546357Y-14033150D01*
X11613024Y-14166484D02*
X11613024Y-14033150D01*
X11613024Y-13966484D02*
X11603500Y-13976008D01*
X11603500Y-13976008D02*
X11613024Y-13985531D01*
X11613024Y-13985531D02*
X11622548Y-13976008D01*
X11622548Y-13976008D02*
X11613024Y-13966484D01*
X11613024Y-13966484D02*
X11613024Y-13985531D01*
X11736833Y-14166484D02*
X11717786Y-14156960D01*
X11717786Y-14156960D02*
X11708262Y-14137912D01*
X11708262Y-14137912D02*
X11708262Y-13966484D01*
X11841595Y-14166484D02*
X11822548Y-14156960D01*
X11822548Y-14156960D02*
X11813024Y-14137912D01*
X11813024Y-14137912D02*
X11813024Y-13966484D01*
X12070167Y-14166484D02*
X12070167Y-13966484D01*
X12070167Y-13966484D02*
X12136834Y-14109341D01*
X12136834Y-14109341D02*
X12203500Y-13966484D01*
X12203500Y-13966484D02*
X12203500Y-14166484D01*
X12384453Y-14166484D02*
X12384453Y-14061722D01*
X12384453Y-14061722D02*
X12374929Y-14042674D01*
X12374929Y-14042674D02*
X12355881Y-14033150D01*
X12355881Y-14033150D02*
X12317786Y-14033150D01*
X12317786Y-14033150D02*
X12298738Y-14042674D01*
X12384453Y-14156960D02*
X12365405Y-14166484D01*
X12365405Y-14166484D02*
X12317786Y-14166484D01*
X12317786Y-14166484D02*
X12298738Y-14156960D01*
X12298738Y-14156960D02*
X12289214Y-14137912D01*
X12289214Y-14137912D02*
X12289214Y-14118865D01*
X12289214Y-14118865D02*
X12298738Y-14099817D01*
X12298738Y-14099817D02*
X12317786Y-14090293D01*
X12317786Y-14090293D02*
X12365405Y-14090293D01*
X12365405Y-14090293D02*
X12384453Y-14080769D01*
X12479691Y-14033150D02*
X12479691Y-14233150D01*
X12479691Y-14042674D02*
X12498738Y-14033150D01*
X12498738Y-14033150D02*
X12536834Y-14033150D01*
X12536834Y-14033150D02*
X12555881Y-14042674D01*
X12555881Y-14042674D02*
X12565405Y-14052198D01*
X12565405Y-14052198D02*
X12574929Y-14071246D01*
X12574929Y-14071246D02*
X12574929Y-14128388D01*
X12574929Y-14128388D02*
X12565405Y-14147436D01*
X12565405Y-14147436D02*
X12555881Y-14156960D01*
X12555881Y-14156960D02*
X12536834Y-14166484D01*
X12536834Y-14166484D02*
X12498738Y-14166484D01*
X12498738Y-14166484D02*
X12479691Y-14156960D01*
X12660643Y-14147436D02*
X12670167Y-14156960D01*
X12670167Y-14156960D02*
X12660643Y-14166484D01*
X12660643Y-14166484D02*
X12651119Y-14156960D01*
X12651119Y-14156960D02*
X12660643Y-14147436D01*
X12660643Y-14147436D02*
X12660643Y-14166484D01*
X12660643Y-14042674D02*
X12670167Y-14052198D01*
X12670167Y-14052198D02*
X12660643Y-14061722D01*
X12660643Y-14061722D02*
X12651119Y-14052198D01*
X12651119Y-14052198D02*
X12660643Y-14042674D01*
X12660643Y-14042674D02*
X12660643Y-14061722D01*
D11*
X11008438Y-14485000D02*
X11028438Y-14505000D01*
X11028438Y-14485000D02*
X11008438Y-14505000D01*
D10*
X11327310Y-14386484D02*
X11346357Y-14386484D01*
X11346357Y-14386484D02*
X11365405Y-14396008D01*
X11365405Y-14396008D02*
X11374929Y-14405531D01*
X11374929Y-14405531D02*
X11384453Y-14424579D01*
X11384453Y-14424579D02*
X11393976Y-14462674D01*
X11393976Y-14462674D02*
X11393976Y-14510293D01*
X11393976Y-14510293D02*
X11384453Y-14548388D01*
X11384453Y-14548388D02*
X11374929Y-14567436D01*
X11374929Y-14567436D02*
X11365405Y-14576960D01*
X11365405Y-14576960D02*
X11346357Y-14586484D01*
X11346357Y-14586484D02*
X11327310Y-14586484D01*
X11327310Y-14586484D02*
X11308262Y-14576960D01*
X11308262Y-14576960D02*
X11298738Y-14567436D01*
X11298738Y-14567436D02*
X11289214Y-14548388D01*
X11289214Y-14548388D02*
X11279691Y-14510293D01*
X11279691Y-14510293D02*
X11279691Y-14462674D01*
X11279691Y-14462674D02*
X11289214Y-14424579D01*
X11289214Y-14424579D02*
X11298738Y-14405531D01*
X11298738Y-14405531D02*
X11308262Y-14396008D01*
X11308262Y-14396008D02*
X11327310Y-14386484D01*
X11479691Y-14567436D02*
X11489214Y-14576960D01*
X11489214Y-14576960D02*
X11479691Y-14586484D01*
X11479691Y-14586484D02*
X11470167Y-14576960D01*
X11470167Y-14576960D02*
X11479691Y-14567436D01*
X11479691Y-14567436D02*
X11479691Y-14586484D01*
X11565405Y-14405531D02*
X11574929Y-14396008D01*
X11574929Y-14396008D02*
X11593976Y-14386484D01*
X11593976Y-14386484D02*
X11641595Y-14386484D01*
X11641595Y-14386484D02*
X11660643Y-14396008D01*
X11660643Y-14396008D02*
X11670167Y-14405531D01*
X11670167Y-14405531D02*
X11679691Y-14424579D01*
X11679691Y-14424579D02*
X11679691Y-14443627D01*
X11679691Y-14443627D02*
X11670167Y-14472198D01*
X11670167Y-14472198D02*
X11555881Y-14586484D01*
X11555881Y-14586484D02*
X11679691Y-14586484D01*
X11803500Y-14386484D02*
X11822548Y-14386484D01*
X11822548Y-14386484D02*
X11841595Y-14396008D01*
X11841595Y-14396008D02*
X11851119Y-14405531D01*
X11851119Y-14405531D02*
X11860643Y-14424579D01*
X11860643Y-14424579D02*
X11870167Y-14462674D01*
X11870167Y-14462674D02*
X11870167Y-14510293D01*
X11870167Y-14510293D02*
X11860643Y-14548388D01*
X11860643Y-14548388D02*
X11851119Y-14567436D01*
X11851119Y-14567436D02*
X11841595Y-14576960D01*
X11841595Y-14576960D02*
X11822548Y-14586484D01*
X11822548Y-14586484D02*
X11803500Y-14586484D01*
X11803500Y-14586484D02*
X11784453Y-14576960D01*
X11784453Y-14576960D02*
X11774929Y-14567436D01*
X11774929Y-14567436D02*
X11765405Y-14548388D01*
X11765405Y-14548388D02*
X11755881Y-14510293D01*
X11755881Y-14510293D02*
X11755881Y-14462674D01*
X11755881Y-14462674D02*
X11765405Y-14424579D01*
X11765405Y-14424579D02*
X11774929Y-14405531D01*
X11774929Y-14405531D02*
X11784453Y-14396008D01*
X11784453Y-14396008D02*
X11803500Y-14386484D01*
X11993976Y-14386484D02*
X12013024Y-14386484D01*
X12013024Y-14386484D02*
X12032072Y-14396008D01*
X12032072Y-14396008D02*
X12041595Y-14405531D01*
X12041595Y-14405531D02*
X12051119Y-14424579D01*
X12051119Y-14424579D02*
X12060643Y-14462674D01*
X12060643Y-14462674D02*
X12060643Y-14510293D01*
X12060643Y-14510293D02*
X12051119Y-14548388D01*
X12051119Y-14548388D02*
X12041595Y-14567436D01*
X12041595Y-14567436D02*
X12032072Y-14576960D01*
X12032072Y-14576960D02*
X12013024Y-14586484D01*
X12013024Y-14586484D02*
X11993976Y-14586484D01*
X11993976Y-14586484D02*
X11974929Y-14576960D01*
X11974929Y-14576960D02*
X11965405Y-14567436D01*
X11965405Y-14567436D02*
X11955881Y-14548388D01*
X11955881Y-14548388D02*
X11946357Y-14510293D01*
X11946357Y-14510293D02*
X11946357Y-14462674D01*
X11946357Y-14462674D02*
X11955881Y-14424579D01*
X11955881Y-14424579D02*
X11965405Y-14405531D01*
X11965405Y-14405531D02*
X11974929Y-14396008D01*
X11974929Y-14396008D02*
X11993976Y-14386484D01*
X12146357Y-14586484D02*
X12146357Y-14453150D01*
X12146357Y-14472198D02*
X12155881Y-14462674D01*
X12155881Y-14462674D02*
X12174929Y-14453150D01*
X12174929Y-14453150D02*
X12203500Y-14453150D01*
X12203500Y-14453150D02*
X12222548Y-14462674D01*
X12222548Y-14462674D02*
X12232072Y-14481722D01*
X12232072Y-14481722D02*
X12232072Y-14586484D01*
X12232072Y-14481722D02*
X12241595Y-14462674D01*
X12241595Y-14462674D02*
X12260643Y-14453150D01*
X12260643Y-14453150D02*
X12289214Y-14453150D01*
X12289214Y-14453150D02*
X12308262Y-14462674D01*
X12308262Y-14462674D02*
X12317786Y-14481722D01*
X12317786Y-14481722D02*
X12317786Y-14586484D01*
X12413024Y-14586484D02*
X12413024Y-14453150D01*
X12413024Y-14472198D02*
X12422548Y-14462674D01*
X12422548Y-14462674D02*
X12441595Y-14453150D01*
X12441595Y-14453150D02*
X12470167Y-14453150D01*
X12470167Y-14453150D02*
X12489215Y-14462674D01*
X12489215Y-14462674D02*
X12498738Y-14481722D01*
X12498738Y-14481722D02*
X12498738Y-14586484D01*
X12498738Y-14481722D02*
X12508262Y-14462674D01*
X12508262Y-14462674D02*
X12527310Y-14453150D01*
X12527310Y-14453150D02*
X12555881Y-14453150D01*
X12555881Y-14453150D02*
X12574929Y-14462674D01*
X12574929Y-14462674D02*
X12584453Y-14481722D01*
X12584453Y-14481722D02*
X12584453Y-14586484D01*
X12974929Y-14376960D02*
X12803500Y-14634103D01*
X13232072Y-14386484D02*
X13251119Y-14386484D01*
X13251119Y-14386484D02*
X13270167Y-14396008D01*
X13270167Y-14396008D02*
X13279691Y-14405531D01*
X13279691Y-14405531D02*
X13289215Y-14424579D01*
X13289215Y-14424579D02*
X13298738Y-14462674D01*
X13298738Y-14462674D02*
X13298738Y-14510293D01*
X13298738Y-14510293D02*
X13289215Y-14548388D01*
X13289215Y-14548388D02*
X13279691Y-14567436D01*
X13279691Y-14567436D02*
X13270167Y-14576960D01*
X13270167Y-14576960D02*
X13251119Y-14586484D01*
X13251119Y-14586484D02*
X13232072Y-14586484D01*
X13232072Y-14586484D02*
X13213024Y-14576960D01*
X13213024Y-14576960D02*
X13203500Y-14567436D01*
X13203500Y-14567436D02*
X13193977Y-14548388D01*
X13193977Y-14548388D02*
X13184453Y-14510293D01*
X13184453Y-14510293D02*
X13184453Y-14462674D01*
X13184453Y-14462674D02*
X13193977Y-14424579D01*
X13193977Y-14424579D02*
X13203500Y-14405531D01*
X13203500Y-14405531D02*
X13213024Y-14396008D01*
X13213024Y-14396008D02*
X13232072Y-14386484D01*
X13384453Y-14567436D02*
X13393977Y-14576960D01*
X13393977Y-14576960D02*
X13384453Y-14586484D01*
X13384453Y-14586484D02*
X13374929Y-14576960D01*
X13374929Y-14576960D02*
X13384453Y-14567436D01*
X13384453Y-14567436D02*
X13384453Y-14586484D01*
X13517786Y-14386484D02*
X13536834Y-14386484D01*
X13536834Y-14386484D02*
X13555881Y-14396008D01*
X13555881Y-14396008D02*
X13565405Y-14405531D01*
X13565405Y-14405531D02*
X13574929Y-14424579D01*
X13574929Y-14424579D02*
X13584453Y-14462674D01*
X13584453Y-14462674D02*
X13584453Y-14510293D01*
X13584453Y-14510293D02*
X13574929Y-14548388D01*
X13574929Y-14548388D02*
X13565405Y-14567436D01*
X13565405Y-14567436D02*
X13555881Y-14576960D01*
X13555881Y-14576960D02*
X13536834Y-14586484D01*
X13536834Y-14586484D02*
X13517786Y-14586484D01*
X13517786Y-14586484D02*
X13498738Y-14576960D01*
X13498738Y-14576960D02*
X13489215Y-14567436D01*
X13489215Y-14567436D02*
X13479691Y-14548388D01*
X13479691Y-14548388D02*
X13470167Y-14510293D01*
X13470167Y-14510293D02*
X13470167Y-14462674D01*
X13470167Y-14462674D02*
X13479691Y-14424579D01*
X13479691Y-14424579D02*
X13489215Y-14405531D01*
X13489215Y-14405531D02*
X13498738Y-14396008D01*
X13498738Y-14396008D02*
X13517786Y-14386484D01*
X13708262Y-14386484D02*
X13727310Y-14386484D01*
X13727310Y-14386484D02*
X13746358Y-14396008D01*
X13746358Y-14396008D02*
X13755881Y-14405531D01*
X13755881Y-14405531D02*
X13765405Y-14424579D01*
X13765405Y-14424579D02*
X13774929Y-14462674D01*
X13774929Y-14462674D02*
X13774929Y-14510293D01*
X13774929Y-14510293D02*
X13765405Y-14548388D01*
X13765405Y-14548388D02*
X13755881Y-14567436D01*
X13755881Y-14567436D02*
X13746358Y-14576960D01*
X13746358Y-14576960D02*
X13727310Y-14586484D01*
X13727310Y-14586484D02*
X13708262Y-14586484D01*
X13708262Y-14586484D02*
X13689215Y-14576960D01*
X13689215Y-14576960D02*
X13679691Y-14567436D01*
X13679691Y-14567436D02*
X13670167Y-14548388D01*
X13670167Y-14548388D02*
X13660643Y-14510293D01*
X13660643Y-14510293D02*
X13660643Y-14462674D01*
X13660643Y-14462674D02*
X13670167Y-14424579D01*
X13670167Y-14424579D02*
X13679691Y-14405531D01*
X13679691Y-14405531D02*
X13689215Y-14396008D01*
X13689215Y-14396008D02*
X13708262Y-14386484D01*
X13841596Y-14386484D02*
X13974929Y-14386484D01*
X13974929Y-14386484D02*
X13889215Y-14586484D01*
X14060643Y-14586484D02*
X14098738Y-14586484D01*
X14098738Y-14586484D02*
X14117786Y-14576960D01*
X14117786Y-14576960D02*
X14127310Y-14567436D01*
X14127310Y-14567436D02*
X14146358Y-14538865D01*
X14146358Y-14538865D02*
X14155881Y-14500769D01*
X14155881Y-14500769D02*
X14155881Y-14424579D01*
X14155881Y-14424579D02*
X14146358Y-14405531D01*
X14146358Y-14405531D02*
X14136834Y-14396008D01*
X14136834Y-14396008D02*
X14117786Y-14386484D01*
X14117786Y-14386484D02*
X14079691Y-14386484D01*
X14079691Y-14386484D02*
X14060643Y-14396008D01*
X14060643Y-14396008D02*
X14051119Y-14405531D01*
X14051119Y-14405531D02*
X14041596Y-14424579D01*
X14041596Y-14424579D02*
X14041596Y-14472198D01*
X14041596Y-14472198D02*
X14051119Y-14491246D01*
X14051119Y-14491246D02*
X14060643Y-14500769D01*
X14060643Y-14500769D02*
X14079691Y-14510293D01*
X14079691Y-14510293D02*
X14117786Y-14510293D01*
X14117786Y-14510293D02*
X14136834Y-14500769D01*
X14136834Y-14500769D02*
X14146358Y-14491246D01*
X14146358Y-14491246D02*
X14155881Y-14472198D01*
X14232072Y-14386484D02*
X14232072Y-14424579D01*
X14308262Y-14386484D02*
X14308262Y-14424579D01*
X14603501Y-14662674D02*
X14593977Y-14653150D01*
X14593977Y-14653150D02*
X14574929Y-14624579D01*
X14574929Y-14624579D02*
X14565405Y-14605531D01*
X14565405Y-14605531D02*
X14555881Y-14576960D01*
X14555881Y-14576960D02*
X14546358Y-14529341D01*
X14546358Y-14529341D02*
X14546358Y-14491246D01*
X14546358Y-14491246D02*
X14555881Y-14443627D01*
X14555881Y-14443627D02*
X14565405Y-14415055D01*
X14565405Y-14415055D02*
X14574929Y-14396008D01*
X14574929Y-14396008D02*
X14593977Y-14367436D01*
X14593977Y-14367436D02*
X14603501Y-14357912D01*
X14784453Y-14586484D02*
X14670167Y-14586484D01*
X14727310Y-14586484D02*
X14727310Y-14386484D01*
X14727310Y-14386484D02*
X14708262Y-14415055D01*
X14708262Y-14415055D02*
X14689215Y-14434103D01*
X14689215Y-14434103D02*
X14670167Y-14443627D01*
X14860643Y-14405531D02*
X14870167Y-14396008D01*
X14870167Y-14396008D02*
X14889215Y-14386484D01*
X14889215Y-14386484D02*
X14936834Y-14386484D01*
X14936834Y-14386484D02*
X14955881Y-14396008D01*
X14955881Y-14396008D02*
X14965405Y-14405531D01*
X14965405Y-14405531D02*
X14974929Y-14424579D01*
X14974929Y-14424579D02*
X14974929Y-14443627D01*
X14974929Y-14443627D02*
X14965405Y-14472198D01*
X14965405Y-14472198D02*
X14851120Y-14586484D01*
X14851120Y-14586484D02*
X14974929Y-14586484D01*
X15213024Y-14586484D02*
X15213024Y-14386484D01*
X15298739Y-14586484D02*
X15298739Y-14481722D01*
X15298739Y-14481722D02*
X15289215Y-14462674D01*
X15289215Y-14462674D02*
X15270167Y-14453150D01*
X15270167Y-14453150D02*
X15241596Y-14453150D01*
X15241596Y-14453150D02*
X15222548Y-14462674D01*
X15222548Y-14462674D02*
X15213024Y-14472198D01*
X15422548Y-14586484D02*
X15403501Y-14576960D01*
X15403501Y-14576960D02*
X15393977Y-14567436D01*
X15393977Y-14567436D02*
X15384453Y-14548388D01*
X15384453Y-14548388D02*
X15384453Y-14491246D01*
X15384453Y-14491246D02*
X15393977Y-14472198D01*
X15393977Y-14472198D02*
X15403501Y-14462674D01*
X15403501Y-14462674D02*
X15422548Y-14453150D01*
X15422548Y-14453150D02*
X15451120Y-14453150D01*
X15451120Y-14453150D02*
X15470167Y-14462674D01*
X15470167Y-14462674D02*
X15479691Y-14472198D01*
X15479691Y-14472198D02*
X15489215Y-14491246D01*
X15489215Y-14491246D02*
X15489215Y-14548388D01*
X15489215Y-14548388D02*
X15479691Y-14567436D01*
X15479691Y-14567436D02*
X15470167Y-14576960D01*
X15470167Y-14576960D02*
X15451120Y-14586484D01*
X15451120Y-14586484D02*
X15422548Y-14586484D01*
X15603501Y-14586484D02*
X15584453Y-14576960D01*
X15584453Y-14576960D02*
X15574929Y-14557912D01*
X15574929Y-14557912D02*
X15574929Y-14386484D01*
X15755882Y-14576960D02*
X15736834Y-14586484D01*
X15736834Y-14586484D02*
X15698739Y-14586484D01*
X15698739Y-14586484D02*
X15679691Y-14576960D01*
X15679691Y-14576960D02*
X15670167Y-14557912D01*
X15670167Y-14557912D02*
X15670167Y-14481722D01*
X15670167Y-14481722D02*
X15679691Y-14462674D01*
X15679691Y-14462674D02*
X15698739Y-14453150D01*
X15698739Y-14453150D02*
X15736834Y-14453150D01*
X15736834Y-14453150D02*
X15755882Y-14462674D01*
X15755882Y-14462674D02*
X15765405Y-14481722D01*
X15765405Y-14481722D02*
X15765405Y-14500769D01*
X15765405Y-14500769D02*
X15670167Y-14519817D01*
X15841596Y-14576960D02*
X15860643Y-14586484D01*
X15860643Y-14586484D02*
X15898739Y-14586484D01*
X15898739Y-14586484D02*
X15917786Y-14576960D01*
X15917786Y-14576960D02*
X15927310Y-14557912D01*
X15927310Y-14557912D02*
X15927310Y-14548388D01*
X15927310Y-14548388D02*
X15917786Y-14529341D01*
X15917786Y-14529341D02*
X15898739Y-14519817D01*
X15898739Y-14519817D02*
X15870167Y-14519817D01*
X15870167Y-14519817D02*
X15851120Y-14510293D01*
X15851120Y-14510293D02*
X15841596Y-14491246D01*
X15841596Y-14491246D02*
X15841596Y-14481722D01*
X15841596Y-14481722D02*
X15851120Y-14462674D01*
X15851120Y-14462674D02*
X15870167Y-14453150D01*
X15870167Y-14453150D02*
X15898739Y-14453150D01*
X15898739Y-14453150D02*
X15917786Y-14462674D01*
X15993977Y-14662674D02*
X16003501Y-14653150D01*
X16003501Y-14653150D02*
X16022548Y-14624579D01*
X16022548Y-14624579D02*
X16032072Y-14605531D01*
X16032072Y-14605531D02*
X16041596Y-14576960D01*
X16041596Y-14576960D02*
X16051120Y-14529341D01*
X16051120Y-14529341D02*
X16051120Y-14491246D01*
X16051120Y-14491246D02*
X16041596Y-14443627D01*
X16041596Y-14443627D02*
X16032072Y-14415055D01*
X16032072Y-14415055D02*
X16022548Y-14396008D01*
X16022548Y-14396008D02*
X16003501Y-14367436D01*
X16003501Y-14367436D02*
X15993977Y-14357912D01*
D11*
X11028438Y-14759000D02*
G75*
G02*
X11008118Y-14759000I-10160J0D01*
G01*
X11008118Y-14759000D02*
G75*
G02*
X11028438Y-14759000I10160J0D01*
G01*
D10*
X11327310Y-14650484D02*
X11346357Y-14650484D01*
X11346357Y-14650484D02*
X11365405Y-14660008D01*
X11365405Y-14660008D02*
X11374929Y-14669531D01*
X11374929Y-14669531D02*
X11384453Y-14688579D01*
X11384453Y-14688579D02*
X11393976Y-14726674D01*
X11393976Y-14726674D02*
X11393976Y-14774293D01*
X11393976Y-14774293D02*
X11384453Y-14812388D01*
X11384453Y-14812388D02*
X11374929Y-14831436D01*
X11374929Y-14831436D02*
X11365405Y-14840960D01*
X11365405Y-14840960D02*
X11346357Y-14850484D01*
X11346357Y-14850484D02*
X11327310Y-14850484D01*
X11327310Y-14850484D02*
X11308262Y-14840960D01*
X11308262Y-14840960D02*
X11298738Y-14831436D01*
X11298738Y-14831436D02*
X11289214Y-14812388D01*
X11289214Y-14812388D02*
X11279691Y-14774293D01*
X11279691Y-14774293D02*
X11279691Y-14726674D01*
X11279691Y-14726674D02*
X11289214Y-14688579D01*
X11289214Y-14688579D02*
X11298738Y-14669531D01*
X11298738Y-14669531D02*
X11308262Y-14660008D01*
X11308262Y-14660008D02*
X11327310Y-14650484D01*
X11479691Y-14831436D02*
X11489214Y-14840960D01*
X11489214Y-14840960D02*
X11479691Y-14850484D01*
X11479691Y-14850484D02*
X11470167Y-14840960D01*
X11470167Y-14840960D02*
X11479691Y-14831436D01*
X11479691Y-14831436D02*
X11479691Y-14850484D01*
X11565405Y-14669531D02*
X11574929Y-14660008D01*
X11574929Y-14660008D02*
X11593976Y-14650484D01*
X11593976Y-14650484D02*
X11641595Y-14650484D01*
X11641595Y-14650484D02*
X11660643Y-14660008D01*
X11660643Y-14660008D02*
X11670167Y-14669531D01*
X11670167Y-14669531D02*
X11679691Y-14688579D01*
X11679691Y-14688579D02*
X11679691Y-14707627D01*
X11679691Y-14707627D02*
X11670167Y-14736198D01*
X11670167Y-14736198D02*
X11555881Y-14850484D01*
X11555881Y-14850484D02*
X11679691Y-14850484D01*
X11803500Y-14650484D02*
X11822548Y-14650484D01*
X11822548Y-14650484D02*
X11841595Y-14660008D01*
X11841595Y-14660008D02*
X11851119Y-14669531D01*
X11851119Y-14669531D02*
X11860643Y-14688579D01*
X11860643Y-14688579D02*
X11870167Y-14726674D01*
X11870167Y-14726674D02*
X11870167Y-14774293D01*
X11870167Y-14774293D02*
X11860643Y-14812388D01*
X11860643Y-14812388D02*
X11851119Y-14831436D01*
X11851119Y-14831436D02*
X11841595Y-14840960D01*
X11841595Y-14840960D02*
X11822548Y-14850484D01*
X11822548Y-14850484D02*
X11803500Y-14850484D01*
X11803500Y-14850484D02*
X11784453Y-14840960D01*
X11784453Y-14840960D02*
X11774929Y-14831436D01*
X11774929Y-14831436D02*
X11765405Y-14812388D01*
X11765405Y-14812388D02*
X11755881Y-14774293D01*
X11755881Y-14774293D02*
X11755881Y-14726674D01*
X11755881Y-14726674D02*
X11765405Y-14688579D01*
X11765405Y-14688579D02*
X11774929Y-14669531D01*
X11774929Y-14669531D02*
X11784453Y-14660008D01*
X11784453Y-14660008D02*
X11803500Y-14650484D01*
X11936834Y-14650484D02*
X12060643Y-14650484D01*
X12060643Y-14650484D02*
X11993976Y-14726674D01*
X11993976Y-14726674D02*
X12022548Y-14726674D01*
X12022548Y-14726674D02*
X12041595Y-14736198D01*
X12041595Y-14736198D02*
X12051119Y-14745722D01*
X12051119Y-14745722D02*
X12060643Y-14764769D01*
X12060643Y-14764769D02*
X12060643Y-14812388D01*
X12060643Y-14812388D02*
X12051119Y-14831436D01*
X12051119Y-14831436D02*
X12041595Y-14840960D01*
X12041595Y-14840960D02*
X12022548Y-14850484D01*
X12022548Y-14850484D02*
X11965405Y-14850484D01*
X11965405Y-14850484D02*
X11946357Y-14840960D01*
X11946357Y-14840960D02*
X11936834Y-14831436D01*
X12146357Y-14850484D02*
X12146357Y-14717150D01*
X12146357Y-14736198D02*
X12155881Y-14726674D01*
X12155881Y-14726674D02*
X12174929Y-14717150D01*
X12174929Y-14717150D02*
X12203500Y-14717150D01*
X12203500Y-14717150D02*
X12222548Y-14726674D01*
X12222548Y-14726674D02*
X12232072Y-14745722D01*
X12232072Y-14745722D02*
X12232072Y-14850484D01*
X12232072Y-14745722D02*
X12241595Y-14726674D01*
X12241595Y-14726674D02*
X12260643Y-14717150D01*
X12260643Y-14717150D02*
X12289214Y-14717150D01*
X12289214Y-14717150D02*
X12308262Y-14726674D01*
X12308262Y-14726674D02*
X12317786Y-14745722D01*
X12317786Y-14745722D02*
X12317786Y-14850484D01*
X12413024Y-14850484D02*
X12413024Y-14717150D01*
X12413024Y-14736198D02*
X12422548Y-14726674D01*
X12422548Y-14726674D02*
X12441595Y-14717150D01*
X12441595Y-14717150D02*
X12470167Y-14717150D01*
X12470167Y-14717150D02*
X12489215Y-14726674D01*
X12489215Y-14726674D02*
X12498738Y-14745722D01*
X12498738Y-14745722D02*
X12498738Y-14850484D01*
X12498738Y-14745722D02*
X12508262Y-14726674D01*
X12508262Y-14726674D02*
X12527310Y-14717150D01*
X12527310Y-14717150D02*
X12555881Y-14717150D01*
X12555881Y-14717150D02*
X12574929Y-14726674D01*
X12574929Y-14726674D02*
X12584453Y-14745722D01*
X12584453Y-14745722D02*
X12584453Y-14850484D01*
X12974929Y-14640960D02*
X12803500Y-14898103D01*
X13232072Y-14650484D02*
X13251119Y-14650484D01*
X13251119Y-14650484D02*
X13270167Y-14660008D01*
X13270167Y-14660008D02*
X13279691Y-14669531D01*
X13279691Y-14669531D02*
X13289215Y-14688579D01*
X13289215Y-14688579D02*
X13298738Y-14726674D01*
X13298738Y-14726674D02*
X13298738Y-14774293D01*
X13298738Y-14774293D02*
X13289215Y-14812388D01*
X13289215Y-14812388D02*
X13279691Y-14831436D01*
X13279691Y-14831436D02*
X13270167Y-14840960D01*
X13270167Y-14840960D02*
X13251119Y-14850484D01*
X13251119Y-14850484D02*
X13232072Y-14850484D01*
X13232072Y-14850484D02*
X13213024Y-14840960D01*
X13213024Y-14840960D02*
X13203500Y-14831436D01*
X13203500Y-14831436D02*
X13193977Y-14812388D01*
X13193977Y-14812388D02*
X13184453Y-14774293D01*
X13184453Y-14774293D02*
X13184453Y-14726674D01*
X13184453Y-14726674D02*
X13193977Y-14688579D01*
X13193977Y-14688579D02*
X13203500Y-14669531D01*
X13203500Y-14669531D02*
X13213024Y-14660008D01*
X13213024Y-14660008D02*
X13232072Y-14650484D01*
X13384453Y-14831436D02*
X13393977Y-14840960D01*
X13393977Y-14840960D02*
X13384453Y-14850484D01*
X13384453Y-14850484D02*
X13374929Y-14840960D01*
X13374929Y-14840960D02*
X13384453Y-14831436D01*
X13384453Y-14831436D02*
X13384453Y-14850484D01*
X13517786Y-14650484D02*
X13536834Y-14650484D01*
X13536834Y-14650484D02*
X13555881Y-14660008D01*
X13555881Y-14660008D02*
X13565405Y-14669531D01*
X13565405Y-14669531D02*
X13574929Y-14688579D01*
X13574929Y-14688579D02*
X13584453Y-14726674D01*
X13584453Y-14726674D02*
X13584453Y-14774293D01*
X13584453Y-14774293D02*
X13574929Y-14812388D01*
X13574929Y-14812388D02*
X13565405Y-14831436D01*
X13565405Y-14831436D02*
X13555881Y-14840960D01*
X13555881Y-14840960D02*
X13536834Y-14850484D01*
X13536834Y-14850484D02*
X13517786Y-14850484D01*
X13517786Y-14850484D02*
X13498738Y-14840960D01*
X13498738Y-14840960D02*
X13489215Y-14831436D01*
X13489215Y-14831436D02*
X13479691Y-14812388D01*
X13479691Y-14812388D02*
X13470167Y-14774293D01*
X13470167Y-14774293D02*
X13470167Y-14726674D01*
X13470167Y-14726674D02*
X13479691Y-14688579D01*
X13479691Y-14688579D02*
X13489215Y-14669531D01*
X13489215Y-14669531D02*
X13498738Y-14660008D01*
X13498738Y-14660008D02*
X13517786Y-14650484D01*
X13708262Y-14650484D02*
X13727310Y-14650484D01*
X13727310Y-14650484D02*
X13746358Y-14660008D01*
X13746358Y-14660008D02*
X13755881Y-14669531D01*
X13755881Y-14669531D02*
X13765405Y-14688579D01*
X13765405Y-14688579D02*
X13774929Y-14726674D01*
X13774929Y-14726674D02*
X13774929Y-14774293D01*
X13774929Y-14774293D02*
X13765405Y-14812388D01*
X13765405Y-14812388D02*
X13755881Y-14831436D01*
X13755881Y-14831436D02*
X13746358Y-14840960D01*
X13746358Y-14840960D02*
X13727310Y-14850484D01*
X13727310Y-14850484D02*
X13708262Y-14850484D01*
X13708262Y-14850484D02*
X13689215Y-14840960D01*
X13689215Y-14840960D02*
X13679691Y-14831436D01*
X13679691Y-14831436D02*
X13670167Y-14812388D01*
X13670167Y-14812388D02*
X13660643Y-14774293D01*
X13660643Y-14774293D02*
X13660643Y-14726674D01*
X13660643Y-14726674D02*
X13670167Y-14688579D01*
X13670167Y-14688579D02*
X13679691Y-14669531D01*
X13679691Y-14669531D02*
X13689215Y-14660008D01*
X13689215Y-14660008D02*
X13708262Y-14650484D01*
X13889215Y-14736198D02*
X13870167Y-14726674D01*
X13870167Y-14726674D02*
X13860643Y-14717150D01*
X13860643Y-14717150D02*
X13851119Y-14698103D01*
X13851119Y-14698103D02*
X13851119Y-14688579D01*
X13851119Y-14688579D02*
X13860643Y-14669531D01*
X13860643Y-14669531D02*
X13870167Y-14660008D01*
X13870167Y-14660008D02*
X13889215Y-14650484D01*
X13889215Y-14650484D02*
X13927310Y-14650484D01*
X13927310Y-14650484D02*
X13946358Y-14660008D01*
X13946358Y-14660008D02*
X13955881Y-14669531D01*
X13955881Y-14669531D02*
X13965405Y-14688579D01*
X13965405Y-14688579D02*
X13965405Y-14698103D01*
X13965405Y-14698103D02*
X13955881Y-14717150D01*
X13955881Y-14717150D02*
X13946358Y-14726674D01*
X13946358Y-14726674D02*
X13927310Y-14736198D01*
X13927310Y-14736198D02*
X13889215Y-14736198D01*
X13889215Y-14736198D02*
X13870167Y-14745722D01*
X13870167Y-14745722D02*
X13860643Y-14755246D01*
X13860643Y-14755246D02*
X13851119Y-14774293D01*
X13851119Y-14774293D02*
X13851119Y-14812388D01*
X13851119Y-14812388D02*
X13860643Y-14831436D01*
X13860643Y-14831436D02*
X13870167Y-14840960D01*
X13870167Y-14840960D02*
X13889215Y-14850484D01*
X13889215Y-14850484D02*
X13927310Y-14850484D01*
X13927310Y-14850484D02*
X13946358Y-14840960D01*
X13946358Y-14840960D02*
X13955881Y-14831436D01*
X13955881Y-14831436D02*
X13965405Y-14812388D01*
X13965405Y-14812388D02*
X13965405Y-14774293D01*
X13965405Y-14774293D02*
X13955881Y-14755246D01*
X13955881Y-14755246D02*
X13946358Y-14745722D01*
X13946358Y-14745722D02*
X13927310Y-14736198D01*
X14089215Y-14650484D02*
X14108262Y-14650484D01*
X14108262Y-14650484D02*
X14127310Y-14660008D01*
X14127310Y-14660008D02*
X14136834Y-14669531D01*
X14136834Y-14669531D02*
X14146358Y-14688579D01*
X14146358Y-14688579D02*
X14155881Y-14726674D01*
X14155881Y-14726674D02*
X14155881Y-14774293D01*
X14155881Y-14774293D02*
X14146358Y-14812388D01*
X14146358Y-14812388D02*
X14136834Y-14831436D01*
X14136834Y-14831436D02*
X14127310Y-14840960D01*
X14127310Y-14840960D02*
X14108262Y-14850484D01*
X14108262Y-14850484D02*
X14089215Y-14850484D01*
X14089215Y-14850484D02*
X14070167Y-14840960D01*
X14070167Y-14840960D02*
X14060643Y-14831436D01*
X14060643Y-14831436D02*
X14051119Y-14812388D01*
X14051119Y-14812388D02*
X14041596Y-14774293D01*
X14041596Y-14774293D02*
X14041596Y-14726674D01*
X14041596Y-14726674D02*
X14051119Y-14688579D01*
X14051119Y-14688579D02*
X14060643Y-14669531D01*
X14060643Y-14669531D02*
X14070167Y-14660008D01*
X14070167Y-14660008D02*
X14089215Y-14650484D01*
X14232072Y-14650484D02*
X14232072Y-14688579D01*
X14308262Y-14650484D02*
X14308262Y-14688579D01*
X14603501Y-14926674D02*
X14593977Y-14917150D01*
X14593977Y-14917150D02*
X14574929Y-14888579D01*
X14574929Y-14888579D02*
X14565405Y-14869531D01*
X14565405Y-14869531D02*
X14555881Y-14840960D01*
X14555881Y-14840960D02*
X14546358Y-14793341D01*
X14546358Y-14793341D02*
X14546358Y-14755246D01*
X14546358Y-14755246D02*
X14555881Y-14707627D01*
X14555881Y-14707627D02*
X14565405Y-14679055D01*
X14565405Y-14679055D02*
X14574929Y-14660008D01*
X14574929Y-14660008D02*
X14593977Y-14631436D01*
X14593977Y-14631436D02*
X14603501Y-14621912D01*
X14708262Y-14736198D02*
X14689215Y-14726674D01*
X14689215Y-14726674D02*
X14679691Y-14717150D01*
X14679691Y-14717150D02*
X14670167Y-14698103D01*
X14670167Y-14698103D02*
X14670167Y-14688579D01*
X14670167Y-14688579D02*
X14679691Y-14669531D01*
X14679691Y-14669531D02*
X14689215Y-14660008D01*
X14689215Y-14660008D02*
X14708262Y-14650484D01*
X14708262Y-14650484D02*
X14746358Y-14650484D01*
X14746358Y-14650484D02*
X14765405Y-14660008D01*
X14765405Y-14660008D02*
X14774929Y-14669531D01*
X14774929Y-14669531D02*
X14784453Y-14688579D01*
X14784453Y-14688579D02*
X14784453Y-14698103D01*
X14784453Y-14698103D02*
X14774929Y-14717150D01*
X14774929Y-14717150D02*
X14765405Y-14726674D01*
X14765405Y-14726674D02*
X14746358Y-14736198D01*
X14746358Y-14736198D02*
X14708262Y-14736198D01*
X14708262Y-14736198D02*
X14689215Y-14745722D01*
X14689215Y-14745722D02*
X14679691Y-14755246D01*
X14679691Y-14755246D02*
X14670167Y-14774293D01*
X14670167Y-14774293D02*
X14670167Y-14812388D01*
X14670167Y-14812388D02*
X14679691Y-14831436D01*
X14679691Y-14831436D02*
X14689215Y-14840960D01*
X14689215Y-14840960D02*
X14708262Y-14850484D01*
X14708262Y-14850484D02*
X14746358Y-14850484D01*
X14746358Y-14850484D02*
X14765405Y-14840960D01*
X14765405Y-14840960D02*
X14774929Y-14831436D01*
X14774929Y-14831436D02*
X14784453Y-14812388D01*
X14784453Y-14812388D02*
X14784453Y-14774293D01*
X14784453Y-14774293D02*
X14774929Y-14755246D01*
X14774929Y-14755246D02*
X14765405Y-14745722D01*
X14765405Y-14745722D02*
X14746358Y-14736198D01*
X15022548Y-14850484D02*
X15022548Y-14650484D01*
X15108262Y-14850484D02*
X15108262Y-14745722D01*
X15108262Y-14745722D02*
X15098739Y-14726674D01*
X15098739Y-14726674D02*
X15079691Y-14717150D01*
X15079691Y-14717150D02*
X15051120Y-14717150D01*
X15051120Y-14717150D02*
X15032072Y-14726674D01*
X15032072Y-14726674D02*
X15022548Y-14736198D01*
X15232072Y-14850484D02*
X15213024Y-14840960D01*
X15213024Y-14840960D02*
X15203501Y-14831436D01*
X15203501Y-14831436D02*
X15193977Y-14812388D01*
X15193977Y-14812388D02*
X15193977Y-14755246D01*
X15193977Y-14755246D02*
X15203501Y-14736198D01*
X15203501Y-14736198D02*
X15213024Y-14726674D01*
X15213024Y-14726674D02*
X15232072Y-14717150D01*
X15232072Y-14717150D02*
X15260643Y-14717150D01*
X15260643Y-14717150D02*
X15279691Y-14726674D01*
X15279691Y-14726674D02*
X15289215Y-14736198D01*
X15289215Y-14736198D02*
X15298739Y-14755246D01*
X15298739Y-14755246D02*
X15298739Y-14812388D01*
X15298739Y-14812388D02*
X15289215Y-14831436D01*
X15289215Y-14831436D02*
X15279691Y-14840960D01*
X15279691Y-14840960D02*
X15260643Y-14850484D01*
X15260643Y-14850484D02*
X15232072Y-14850484D01*
X15413024Y-14850484D02*
X15393977Y-14840960D01*
X15393977Y-14840960D02*
X15384453Y-14821912D01*
X15384453Y-14821912D02*
X15384453Y-14650484D01*
X15565405Y-14840960D02*
X15546358Y-14850484D01*
X15546358Y-14850484D02*
X15508262Y-14850484D01*
X15508262Y-14850484D02*
X15489215Y-14840960D01*
X15489215Y-14840960D02*
X15479691Y-14821912D01*
X15479691Y-14821912D02*
X15479691Y-14745722D01*
X15479691Y-14745722D02*
X15489215Y-14726674D01*
X15489215Y-14726674D02*
X15508262Y-14717150D01*
X15508262Y-14717150D02*
X15546358Y-14717150D01*
X15546358Y-14717150D02*
X15565405Y-14726674D01*
X15565405Y-14726674D02*
X15574929Y-14745722D01*
X15574929Y-14745722D02*
X15574929Y-14764769D01*
X15574929Y-14764769D02*
X15479691Y-14783817D01*
X15651120Y-14840960D02*
X15670167Y-14850484D01*
X15670167Y-14850484D02*
X15708262Y-14850484D01*
X15708262Y-14850484D02*
X15727310Y-14840960D01*
X15727310Y-14840960D02*
X15736834Y-14821912D01*
X15736834Y-14821912D02*
X15736834Y-14812388D01*
X15736834Y-14812388D02*
X15727310Y-14793341D01*
X15727310Y-14793341D02*
X15708262Y-14783817D01*
X15708262Y-14783817D02*
X15679691Y-14783817D01*
X15679691Y-14783817D02*
X15660643Y-14774293D01*
X15660643Y-14774293D02*
X15651120Y-14755246D01*
X15651120Y-14755246D02*
X15651120Y-14745722D01*
X15651120Y-14745722D02*
X15660643Y-14726674D01*
X15660643Y-14726674D02*
X15679691Y-14717150D01*
X15679691Y-14717150D02*
X15708262Y-14717150D01*
X15708262Y-14717150D02*
X15727310Y-14726674D01*
X15803501Y-14926674D02*
X15813024Y-14917150D01*
X15813024Y-14917150D02*
X15832072Y-14888579D01*
X15832072Y-14888579D02*
X15841596Y-14869531D01*
X15841596Y-14869531D02*
X15851120Y-14840960D01*
X15851120Y-14840960D02*
X15860643Y-14793341D01*
X15860643Y-14793341D02*
X15860643Y-14755246D01*
X15860643Y-14755246D02*
X15851120Y-14707627D01*
X15851120Y-14707627D02*
X15841596Y-14679055D01*
X15841596Y-14679055D02*
X15832072Y-14660008D01*
X15832072Y-14660008D02*
X15813024Y-14631436D01*
X15813024Y-14631436D02*
X15803501Y-14621912D01*
D11*
X11013438Y-15008000D02*
X11013438Y-15038000D01*
X10998438Y-15023000D02*
X11028438Y-15023000D01*
D10*
X11327310Y-14914484D02*
X11346357Y-14914484D01*
X11346357Y-14914484D02*
X11365405Y-14924008D01*
X11365405Y-14924008D02*
X11374929Y-14933531D01*
X11374929Y-14933531D02*
X11384453Y-14952579D01*
X11384453Y-14952579D02*
X11393976Y-14990674D01*
X11393976Y-14990674D02*
X11393976Y-15038293D01*
X11393976Y-15038293D02*
X11384453Y-15076388D01*
X11384453Y-15076388D02*
X11374929Y-15095436D01*
X11374929Y-15095436D02*
X11365405Y-15104960D01*
X11365405Y-15104960D02*
X11346357Y-15114484D01*
X11346357Y-15114484D02*
X11327310Y-15114484D01*
X11327310Y-15114484D02*
X11308262Y-15104960D01*
X11308262Y-15104960D02*
X11298738Y-15095436D01*
X11298738Y-15095436D02*
X11289214Y-15076388D01*
X11289214Y-15076388D02*
X11279691Y-15038293D01*
X11279691Y-15038293D02*
X11279691Y-14990674D01*
X11279691Y-14990674D02*
X11289214Y-14952579D01*
X11289214Y-14952579D02*
X11298738Y-14933531D01*
X11298738Y-14933531D02*
X11308262Y-14924008D01*
X11308262Y-14924008D02*
X11327310Y-14914484D01*
X11479691Y-15095436D02*
X11489214Y-15104960D01*
X11489214Y-15104960D02*
X11479691Y-15114484D01*
X11479691Y-15114484D02*
X11470167Y-15104960D01*
X11470167Y-15104960D02*
X11479691Y-15095436D01*
X11479691Y-15095436D02*
X11479691Y-15114484D01*
X11555881Y-14914484D02*
X11679691Y-14914484D01*
X11679691Y-14914484D02*
X11613024Y-14990674D01*
X11613024Y-14990674D02*
X11641595Y-14990674D01*
X11641595Y-14990674D02*
X11660643Y-15000198D01*
X11660643Y-15000198D02*
X11670167Y-15009722D01*
X11670167Y-15009722D02*
X11679691Y-15028769D01*
X11679691Y-15028769D02*
X11679691Y-15076388D01*
X11679691Y-15076388D02*
X11670167Y-15095436D01*
X11670167Y-15095436D02*
X11660643Y-15104960D01*
X11660643Y-15104960D02*
X11641595Y-15114484D01*
X11641595Y-15114484D02*
X11584453Y-15114484D01*
X11584453Y-15114484D02*
X11565405Y-15104960D01*
X11565405Y-15104960D02*
X11555881Y-15095436D01*
X11803500Y-14914484D02*
X11822548Y-14914484D01*
X11822548Y-14914484D02*
X11841595Y-14924008D01*
X11841595Y-14924008D02*
X11851119Y-14933531D01*
X11851119Y-14933531D02*
X11860643Y-14952579D01*
X11860643Y-14952579D02*
X11870167Y-14990674D01*
X11870167Y-14990674D02*
X11870167Y-15038293D01*
X11870167Y-15038293D02*
X11860643Y-15076388D01*
X11860643Y-15076388D02*
X11851119Y-15095436D01*
X11851119Y-15095436D02*
X11841595Y-15104960D01*
X11841595Y-15104960D02*
X11822548Y-15114484D01*
X11822548Y-15114484D02*
X11803500Y-15114484D01*
X11803500Y-15114484D02*
X11784453Y-15104960D01*
X11784453Y-15104960D02*
X11774929Y-15095436D01*
X11774929Y-15095436D02*
X11765405Y-15076388D01*
X11765405Y-15076388D02*
X11755881Y-15038293D01*
X11755881Y-15038293D02*
X11755881Y-14990674D01*
X11755881Y-14990674D02*
X11765405Y-14952579D01*
X11765405Y-14952579D02*
X11774929Y-14933531D01*
X11774929Y-14933531D02*
X11784453Y-14924008D01*
X11784453Y-14924008D02*
X11803500Y-14914484D01*
X11993976Y-14914484D02*
X12013024Y-14914484D01*
X12013024Y-14914484D02*
X12032072Y-14924008D01*
X12032072Y-14924008D02*
X12041595Y-14933531D01*
X12041595Y-14933531D02*
X12051119Y-14952579D01*
X12051119Y-14952579D02*
X12060643Y-14990674D01*
X12060643Y-14990674D02*
X12060643Y-15038293D01*
X12060643Y-15038293D02*
X12051119Y-15076388D01*
X12051119Y-15076388D02*
X12041595Y-15095436D01*
X12041595Y-15095436D02*
X12032072Y-15104960D01*
X12032072Y-15104960D02*
X12013024Y-15114484D01*
X12013024Y-15114484D02*
X11993976Y-15114484D01*
X11993976Y-15114484D02*
X11974929Y-15104960D01*
X11974929Y-15104960D02*
X11965405Y-15095436D01*
X11965405Y-15095436D02*
X11955881Y-15076388D01*
X11955881Y-15076388D02*
X11946357Y-15038293D01*
X11946357Y-15038293D02*
X11946357Y-14990674D01*
X11946357Y-14990674D02*
X11955881Y-14952579D01*
X11955881Y-14952579D02*
X11965405Y-14933531D01*
X11965405Y-14933531D02*
X11974929Y-14924008D01*
X11974929Y-14924008D02*
X11993976Y-14914484D01*
X12146357Y-15114484D02*
X12146357Y-14981150D01*
X12146357Y-15000198D02*
X12155881Y-14990674D01*
X12155881Y-14990674D02*
X12174929Y-14981150D01*
X12174929Y-14981150D02*
X12203500Y-14981150D01*
X12203500Y-14981150D02*
X12222548Y-14990674D01*
X12222548Y-14990674D02*
X12232072Y-15009722D01*
X12232072Y-15009722D02*
X12232072Y-15114484D01*
X12232072Y-15009722D02*
X12241595Y-14990674D01*
X12241595Y-14990674D02*
X12260643Y-14981150D01*
X12260643Y-14981150D02*
X12289214Y-14981150D01*
X12289214Y-14981150D02*
X12308262Y-14990674D01*
X12308262Y-14990674D02*
X12317786Y-15009722D01*
X12317786Y-15009722D02*
X12317786Y-15114484D01*
X12413024Y-15114484D02*
X12413024Y-14981150D01*
X12413024Y-15000198D02*
X12422548Y-14990674D01*
X12422548Y-14990674D02*
X12441595Y-14981150D01*
X12441595Y-14981150D02*
X12470167Y-14981150D01*
X12470167Y-14981150D02*
X12489215Y-14990674D01*
X12489215Y-14990674D02*
X12498738Y-15009722D01*
X12498738Y-15009722D02*
X12498738Y-15114484D01*
X12498738Y-15009722D02*
X12508262Y-14990674D01*
X12508262Y-14990674D02*
X12527310Y-14981150D01*
X12527310Y-14981150D02*
X12555881Y-14981150D01*
X12555881Y-14981150D02*
X12574929Y-14990674D01*
X12574929Y-14990674D02*
X12584453Y-15009722D01*
X12584453Y-15009722D02*
X12584453Y-15114484D01*
X12974929Y-14904960D02*
X12803500Y-15162103D01*
X13232072Y-14914484D02*
X13251119Y-14914484D01*
X13251119Y-14914484D02*
X13270167Y-14924008D01*
X13270167Y-14924008D02*
X13279691Y-14933531D01*
X13279691Y-14933531D02*
X13289215Y-14952579D01*
X13289215Y-14952579D02*
X13298738Y-14990674D01*
X13298738Y-14990674D02*
X13298738Y-15038293D01*
X13298738Y-15038293D02*
X13289215Y-15076388D01*
X13289215Y-15076388D02*
X13279691Y-15095436D01*
X13279691Y-15095436D02*
X13270167Y-15104960D01*
X13270167Y-15104960D02*
X13251119Y-15114484D01*
X13251119Y-15114484D02*
X13232072Y-15114484D01*
X13232072Y-15114484D02*
X13213024Y-15104960D01*
X13213024Y-15104960D02*
X13203500Y-15095436D01*
X13203500Y-15095436D02*
X13193977Y-15076388D01*
X13193977Y-15076388D02*
X13184453Y-15038293D01*
X13184453Y-15038293D02*
X13184453Y-14990674D01*
X13184453Y-14990674D02*
X13193977Y-14952579D01*
X13193977Y-14952579D02*
X13203500Y-14933531D01*
X13203500Y-14933531D02*
X13213024Y-14924008D01*
X13213024Y-14924008D02*
X13232072Y-14914484D01*
X13384453Y-15095436D02*
X13393977Y-15104960D01*
X13393977Y-15104960D02*
X13384453Y-15114484D01*
X13384453Y-15114484D02*
X13374929Y-15104960D01*
X13374929Y-15104960D02*
X13384453Y-15095436D01*
X13384453Y-15095436D02*
X13384453Y-15114484D01*
X13517786Y-14914484D02*
X13536834Y-14914484D01*
X13536834Y-14914484D02*
X13555881Y-14924008D01*
X13555881Y-14924008D02*
X13565405Y-14933531D01*
X13565405Y-14933531D02*
X13574929Y-14952579D01*
X13574929Y-14952579D02*
X13584453Y-14990674D01*
X13584453Y-14990674D02*
X13584453Y-15038293D01*
X13584453Y-15038293D02*
X13574929Y-15076388D01*
X13574929Y-15076388D02*
X13565405Y-15095436D01*
X13565405Y-15095436D02*
X13555881Y-15104960D01*
X13555881Y-15104960D02*
X13536834Y-15114484D01*
X13536834Y-15114484D02*
X13517786Y-15114484D01*
X13517786Y-15114484D02*
X13498738Y-15104960D01*
X13498738Y-15104960D02*
X13489215Y-15095436D01*
X13489215Y-15095436D02*
X13479691Y-15076388D01*
X13479691Y-15076388D02*
X13470167Y-15038293D01*
X13470167Y-15038293D02*
X13470167Y-14990674D01*
X13470167Y-14990674D02*
X13479691Y-14952579D01*
X13479691Y-14952579D02*
X13489215Y-14933531D01*
X13489215Y-14933531D02*
X13498738Y-14924008D01*
X13498738Y-14924008D02*
X13517786Y-14914484D01*
X13774929Y-15114484D02*
X13660643Y-15114484D01*
X13717786Y-15114484D02*
X13717786Y-14914484D01*
X13717786Y-14914484D02*
X13698738Y-14943055D01*
X13698738Y-14943055D02*
X13679691Y-14962103D01*
X13679691Y-14962103D02*
X13660643Y-14971627D01*
X13965405Y-15114484D02*
X13851119Y-15114484D01*
X13908262Y-15114484D02*
X13908262Y-14914484D01*
X13908262Y-14914484D02*
X13889215Y-14943055D01*
X13889215Y-14943055D02*
X13870167Y-14962103D01*
X13870167Y-14962103D02*
X13851119Y-14971627D01*
X14079691Y-15000198D02*
X14060643Y-14990674D01*
X14060643Y-14990674D02*
X14051119Y-14981150D01*
X14051119Y-14981150D02*
X14041596Y-14962103D01*
X14041596Y-14962103D02*
X14041596Y-14952579D01*
X14041596Y-14952579D02*
X14051119Y-14933531D01*
X14051119Y-14933531D02*
X14060643Y-14924008D01*
X14060643Y-14924008D02*
X14079691Y-14914484D01*
X14079691Y-14914484D02*
X14117786Y-14914484D01*
X14117786Y-14914484D02*
X14136834Y-14924008D01*
X14136834Y-14924008D02*
X14146358Y-14933531D01*
X14146358Y-14933531D02*
X14155881Y-14952579D01*
X14155881Y-14952579D02*
X14155881Y-14962103D01*
X14155881Y-14962103D02*
X14146358Y-14981150D01*
X14146358Y-14981150D02*
X14136834Y-14990674D01*
X14136834Y-14990674D02*
X14117786Y-15000198D01*
X14117786Y-15000198D02*
X14079691Y-15000198D01*
X14079691Y-15000198D02*
X14060643Y-15009722D01*
X14060643Y-15009722D02*
X14051119Y-15019246D01*
X14051119Y-15019246D02*
X14041596Y-15038293D01*
X14041596Y-15038293D02*
X14041596Y-15076388D01*
X14041596Y-15076388D02*
X14051119Y-15095436D01*
X14051119Y-15095436D02*
X14060643Y-15104960D01*
X14060643Y-15104960D02*
X14079691Y-15114484D01*
X14079691Y-15114484D02*
X14117786Y-15114484D01*
X14117786Y-15114484D02*
X14136834Y-15104960D01*
X14136834Y-15104960D02*
X14146358Y-15095436D01*
X14146358Y-15095436D02*
X14155881Y-15076388D01*
X14155881Y-15076388D02*
X14155881Y-15038293D01*
X14155881Y-15038293D02*
X14146358Y-15019246D01*
X14146358Y-15019246D02*
X14136834Y-15009722D01*
X14136834Y-15009722D02*
X14117786Y-15000198D01*
X14232072Y-14914484D02*
X14232072Y-14952579D01*
X14308262Y-14914484D02*
X14308262Y-14952579D01*
X14603501Y-15190674D02*
X14593977Y-15181150D01*
X14593977Y-15181150D02*
X14574929Y-15152579D01*
X14574929Y-15152579D02*
X14565405Y-15133531D01*
X14565405Y-15133531D02*
X14555881Y-15104960D01*
X14555881Y-15104960D02*
X14546358Y-15057341D01*
X14546358Y-15057341D02*
X14546358Y-15019246D01*
X14546358Y-15019246D02*
X14555881Y-14971627D01*
X14555881Y-14971627D02*
X14565405Y-14943055D01*
X14565405Y-14943055D02*
X14574929Y-14924008D01*
X14574929Y-14924008D02*
X14593977Y-14895436D01*
X14593977Y-14895436D02*
X14603501Y-14885912D01*
X14660643Y-14914484D02*
X14784453Y-14914484D01*
X14784453Y-14914484D02*
X14717786Y-14990674D01*
X14717786Y-14990674D02*
X14746358Y-14990674D01*
X14746358Y-14990674D02*
X14765405Y-15000198D01*
X14765405Y-15000198D02*
X14774929Y-15009722D01*
X14774929Y-15009722D02*
X14784453Y-15028769D01*
X14784453Y-15028769D02*
X14784453Y-15076388D01*
X14784453Y-15076388D02*
X14774929Y-15095436D01*
X14774929Y-15095436D02*
X14765405Y-15104960D01*
X14765405Y-15104960D02*
X14746358Y-15114484D01*
X14746358Y-15114484D02*
X14689215Y-15114484D01*
X14689215Y-15114484D02*
X14670167Y-15104960D01*
X14670167Y-15104960D02*
X14660643Y-15095436D01*
X14879691Y-15114484D02*
X14917786Y-15114484D01*
X14917786Y-15114484D02*
X14936834Y-15104960D01*
X14936834Y-15104960D02*
X14946358Y-15095436D01*
X14946358Y-15095436D02*
X14965405Y-15066865D01*
X14965405Y-15066865D02*
X14974929Y-15028769D01*
X14974929Y-15028769D02*
X14974929Y-14952579D01*
X14974929Y-14952579D02*
X14965405Y-14933531D01*
X14965405Y-14933531D02*
X14955881Y-14924008D01*
X14955881Y-14924008D02*
X14936834Y-14914484D01*
X14936834Y-14914484D02*
X14898739Y-14914484D01*
X14898739Y-14914484D02*
X14879691Y-14924008D01*
X14879691Y-14924008D02*
X14870167Y-14933531D01*
X14870167Y-14933531D02*
X14860643Y-14952579D01*
X14860643Y-14952579D02*
X14860643Y-15000198D01*
X14860643Y-15000198D02*
X14870167Y-15019246D01*
X14870167Y-15019246D02*
X14879691Y-15028769D01*
X14879691Y-15028769D02*
X14898739Y-15038293D01*
X14898739Y-15038293D02*
X14936834Y-15038293D01*
X14936834Y-15038293D02*
X14955881Y-15028769D01*
X14955881Y-15028769D02*
X14965405Y-15019246D01*
X14965405Y-15019246D02*
X14974929Y-15000198D01*
X15051120Y-14933531D02*
X15060643Y-14924008D01*
X15060643Y-14924008D02*
X15079691Y-14914484D01*
X15079691Y-14914484D02*
X15127310Y-14914484D01*
X15127310Y-14914484D02*
X15146358Y-14924008D01*
X15146358Y-14924008D02*
X15155881Y-14933531D01*
X15155881Y-14933531D02*
X15165405Y-14952579D01*
X15165405Y-14952579D02*
X15165405Y-14971627D01*
X15165405Y-14971627D02*
X15155881Y-15000198D01*
X15155881Y-15000198D02*
X15041596Y-15114484D01*
X15041596Y-15114484D02*
X15165405Y-15114484D01*
X15403501Y-15114484D02*
X15403501Y-14914484D01*
X15489215Y-15114484D02*
X15489215Y-15009722D01*
X15489215Y-15009722D02*
X15479691Y-14990674D01*
X15479691Y-14990674D02*
X15460643Y-14981150D01*
X15460643Y-14981150D02*
X15432072Y-14981150D01*
X15432072Y-14981150D02*
X15413024Y-14990674D01*
X15413024Y-14990674D02*
X15403501Y-15000198D01*
X15613024Y-15114484D02*
X15593977Y-15104960D01*
X15593977Y-15104960D02*
X15584453Y-15095436D01*
X15584453Y-15095436D02*
X15574929Y-15076388D01*
X15574929Y-15076388D02*
X15574929Y-15019246D01*
X15574929Y-15019246D02*
X15584453Y-15000198D01*
X15584453Y-15000198D02*
X15593977Y-14990674D01*
X15593977Y-14990674D02*
X15613024Y-14981150D01*
X15613024Y-14981150D02*
X15641596Y-14981150D01*
X15641596Y-14981150D02*
X15660643Y-14990674D01*
X15660643Y-14990674D02*
X15670167Y-15000198D01*
X15670167Y-15000198D02*
X15679691Y-15019246D01*
X15679691Y-15019246D02*
X15679691Y-15076388D01*
X15679691Y-15076388D02*
X15670167Y-15095436D01*
X15670167Y-15095436D02*
X15660643Y-15104960D01*
X15660643Y-15104960D02*
X15641596Y-15114484D01*
X15641596Y-15114484D02*
X15613024Y-15114484D01*
X15793977Y-15114484D02*
X15774929Y-15104960D01*
X15774929Y-15104960D02*
X15765405Y-15085912D01*
X15765405Y-15085912D02*
X15765405Y-14914484D01*
X15946358Y-15104960D02*
X15927310Y-15114484D01*
X15927310Y-15114484D02*
X15889215Y-15114484D01*
X15889215Y-15114484D02*
X15870167Y-15104960D01*
X15870167Y-15104960D02*
X15860643Y-15085912D01*
X15860643Y-15085912D02*
X15860643Y-15009722D01*
X15860643Y-15009722D02*
X15870167Y-14990674D01*
X15870167Y-14990674D02*
X15889215Y-14981150D01*
X15889215Y-14981150D02*
X15927310Y-14981150D01*
X15927310Y-14981150D02*
X15946358Y-14990674D01*
X15946358Y-14990674D02*
X15955882Y-15009722D01*
X15955882Y-15009722D02*
X15955882Y-15028769D01*
X15955882Y-15028769D02*
X15860643Y-15047817D01*
X16032072Y-15104960D02*
X16051120Y-15114484D01*
X16051120Y-15114484D02*
X16089215Y-15114484D01*
X16089215Y-15114484D02*
X16108263Y-15104960D01*
X16108263Y-15104960D02*
X16117786Y-15085912D01*
X16117786Y-15085912D02*
X16117786Y-15076388D01*
X16117786Y-15076388D02*
X16108263Y-15057341D01*
X16108263Y-15057341D02*
X16089215Y-15047817D01*
X16089215Y-15047817D02*
X16060643Y-15047817D01*
X16060643Y-15047817D02*
X16041596Y-15038293D01*
X16041596Y-15038293D02*
X16032072Y-15019246D01*
X16032072Y-15019246D02*
X16032072Y-15009722D01*
X16032072Y-15009722D02*
X16041596Y-14990674D01*
X16041596Y-14990674D02*
X16060643Y-14981150D01*
X16060643Y-14981150D02*
X16089215Y-14981150D01*
X16089215Y-14981150D02*
X16108263Y-14990674D01*
X16184453Y-15190674D02*
X16193977Y-15181150D01*
X16193977Y-15181150D02*
X16213024Y-15152579D01*
X16213024Y-15152579D02*
X16222548Y-15133531D01*
X16222548Y-15133531D02*
X16232072Y-15104960D01*
X16232072Y-15104960D02*
X16241596Y-15057341D01*
X16241596Y-15057341D02*
X16241596Y-15019246D01*
X16241596Y-15019246D02*
X16232072Y-14971627D01*
X16232072Y-14971627D02*
X16222548Y-14943055D01*
X16222548Y-14943055D02*
X16213024Y-14924008D01*
X16213024Y-14924008D02*
X16193977Y-14895436D01*
X16193977Y-14895436D02*
X16184453Y-14885912D01*
D11*
X11019651Y-15308213D02*
X11019651Y-15265787D01*
X10977224Y-15265787D01*
X10977224Y-15308213D01*
X11019651Y-15308213D01*
D10*
X11327310Y-15178484D02*
X11346357Y-15178484D01*
X11346357Y-15178484D02*
X11365405Y-15188008D01*
X11365405Y-15188008D02*
X11374929Y-15197531D01*
X11374929Y-15197531D02*
X11384453Y-15216579D01*
X11384453Y-15216579D02*
X11393976Y-15254674D01*
X11393976Y-15254674D02*
X11393976Y-15302293D01*
X11393976Y-15302293D02*
X11384453Y-15340388D01*
X11384453Y-15340388D02*
X11374929Y-15359436D01*
X11374929Y-15359436D02*
X11365405Y-15368960D01*
X11365405Y-15368960D02*
X11346357Y-15378484D01*
X11346357Y-15378484D02*
X11327310Y-15378484D01*
X11327310Y-15378484D02*
X11308262Y-15368960D01*
X11308262Y-15368960D02*
X11298738Y-15359436D01*
X11298738Y-15359436D02*
X11289214Y-15340388D01*
X11289214Y-15340388D02*
X11279691Y-15302293D01*
X11279691Y-15302293D02*
X11279691Y-15254674D01*
X11279691Y-15254674D02*
X11289214Y-15216579D01*
X11289214Y-15216579D02*
X11298738Y-15197531D01*
X11298738Y-15197531D02*
X11308262Y-15188008D01*
X11308262Y-15188008D02*
X11327310Y-15178484D01*
X11479691Y-15359436D02*
X11489214Y-15368960D01*
X11489214Y-15368960D02*
X11479691Y-15378484D01*
X11479691Y-15378484D02*
X11470167Y-15368960D01*
X11470167Y-15368960D02*
X11479691Y-15359436D01*
X11479691Y-15359436D02*
X11479691Y-15378484D01*
X11660643Y-15178484D02*
X11622548Y-15178484D01*
X11622548Y-15178484D02*
X11603500Y-15188008D01*
X11603500Y-15188008D02*
X11593976Y-15197531D01*
X11593976Y-15197531D02*
X11574929Y-15226103D01*
X11574929Y-15226103D02*
X11565405Y-15264198D01*
X11565405Y-15264198D02*
X11565405Y-15340388D01*
X11565405Y-15340388D02*
X11574929Y-15359436D01*
X11574929Y-15359436D02*
X11584453Y-15368960D01*
X11584453Y-15368960D02*
X11603500Y-15378484D01*
X11603500Y-15378484D02*
X11641595Y-15378484D01*
X11641595Y-15378484D02*
X11660643Y-15368960D01*
X11660643Y-15368960D02*
X11670167Y-15359436D01*
X11670167Y-15359436D02*
X11679691Y-15340388D01*
X11679691Y-15340388D02*
X11679691Y-15292769D01*
X11679691Y-15292769D02*
X11670167Y-15273722D01*
X11670167Y-15273722D02*
X11660643Y-15264198D01*
X11660643Y-15264198D02*
X11641595Y-15254674D01*
X11641595Y-15254674D02*
X11603500Y-15254674D01*
X11603500Y-15254674D02*
X11584453Y-15264198D01*
X11584453Y-15264198D02*
X11574929Y-15273722D01*
X11574929Y-15273722D02*
X11565405Y-15292769D01*
X11803500Y-15178484D02*
X11822548Y-15178484D01*
X11822548Y-15178484D02*
X11841595Y-15188008D01*
X11841595Y-15188008D02*
X11851119Y-15197531D01*
X11851119Y-15197531D02*
X11860643Y-15216579D01*
X11860643Y-15216579D02*
X11870167Y-15254674D01*
X11870167Y-15254674D02*
X11870167Y-15302293D01*
X11870167Y-15302293D02*
X11860643Y-15340388D01*
X11860643Y-15340388D02*
X11851119Y-15359436D01*
X11851119Y-15359436D02*
X11841595Y-15368960D01*
X11841595Y-15368960D02*
X11822548Y-15378484D01*
X11822548Y-15378484D02*
X11803500Y-15378484D01*
X11803500Y-15378484D02*
X11784453Y-15368960D01*
X11784453Y-15368960D02*
X11774929Y-15359436D01*
X11774929Y-15359436D02*
X11765405Y-15340388D01*
X11765405Y-15340388D02*
X11755881Y-15302293D01*
X11755881Y-15302293D02*
X11755881Y-15254674D01*
X11755881Y-15254674D02*
X11765405Y-15216579D01*
X11765405Y-15216579D02*
X11774929Y-15197531D01*
X11774929Y-15197531D02*
X11784453Y-15188008D01*
X11784453Y-15188008D02*
X11803500Y-15178484D01*
X11993976Y-15178484D02*
X12013024Y-15178484D01*
X12013024Y-15178484D02*
X12032072Y-15188008D01*
X12032072Y-15188008D02*
X12041595Y-15197531D01*
X12041595Y-15197531D02*
X12051119Y-15216579D01*
X12051119Y-15216579D02*
X12060643Y-15254674D01*
X12060643Y-15254674D02*
X12060643Y-15302293D01*
X12060643Y-15302293D02*
X12051119Y-15340388D01*
X12051119Y-15340388D02*
X12041595Y-15359436D01*
X12041595Y-15359436D02*
X12032072Y-15368960D01*
X12032072Y-15368960D02*
X12013024Y-15378484D01*
X12013024Y-15378484D02*
X11993976Y-15378484D01*
X11993976Y-15378484D02*
X11974929Y-15368960D01*
X11974929Y-15368960D02*
X11965405Y-15359436D01*
X11965405Y-15359436D02*
X11955881Y-15340388D01*
X11955881Y-15340388D02*
X11946357Y-15302293D01*
X11946357Y-15302293D02*
X11946357Y-15254674D01*
X11946357Y-15254674D02*
X11955881Y-15216579D01*
X11955881Y-15216579D02*
X11965405Y-15197531D01*
X11965405Y-15197531D02*
X11974929Y-15188008D01*
X11974929Y-15188008D02*
X11993976Y-15178484D01*
X12146357Y-15378484D02*
X12146357Y-15245150D01*
X12146357Y-15264198D02*
X12155881Y-15254674D01*
X12155881Y-15254674D02*
X12174929Y-15245150D01*
X12174929Y-15245150D02*
X12203500Y-15245150D01*
X12203500Y-15245150D02*
X12222548Y-15254674D01*
X12222548Y-15254674D02*
X12232072Y-15273722D01*
X12232072Y-15273722D02*
X12232072Y-15378484D01*
X12232072Y-15273722D02*
X12241595Y-15254674D01*
X12241595Y-15254674D02*
X12260643Y-15245150D01*
X12260643Y-15245150D02*
X12289214Y-15245150D01*
X12289214Y-15245150D02*
X12308262Y-15254674D01*
X12308262Y-15254674D02*
X12317786Y-15273722D01*
X12317786Y-15273722D02*
X12317786Y-15378484D01*
X12413024Y-15378484D02*
X12413024Y-15245150D01*
X12413024Y-15264198D02*
X12422548Y-15254674D01*
X12422548Y-15254674D02*
X12441595Y-15245150D01*
X12441595Y-15245150D02*
X12470167Y-15245150D01*
X12470167Y-15245150D02*
X12489215Y-15254674D01*
X12489215Y-15254674D02*
X12498738Y-15273722D01*
X12498738Y-15273722D02*
X12498738Y-15378484D01*
X12498738Y-15273722D02*
X12508262Y-15254674D01*
X12508262Y-15254674D02*
X12527310Y-15245150D01*
X12527310Y-15245150D02*
X12555881Y-15245150D01*
X12555881Y-15245150D02*
X12574929Y-15254674D01*
X12574929Y-15254674D02*
X12584453Y-15273722D01*
X12584453Y-15273722D02*
X12584453Y-15378484D01*
X12974929Y-15168960D02*
X12803500Y-15426103D01*
X13232072Y-15178484D02*
X13251119Y-15178484D01*
X13251119Y-15178484D02*
X13270167Y-15188008D01*
X13270167Y-15188008D02*
X13279691Y-15197531D01*
X13279691Y-15197531D02*
X13289215Y-15216579D01*
X13289215Y-15216579D02*
X13298738Y-15254674D01*
X13298738Y-15254674D02*
X13298738Y-15302293D01*
X13298738Y-15302293D02*
X13289215Y-15340388D01*
X13289215Y-15340388D02*
X13279691Y-15359436D01*
X13279691Y-15359436D02*
X13270167Y-15368960D01*
X13270167Y-15368960D02*
X13251119Y-15378484D01*
X13251119Y-15378484D02*
X13232072Y-15378484D01*
X13232072Y-15378484D02*
X13213024Y-15368960D01*
X13213024Y-15368960D02*
X13203500Y-15359436D01*
X13203500Y-15359436D02*
X13193977Y-15340388D01*
X13193977Y-15340388D02*
X13184453Y-15302293D01*
X13184453Y-15302293D02*
X13184453Y-15254674D01*
X13184453Y-15254674D02*
X13193977Y-15216579D01*
X13193977Y-15216579D02*
X13203500Y-15197531D01*
X13203500Y-15197531D02*
X13213024Y-15188008D01*
X13213024Y-15188008D02*
X13232072Y-15178484D01*
X13384453Y-15359436D02*
X13393977Y-15368960D01*
X13393977Y-15368960D02*
X13384453Y-15378484D01*
X13384453Y-15378484D02*
X13374929Y-15368960D01*
X13374929Y-15368960D02*
X13384453Y-15359436D01*
X13384453Y-15359436D02*
X13384453Y-15378484D01*
X13517786Y-15178484D02*
X13536834Y-15178484D01*
X13536834Y-15178484D02*
X13555881Y-15188008D01*
X13555881Y-15188008D02*
X13565405Y-15197531D01*
X13565405Y-15197531D02*
X13574929Y-15216579D01*
X13574929Y-15216579D02*
X13584453Y-15254674D01*
X13584453Y-15254674D02*
X13584453Y-15302293D01*
X13584453Y-15302293D02*
X13574929Y-15340388D01*
X13574929Y-15340388D02*
X13565405Y-15359436D01*
X13565405Y-15359436D02*
X13555881Y-15368960D01*
X13555881Y-15368960D02*
X13536834Y-15378484D01*
X13536834Y-15378484D02*
X13517786Y-15378484D01*
X13517786Y-15378484D02*
X13498738Y-15368960D01*
X13498738Y-15368960D02*
X13489215Y-15359436D01*
X13489215Y-15359436D02*
X13479691Y-15340388D01*
X13479691Y-15340388D02*
X13470167Y-15302293D01*
X13470167Y-15302293D02*
X13470167Y-15254674D01*
X13470167Y-15254674D02*
X13479691Y-15216579D01*
X13479691Y-15216579D02*
X13489215Y-15197531D01*
X13489215Y-15197531D02*
X13498738Y-15188008D01*
X13498738Y-15188008D02*
X13517786Y-15178484D01*
X13660643Y-15197531D02*
X13670167Y-15188008D01*
X13670167Y-15188008D02*
X13689215Y-15178484D01*
X13689215Y-15178484D02*
X13736834Y-15178484D01*
X13736834Y-15178484D02*
X13755881Y-15188008D01*
X13755881Y-15188008D02*
X13765405Y-15197531D01*
X13765405Y-15197531D02*
X13774929Y-15216579D01*
X13774929Y-15216579D02*
X13774929Y-15235627D01*
X13774929Y-15235627D02*
X13765405Y-15264198D01*
X13765405Y-15264198D02*
X13651119Y-15378484D01*
X13651119Y-15378484D02*
X13774929Y-15378484D01*
X13841596Y-15178484D02*
X13965405Y-15178484D01*
X13965405Y-15178484D02*
X13898738Y-15254674D01*
X13898738Y-15254674D02*
X13927310Y-15254674D01*
X13927310Y-15254674D02*
X13946358Y-15264198D01*
X13946358Y-15264198D02*
X13955881Y-15273722D01*
X13955881Y-15273722D02*
X13965405Y-15292769D01*
X13965405Y-15292769D02*
X13965405Y-15340388D01*
X13965405Y-15340388D02*
X13955881Y-15359436D01*
X13955881Y-15359436D02*
X13946358Y-15368960D01*
X13946358Y-15368960D02*
X13927310Y-15378484D01*
X13927310Y-15378484D02*
X13870167Y-15378484D01*
X13870167Y-15378484D02*
X13851119Y-15368960D01*
X13851119Y-15368960D02*
X13841596Y-15359436D01*
X14136834Y-15178484D02*
X14098738Y-15178484D01*
X14098738Y-15178484D02*
X14079691Y-15188008D01*
X14079691Y-15188008D02*
X14070167Y-15197531D01*
X14070167Y-15197531D02*
X14051119Y-15226103D01*
X14051119Y-15226103D02*
X14041596Y-15264198D01*
X14041596Y-15264198D02*
X14041596Y-15340388D01*
X14041596Y-15340388D02*
X14051119Y-15359436D01*
X14051119Y-15359436D02*
X14060643Y-15368960D01*
X14060643Y-15368960D02*
X14079691Y-15378484D01*
X14079691Y-15378484D02*
X14117786Y-15378484D01*
X14117786Y-15378484D02*
X14136834Y-15368960D01*
X14136834Y-15368960D02*
X14146358Y-15359436D01*
X14146358Y-15359436D02*
X14155881Y-15340388D01*
X14155881Y-15340388D02*
X14155881Y-15292769D01*
X14155881Y-15292769D02*
X14146358Y-15273722D01*
X14146358Y-15273722D02*
X14136834Y-15264198D01*
X14136834Y-15264198D02*
X14117786Y-15254674D01*
X14117786Y-15254674D02*
X14079691Y-15254674D01*
X14079691Y-15254674D02*
X14060643Y-15264198D01*
X14060643Y-15264198D02*
X14051119Y-15273722D01*
X14051119Y-15273722D02*
X14041596Y-15292769D01*
X14232072Y-15178484D02*
X14232072Y-15216579D01*
X14308262Y-15178484D02*
X14308262Y-15216579D01*
X14603501Y-15454674D02*
X14593977Y-15445150D01*
X14593977Y-15445150D02*
X14574929Y-15416579D01*
X14574929Y-15416579D02*
X14565405Y-15397531D01*
X14565405Y-15397531D02*
X14555881Y-15368960D01*
X14555881Y-15368960D02*
X14546358Y-15321341D01*
X14546358Y-15321341D02*
X14546358Y-15283246D01*
X14546358Y-15283246D02*
X14555881Y-15235627D01*
X14555881Y-15235627D02*
X14565405Y-15207055D01*
X14565405Y-15207055D02*
X14574929Y-15188008D01*
X14574929Y-15188008D02*
X14593977Y-15159436D01*
X14593977Y-15159436D02*
X14603501Y-15149912D01*
X14717786Y-15178484D02*
X14736834Y-15178484D01*
X14736834Y-15178484D02*
X14755881Y-15188008D01*
X14755881Y-15188008D02*
X14765405Y-15197531D01*
X14765405Y-15197531D02*
X14774929Y-15216579D01*
X14774929Y-15216579D02*
X14784453Y-15254674D01*
X14784453Y-15254674D02*
X14784453Y-15302293D01*
X14784453Y-15302293D02*
X14774929Y-15340388D01*
X14774929Y-15340388D02*
X14765405Y-15359436D01*
X14765405Y-15359436D02*
X14755881Y-15368960D01*
X14755881Y-15368960D02*
X14736834Y-15378484D01*
X14736834Y-15378484D02*
X14717786Y-15378484D01*
X14717786Y-15378484D02*
X14698739Y-15368960D01*
X14698739Y-15368960D02*
X14689215Y-15359436D01*
X14689215Y-15359436D02*
X14679691Y-15340388D01*
X14679691Y-15340388D02*
X14670167Y-15302293D01*
X14670167Y-15302293D02*
X14670167Y-15254674D01*
X14670167Y-15254674D02*
X14679691Y-15216579D01*
X14679691Y-15216579D02*
X14689215Y-15197531D01*
X14689215Y-15197531D02*
X14698739Y-15188008D01*
X14698739Y-15188008D02*
X14717786Y-15178484D01*
X15022548Y-15378484D02*
X15022548Y-15178484D01*
X15108262Y-15378484D02*
X15108262Y-15273722D01*
X15108262Y-15273722D02*
X15098739Y-15254674D01*
X15098739Y-15254674D02*
X15079691Y-15245150D01*
X15079691Y-15245150D02*
X15051120Y-15245150D01*
X15051120Y-15245150D02*
X15032072Y-15254674D01*
X15032072Y-15254674D02*
X15022548Y-15264198D01*
X15232072Y-15378484D02*
X15213024Y-15368960D01*
X15213024Y-15368960D02*
X15203501Y-15359436D01*
X15203501Y-15359436D02*
X15193977Y-15340388D01*
X15193977Y-15340388D02*
X15193977Y-15283246D01*
X15193977Y-15283246D02*
X15203501Y-15264198D01*
X15203501Y-15264198D02*
X15213024Y-15254674D01*
X15213024Y-15254674D02*
X15232072Y-15245150D01*
X15232072Y-15245150D02*
X15260643Y-15245150D01*
X15260643Y-15245150D02*
X15279691Y-15254674D01*
X15279691Y-15254674D02*
X15289215Y-15264198D01*
X15289215Y-15264198D02*
X15298739Y-15283246D01*
X15298739Y-15283246D02*
X15298739Y-15340388D01*
X15298739Y-15340388D02*
X15289215Y-15359436D01*
X15289215Y-15359436D02*
X15279691Y-15368960D01*
X15279691Y-15368960D02*
X15260643Y-15378484D01*
X15260643Y-15378484D02*
X15232072Y-15378484D01*
X15413024Y-15378484D02*
X15393977Y-15368960D01*
X15393977Y-15368960D02*
X15384453Y-15349912D01*
X15384453Y-15349912D02*
X15384453Y-15178484D01*
X15565405Y-15368960D02*
X15546358Y-15378484D01*
X15546358Y-15378484D02*
X15508262Y-15378484D01*
X15508262Y-15378484D02*
X15489215Y-15368960D01*
X15489215Y-15368960D02*
X15479691Y-15349912D01*
X15479691Y-15349912D02*
X15479691Y-15273722D01*
X15479691Y-15273722D02*
X15489215Y-15254674D01*
X15489215Y-15254674D02*
X15508262Y-15245150D01*
X15508262Y-15245150D02*
X15546358Y-15245150D01*
X15546358Y-15245150D02*
X15565405Y-15254674D01*
X15565405Y-15254674D02*
X15574929Y-15273722D01*
X15574929Y-15273722D02*
X15574929Y-15292769D01*
X15574929Y-15292769D02*
X15479691Y-15311817D01*
X15651120Y-15368960D02*
X15670167Y-15378484D01*
X15670167Y-15378484D02*
X15708262Y-15378484D01*
X15708262Y-15378484D02*
X15727310Y-15368960D01*
X15727310Y-15368960D02*
X15736834Y-15349912D01*
X15736834Y-15349912D02*
X15736834Y-15340388D01*
X15736834Y-15340388D02*
X15727310Y-15321341D01*
X15727310Y-15321341D02*
X15708262Y-15311817D01*
X15708262Y-15311817D02*
X15679691Y-15311817D01*
X15679691Y-15311817D02*
X15660643Y-15302293D01*
X15660643Y-15302293D02*
X15651120Y-15283246D01*
X15651120Y-15283246D02*
X15651120Y-15273722D01*
X15651120Y-15273722D02*
X15660643Y-15254674D01*
X15660643Y-15254674D02*
X15679691Y-15245150D01*
X15679691Y-15245150D02*
X15708262Y-15245150D01*
X15708262Y-15245150D02*
X15727310Y-15254674D01*
X15974929Y-15302293D02*
X16127310Y-15302293D01*
X16051120Y-15378484D02*
X16051120Y-15226103D01*
X16460644Y-15245150D02*
X16460644Y-15378484D01*
X16413024Y-15168960D02*
X16365405Y-15311817D01*
X16365405Y-15311817D02*
X16489215Y-15311817D01*
X16708263Y-15368960D02*
X16727310Y-15378484D01*
X16727310Y-15378484D02*
X16765405Y-15378484D01*
X16765405Y-15378484D02*
X16784453Y-15368960D01*
X16784453Y-15368960D02*
X16793977Y-15349912D01*
X16793977Y-15349912D02*
X16793977Y-15340388D01*
X16793977Y-15340388D02*
X16784453Y-15321341D01*
X16784453Y-15321341D02*
X16765405Y-15311817D01*
X16765405Y-15311817D02*
X16736834Y-15311817D01*
X16736834Y-15311817D02*
X16717786Y-15302293D01*
X16717786Y-15302293D02*
X16708263Y-15283246D01*
X16708263Y-15283246D02*
X16708263Y-15273722D01*
X16708263Y-15273722D02*
X16717786Y-15254674D01*
X16717786Y-15254674D02*
X16736834Y-15245150D01*
X16736834Y-15245150D02*
X16765405Y-15245150D01*
X16765405Y-15245150D02*
X16784453Y-15254674D01*
X16908263Y-15378484D02*
X16889215Y-15368960D01*
X16889215Y-15368960D02*
X16879691Y-15349912D01*
X16879691Y-15349912D02*
X16879691Y-15178484D01*
X17013025Y-15378484D02*
X16993977Y-15368960D01*
X16993977Y-15368960D02*
X16984453Y-15359436D01*
X16984453Y-15359436D02*
X16974929Y-15340388D01*
X16974929Y-15340388D02*
X16974929Y-15283246D01*
X16974929Y-15283246D02*
X16984453Y-15264198D01*
X16984453Y-15264198D02*
X16993977Y-15254674D01*
X16993977Y-15254674D02*
X17013025Y-15245150D01*
X17013025Y-15245150D02*
X17041596Y-15245150D01*
X17041596Y-15245150D02*
X17060644Y-15254674D01*
X17060644Y-15254674D02*
X17070168Y-15264198D01*
X17070168Y-15264198D02*
X17079691Y-15283246D01*
X17079691Y-15283246D02*
X17079691Y-15340388D01*
X17079691Y-15340388D02*
X17070168Y-15359436D01*
X17070168Y-15359436D02*
X17060644Y-15368960D01*
X17060644Y-15368960D02*
X17041596Y-15378484D01*
X17041596Y-15378484D02*
X17013025Y-15378484D01*
X17136834Y-15245150D02*
X17213025Y-15245150D01*
X17165406Y-15178484D02*
X17165406Y-15349912D01*
X17165406Y-15349912D02*
X17174929Y-15368960D01*
X17174929Y-15368960D02*
X17193977Y-15378484D01*
X17193977Y-15378484D02*
X17213025Y-15378484D01*
X17270168Y-15368960D02*
X17289215Y-15378484D01*
X17289215Y-15378484D02*
X17327310Y-15378484D01*
X17327310Y-15378484D02*
X17346358Y-15368960D01*
X17346358Y-15368960D02*
X17355882Y-15349912D01*
X17355882Y-15349912D02*
X17355882Y-15340388D01*
X17355882Y-15340388D02*
X17346358Y-15321341D01*
X17346358Y-15321341D02*
X17327310Y-15311817D01*
X17327310Y-15311817D02*
X17298739Y-15311817D01*
X17298739Y-15311817D02*
X17279691Y-15302293D01*
X17279691Y-15302293D02*
X17270168Y-15283246D01*
X17270168Y-15283246D02*
X17270168Y-15273722D01*
X17270168Y-15273722D02*
X17279691Y-15254674D01*
X17279691Y-15254674D02*
X17298739Y-15245150D01*
X17298739Y-15245150D02*
X17327310Y-15245150D01*
X17327310Y-15245150D02*
X17346358Y-15254674D01*
X17422549Y-15454674D02*
X17432072Y-15445150D01*
X17432072Y-15445150D02*
X17451120Y-15416579D01*
X17451120Y-15416579D02*
X17460644Y-15397531D01*
X17460644Y-15397531D02*
X17470168Y-15368960D01*
X17470168Y-15368960D02*
X17479691Y-15321341D01*
X17479691Y-15321341D02*
X17479691Y-15283246D01*
X17479691Y-15283246D02*
X17470168Y-15235627D01*
X17470168Y-15235627D02*
X17460644Y-15207055D01*
X17460644Y-15207055D02*
X17451120Y-15188008D01*
X17451120Y-15188008D02*
X17432072Y-15159436D01*
X17432072Y-15159436D02*
X17422549Y-15149912D01*
D11*
X10991938Y-15587500D02*
X11028438Y-15551000D01*
X10991938Y-15514500D01*
X10955438Y-15551000D01*
X10991938Y-15587500D01*
D10*
X11327310Y-15442484D02*
X11346357Y-15442484D01*
X11346357Y-15442484D02*
X11365405Y-15452008D01*
X11365405Y-15452008D02*
X11374929Y-15461531D01*
X11374929Y-15461531D02*
X11384453Y-15480579D01*
X11384453Y-15480579D02*
X11393976Y-15518674D01*
X11393976Y-15518674D02*
X11393976Y-15566293D01*
X11393976Y-15566293D02*
X11384453Y-15604388D01*
X11384453Y-15604388D02*
X11374929Y-15623436D01*
X11374929Y-15623436D02*
X11365405Y-15632960D01*
X11365405Y-15632960D02*
X11346357Y-15642484D01*
X11346357Y-15642484D02*
X11327310Y-15642484D01*
X11327310Y-15642484D02*
X11308262Y-15632960D01*
X11308262Y-15632960D02*
X11298738Y-15623436D01*
X11298738Y-15623436D02*
X11289214Y-15604388D01*
X11289214Y-15604388D02*
X11279691Y-15566293D01*
X11279691Y-15566293D02*
X11279691Y-15518674D01*
X11279691Y-15518674D02*
X11289214Y-15480579D01*
X11289214Y-15480579D02*
X11298738Y-15461531D01*
X11298738Y-15461531D02*
X11308262Y-15452008D01*
X11308262Y-15452008D02*
X11327310Y-15442484D01*
X11479691Y-15623436D02*
X11489214Y-15632960D01*
X11489214Y-15632960D02*
X11479691Y-15642484D01*
X11479691Y-15642484D02*
X11470167Y-15632960D01*
X11470167Y-15632960D02*
X11479691Y-15623436D01*
X11479691Y-15623436D02*
X11479691Y-15642484D01*
X11555881Y-15442484D02*
X11689214Y-15442484D01*
X11689214Y-15442484D02*
X11603500Y-15642484D01*
X11746357Y-15442484D02*
X11870167Y-15442484D01*
X11870167Y-15442484D02*
X11803500Y-15518674D01*
X11803500Y-15518674D02*
X11832072Y-15518674D01*
X11832072Y-15518674D02*
X11851119Y-15528198D01*
X11851119Y-15528198D02*
X11860643Y-15537722D01*
X11860643Y-15537722D02*
X11870167Y-15556769D01*
X11870167Y-15556769D02*
X11870167Y-15604388D01*
X11870167Y-15604388D02*
X11860643Y-15623436D01*
X11860643Y-15623436D02*
X11851119Y-15632960D01*
X11851119Y-15632960D02*
X11832072Y-15642484D01*
X11832072Y-15642484D02*
X11774929Y-15642484D01*
X11774929Y-15642484D02*
X11755881Y-15632960D01*
X11755881Y-15632960D02*
X11746357Y-15623436D01*
X11993976Y-15442484D02*
X12013024Y-15442484D01*
X12013024Y-15442484D02*
X12032072Y-15452008D01*
X12032072Y-15452008D02*
X12041595Y-15461531D01*
X12041595Y-15461531D02*
X12051119Y-15480579D01*
X12051119Y-15480579D02*
X12060643Y-15518674D01*
X12060643Y-15518674D02*
X12060643Y-15566293D01*
X12060643Y-15566293D02*
X12051119Y-15604388D01*
X12051119Y-15604388D02*
X12041595Y-15623436D01*
X12041595Y-15623436D02*
X12032072Y-15632960D01*
X12032072Y-15632960D02*
X12013024Y-15642484D01*
X12013024Y-15642484D02*
X11993976Y-15642484D01*
X11993976Y-15642484D02*
X11974929Y-15632960D01*
X11974929Y-15632960D02*
X11965405Y-15623436D01*
X11965405Y-15623436D02*
X11955881Y-15604388D01*
X11955881Y-15604388D02*
X11946357Y-15566293D01*
X11946357Y-15566293D02*
X11946357Y-15518674D01*
X11946357Y-15518674D02*
X11955881Y-15480579D01*
X11955881Y-15480579D02*
X11965405Y-15461531D01*
X11965405Y-15461531D02*
X11974929Y-15452008D01*
X11974929Y-15452008D02*
X11993976Y-15442484D01*
X12146357Y-15642484D02*
X12146357Y-15509150D01*
X12146357Y-15528198D02*
X12155881Y-15518674D01*
X12155881Y-15518674D02*
X12174929Y-15509150D01*
X12174929Y-15509150D02*
X12203500Y-15509150D01*
X12203500Y-15509150D02*
X12222548Y-15518674D01*
X12222548Y-15518674D02*
X12232072Y-15537722D01*
X12232072Y-15537722D02*
X12232072Y-15642484D01*
X12232072Y-15537722D02*
X12241595Y-15518674D01*
X12241595Y-15518674D02*
X12260643Y-15509150D01*
X12260643Y-15509150D02*
X12289214Y-15509150D01*
X12289214Y-15509150D02*
X12308262Y-15518674D01*
X12308262Y-15518674D02*
X12317786Y-15537722D01*
X12317786Y-15537722D02*
X12317786Y-15642484D01*
X12413024Y-15642484D02*
X12413024Y-15509150D01*
X12413024Y-15528198D02*
X12422548Y-15518674D01*
X12422548Y-15518674D02*
X12441595Y-15509150D01*
X12441595Y-15509150D02*
X12470167Y-15509150D01*
X12470167Y-15509150D02*
X12489215Y-15518674D01*
X12489215Y-15518674D02*
X12498738Y-15537722D01*
X12498738Y-15537722D02*
X12498738Y-15642484D01*
X12498738Y-15537722D02*
X12508262Y-15518674D01*
X12508262Y-15518674D02*
X12527310Y-15509150D01*
X12527310Y-15509150D02*
X12555881Y-15509150D01*
X12555881Y-15509150D02*
X12574929Y-15518674D01*
X12574929Y-15518674D02*
X12584453Y-15537722D01*
X12584453Y-15537722D02*
X12584453Y-15642484D01*
X12974929Y-15432960D02*
X12803500Y-15690103D01*
X13232072Y-15442484D02*
X13251119Y-15442484D01*
X13251119Y-15442484D02*
X13270167Y-15452008D01*
X13270167Y-15452008D02*
X13279691Y-15461531D01*
X13279691Y-15461531D02*
X13289215Y-15480579D01*
X13289215Y-15480579D02*
X13298738Y-15518674D01*
X13298738Y-15518674D02*
X13298738Y-15566293D01*
X13298738Y-15566293D02*
X13289215Y-15604388D01*
X13289215Y-15604388D02*
X13279691Y-15623436D01*
X13279691Y-15623436D02*
X13270167Y-15632960D01*
X13270167Y-15632960D02*
X13251119Y-15642484D01*
X13251119Y-15642484D02*
X13232072Y-15642484D01*
X13232072Y-15642484D02*
X13213024Y-15632960D01*
X13213024Y-15632960D02*
X13203500Y-15623436D01*
X13203500Y-15623436D02*
X13193977Y-15604388D01*
X13193977Y-15604388D02*
X13184453Y-15566293D01*
X13184453Y-15566293D02*
X13184453Y-15518674D01*
X13184453Y-15518674D02*
X13193977Y-15480579D01*
X13193977Y-15480579D02*
X13203500Y-15461531D01*
X13203500Y-15461531D02*
X13213024Y-15452008D01*
X13213024Y-15452008D02*
X13232072Y-15442484D01*
X13384453Y-15623436D02*
X13393977Y-15632960D01*
X13393977Y-15632960D02*
X13384453Y-15642484D01*
X13384453Y-15642484D02*
X13374929Y-15632960D01*
X13374929Y-15632960D02*
X13384453Y-15623436D01*
X13384453Y-15623436D02*
X13384453Y-15642484D01*
X13517786Y-15442484D02*
X13536834Y-15442484D01*
X13536834Y-15442484D02*
X13555881Y-15452008D01*
X13555881Y-15452008D02*
X13565405Y-15461531D01*
X13565405Y-15461531D02*
X13574929Y-15480579D01*
X13574929Y-15480579D02*
X13584453Y-15518674D01*
X13584453Y-15518674D02*
X13584453Y-15566293D01*
X13584453Y-15566293D02*
X13574929Y-15604388D01*
X13574929Y-15604388D02*
X13565405Y-15623436D01*
X13565405Y-15623436D02*
X13555881Y-15632960D01*
X13555881Y-15632960D02*
X13536834Y-15642484D01*
X13536834Y-15642484D02*
X13517786Y-15642484D01*
X13517786Y-15642484D02*
X13498738Y-15632960D01*
X13498738Y-15632960D02*
X13489215Y-15623436D01*
X13489215Y-15623436D02*
X13479691Y-15604388D01*
X13479691Y-15604388D02*
X13470167Y-15566293D01*
X13470167Y-15566293D02*
X13470167Y-15518674D01*
X13470167Y-15518674D02*
X13479691Y-15480579D01*
X13479691Y-15480579D02*
X13489215Y-15461531D01*
X13489215Y-15461531D02*
X13498738Y-15452008D01*
X13498738Y-15452008D02*
X13517786Y-15442484D01*
X13660643Y-15461531D02*
X13670167Y-15452008D01*
X13670167Y-15452008D02*
X13689215Y-15442484D01*
X13689215Y-15442484D02*
X13736834Y-15442484D01*
X13736834Y-15442484D02*
X13755881Y-15452008D01*
X13755881Y-15452008D02*
X13765405Y-15461531D01*
X13765405Y-15461531D02*
X13774929Y-15480579D01*
X13774929Y-15480579D02*
X13774929Y-15499627D01*
X13774929Y-15499627D02*
X13765405Y-15528198D01*
X13765405Y-15528198D02*
X13651119Y-15642484D01*
X13651119Y-15642484D02*
X13774929Y-15642484D01*
X13889215Y-15528198D02*
X13870167Y-15518674D01*
X13870167Y-15518674D02*
X13860643Y-15509150D01*
X13860643Y-15509150D02*
X13851119Y-15490103D01*
X13851119Y-15490103D02*
X13851119Y-15480579D01*
X13851119Y-15480579D02*
X13860643Y-15461531D01*
X13860643Y-15461531D02*
X13870167Y-15452008D01*
X13870167Y-15452008D02*
X13889215Y-15442484D01*
X13889215Y-15442484D02*
X13927310Y-15442484D01*
X13927310Y-15442484D02*
X13946358Y-15452008D01*
X13946358Y-15452008D02*
X13955881Y-15461531D01*
X13955881Y-15461531D02*
X13965405Y-15480579D01*
X13965405Y-15480579D02*
X13965405Y-15490103D01*
X13965405Y-15490103D02*
X13955881Y-15509150D01*
X13955881Y-15509150D02*
X13946358Y-15518674D01*
X13946358Y-15518674D02*
X13927310Y-15528198D01*
X13927310Y-15528198D02*
X13889215Y-15528198D01*
X13889215Y-15528198D02*
X13870167Y-15537722D01*
X13870167Y-15537722D02*
X13860643Y-15547246D01*
X13860643Y-15547246D02*
X13851119Y-15566293D01*
X13851119Y-15566293D02*
X13851119Y-15604388D01*
X13851119Y-15604388D02*
X13860643Y-15623436D01*
X13860643Y-15623436D02*
X13870167Y-15632960D01*
X13870167Y-15632960D02*
X13889215Y-15642484D01*
X13889215Y-15642484D02*
X13927310Y-15642484D01*
X13927310Y-15642484D02*
X13946358Y-15632960D01*
X13946358Y-15632960D02*
X13955881Y-15623436D01*
X13955881Y-15623436D02*
X13965405Y-15604388D01*
X13965405Y-15604388D02*
X13965405Y-15566293D01*
X13965405Y-15566293D02*
X13955881Y-15547246D01*
X13955881Y-15547246D02*
X13946358Y-15537722D01*
X13946358Y-15537722D02*
X13927310Y-15528198D01*
X14032072Y-15442484D02*
X14165405Y-15442484D01*
X14165405Y-15442484D02*
X14079691Y-15642484D01*
X14232072Y-15442484D02*
X14232072Y-15480579D01*
X14308262Y-15442484D02*
X14308262Y-15480579D01*
X14603501Y-15718674D02*
X14593977Y-15709150D01*
X14593977Y-15709150D02*
X14574929Y-15680579D01*
X14574929Y-15680579D02*
X14565405Y-15661531D01*
X14565405Y-15661531D02*
X14555881Y-15632960D01*
X14555881Y-15632960D02*
X14546358Y-15585341D01*
X14546358Y-15585341D02*
X14546358Y-15547246D01*
X14546358Y-15547246D02*
X14555881Y-15499627D01*
X14555881Y-15499627D02*
X14565405Y-15471055D01*
X14565405Y-15471055D02*
X14574929Y-15452008D01*
X14574929Y-15452008D02*
X14593977Y-15423436D01*
X14593977Y-15423436D02*
X14603501Y-15413912D01*
X14660643Y-15442484D02*
X14784453Y-15442484D01*
X14784453Y-15442484D02*
X14717786Y-15518674D01*
X14717786Y-15518674D02*
X14746358Y-15518674D01*
X14746358Y-15518674D02*
X14765405Y-15528198D01*
X14765405Y-15528198D02*
X14774929Y-15537722D01*
X14774929Y-15537722D02*
X14784453Y-15556769D01*
X14784453Y-15556769D02*
X14784453Y-15604388D01*
X14784453Y-15604388D02*
X14774929Y-15623436D01*
X14774929Y-15623436D02*
X14765405Y-15632960D01*
X14765405Y-15632960D02*
X14746358Y-15642484D01*
X14746358Y-15642484D02*
X14689215Y-15642484D01*
X14689215Y-15642484D02*
X14670167Y-15632960D01*
X14670167Y-15632960D02*
X14660643Y-15623436D01*
X14908262Y-15442484D02*
X14927310Y-15442484D01*
X14927310Y-15442484D02*
X14946358Y-15452008D01*
X14946358Y-15452008D02*
X14955881Y-15461531D01*
X14955881Y-15461531D02*
X14965405Y-15480579D01*
X14965405Y-15480579D02*
X14974929Y-15518674D01*
X14974929Y-15518674D02*
X14974929Y-15566293D01*
X14974929Y-15566293D02*
X14965405Y-15604388D01*
X14965405Y-15604388D02*
X14955881Y-15623436D01*
X14955881Y-15623436D02*
X14946358Y-15632960D01*
X14946358Y-15632960D02*
X14927310Y-15642484D01*
X14927310Y-15642484D02*
X14908262Y-15642484D01*
X14908262Y-15642484D02*
X14889215Y-15632960D01*
X14889215Y-15632960D02*
X14879691Y-15623436D01*
X14879691Y-15623436D02*
X14870167Y-15604388D01*
X14870167Y-15604388D02*
X14860643Y-15566293D01*
X14860643Y-15566293D02*
X14860643Y-15518674D01*
X14860643Y-15518674D02*
X14870167Y-15480579D01*
X14870167Y-15480579D02*
X14879691Y-15461531D01*
X14879691Y-15461531D02*
X14889215Y-15452008D01*
X14889215Y-15452008D02*
X14908262Y-15442484D01*
X15213024Y-15642484D02*
X15213024Y-15442484D01*
X15298739Y-15642484D02*
X15298739Y-15537722D01*
X15298739Y-15537722D02*
X15289215Y-15518674D01*
X15289215Y-15518674D02*
X15270167Y-15509150D01*
X15270167Y-15509150D02*
X15241596Y-15509150D01*
X15241596Y-15509150D02*
X15222548Y-15518674D01*
X15222548Y-15518674D02*
X15213024Y-15528198D01*
X15422548Y-15642484D02*
X15403501Y-15632960D01*
X15403501Y-15632960D02*
X15393977Y-15623436D01*
X15393977Y-15623436D02*
X15384453Y-15604388D01*
X15384453Y-15604388D02*
X15384453Y-15547246D01*
X15384453Y-15547246D02*
X15393977Y-15528198D01*
X15393977Y-15528198D02*
X15403501Y-15518674D01*
X15403501Y-15518674D02*
X15422548Y-15509150D01*
X15422548Y-15509150D02*
X15451120Y-15509150D01*
X15451120Y-15509150D02*
X15470167Y-15518674D01*
X15470167Y-15518674D02*
X15479691Y-15528198D01*
X15479691Y-15528198D02*
X15489215Y-15547246D01*
X15489215Y-15547246D02*
X15489215Y-15604388D01*
X15489215Y-15604388D02*
X15479691Y-15623436D01*
X15479691Y-15623436D02*
X15470167Y-15632960D01*
X15470167Y-15632960D02*
X15451120Y-15642484D01*
X15451120Y-15642484D02*
X15422548Y-15642484D01*
X15603501Y-15642484D02*
X15584453Y-15632960D01*
X15584453Y-15632960D02*
X15574929Y-15613912D01*
X15574929Y-15613912D02*
X15574929Y-15442484D01*
X15755882Y-15632960D02*
X15736834Y-15642484D01*
X15736834Y-15642484D02*
X15698739Y-15642484D01*
X15698739Y-15642484D02*
X15679691Y-15632960D01*
X15679691Y-15632960D02*
X15670167Y-15613912D01*
X15670167Y-15613912D02*
X15670167Y-15537722D01*
X15670167Y-15537722D02*
X15679691Y-15518674D01*
X15679691Y-15518674D02*
X15698739Y-15509150D01*
X15698739Y-15509150D02*
X15736834Y-15509150D01*
X15736834Y-15509150D02*
X15755882Y-15518674D01*
X15755882Y-15518674D02*
X15765405Y-15537722D01*
X15765405Y-15537722D02*
X15765405Y-15556769D01*
X15765405Y-15556769D02*
X15670167Y-15575817D01*
X15841596Y-15632960D02*
X15860643Y-15642484D01*
X15860643Y-15642484D02*
X15898739Y-15642484D01*
X15898739Y-15642484D02*
X15917786Y-15632960D01*
X15917786Y-15632960D02*
X15927310Y-15613912D01*
X15927310Y-15613912D02*
X15927310Y-15604388D01*
X15927310Y-15604388D02*
X15917786Y-15585341D01*
X15917786Y-15585341D02*
X15898739Y-15575817D01*
X15898739Y-15575817D02*
X15870167Y-15575817D01*
X15870167Y-15575817D02*
X15851120Y-15566293D01*
X15851120Y-15566293D02*
X15841596Y-15547246D01*
X15841596Y-15547246D02*
X15841596Y-15537722D01*
X15841596Y-15537722D02*
X15851120Y-15518674D01*
X15851120Y-15518674D02*
X15870167Y-15509150D01*
X15870167Y-15509150D02*
X15898739Y-15509150D01*
X15898739Y-15509150D02*
X15917786Y-15518674D01*
X15993977Y-15718674D02*
X16003501Y-15709150D01*
X16003501Y-15709150D02*
X16022548Y-15680579D01*
X16022548Y-15680579D02*
X16032072Y-15661531D01*
X16032072Y-15661531D02*
X16041596Y-15632960D01*
X16041596Y-15632960D02*
X16051120Y-15585341D01*
X16051120Y-15585341D02*
X16051120Y-15547246D01*
X16051120Y-15547246D02*
X16041596Y-15499627D01*
X16041596Y-15499627D02*
X16032072Y-15471055D01*
X16032072Y-15471055D02*
X16022548Y-15452008D01*
X16022548Y-15452008D02*
X16003501Y-15423436D01*
X16003501Y-15423436D02*
X15993977Y-15413912D01*
D11*
X10948438Y-15775000D02*
X11028438Y-15855000D01*
X11028438Y-15775000D02*
X10948438Y-15855000D01*
X11028438Y-15815000D02*
G75*
G02*
X10948438Y-15815000I-40000J0D01*
G01*
X10948438Y-15815000D02*
G75*
G02*
X11028438Y-15815000I40000J0D01*
G01*
D10*
X11327310Y-15706484D02*
X11346357Y-15706484D01*
X11346357Y-15706484D02*
X11365405Y-15716008D01*
X11365405Y-15716008D02*
X11374929Y-15725531D01*
X11374929Y-15725531D02*
X11384453Y-15744579D01*
X11384453Y-15744579D02*
X11393976Y-15782674D01*
X11393976Y-15782674D02*
X11393976Y-15830293D01*
X11393976Y-15830293D02*
X11384453Y-15868388D01*
X11384453Y-15868388D02*
X11374929Y-15887436D01*
X11374929Y-15887436D02*
X11365405Y-15896960D01*
X11365405Y-15896960D02*
X11346357Y-15906484D01*
X11346357Y-15906484D02*
X11327310Y-15906484D01*
X11327310Y-15906484D02*
X11308262Y-15896960D01*
X11308262Y-15896960D02*
X11298738Y-15887436D01*
X11298738Y-15887436D02*
X11289214Y-15868388D01*
X11289214Y-15868388D02*
X11279691Y-15830293D01*
X11279691Y-15830293D02*
X11279691Y-15782674D01*
X11279691Y-15782674D02*
X11289214Y-15744579D01*
X11289214Y-15744579D02*
X11298738Y-15725531D01*
X11298738Y-15725531D02*
X11308262Y-15716008D01*
X11308262Y-15716008D02*
X11327310Y-15706484D01*
X11479691Y-15887436D02*
X11489214Y-15896960D01*
X11489214Y-15896960D02*
X11479691Y-15906484D01*
X11479691Y-15906484D02*
X11470167Y-15896960D01*
X11470167Y-15896960D02*
X11479691Y-15887436D01*
X11479691Y-15887436D02*
X11479691Y-15906484D01*
X11603500Y-15792198D02*
X11584453Y-15782674D01*
X11584453Y-15782674D02*
X11574929Y-15773150D01*
X11574929Y-15773150D02*
X11565405Y-15754103D01*
X11565405Y-15754103D02*
X11565405Y-15744579D01*
X11565405Y-15744579D02*
X11574929Y-15725531D01*
X11574929Y-15725531D02*
X11584453Y-15716008D01*
X11584453Y-15716008D02*
X11603500Y-15706484D01*
X11603500Y-15706484D02*
X11641595Y-15706484D01*
X11641595Y-15706484D02*
X11660643Y-15716008D01*
X11660643Y-15716008D02*
X11670167Y-15725531D01*
X11670167Y-15725531D02*
X11679691Y-15744579D01*
X11679691Y-15744579D02*
X11679691Y-15754103D01*
X11679691Y-15754103D02*
X11670167Y-15773150D01*
X11670167Y-15773150D02*
X11660643Y-15782674D01*
X11660643Y-15782674D02*
X11641595Y-15792198D01*
X11641595Y-15792198D02*
X11603500Y-15792198D01*
X11603500Y-15792198D02*
X11584453Y-15801722D01*
X11584453Y-15801722D02*
X11574929Y-15811246D01*
X11574929Y-15811246D02*
X11565405Y-15830293D01*
X11565405Y-15830293D02*
X11565405Y-15868388D01*
X11565405Y-15868388D02*
X11574929Y-15887436D01*
X11574929Y-15887436D02*
X11584453Y-15896960D01*
X11584453Y-15896960D02*
X11603500Y-15906484D01*
X11603500Y-15906484D02*
X11641595Y-15906484D01*
X11641595Y-15906484D02*
X11660643Y-15896960D01*
X11660643Y-15896960D02*
X11670167Y-15887436D01*
X11670167Y-15887436D02*
X11679691Y-15868388D01*
X11679691Y-15868388D02*
X11679691Y-15830293D01*
X11679691Y-15830293D02*
X11670167Y-15811246D01*
X11670167Y-15811246D02*
X11660643Y-15801722D01*
X11660643Y-15801722D02*
X11641595Y-15792198D01*
X11803500Y-15706484D02*
X11822548Y-15706484D01*
X11822548Y-15706484D02*
X11841595Y-15716008D01*
X11841595Y-15716008D02*
X11851119Y-15725531D01*
X11851119Y-15725531D02*
X11860643Y-15744579D01*
X11860643Y-15744579D02*
X11870167Y-15782674D01*
X11870167Y-15782674D02*
X11870167Y-15830293D01*
X11870167Y-15830293D02*
X11860643Y-15868388D01*
X11860643Y-15868388D02*
X11851119Y-15887436D01*
X11851119Y-15887436D02*
X11841595Y-15896960D01*
X11841595Y-15896960D02*
X11822548Y-15906484D01*
X11822548Y-15906484D02*
X11803500Y-15906484D01*
X11803500Y-15906484D02*
X11784453Y-15896960D01*
X11784453Y-15896960D02*
X11774929Y-15887436D01*
X11774929Y-15887436D02*
X11765405Y-15868388D01*
X11765405Y-15868388D02*
X11755881Y-15830293D01*
X11755881Y-15830293D02*
X11755881Y-15782674D01*
X11755881Y-15782674D02*
X11765405Y-15744579D01*
X11765405Y-15744579D02*
X11774929Y-15725531D01*
X11774929Y-15725531D02*
X11784453Y-15716008D01*
X11784453Y-15716008D02*
X11803500Y-15706484D01*
X11993976Y-15706484D02*
X12013024Y-15706484D01*
X12013024Y-15706484D02*
X12032072Y-15716008D01*
X12032072Y-15716008D02*
X12041595Y-15725531D01*
X12041595Y-15725531D02*
X12051119Y-15744579D01*
X12051119Y-15744579D02*
X12060643Y-15782674D01*
X12060643Y-15782674D02*
X12060643Y-15830293D01*
X12060643Y-15830293D02*
X12051119Y-15868388D01*
X12051119Y-15868388D02*
X12041595Y-15887436D01*
X12041595Y-15887436D02*
X12032072Y-15896960D01*
X12032072Y-15896960D02*
X12013024Y-15906484D01*
X12013024Y-15906484D02*
X11993976Y-15906484D01*
X11993976Y-15906484D02*
X11974929Y-15896960D01*
X11974929Y-15896960D02*
X11965405Y-15887436D01*
X11965405Y-15887436D02*
X11955881Y-15868388D01*
X11955881Y-15868388D02*
X11946357Y-15830293D01*
X11946357Y-15830293D02*
X11946357Y-15782674D01*
X11946357Y-15782674D02*
X11955881Y-15744579D01*
X11955881Y-15744579D02*
X11965405Y-15725531D01*
X11965405Y-15725531D02*
X11974929Y-15716008D01*
X11974929Y-15716008D02*
X11993976Y-15706484D01*
X12146357Y-15906484D02*
X12146357Y-15773150D01*
X12146357Y-15792198D02*
X12155881Y-15782674D01*
X12155881Y-15782674D02*
X12174929Y-15773150D01*
X12174929Y-15773150D02*
X12203500Y-15773150D01*
X12203500Y-15773150D02*
X12222548Y-15782674D01*
X12222548Y-15782674D02*
X12232072Y-15801722D01*
X12232072Y-15801722D02*
X12232072Y-15906484D01*
X12232072Y-15801722D02*
X12241595Y-15782674D01*
X12241595Y-15782674D02*
X12260643Y-15773150D01*
X12260643Y-15773150D02*
X12289214Y-15773150D01*
X12289214Y-15773150D02*
X12308262Y-15782674D01*
X12308262Y-15782674D02*
X12317786Y-15801722D01*
X12317786Y-15801722D02*
X12317786Y-15906484D01*
X12413024Y-15906484D02*
X12413024Y-15773150D01*
X12413024Y-15792198D02*
X12422548Y-15782674D01*
X12422548Y-15782674D02*
X12441595Y-15773150D01*
X12441595Y-15773150D02*
X12470167Y-15773150D01*
X12470167Y-15773150D02*
X12489215Y-15782674D01*
X12489215Y-15782674D02*
X12498738Y-15801722D01*
X12498738Y-15801722D02*
X12498738Y-15906484D01*
X12498738Y-15801722D02*
X12508262Y-15782674D01*
X12508262Y-15782674D02*
X12527310Y-15773150D01*
X12527310Y-15773150D02*
X12555881Y-15773150D01*
X12555881Y-15773150D02*
X12574929Y-15782674D01*
X12574929Y-15782674D02*
X12584453Y-15801722D01*
X12584453Y-15801722D02*
X12584453Y-15906484D01*
X12974929Y-15696960D02*
X12803500Y-15954103D01*
X13232072Y-15706484D02*
X13251119Y-15706484D01*
X13251119Y-15706484D02*
X13270167Y-15716008D01*
X13270167Y-15716008D02*
X13279691Y-15725531D01*
X13279691Y-15725531D02*
X13289215Y-15744579D01*
X13289215Y-15744579D02*
X13298738Y-15782674D01*
X13298738Y-15782674D02*
X13298738Y-15830293D01*
X13298738Y-15830293D02*
X13289215Y-15868388D01*
X13289215Y-15868388D02*
X13279691Y-15887436D01*
X13279691Y-15887436D02*
X13270167Y-15896960D01*
X13270167Y-15896960D02*
X13251119Y-15906484D01*
X13251119Y-15906484D02*
X13232072Y-15906484D01*
X13232072Y-15906484D02*
X13213024Y-15896960D01*
X13213024Y-15896960D02*
X13203500Y-15887436D01*
X13203500Y-15887436D02*
X13193977Y-15868388D01*
X13193977Y-15868388D02*
X13184453Y-15830293D01*
X13184453Y-15830293D02*
X13184453Y-15782674D01*
X13184453Y-15782674D02*
X13193977Y-15744579D01*
X13193977Y-15744579D02*
X13203500Y-15725531D01*
X13203500Y-15725531D02*
X13213024Y-15716008D01*
X13213024Y-15716008D02*
X13232072Y-15706484D01*
X13384453Y-15887436D02*
X13393977Y-15896960D01*
X13393977Y-15896960D02*
X13384453Y-15906484D01*
X13384453Y-15906484D02*
X13374929Y-15896960D01*
X13374929Y-15896960D02*
X13384453Y-15887436D01*
X13384453Y-15887436D02*
X13384453Y-15906484D01*
X13517786Y-15706484D02*
X13536834Y-15706484D01*
X13536834Y-15706484D02*
X13555881Y-15716008D01*
X13555881Y-15716008D02*
X13565405Y-15725531D01*
X13565405Y-15725531D02*
X13574929Y-15744579D01*
X13574929Y-15744579D02*
X13584453Y-15782674D01*
X13584453Y-15782674D02*
X13584453Y-15830293D01*
X13584453Y-15830293D02*
X13574929Y-15868388D01*
X13574929Y-15868388D02*
X13565405Y-15887436D01*
X13565405Y-15887436D02*
X13555881Y-15896960D01*
X13555881Y-15896960D02*
X13536834Y-15906484D01*
X13536834Y-15906484D02*
X13517786Y-15906484D01*
X13517786Y-15906484D02*
X13498738Y-15896960D01*
X13498738Y-15896960D02*
X13489215Y-15887436D01*
X13489215Y-15887436D02*
X13479691Y-15868388D01*
X13479691Y-15868388D02*
X13470167Y-15830293D01*
X13470167Y-15830293D02*
X13470167Y-15782674D01*
X13470167Y-15782674D02*
X13479691Y-15744579D01*
X13479691Y-15744579D02*
X13489215Y-15725531D01*
X13489215Y-15725531D02*
X13498738Y-15716008D01*
X13498738Y-15716008D02*
X13517786Y-15706484D01*
X13651119Y-15706484D02*
X13774929Y-15706484D01*
X13774929Y-15706484D02*
X13708262Y-15782674D01*
X13708262Y-15782674D02*
X13736834Y-15782674D01*
X13736834Y-15782674D02*
X13755881Y-15792198D01*
X13755881Y-15792198D02*
X13765405Y-15801722D01*
X13765405Y-15801722D02*
X13774929Y-15820769D01*
X13774929Y-15820769D02*
X13774929Y-15868388D01*
X13774929Y-15868388D02*
X13765405Y-15887436D01*
X13765405Y-15887436D02*
X13755881Y-15896960D01*
X13755881Y-15896960D02*
X13736834Y-15906484D01*
X13736834Y-15906484D02*
X13679691Y-15906484D01*
X13679691Y-15906484D02*
X13660643Y-15896960D01*
X13660643Y-15896960D02*
X13651119Y-15887436D01*
X13965405Y-15906484D02*
X13851119Y-15906484D01*
X13908262Y-15906484D02*
X13908262Y-15706484D01*
X13908262Y-15706484D02*
X13889215Y-15735055D01*
X13889215Y-15735055D02*
X13870167Y-15754103D01*
X13870167Y-15754103D02*
X13851119Y-15763627D01*
X14146358Y-15706484D02*
X14051119Y-15706484D01*
X14051119Y-15706484D02*
X14041596Y-15801722D01*
X14041596Y-15801722D02*
X14051119Y-15792198D01*
X14051119Y-15792198D02*
X14070167Y-15782674D01*
X14070167Y-15782674D02*
X14117786Y-15782674D01*
X14117786Y-15782674D02*
X14136834Y-15792198D01*
X14136834Y-15792198D02*
X14146358Y-15801722D01*
X14146358Y-15801722D02*
X14155881Y-15820769D01*
X14155881Y-15820769D02*
X14155881Y-15868388D01*
X14155881Y-15868388D02*
X14146358Y-15887436D01*
X14146358Y-15887436D02*
X14136834Y-15896960D01*
X14136834Y-15896960D02*
X14117786Y-15906484D01*
X14117786Y-15906484D02*
X14070167Y-15906484D01*
X14070167Y-15906484D02*
X14051119Y-15896960D01*
X14051119Y-15896960D02*
X14041596Y-15887436D01*
X14232072Y-15706484D02*
X14232072Y-15744579D01*
X14308262Y-15706484D02*
X14308262Y-15744579D01*
X14603501Y-15982674D02*
X14593977Y-15973150D01*
X14593977Y-15973150D02*
X14574929Y-15944579D01*
X14574929Y-15944579D02*
X14565405Y-15925531D01*
X14565405Y-15925531D02*
X14555881Y-15896960D01*
X14555881Y-15896960D02*
X14546358Y-15849341D01*
X14546358Y-15849341D02*
X14546358Y-15811246D01*
X14546358Y-15811246D02*
X14555881Y-15763627D01*
X14555881Y-15763627D02*
X14565405Y-15735055D01*
X14565405Y-15735055D02*
X14574929Y-15716008D01*
X14574929Y-15716008D02*
X14593977Y-15687436D01*
X14593977Y-15687436D02*
X14603501Y-15677912D01*
X14765405Y-15773150D02*
X14765405Y-15906484D01*
X14717786Y-15696960D02*
X14670167Y-15839817D01*
X14670167Y-15839817D02*
X14793977Y-15839817D01*
X15022548Y-15906484D02*
X15022548Y-15706484D01*
X15108262Y-15906484D02*
X15108262Y-15801722D01*
X15108262Y-15801722D02*
X15098739Y-15782674D01*
X15098739Y-15782674D02*
X15079691Y-15773150D01*
X15079691Y-15773150D02*
X15051120Y-15773150D01*
X15051120Y-15773150D02*
X15032072Y-15782674D01*
X15032072Y-15782674D02*
X15022548Y-15792198D01*
X15232072Y-15906484D02*
X15213024Y-15896960D01*
X15213024Y-15896960D02*
X15203501Y-15887436D01*
X15203501Y-15887436D02*
X15193977Y-15868388D01*
X15193977Y-15868388D02*
X15193977Y-15811246D01*
X15193977Y-15811246D02*
X15203501Y-15792198D01*
X15203501Y-15792198D02*
X15213024Y-15782674D01*
X15213024Y-15782674D02*
X15232072Y-15773150D01*
X15232072Y-15773150D02*
X15260643Y-15773150D01*
X15260643Y-15773150D02*
X15279691Y-15782674D01*
X15279691Y-15782674D02*
X15289215Y-15792198D01*
X15289215Y-15792198D02*
X15298739Y-15811246D01*
X15298739Y-15811246D02*
X15298739Y-15868388D01*
X15298739Y-15868388D02*
X15289215Y-15887436D01*
X15289215Y-15887436D02*
X15279691Y-15896960D01*
X15279691Y-15896960D02*
X15260643Y-15906484D01*
X15260643Y-15906484D02*
X15232072Y-15906484D01*
X15413024Y-15906484D02*
X15393977Y-15896960D01*
X15393977Y-15896960D02*
X15384453Y-15877912D01*
X15384453Y-15877912D02*
X15384453Y-15706484D01*
X15565405Y-15896960D02*
X15546358Y-15906484D01*
X15546358Y-15906484D02*
X15508262Y-15906484D01*
X15508262Y-15906484D02*
X15489215Y-15896960D01*
X15489215Y-15896960D02*
X15479691Y-15877912D01*
X15479691Y-15877912D02*
X15479691Y-15801722D01*
X15479691Y-15801722D02*
X15489215Y-15782674D01*
X15489215Y-15782674D02*
X15508262Y-15773150D01*
X15508262Y-15773150D02*
X15546358Y-15773150D01*
X15546358Y-15773150D02*
X15565405Y-15782674D01*
X15565405Y-15782674D02*
X15574929Y-15801722D01*
X15574929Y-15801722D02*
X15574929Y-15820769D01*
X15574929Y-15820769D02*
X15479691Y-15839817D01*
X15651120Y-15896960D02*
X15670167Y-15906484D01*
X15670167Y-15906484D02*
X15708262Y-15906484D01*
X15708262Y-15906484D02*
X15727310Y-15896960D01*
X15727310Y-15896960D02*
X15736834Y-15877912D01*
X15736834Y-15877912D02*
X15736834Y-15868388D01*
X15736834Y-15868388D02*
X15727310Y-15849341D01*
X15727310Y-15849341D02*
X15708262Y-15839817D01*
X15708262Y-15839817D02*
X15679691Y-15839817D01*
X15679691Y-15839817D02*
X15660643Y-15830293D01*
X15660643Y-15830293D02*
X15651120Y-15811246D01*
X15651120Y-15811246D02*
X15651120Y-15801722D01*
X15651120Y-15801722D02*
X15660643Y-15782674D01*
X15660643Y-15782674D02*
X15679691Y-15773150D01*
X15679691Y-15773150D02*
X15708262Y-15773150D01*
X15708262Y-15773150D02*
X15727310Y-15782674D01*
X15803501Y-15982674D02*
X15813024Y-15973150D01*
X15813024Y-15973150D02*
X15832072Y-15944579D01*
X15832072Y-15944579D02*
X15841596Y-15925531D01*
X15841596Y-15925531D02*
X15851120Y-15896960D01*
X15851120Y-15896960D02*
X15860643Y-15849341D01*
X15860643Y-15849341D02*
X15860643Y-15811246D01*
X15860643Y-15811246D02*
X15851120Y-15763627D01*
X15851120Y-15763627D02*
X15841596Y-15735055D01*
X15841596Y-15735055D02*
X15832072Y-15716008D01*
X15832072Y-15716008D02*
X15813024Y-15687436D01*
X15813024Y-15687436D02*
X15803501Y-15677912D01*
D11*
X10933438Y-16031500D02*
X11028438Y-16126500D01*
X11028438Y-16031500D02*
X10933438Y-16126500D01*
X10980938Y-16031500D02*
X10980938Y-16126500D01*
X10933438Y-16079000D02*
X11028438Y-16079000D01*
D10*
X11327310Y-15970484D02*
X11346357Y-15970484D01*
X11346357Y-15970484D02*
X11365405Y-15980008D01*
X11365405Y-15980008D02*
X11374929Y-15989531D01*
X11374929Y-15989531D02*
X11384453Y-16008579D01*
X11384453Y-16008579D02*
X11393976Y-16046674D01*
X11393976Y-16046674D02*
X11393976Y-16094293D01*
X11393976Y-16094293D02*
X11384453Y-16132388D01*
X11384453Y-16132388D02*
X11374929Y-16151436D01*
X11374929Y-16151436D02*
X11365405Y-16160960D01*
X11365405Y-16160960D02*
X11346357Y-16170484D01*
X11346357Y-16170484D02*
X11327310Y-16170484D01*
X11327310Y-16170484D02*
X11308262Y-16160960D01*
X11308262Y-16160960D02*
X11298738Y-16151436D01*
X11298738Y-16151436D02*
X11289214Y-16132388D01*
X11289214Y-16132388D02*
X11279691Y-16094293D01*
X11279691Y-16094293D02*
X11279691Y-16046674D01*
X11279691Y-16046674D02*
X11289214Y-16008579D01*
X11289214Y-16008579D02*
X11298738Y-15989531D01*
X11298738Y-15989531D02*
X11308262Y-15980008D01*
X11308262Y-15980008D02*
X11327310Y-15970484D01*
X11479691Y-16151436D02*
X11489214Y-16160960D01*
X11489214Y-16160960D02*
X11479691Y-16170484D01*
X11479691Y-16170484D02*
X11470167Y-16160960D01*
X11470167Y-16160960D02*
X11479691Y-16151436D01*
X11479691Y-16151436D02*
X11479691Y-16170484D01*
X11584453Y-16170484D02*
X11622548Y-16170484D01*
X11622548Y-16170484D02*
X11641595Y-16160960D01*
X11641595Y-16160960D02*
X11651119Y-16151436D01*
X11651119Y-16151436D02*
X11670167Y-16122865D01*
X11670167Y-16122865D02*
X11679691Y-16084769D01*
X11679691Y-16084769D02*
X11679691Y-16008579D01*
X11679691Y-16008579D02*
X11670167Y-15989531D01*
X11670167Y-15989531D02*
X11660643Y-15980008D01*
X11660643Y-15980008D02*
X11641595Y-15970484D01*
X11641595Y-15970484D02*
X11603500Y-15970484D01*
X11603500Y-15970484D02*
X11584453Y-15980008D01*
X11584453Y-15980008D02*
X11574929Y-15989531D01*
X11574929Y-15989531D02*
X11565405Y-16008579D01*
X11565405Y-16008579D02*
X11565405Y-16056198D01*
X11565405Y-16056198D02*
X11574929Y-16075246D01*
X11574929Y-16075246D02*
X11584453Y-16084769D01*
X11584453Y-16084769D02*
X11603500Y-16094293D01*
X11603500Y-16094293D02*
X11641595Y-16094293D01*
X11641595Y-16094293D02*
X11660643Y-16084769D01*
X11660643Y-16084769D02*
X11670167Y-16075246D01*
X11670167Y-16075246D02*
X11679691Y-16056198D01*
X11860643Y-15970484D02*
X11765405Y-15970484D01*
X11765405Y-15970484D02*
X11755881Y-16065722D01*
X11755881Y-16065722D02*
X11765405Y-16056198D01*
X11765405Y-16056198D02*
X11784453Y-16046674D01*
X11784453Y-16046674D02*
X11832072Y-16046674D01*
X11832072Y-16046674D02*
X11851119Y-16056198D01*
X11851119Y-16056198D02*
X11860643Y-16065722D01*
X11860643Y-16065722D02*
X11870167Y-16084769D01*
X11870167Y-16084769D02*
X11870167Y-16132388D01*
X11870167Y-16132388D02*
X11860643Y-16151436D01*
X11860643Y-16151436D02*
X11851119Y-16160960D01*
X11851119Y-16160960D02*
X11832072Y-16170484D01*
X11832072Y-16170484D02*
X11784453Y-16170484D01*
X11784453Y-16170484D02*
X11765405Y-16160960D01*
X11765405Y-16160960D02*
X11755881Y-16151436D01*
X11993976Y-15970484D02*
X12013024Y-15970484D01*
X12013024Y-15970484D02*
X12032072Y-15980008D01*
X12032072Y-15980008D02*
X12041595Y-15989531D01*
X12041595Y-15989531D02*
X12051119Y-16008579D01*
X12051119Y-16008579D02*
X12060643Y-16046674D01*
X12060643Y-16046674D02*
X12060643Y-16094293D01*
X12060643Y-16094293D02*
X12051119Y-16132388D01*
X12051119Y-16132388D02*
X12041595Y-16151436D01*
X12041595Y-16151436D02*
X12032072Y-16160960D01*
X12032072Y-16160960D02*
X12013024Y-16170484D01*
X12013024Y-16170484D02*
X11993976Y-16170484D01*
X11993976Y-16170484D02*
X11974929Y-16160960D01*
X11974929Y-16160960D02*
X11965405Y-16151436D01*
X11965405Y-16151436D02*
X11955881Y-16132388D01*
X11955881Y-16132388D02*
X11946357Y-16094293D01*
X11946357Y-16094293D02*
X11946357Y-16046674D01*
X11946357Y-16046674D02*
X11955881Y-16008579D01*
X11955881Y-16008579D02*
X11965405Y-15989531D01*
X11965405Y-15989531D02*
X11974929Y-15980008D01*
X11974929Y-15980008D02*
X11993976Y-15970484D01*
X12146357Y-16170484D02*
X12146357Y-16037150D01*
X12146357Y-16056198D02*
X12155881Y-16046674D01*
X12155881Y-16046674D02*
X12174929Y-16037150D01*
X12174929Y-16037150D02*
X12203500Y-16037150D01*
X12203500Y-16037150D02*
X12222548Y-16046674D01*
X12222548Y-16046674D02*
X12232072Y-16065722D01*
X12232072Y-16065722D02*
X12232072Y-16170484D01*
X12232072Y-16065722D02*
X12241595Y-16046674D01*
X12241595Y-16046674D02*
X12260643Y-16037150D01*
X12260643Y-16037150D02*
X12289214Y-16037150D01*
X12289214Y-16037150D02*
X12308262Y-16046674D01*
X12308262Y-16046674D02*
X12317786Y-16065722D01*
X12317786Y-16065722D02*
X12317786Y-16170484D01*
X12413024Y-16170484D02*
X12413024Y-16037150D01*
X12413024Y-16056198D02*
X12422548Y-16046674D01*
X12422548Y-16046674D02*
X12441595Y-16037150D01*
X12441595Y-16037150D02*
X12470167Y-16037150D01*
X12470167Y-16037150D02*
X12489215Y-16046674D01*
X12489215Y-16046674D02*
X12498738Y-16065722D01*
X12498738Y-16065722D02*
X12498738Y-16170484D01*
X12498738Y-16065722D02*
X12508262Y-16046674D01*
X12508262Y-16046674D02*
X12527310Y-16037150D01*
X12527310Y-16037150D02*
X12555881Y-16037150D01*
X12555881Y-16037150D02*
X12574929Y-16046674D01*
X12574929Y-16046674D02*
X12584453Y-16065722D01*
X12584453Y-16065722D02*
X12584453Y-16170484D01*
X12974929Y-15960960D02*
X12803500Y-16218103D01*
X13232072Y-15970484D02*
X13251119Y-15970484D01*
X13251119Y-15970484D02*
X13270167Y-15980008D01*
X13270167Y-15980008D02*
X13279691Y-15989531D01*
X13279691Y-15989531D02*
X13289215Y-16008579D01*
X13289215Y-16008579D02*
X13298738Y-16046674D01*
X13298738Y-16046674D02*
X13298738Y-16094293D01*
X13298738Y-16094293D02*
X13289215Y-16132388D01*
X13289215Y-16132388D02*
X13279691Y-16151436D01*
X13279691Y-16151436D02*
X13270167Y-16160960D01*
X13270167Y-16160960D02*
X13251119Y-16170484D01*
X13251119Y-16170484D02*
X13232072Y-16170484D01*
X13232072Y-16170484D02*
X13213024Y-16160960D01*
X13213024Y-16160960D02*
X13203500Y-16151436D01*
X13203500Y-16151436D02*
X13193977Y-16132388D01*
X13193977Y-16132388D02*
X13184453Y-16094293D01*
X13184453Y-16094293D02*
X13184453Y-16046674D01*
X13184453Y-16046674D02*
X13193977Y-16008579D01*
X13193977Y-16008579D02*
X13203500Y-15989531D01*
X13203500Y-15989531D02*
X13213024Y-15980008D01*
X13213024Y-15980008D02*
X13232072Y-15970484D01*
X13384453Y-16151436D02*
X13393977Y-16160960D01*
X13393977Y-16160960D02*
X13384453Y-16170484D01*
X13384453Y-16170484D02*
X13374929Y-16160960D01*
X13374929Y-16160960D02*
X13384453Y-16151436D01*
X13384453Y-16151436D02*
X13384453Y-16170484D01*
X13517786Y-15970484D02*
X13536834Y-15970484D01*
X13536834Y-15970484D02*
X13555881Y-15980008D01*
X13555881Y-15980008D02*
X13565405Y-15989531D01*
X13565405Y-15989531D02*
X13574929Y-16008579D01*
X13574929Y-16008579D02*
X13584453Y-16046674D01*
X13584453Y-16046674D02*
X13584453Y-16094293D01*
X13584453Y-16094293D02*
X13574929Y-16132388D01*
X13574929Y-16132388D02*
X13565405Y-16151436D01*
X13565405Y-16151436D02*
X13555881Y-16160960D01*
X13555881Y-16160960D02*
X13536834Y-16170484D01*
X13536834Y-16170484D02*
X13517786Y-16170484D01*
X13517786Y-16170484D02*
X13498738Y-16160960D01*
X13498738Y-16160960D02*
X13489215Y-16151436D01*
X13489215Y-16151436D02*
X13479691Y-16132388D01*
X13479691Y-16132388D02*
X13470167Y-16094293D01*
X13470167Y-16094293D02*
X13470167Y-16046674D01*
X13470167Y-16046674D02*
X13479691Y-16008579D01*
X13479691Y-16008579D02*
X13489215Y-15989531D01*
X13489215Y-15989531D02*
X13498738Y-15980008D01*
X13498738Y-15980008D02*
X13517786Y-15970484D01*
X13651119Y-15970484D02*
X13774929Y-15970484D01*
X13774929Y-15970484D02*
X13708262Y-16046674D01*
X13708262Y-16046674D02*
X13736834Y-16046674D01*
X13736834Y-16046674D02*
X13755881Y-16056198D01*
X13755881Y-16056198D02*
X13765405Y-16065722D01*
X13765405Y-16065722D02*
X13774929Y-16084769D01*
X13774929Y-16084769D02*
X13774929Y-16132388D01*
X13774929Y-16132388D02*
X13765405Y-16151436D01*
X13765405Y-16151436D02*
X13755881Y-16160960D01*
X13755881Y-16160960D02*
X13736834Y-16170484D01*
X13736834Y-16170484D02*
X13679691Y-16170484D01*
X13679691Y-16170484D02*
X13660643Y-16160960D01*
X13660643Y-16160960D02*
X13651119Y-16151436D01*
X13841596Y-15970484D02*
X13974929Y-15970484D01*
X13974929Y-15970484D02*
X13889215Y-16170484D01*
X14136834Y-16037150D02*
X14136834Y-16170484D01*
X14089215Y-15960960D02*
X14041596Y-16103817D01*
X14041596Y-16103817D02*
X14165405Y-16103817D01*
X14232072Y-15970484D02*
X14232072Y-16008579D01*
X14308262Y-15970484D02*
X14308262Y-16008579D01*
X14603501Y-16246674D02*
X14593977Y-16237150D01*
X14593977Y-16237150D02*
X14574929Y-16208579D01*
X14574929Y-16208579D02*
X14565405Y-16189531D01*
X14565405Y-16189531D02*
X14555881Y-16160960D01*
X14555881Y-16160960D02*
X14546358Y-16113341D01*
X14546358Y-16113341D02*
X14546358Y-16075246D01*
X14546358Y-16075246D02*
X14555881Y-16027627D01*
X14555881Y-16027627D02*
X14565405Y-15999055D01*
X14565405Y-15999055D02*
X14574929Y-15980008D01*
X14574929Y-15980008D02*
X14593977Y-15951436D01*
X14593977Y-15951436D02*
X14603501Y-15941912D01*
X14660643Y-15970484D02*
X14784453Y-15970484D01*
X14784453Y-15970484D02*
X14717786Y-16046674D01*
X14717786Y-16046674D02*
X14746358Y-16046674D01*
X14746358Y-16046674D02*
X14765405Y-16056198D01*
X14765405Y-16056198D02*
X14774929Y-16065722D01*
X14774929Y-16065722D02*
X14784453Y-16084769D01*
X14784453Y-16084769D02*
X14784453Y-16132388D01*
X14784453Y-16132388D02*
X14774929Y-16151436D01*
X14774929Y-16151436D02*
X14765405Y-16160960D01*
X14765405Y-16160960D02*
X14746358Y-16170484D01*
X14746358Y-16170484D02*
X14689215Y-16170484D01*
X14689215Y-16170484D02*
X14670167Y-16160960D01*
X14670167Y-16160960D02*
X14660643Y-16151436D01*
X15022548Y-16170484D02*
X15022548Y-15970484D01*
X15108262Y-16170484D02*
X15108262Y-16065722D01*
X15108262Y-16065722D02*
X15098739Y-16046674D01*
X15098739Y-16046674D02*
X15079691Y-16037150D01*
X15079691Y-16037150D02*
X15051120Y-16037150D01*
X15051120Y-16037150D02*
X15032072Y-16046674D01*
X15032072Y-16046674D02*
X15022548Y-16056198D01*
X15232072Y-16170484D02*
X15213024Y-16160960D01*
X15213024Y-16160960D02*
X15203501Y-16151436D01*
X15203501Y-16151436D02*
X15193977Y-16132388D01*
X15193977Y-16132388D02*
X15193977Y-16075246D01*
X15193977Y-16075246D02*
X15203501Y-16056198D01*
X15203501Y-16056198D02*
X15213024Y-16046674D01*
X15213024Y-16046674D02*
X15232072Y-16037150D01*
X15232072Y-16037150D02*
X15260643Y-16037150D01*
X15260643Y-16037150D02*
X15279691Y-16046674D01*
X15279691Y-16046674D02*
X15289215Y-16056198D01*
X15289215Y-16056198D02*
X15298739Y-16075246D01*
X15298739Y-16075246D02*
X15298739Y-16132388D01*
X15298739Y-16132388D02*
X15289215Y-16151436D01*
X15289215Y-16151436D02*
X15279691Y-16160960D01*
X15279691Y-16160960D02*
X15260643Y-16170484D01*
X15260643Y-16170484D02*
X15232072Y-16170484D01*
X15413024Y-16170484D02*
X15393977Y-16160960D01*
X15393977Y-16160960D02*
X15384453Y-16141912D01*
X15384453Y-16141912D02*
X15384453Y-15970484D01*
X15565405Y-16160960D02*
X15546358Y-16170484D01*
X15546358Y-16170484D02*
X15508262Y-16170484D01*
X15508262Y-16170484D02*
X15489215Y-16160960D01*
X15489215Y-16160960D02*
X15479691Y-16141912D01*
X15479691Y-16141912D02*
X15479691Y-16065722D01*
X15479691Y-16065722D02*
X15489215Y-16046674D01*
X15489215Y-16046674D02*
X15508262Y-16037150D01*
X15508262Y-16037150D02*
X15546358Y-16037150D01*
X15546358Y-16037150D02*
X15565405Y-16046674D01*
X15565405Y-16046674D02*
X15574929Y-16065722D01*
X15574929Y-16065722D02*
X15574929Y-16084769D01*
X15574929Y-16084769D02*
X15479691Y-16103817D01*
X15651120Y-16160960D02*
X15670167Y-16170484D01*
X15670167Y-16170484D02*
X15708262Y-16170484D01*
X15708262Y-16170484D02*
X15727310Y-16160960D01*
X15727310Y-16160960D02*
X15736834Y-16141912D01*
X15736834Y-16141912D02*
X15736834Y-16132388D01*
X15736834Y-16132388D02*
X15727310Y-16113341D01*
X15727310Y-16113341D02*
X15708262Y-16103817D01*
X15708262Y-16103817D02*
X15679691Y-16103817D01*
X15679691Y-16103817D02*
X15660643Y-16094293D01*
X15660643Y-16094293D02*
X15651120Y-16075246D01*
X15651120Y-16075246D02*
X15651120Y-16065722D01*
X15651120Y-16065722D02*
X15660643Y-16046674D01*
X15660643Y-16046674D02*
X15679691Y-16037150D01*
X15679691Y-16037150D02*
X15708262Y-16037150D01*
X15708262Y-16037150D02*
X15727310Y-16046674D01*
X15803501Y-16246674D02*
X15813024Y-16237150D01*
X15813024Y-16237150D02*
X15832072Y-16208579D01*
X15832072Y-16208579D02*
X15841596Y-16189531D01*
X15841596Y-16189531D02*
X15851120Y-16160960D01*
X15851120Y-16160960D02*
X15860643Y-16113341D01*
X15860643Y-16113341D02*
X15860643Y-16075246D01*
X15860643Y-16075246D02*
X15851120Y-16027627D01*
X15851120Y-16027627D02*
X15841596Y-15999055D01*
X15841596Y-15999055D02*
X15832072Y-15980008D01*
X15832072Y-15980008D02*
X15813024Y-15951436D01*
X15813024Y-15951436D02*
X15803501Y-15941912D01*
D11*
X10928438Y-16293000D02*
X11028438Y-16393000D01*
X11028438Y-16293000D02*
X10928438Y-16393000D01*
X11013793Y-16378356D02*
X11013793Y-16307644D01*
X10943082Y-16307644D01*
X10943082Y-16378356D01*
X11013793Y-16378356D01*
D10*
X11393976Y-16434484D02*
X11279691Y-16434484D01*
X11336833Y-16434484D02*
X11336833Y-16234484D01*
X11336833Y-16234484D02*
X11317786Y-16263055D01*
X11317786Y-16263055D02*
X11298738Y-16282103D01*
X11298738Y-16282103D02*
X11279691Y-16291627D01*
X11479691Y-16415436D02*
X11489214Y-16424960D01*
X11489214Y-16424960D02*
X11479691Y-16434484D01*
X11479691Y-16434484D02*
X11470167Y-16424960D01*
X11470167Y-16424960D02*
X11479691Y-16415436D01*
X11479691Y-16415436D02*
X11479691Y-16434484D01*
X11613024Y-16234484D02*
X11632072Y-16234484D01*
X11632072Y-16234484D02*
X11651119Y-16244008D01*
X11651119Y-16244008D02*
X11660643Y-16253531D01*
X11660643Y-16253531D02*
X11670167Y-16272579D01*
X11670167Y-16272579D02*
X11679691Y-16310674D01*
X11679691Y-16310674D02*
X11679691Y-16358293D01*
X11679691Y-16358293D02*
X11670167Y-16396388D01*
X11670167Y-16396388D02*
X11660643Y-16415436D01*
X11660643Y-16415436D02*
X11651119Y-16424960D01*
X11651119Y-16424960D02*
X11632072Y-16434484D01*
X11632072Y-16434484D02*
X11613024Y-16434484D01*
X11613024Y-16434484D02*
X11593976Y-16424960D01*
X11593976Y-16424960D02*
X11584453Y-16415436D01*
X11584453Y-16415436D02*
X11574929Y-16396388D01*
X11574929Y-16396388D02*
X11565405Y-16358293D01*
X11565405Y-16358293D02*
X11565405Y-16310674D01*
X11565405Y-16310674D02*
X11574929Y-16272579D01*
X11574929Y-16272579D02*
X11584453Y-16253531D01*
X11584453Y-16253531D02*
X11593976Y-16244008D01*
X11593976Y-16244008D02*
X11613024Y-16234484D01*
X11803500Y-16234484D02*
X11822548Y-16234484D01*
X11822548Y-16234484D02*
X11841595Y-16244008D01*
X11841595Y-16244008D02*
X11851119Y-16253531D01*
X11851119Y-16253531D02*
X11860643Y-16272579D01*
X11860643Y-16272579D02*
X11870167Y-16310674D01*
X11870167Y-16310674D02*
X11870167Y-16358293D01*
X11870167Y-16358293D02*
X11860643Y-16396388D01*
X11860643Y-16396388D02*
X11851119Y-16415436D01*
X11851119Y-16415436D02*
X11841595Y-16424960D01*
X11841595Y-16424960D02*
X11822548Y-16434484D01*
X11822548Y-16434484D02*
X11803500Y-16434484D01*
X11803500Y-16434484D02*
X11784453Y-16424960D01*
X11784453Y-16424960D02*
X11774929Y-16415436D01*
X11774929Y-16415436D02*
X11765405Y-16396388D01*
X11765405Y-16396388D02*
X11755881Y-16358293D01*
X11755881Y-16358293D02*
X11755881Y-16310674D01*
X11755881Y-16310674D02*
X11765405Y-16272579D01*
X11765405Y-16272579D02*
X11774929Y-16253531D01*
X11774929Y-16253531D02*
X11784453Y-16244008D01*
X11784453Y-16244008D02*
X11803500Y-16234484D01*
X11993976Y-16234484D02*
X12013024Y-16234484D01*
X12013024Y-16234484D02*
X12032072Y-16244008D01*
X12032072Y-16244008D02*
X12041595Y-16253531D01*
X12041595Y-16253531D02*
X12051119Y-16272579D01*
X12051119Y-16272579D02*
X12060643Y-16310674D01*
X12060643Y-16310674D02*
X12060643Y-16358293D01*
X12060643Y-16358293D02*
X12051119Y-16396388D01*
X12051119Y-16396388D02*
X12041595Y-16415436D01*
X12041595Y-16415436D02*
X12032072Y-16424960D01*
X12032072Y-16424960D02*
X12013024Y-16434484D01*
X12013024Y-16434484D02*
X11993976Y-16434484D01*
X11993976Y-16434484D02*
X11974929Y-16424960D01*
X11974929Y-16424960D02*
X11965405Y-16415436D01*
X11965405Y-16415436D02*
X11955881Y-16396388D01*
X11955881Y-16396388D02*
X11946357Y-16358293D01*
X11946357Y-16358293D02*
X11946357Y-16310674D01*
X11946357Y-16310674D02*
X11955881Y-16272579D01*
X11955881Y-16272579D02*
X11965405Y-16253531D01*
X11965405Y-16253531D02*
X11974929Y-16244008D01*
X11974929Y-16244008D02*
X11993976Y-16234484D01*
X12146357Y-16434484D02*
X12146357Y-16301150D01*
X12146357Y-16320198D02*
X12155881Y-16310674D01*
X12155881Y-16310674D02*
X12174929Y-16301150D01*
X12174929Y-16301150D02*
X12203500Y-16301150D01*
X12203500Y-16301150D02*
X12222548Y-16310674D01*
X12222548Y-16310674D02*
X12232072Y-16329722D01*
X12232072Y-16329722D02*
X12232072Y-16434484D01*
X12232072Y-16329722D02*
X12241595Y-16310674D01*
X12241595Y-16310674D02*
X12260643Y-16301150D01*
X12260643Y-16301150D02*
X12289214Y-16301150D01*
X12289214Y-16301150D02*
X12308262Y-16310674D01*
X12308262Y-16310674D02*
X12317786Y-16329722D01*
X12317786Y-16329722D02*
X12317786Y-16434484D01*
X12413024Y-16434484D02*
X12413024Y-16301150D01*
X12413024Y-16320198D02*
X12422548Y-16310674D01*
X12422548Y-16310674D02*
X12441595Y-16301150D01*
X12441595Y-16301150D02*
X12470167Y-16301150D01*
X12470167Y-16301150D02*
X12489215Y-16310674D01*
X12489215Y-16310674D02*
X12498738Y-16329722D01*
X12498738Y-16329722D02*
X12498738Y-16434484D01*
X12498738Y-16329722D02*
X12508262Y-16310674D01*
X12508262Y-16310674D02*
X12527310Y-16301150D01*
X12527310Y-16301150D02*
X12555881Y-16301150D01*
X12555881Y-16301150D02*
X12574929Y-16310674D01*
X12574929Y-16310674D02*
X12584453Y-16329722D01*
X12584453Y-16329722D02*
X12584453Y-16434484D01*
X12974929Y-16224960D02*
X12803500Y-16482103D01*
X13232072Y-16234484D02*
X13251119Y-16234484D01*
X13251119Y-16234484D02*
X13270167Y-16244008D01*
X13270167Y-16244008D02*
X13279691Y-16253531D01*
X13279691Y-16253531D02*
X13289215Y-16272579D01*
X13289215Y-16272579D02*
X13298738Y-16310674D01*
X13298738Y-16310674D02*
X13298738Y-16358293D01*
X13298738Y-16358293D02*
X13289215Y-16396388D01*
X13289215Y-16396388D02*
X13279691Y-16415436D01*
X13279691Y-16415436D02*
X13270167Y-16424960D01*
X13270167Y-16424960D02*
X13251119Y-16434484D01*
X13251119Y-16434484D02*
X13232072Y-16434484D01*
X13232072Y-16434484D02*
X13213024Y-16424960D01*
X13213024Y-16424960D02*
X13203500Y-16415436D01*
X13203500Y-16415436D02*
X13193977Y-16396388D01*
X13193977Y-16396388D02*
X13184453Y-16358293D01*
X13184453Y-16358293D02*
X13184453Y-16310674D01*
X13184453Y-16310674D02*
X13193977Y-16272579D01*
X13193977Y-16272579D02*
X13203500Y-16253531D01*
X13203500Y-16253531D02*
X13213024Y-16244008D01*
X13213024Y-16244008D02*
X13232072Y-16234484D01*
X13384453Y-16415436D02*
X13393977Y-16424960D01*
X13393977Y-16424960D02*
X13384453Y-16434484D01*
X13384453Y-16434484D02*
X13374929Y-16424960D01*
X13374929Y-16424960D02*
X13384453Y-16415436D01*
X13384453Y-16415436D02*
X13384453Y-16434484D01*
X13517786Y-16234484D02*
X13536834Y-16234484D01*
X13536834Y-16234484D02*
X13555881Y-16244008D01*
X13555881Y-16244008D02*
X13565405Y-16253531D01*
X13565405Y-16253531D02*
X13574929Y-16272579D01*
X13574929Y-16272579D02*
X13584453Y-16310674D01*
X13584453Y-16310674D02*
X13584453Y-16358293D01*
X13584453Y-16358293D02*
X13574929Y-16396388D01*
X13574929Y-16396388D02*
X13565405Y-16415436D01*
X13565405Y-16415436D02*
X13555881Y-16424960D01*
X13555881Y-16424960D02*
X13536834Y-16434484D01*
X13536834Y-16434484D02*
X13517786Y-16434484D01*
X13517786Y-16434484D02*
X13498738Y-16424960D01*
X13498738Y-16424960D02*
X13489215Y-16415436D01*
X13489215Y-16415436D02*
X13479691Y-16396388D01*
X13479691Y-16396388D02*
X13470167Y-16358293D01*
X13470167Y-16358293D02*
X13470167Y-16310674D01*
X13470167Y-16310674D02*
X13479691Y-16272579D01*
X13479691Y-16272579D02*
X13489215Y-16253531D01*
X13489215Y-16253531D02*
X13498738Y-16244008D01*
X13498738Y-16244008D02*
X13517786Y-16234484D01*
X13651119Y-16234484D02*
X13774929Y-16234484D01*
X13774929Y-16234484D02*
X13708262Y-16310674D01*
X13708262Y-16310674D02*
X13736834Y-16310674D01*
X13736834Y-16310674D02*
X13755881Y-16320198D01*
X13755881Y-16320198D02*
X13765405Y-16329722D01*
X13765405Y-16329722D02*
X13774929Y-16348769D01*
X13774929Y-16348769D02*
X13774929Y-16396388D01*
X13774929Y-16396388D02*
X13765405Y-16415436D01*
X13765405Y-16415436D02*
X13755881Y-16424960D01*
X13755881Y-16424960D02*
X13736834Y-16434484D01*
X13736834Y-16434484D02*
X13679691Y-16434484D01*
X13679691Y-16434484D02*
X13660643Y-16424960D01*
X13660643Y-16424960D02*
X13651119Y-16415436D01*
X13870167Y-16434484D02*
X13908262Y-16434484D01*
X13908262Y-16434484D02*
X13927310Y-16424960D01*
X13927310Y-16424960D02*
X13936834Y-16415436D01*
X13936834Y-16415436D02*
X13955881Y-16386865D01*
X13955881Y-16386865D02*
X13965405Y-16348769D01*
X13965405Y-16348769D02*
X13965405Y-16272579D01*
X13965405Y-16272579D02*
X13955881Y-16253531D01*
X13955881Y-16253531D02*
X13946358Y-16244008D01*
X13946358Y-16244008D02*
X13927310Y-16234484D01*
X13927310Y-16234484D02*
X13889215Y-16234484D01*
X13889215Y-16234484D02*
X13870167Y-16244008D01*
X13870167Y-16244008D02*
X13860643Y-16253531D01*
X13860643Y-16253531D02*
X13851119Y-16272579D01*
X13851119Y-16272579D02*
X13851119Y-16320198D01*
X13851119Y-16320198D02*
X13860643Y-16339246D01*
X13860643Y-16339246D02*
X13870167Y-16348769D01*
X13870167Y-16348769D02*
X13889215Y-16358293D01*
X13889215Y-16358293D02*
X13927310Y-16358293D01*
X13927310Y-16358293D02*
X13946358Y-16348769D01*
X13946358Y-16348769D02*
X13955881Y-16339246D01*
X13955881Y-16339246D02*
X13965405Y-16320198D01*
X14136834Y-16301150D02*
X14136834Y-16434484D01*
X14089215Y-16224960D02*
X14041596Y-16367817D01*
X14041596Y-16367817D02*
X14165405Y-16367817D01*
X14232072Y-16234484D02*
X14232072Y-16272579D01*
X14308262Y-16234484D02*
X14308262Y-16272579D01*
X14603501Y-16510674D02*
X14593977Y-16501150D01*
X14593977Y-16501150D02*
X14574929Y-16472579D01*
X14574929Y-16472579D02*
X14565405Y-16453531D01*
X14565405Y-16453531D02*
X14555881Y-16424960D01*
X14555881Y-16424960D02*
X14546358Y-16377341D01*
X14546358Y-16377341D02*
X14546358Y-16339246D01*
X14546358Y-16339246D02*
X14555881Y-16291627D01*
X14555881Y-16291627D02*
X14565405Y-16263055D01*
X14565405Y-16263055D02*
X14574929Y-16244008D01*
X14574929Y-16244008D02*
X14593977Y-16215436D01*
X14593977Y-16215436D02*
X14603501Y-16205912D01*
X14708262Y-16320198D02*
X14689215Y-16310674D01*
X14689215Y-16310674D02*
X14679691Y-16301150D01*
X14679691Y-16301150D02*
X14670167Y-16282103D01*
X14670167Y-16282103D02*
X14670167Y-16272579D01*
X14670167Y-16272579D02*
X14679691Y-16253531D01*
X14679691Y-16253531D02*
X14689215Y-16244008D01*
X14689215Y-16244008D02*
X14708262Y-16234484D01*
X14708262Y-16234484D02*
X14746358Y-16234484D01*
X14746358Y-16234484D02*
X14765405Y-16244008D01*
X14765405Y-16244008D02*
X14774929Y-16253531D01*
X14774929Y-16253531D02*
X14784453Y-16272579D01*
X14784453Y-16272579D02*
X14784453Y-16282103D01*
X14784453Y-16282103D02*
X14774929Y-16301150D01*
X14774929Y-16301150D02*
X14765405Y-16310674D01*
X14765405Y-16310674D02*
X14746358Y-16320198D01*
X14746358Y-16320198D02*
X14708262Y-16320198D01*
X14708262Y-16320198D02*
X14689215Y-16329722D01*
X14689215Y-16329722D02*
X14679691Y-16339246D01*
X14679691Y-16339246D02*
X14670167Y-16358293D01*
X14670167Y-16358293D02*
X14670167Y-16396388D01*
X14670167Y-16396388D02*
X14679691Y-16415436D01*
X14679691Y-16415436D02*
X14689215Y-16424960D01*
X14689215Y-16424960D02*
X14708262Y-16434484D01*
X14708262Y-16434484D02*
X14746358Y-16434484D01*
X14746358Y-16434484D02*
X14765405Y-16424960D01*
X14765405Y-16424960D02*
X14774929Y-16415436D01*
X14774929Y-16415436D02*
X14784453Y-16396388D01*
X14784453Y-16396388D02*
X14784453Y-16358293D01*
X14784453Y-16358293D02*
X14774929Y-16339246D01*
X14774929Y-16339246D02*
X14765405Y-16329722D01*
X14765405Y-16329722D02*
X14746358Y-16320198D01*
X15022548Y-16434484D02*
X15022548Y-16234484D01*
X15108262Y-16434484D02*
X15108262Y-16329722D01*
X15108262Y-16329722D02*
X15098739Y-16310674D01*
X15098739Y-16310674D02*
X15079691Y-16301150D01*
X15079691Y-16301150D02*
X15051120Y-16301150D01*
X15051120Y-16301150D02*
X15032072Y-16310674D01*
X15032072Y-16310674D02*
X15022548Y-16320198D01*
X15232072Y-16434484D02*
X15213024Y-16424960D01*
X15213024Y-16424960D02*
X15203501Y-16415436D01*
X15203501Y-16415436D02*
X15193977Y-16396388D01*
X15193977Y-16396388D02*
X15193977Y-16339246D01*
X15193977Y-16339246D02*
X15203501Y-16320198D01*
X15203501Y-16320198D02*
X15213024Y-16310674D01*
X15213024Y-16310674D02*
X15232072Y-16301150D01*
X15232072Y-16301150D02*
X15260643Y-16301150D01*
X15260643Y-16301150D02*
X15279691Y-16310674D01*
X15279691Y-16310674D02*
X15289215Y-16320198D01*
X15289215Y-16320198D02*
X15298739Y-16339246D01*
X15298739Y-16339246D02*
X15298739Y-16396388D01*
X15298739Y-16396388D02*
X15289215Y-16415436D01*
X15289215Y-16415436D02*
X15279691Y-16424960D01*
X15279691Y-16424960D02*
X15260643Y-16434484D01*
X15260643Y-16434484D02*
X15232072Y-16434484D01*
X15413024Y-16434484D02*
X15393977Y-16424960D01*
X15393977Y-16424960D02*
X15384453Y-16405912D01*
X15384453Y-16405912D02*
X15384453Y-16234484D01*
X15565405Y-16424960D02*
X15546358Y-16434484D01*
X15546358Y-16434484D02*
X15508262Y-16434484D01*
X15508262Y-16434484D02*
X15489215Y-16424960D01*
X15489215Y-16424960D02*
X15479691Y-16405912D01*
X15479691Y-16405912D02*
X15479691Y-16329722D01*
X15479691Y-16329722D02*
X15489215Y-16310674D01*
X15489215Y-16310674D02*
X15508262Y-16301150D01*
X15508262Y-16301150D02*
X15546358Y-16301150D01*
X15546358Y-16301150D02*
X15565405Y-16310674D01*
X15565405Y-16310674D02*
X15574929Y-16329722D01*
X15574929Y-16329722D02*
X15574929Y-16348769D01*
X15574929Y-16348769D02*
X15479691Y-16367817D01*
X15651120Y-16424960D02*
X15670167Y-16434484D01*
X15670167Y-16434484D02*
X15708262Y-16434484D01*
X15708262Y-16434484D02*
X15727310Y-16424960D01*
X15727310Y-16424960D02*
X15736834Y-16405912D01*
X15736834Y-16405912D02*
X15736834Y-16396388D01*
X15736834Y-16396388D02*
X15727310Y-16377341D01*
X15727310Y-16377341D02*
X15708262Y-16367817D01*
X15708262Y-16367817D02*
X15679691Y-16367817D01*
X15679691Y-16367817D02*
X15660643Y-16358293D01*
X15660643Y-16358293D02*
X15651120Y-16339246D01*
X15651120Y-16339246D02*
X15651120Y-16329722D01*
X15651120Y-16329722D02*
X15660643Y-16310674D01*
X15660643Y-16310674D02*
X15679691Y-16301150D01*
X15679691Y-16301150D02*
X15708262Y-16301150D01*
X15708262Y-16301150D02*
X15727310Y-16310674D01*
X15803501Y-16510674D02*
X15813024Y-16501150D01*
X15813024Y-16501150D02*
X15832072Y-16472579D01*
X15832072Y-16472579D02*
X15841596Y-16453531D01*
X15841596Y-16453531D02*
X15851120Y-16424960D01*
X15851120Y-16424960D02*
X15860643Y-16377341D01*
X15860643Y-16377341D02*
X15860643Y-16339246D01*
X15860643Y-16339246D02*
X15851120Y-16291627D01*
X15851120Y-16291627D02*
X15841596Y-16263055D01*
X15841596Y-16263055D02*
X15832072Y-16244008D01*
X15832072Y-16244008D02*
X15813024Y-16215436D01*
X15813024Y-16215436D02*
X15803501Y-16205912D01*
X10828438Y-16507000D02*
X11028438Y-16707000D01*
X11028438Y-16507000D02*
X10828438Y-16707000D01*
X10928438Y-16707000D02*
X11028438Y-16607000D01*
X10928438Y-16507000D01*
X10828438Y-16607000D01*
X10928438Y-16707000D01*
X11279691Y-16517531D02*
X11289214Y-16508008D01*
X11289214Y-16508008D02*
X11308262Y-16498484D01*
X11308262Y-16498484D02*
X11355881Y-16498484D01*
X11355881Y-16498484D02*
X11374929Y-16508008D01*
X11374929Y-16508008D02*
X11384453Y-16517531D01*
X11384453Y-16517531D02*
X11393976Y-16536579D01*
X11393976Y-16536579D02*
X11393976Y-16555627D01*
X11393976Y-16555627D02*
X11384453Y-16584198D01*
X11384453Y-16584198D02*
X11270167Y-16698484D01*
X11270167Y-16698484D02*
X11393976Y-16698484D01*
X11479691Y-16679436D02*
X11489214Y-16688960D01*
X11489214Y-16688960D02*
X11479691Y-16698484D01*
X11479691Y-16698484D02*
X11470167Y-16688960D01*
X11470167Y-16688960D02*
X11479691Y-16679436D01*
X11479691Y-16679436D02*
X11479691Y-16698484D01*
X11555881Y-16498484D02*
X11689214Y-16498484D01*
X11689214Y-16498484D02*
X11603500Y-16698484D01*
X11803500Y-16498484D02*
X11822548Y-16498484D01*
X11822548Y-16498484D02*
X11841595Y-16508008D01*
X11841595Y-16508008D02*
X11851119Y-16517531D01*
X11851119Y-16517531D02*
X11860643Y-16536579D01*
X11860643Y-16536579D02*
X11870167Y-16574674D01*
X11870167Y-16574674D02*
X11870167Y-16622293D01*
X11870167Y-16622293D02*
X11860643Y-16660388D01*
X11860643Y-16660388D02*
X11851119Y-16679436D01*
X11851119Y-16679436D02*
X11841595Y-16688960D01*
X11841595Y-16688960D02*
X11822548Y-16698484D01*
X11822548Y-16698484D02*
X11803500Y-16698484D01*
X11803500Y-16698484D02*
X11784453Y-16688960D01*
X11784453Y-16688960D02*
X11774929Y-16679436D01*
X11774929Y-16679436D02*
X11765405Y-16660388D01*
X11765405Y-16660388D02*
X11755881Y-16622293D01*
X11755881Y-16622293D02*
X11755881Y-16574674D01*
X11755881Y-16574674D02*
X11765405Y-16536579D01*
X11765405Y-16536579D02*
X11774929Y-16517531D01*
X11774929Y-16517531D02*
X11784453Y-16508008D01*
X11784453Y-16508008D02*
X11803500Y-16498484D01*
X11993976Y-16498484D02*
X12013024Y-16498484D01*
X12013024Y-16498484D02*
X12032072Y-16508008D01*
X12032072Y-16508008D02*
X12041595Y-16517531D01*
X12041595Y-16517531D02*
X12051119Y-16536579D01*
X12051119Y-16536579D02*
X12060643Y-16574674D01*
X12060643Y-16574674D02*
X12060643Y-16622293D01*
X12060643Y-16622293D02*
X12051119Y-16660388D01*
X12051119Y-16660388D02*
X12041595Y-16679436D01*
X12041595Y-16679436D02*
X12032072Y-16688960D01*
X12032072Y-16688960D02*
X12013024Y-16698484D01*
X12013024Y-16698484D02*
X11993976Y-16698484D01*
X11993976Y-16698484D02*
X11974929Y-16688960D01*
X11974929Y-16688960D02*
X11965405Y-16679436D01*
X11965405Y-16679436D02*
X11955881Y-16660388D01*
X11955881Y-16660388D02*
X11946357Y-16622293D01*
X11946357Y-16622293D02*
X11946357Y-16574674D01*
X11946357Y-16574674D02*
X11955881Y-16536579D01*
X11955881Y-16536579D02*
X11965405Y-16517531D01*
X11965405Y-16517531D02*
X11974929Y-16508008D01*
X11974929Y-16508008D02*
X11993976Y-16498484D01*
X12146357Y-16698484D02*
X12146357Y-16565150D01*
X12146357Y-16584198D02*
X12155881Y-16574674D01*
X12155881Y-16574674D02*
X12174929Y-16565150D01*
X12174929Y-16565150D02*
X12203500Y-16565150D01*
X12203500Y-16565150D02*
X12222548Y-16574674D01*
X12222548Y-16574674D02*
X12232072Y-16593722D01*
X12232072Y-16593722D02*
X12232072Y-16698484D01*
X12232072Y-16593722D02*
X12241595Y-16574674D01*
X12241595Y-16574674D02*
X12260643Y-16565150D01*
X12260643Y-16565150D02*
X12289214Y-16565150D01*
X12289214Y-16565150D02*
X12308262Y-16574674D01*
X12308262Y-16574674D02*
X12317786Y-16593722D01*
X12317786Y-16593722D02*
X12317786Y-16698484D01*
X12413024Y-16698484D02*
X12413024Y-16565150D01*
X12413024Y-16584198D02*
X12422548Y-16574674D01*
X12422548Y-16574674D02*
X12441595Y-16565150D01*
X12441595Y-16565150D02*
X12470167Y-16565150D01*
X12470167Y-16565150D02*
X12489215Y-16574674D01*
X12489215Y-16574674D02*
X12498738Y-16593722D01*
X12498738Y-16593722D02*
X12498738Y-16698484D01*
X12498738Y-16593722D02*
X12508262Y-16574674D01*
X12508262Y-16574674D02*
X12527310Y-16565150D01*
X12527310Y-16565150D02*
X12555881Y-16565150D01*
X12555881Y-16565150D02*
X12574929Y-16574674D01*
X12574929Y-16574674D02*
X12584453Y-16593722D01*
X12584453Y-16593722D02*
X12584453Y-16698484D01*
X12974929Y-16488960D02*
X12803500Y-16746103D01*
X13232072Y-16498484D02*
X13251119Y-16498484D01*
X13251119Y-16498484D02*
X13270167Y-16508008D01*
X13270167Y-16508008D02*
X13279691Y-16517531D01*
X13279691Y-16517531D02*
X13289215Y-16536579D01*
X13289215Y-16536579D02*
X13298738Y-16574674D01*
X13298738Y-16574674D02*
X13298738Y-16622293D01*
X13298738Y-16622293D02*
X13289215Y-16660388D01*
X13289215Y-16660388D02*
X13279691Y-16679436D01*
X13279691Y-16679436D02*
X13270167Y-16688960D01*
X13270167Y-16688960D02*
X13251119Y-16698484D01*
X13251119Y-16698484D02*
X13232072Y-16698484D01*
X13232072Y-16698484D02*
X13213024Y-16688960D01*
X13213024Y-16688960D02*
X13203500Y-16679436D01*
X13203500Y-16679436D02*
X13193977Y-16660388D01*
X13193977Y-16660388D02*
X13184453Y-16622293D01*
X13184453Y-16622293D02*
X13184453Y-16574674D01*
X13184453Y-16574674D02*
X13193977Y-16536579D01*
X13193977Y-16536579D02*
X13203500Y-16517531D01*
X13203500Y-16517531D02*
X13213024Y-16508008D01*
X13213024Y-16508008D02*
X13232072Y-16498484D01*
X13384453Y-16679436D02*
X13393977Y-16688960D01*
X13393977Y-16688960D02*
X13384453Y-16698484D01*
X13384453Y-16698484D02*
X13374929Y-16688960D01*
X13374929Y-16688960D02*
X13384453Y-16679436D01*
X13384453Y-16679436D02*
X13384453Y-16698484D01*
X13584453Y-16698484D02*
X13470167Y-16698484D01*
X13527310Y-16698484D02*
X13527310Y-16498484D01*
X13527310Y-16498484D02*
X13508262Y-16527055D01*
X13508262Y-16527055D02*
X13489215Y-16546103D01*
X13489215Y-16546103D02*
X13470167Y-16555627D01*
X13708262Y-16498484D02*
X13727310Y-16498484D01*
X13727310Y-16498484D02*
X13746358Y-16508008D01*
X13746358Y-16508008D02*
X13755881Y-16517531D01*
X13755881Y-16517531D02*
X13765405Y-16536579D01*
X13765405Y-16536579D02*
X13774929Y-16574674D01*
X13774929Y-16574674D02*
X13774929Y-16622293D01*
X13774929Y-16622293D02*
X13765405Y-16660388D01*
X13765405Y-16660388D02*
X13755881Y-16679436D01*
X13755881Y-16679436D02*
X13746358Y-16688960D01*
X13746358Y-16688960D02*
X13727310Y-16698484D01*
X13727310Y-16698484D02*
X13708262Y-16698484D01*
X13708262Y-16698484D02*
X13689215Y-16688960D01*
X13689215Y-16688960D02*
X13679691Y-16679436D01*
X13679691Y-16679436D02*
X13670167Y-16660388D01*
X13670167Y-16660388D02*
X13660643Y-16622293D01*
X13660643Y-16622293D02*
X13660643Y-16574674D01*
X13660643Y-16574674D02*
X13670167Y-16536579D01*
X13670167Y-16536579D02*
X13679691Y-16517531D01*
X13679691Y-16517531D02*
X13689215Y-16508008D01*
X13689215Y-16508008D02*
X13708262Y-16498484D01*
X13946358Y-16498484D02*
X13908262Y-16498484D01*
X13908262Y-16498484D02*
X13889215Y-16508008D01*
X13889215Y-16508008D02*
X13879691Y-16517531D01*
X13879691Y-16517531D02*
X13860643Y-16546103D01*
X13860643Y-16546103D02*
X13851119Y-16584198D01*
X13851119Y-16584198D02*
X13851119Y-16660388D01*
X13851119Y-16660388D02*
X13860643Y-16679436D01*
X13860643Y-16679436D02*
X13870167Y-16688960D01*
X13870167Y-16688960D02*
X13889215Y-16698484D01*
X13889215Y-16698484D02*
X13927310Y-16698484D01*
X13927310Y-16698484D02*
X13946358Y-16688960D01*
X13946358Y-16688960D02*
X13955881Y-16679436D01*
X13955881Y-16679436D02*
X13965405Y-16660388D01*
X13965405Y-16660388D02*
X13965405Y-16612769D01*
X13965405Y-16612769D02*
X13955881Y-16593722D01*
X13955881Y-16593722D02*
X13946358Y-16584198D01*
X13946358Y-16584198D02*
X13927310Y-16574674D01*
X13927310Y-16574674D02*
X13889215Y-16574674D01*
X13889215Y-16574674D02*
X13870167Y-16584198D01*
X13870167Y-16584198D02*
X13860643Y-16593722D01*
X13860643Y-16593722D02*
X13851119Y-16612769D01*
X14032072Y-16498484D02*
X14155881Y-16498484D01*
X14155881Y-16498484D02*
X14089215Y-16574674D01*
X14089215Y-16574674D02*
X14117786Y-16574674D01*
X14117786Y-16574674D02*
X14136834Y-16584198D01*
X14136834Y-16584198D02*
X14146358Y-16593722D01*
X14146358Y-16593722D02*
X14155881Y-16612769D01*
X14155881Y-16612769D02*
X14155881Y-16660388D01*
X14155881Y-16660388D02*
X14146358Y-16679436D01*
X14146358Y-16679436D02*
X14136834Y-16688960D01*
X14136834Y-16688960D02*
X14117786Y-16698484D01*
X14117786Y-16698484D02*
X14060643Y-16698484D01*
X14060643Y-16698484D02*
X14041596Y-16688960D01*
X14041596Y-16688960D02*
X14032072Y-16679436D01*
X14232072Y-16498484D02*
X14232072Y-16536579D01*
X14308262Y-16498484D02*
X14308262Y-16536579D01*
X14603501Y-16774674D02*
X14593977Y-16765150D01*
X14593977Y-16765150D02*
X14574929Y-16736579D01*
X14574929Y-16736579D02*
X14565405Y-16717531D01*
X14565405Y-16717531D02*
X14555881Y-16688960D01*
X14555881Y-16688960D02*
X14546358Y-16641341D01*
X14546358Y-16641341D02*
X14546358Y-16603246D01*
X14546358Y-16603246D02*
X14555881Y-16555627D01*
X14555881Y-16555627D02*
X14565405Y-16527055D01*
X14565405Y-16527055D02*
X14574929Y-16508008D01*
X14574929Y-16508008D02*
X14593977Y-16479436D01*
X14593977Y-16479436D02*
X14603501Y-16469912D01*
X14670167Y-16517531D02*
X14679691Y-16508008D01*
X14679691Y-16508008D02*
X14698739Y-16498484D01*
X14698739Y-16498484D02*
X14746358Y-16498484D01*
X14746358Y-16498484D02*
X14765405Y-16508008D01*
X14765405Y-16508008D02*
X14774929Y-16517531D01*
X14774929Y-16517531D02*
X14784453Y-16536579D01*
X14784453Y-16536579D02*
X14784453Y-16555627D01*
X14784453Y-16555627D02*
X14774929Y-16584198D01*
X14774929Y-16584198D02*
X14660643Y-16698484D01*
X14660643Y-16698484D02*
X14784453Y-16698484D01*
X15022548Y-16698484D02*
X15022548Y-16498484D01*
X15108262Y-16698484D02*
X15108262Y-16593722D01*
X15108262Y-16593722D02*
X15098739Y-16574674D01*
X15098739Y-16574674D02*
X15079691Y-16565150D01*
X15079691Y-16565150D02*
X15051120Y-16565150D01*
X15051120Y-16565150D02*
X15032072Y-16574674D01*
X15032072Y-16574674D02*
X15022548Y-16584198D01*
X15232072Y-16698484D02*
X15213024Y-16688960D01*
X15213024Y-16688960D02*
X15203501Y-16679436D01*
X15203501Y-16679436D02*
X15193977Y-16660388D01*
X15193977Y-16660388D02*
X15193977Y-16603246D01*
X15193977Y-16603246D02*
X15203501Y-16584198D01*
X15203501Y-16584198D02*
X15213024Y-16574674D01*
X15213024Y-16574674D02*
X15232072Y-16565150D01*
X15232072Y-16565150D02*
X15260643Y-16565150D01*
X15260643Y-16565150D02*
X15279691Y-16574674D01*
X15279691Y-16574674D02*
X15289215Y-16584198D01*
X15289215Y-16584198D02*
X15298739Y-16603246D01*
X15298739Y-16603246D02*
X15298739Y-16660388D01*
X15298739Y-16660388D02*
X15289215Y-16679436D01*
X15289215Y-16679436D02*
X15279691Y-16688960D01*
X15279691Y-16688960D02*
X15260643Y-16698484D01*
X15260643Y-16698484D02*
X15232072Y-16698484D01*
X15413024Y-16698484D02*
X15393977Y-16688960D01*
X15393977Y-16688960D02*
X15384453Y-16669912D01*
X15384453Y-16669912D02*
X15384453Y-16498484D01*
X15565405Y-16688960D02*
X15546358Y-16698484D01*
X15546358Y-16698484D02*
X15508262Y-16698484D01*
X15508262Y-16698484D02*
X15489215Y-16688960D01*
X15489215Y-16688960D02*
X15479691Y-16669912D01*
X15479691Y-16669912D02*
X15479691Y-16593722D01*
X15479691Y-16593722D02*
X15489215Y-16574674D01*
X15489215Y-16574674D02*
X15508262Y-16565150D01*
X15508262Y-16565150D02*
X15546358Y-16565150D01*
X15546358Y-16565150D02*
X15565405Y-16574674D01*
X15565405Y-16574674D02*
X15574929Y-16593722D01*
X15574929Y-16593722D02*
X15574929Y-16612769D01*
X15574929Y-16612769D02*
X15479691Y-16631817D01*
X15651120Y-16688960D02*
X15670167Y-16698484D01*
X15670167Y-16698484D02*
X15708262Y-16698484D01*
X15708262Y-16698484D02*
X15727310Y-16688960D01*
X15727310Y-16688960D02*
X15736834Y-16669912D01*
X15736834Y-16669912D02*
X15736834Y-16660388D01*
X15736834Y-16660388D02*
X15727310Y-16641341D01*
X15727310Y-16641341D02*
X15708262Y-16631817D01*
X15708262Y-16631817D02*
X15679691Y-16631817D01*
X15679691Y-16631817D02*
X15660643Y-16622293D01*
X15660643Y-16622293D02*
X15651120Y-16603246D01*
X15651120Y-16603246D02*
X15651120Y-16593722D01*
X15651120Y-16593722D02*
X15660643Y-16574674D01*
X15660643Y-16574674D02*
X15679691Y-16565150D01*
X15679691Y-16565150D02*
X15708262Y-16565150D01*
X15708262Y-16565150D02*
X15727310Y-16574674D01*
X15803501Y-16774674D02*
X15813024Y-16765150D01*
X15813024Y-16765150D02*
X15832072Y-16736579D01*
X15832072Y-16736579D02*
X15841596Y-16717531D01*
X15841596Y-16717531D02*
X15851120Y-16688960D01*
X15851120Y-16688960D02*
X15860643Y-16641341D01*
X15860643Y-16641341D02*
X15860643Y-16603246D01*
X15860643Y-16603246D02*
X15851120Y-16555627D01*
X15851120Y-16555627D02*
X15841596Y-16527055D01*
X15841596Y-16527055D02*
X15832072Y-16508008D01*
X15832072Y-16508008D02*
X15813024Y-16479436D01*
X15813024Y-16479436D02*
X15803501Y-16469912D01*
M02*
