G04 #@! TF.GenerationSoftware,KiCad,Pcbnew,8.0.8*
G04 #@! TF.CreationDate,2025-02-25T21:21:12+02:00*
G04 #@! TF.ProjectId,minisumo_2025,6d696e69-7375-46d6-9f5f-323032352e6b,rev?*
G04 #@! TF.SameCoordinates,Original*
G04 #@! TF.FileFunction,Paste,Top*
G04 #@! TF.FilePolarity,Positive*
%FSLAX46Y46*%
G04 Gerber Fmt 4.6, Leading zero omitted, Abs format (unit mm)*
G04 Created by KiCad (PCBNEW 8.0.8) date 2025-02-25 21:21:12*
%MOMM*%
%LPD*%
G01*
G04 APERTURE LIST*
G04 Aperture macros list*
%AMRoundRect*
0 Rectangle with rounded corners*
0 $1 Rounding radius*
0 $2 $3 $4 $5 $6 $7 $8 $9 X,Y pos of 4 corners*
0 Add a 4 corners polygon primitive as box body*
4,1,4,$2,$3,$4,$5,$6,$7,$8,$9,$2,$3,0*
0 Add four circle primitives for the rounded corners*
1,1,$1+$1,$2,$3*
1,1,$1+$1,$4,$5*
1,1,$1+$1,$6,$7*
1,1,$1+$1,$8,$9*
0 Add four rect primitives between the rounded corners*
20,1,$1+$1,$2,$3,$4,$5,0*
20,1,$1+$1,$4,$5,$6,$7,0*
20,1,$1+$1,$6,$7,$8,$9,0*
20,1,$1+$1,$8,$9,$2,$3,0*%
G04 Aperture macros list end*
%ADD10C,0.010000*%
%ADD11C,0.000000*%
%ADD12RoundRect,0.140000X-0.140000X-0.170000X0.140000X-0.170000X0.140000X0.170000X-0.140000X0.170000X0*%
%ADD13RoundRect,0.135000X0.135000X0.185000X-0.135000X0.185000X-0.135000X-0.185000X0.135000X-0.185000X0*%
%ADD14RoundRect,0.250000X-0.325000X-1.100000X0.325000X-1.100000X0.325000X1.100000X-0.325000X1.100000X0*%
%ADD15RoundRect,0.135000X-0.185000X0.135000X-0.185000X-0.135000X0.185000X-0.135000X0.185000X0.135000X0*%
%ADD16RoundRect,0.140000X0.140000X0.170000X-0.140000X0.170000X-0.140000X-0.170000X0.140000X-0.170000X0*%
%ADD17R,1.800000X1.350000*%
%ADD18RoundRect,0.238500X-0.211500X-0.211500X0.211500X-0.211500X0.211500X0.211500X-0.211500X0.211500X0*%
%ADD19RoundRect,0.148400X-0.556600X-0.131600X0.556600X-0.131600X0.556600X0.131600X-0.556600X0.131600X0*%
%ADD20RoundRect,0.148400X-0.131600X-0.556600X0.131600X-0.556600X0.131600X0.556600X-0.131600X0.556600X0*%
%ADD21RoundRect,0.225000X-0.225000X-0.250000X0.225000X-0.250000X0.225000X0.250000X-0.225000X0.250000X0*%
%ADD22R,0.599999X1.549999*%
%ADD23RoundRect,0.225000X-0.250000X0.225000X-0.250000X-0.225000X0.250000X-0.225000X0.250000X0.225000X0*%
%ADD24RoundRect,0.250000X-1.100000X0.325000X-1.100000X-0.325000X1.100000X-0.325000X1.100000X0.325000X0*%
%ADD25R,1.200000X1.200000*%
%ADD26RoundRect,0.140000X-0.170000X0.140000X-0.170000X-0.140000X0.170000X-0.140000X0.170000X0.140000X0*%
%ADD27RoundRect,0.225000X0.250000X-0.225000X0.250000X0.225000X-0.250000X0.225000X-0.250000X-0.225000X0*%
%ADD28R,1.000000X0.599999*%
%ADD29RoundRect,0.250000X0.325000X1.100000X-0.325000X1.100000X-0.325000X-1.100000X0.325000X-1.100000X0*%
%ADD30RoundRect,0.225000X0.225000X0.250000X-0.225000X0.250000X-0.225000X-0.250000X0.225000X-0.250000X0*%
%ADD31RoundRect,0.135000X0.185000X-0.135000X0.185000X0.135000X-0.185000X0.135000X-0.185000X-0.135000X0*%
%ADD32RoundRect,0.250000X-0.250000X-0.475000X0.250000X-0.475000X0.250000X0.475000X-0.250000X0.475000X0*%
%ADD33RoundRect,0.218750X-0.218750X-0.256250X0.218750X-0.256250X0.218750X0.256250X-0.218750X0.256250X0*%
%ADD34RoundRect,0.218750X-0.256250X0.218750X-0.256250X-0.218750X0.256250X-0.218750X0.256250X0.218750X0*%
%ADD35RoundRect,0.140000X0.170000X-0.140000X0.170000X0.140000X-0.170000X0.140000X-0.170000X-0.140000X0*%
%ADD36RoundRect,0.225000X0.225000X0.375000X-0.225000X0.375000X-0.225000X-0.375000X0.225000X-0.375000X0*%
%ADD37R,5.500000X1.430000*%
G04 APERTURE END LIST*
D10*
G04 #@! TO.C,U6*
X131835000Y-70708716D02*
X130057490Y-70708716D01*
X130057490Y-68940000D01*
X131835000Y-68940000D01*
X131835000Y-70708716D01*
G36*
X131835000Y-70708716D02*
G01*
X130057490Y-70708716D01*
X130057490Y-68940000D01*
X131835000Y-68940000D01*
X131835000Y-70708716D01*
G37*
X131835000Y-73215090D02*
X130059910Y-73215090D01*
X130059910Y-71440000D01*
X131835000Y-71440000D01*
X131835000Y-73215090D01*
G36*
X131835000Y-73215090D02*
G01*
X130059910Y-73215090D01*
X130059910Y-71440000D01*
X131835000Y-71440000D01*
X131835000Y-73215090D01*
G37*
X134335000Y-73215300D02*
X132565906Y-73215300D01*
X132565906Y-71440000D01*
X134335000Y-71440000D01*
X134335000Y-73215300D01*
G36*
X134335000Y-73215300D02*
G01*
X132565906Y-73215300D01*
X132565906Y-71440000D01*
X134335000Y-71440000D01*
X134335000Y-73215300D01*
G37*
X134335000Y-70708623D02*
X132566377Y-70708623D01*
X132566377Y-68940000D01*
X134335000Y-68940000D01*
X134335000Y-70708623D01*
G36*
X134335000Y-70708623D02*
G01*
X132566377Y-70708623D01*
X132566377Y-68940000D01*
X134335000Y-68940000D01*
X134335000Y-70708623D01*
G37*
D11*
G04 #@! TO.C,U1*
G36*
X125204999Y-102060000D02*
G01*
X122105001Y-102060000D01*
X122105001Y-99460000D01*
X125204999Y-99460000D01*
X125204999Y-102060000D01*
G37*
D10*
G04 #@! TO.C,U7*
X131810000Y-56838716D02*
X130032490Y-56838716D01*
X130032490Y-55070000D01*
X131810000Y-55070000D01*
X131810000Y-56838716D01*
G36*
X131810000Y-56838716D02*
G01*
X130032490Y-56838716D01*
X130032490Y-55070000D01*
X131810000Y-55070000D01*
X131810000Y-56838716D01*
G37*
X131810000Y-59345090D02*
X130034910Y-59345090D01*
X130034910Y-57570000D01*
X131810000Y-57570000D01*
X131810000Y-59345090D01*
G36*
X131810000Y-59345090D02*
G01*
X130034910Y-59345090D01*
X130034910Y-57570000D01*
X131810000Y-57570000D01*
X131810000Y-59345090D01*
G37*
X134310000Y-59345300D02*
X132540906Y-59345300D01*
X132540906Y-57570000D01*
X134310000Y-57570000D01*
X134310000Y-59345300D01*
G36*
X134310000Y-59345300D02*
G01*
X132540906Y-59345300D01*
X132540906Y-57570000D01*
X134310000Y-57570000D01*
X134310000Y-59345300D01*
G37*
X134310000Y-56838623D02*
X132541377Y-56838623D01*
X132541377Y-55070000D01*
X134310000Y-55070000D01*
X134310000Y-56838623D01*
G36*
X134310000Y-56838623D02*
G01*
X132541377Y-56838623D01*
X132541377Y-55070000D01*
X134310000Y-55070000D01*
X134310000Y-56838623D01*
G37*
D11*
G04 #@! TO.C,U5*
G36*
X141529999Y-103749951D02*
G01*
X140530001Y-103749951D01*
X140530001Y-103550053D01*
X141529999Y-103550053D01*
X141529999Y-103749951D01*
G37*
G36*
X141529999Y-104149950D02*
G01*
X140530001Y-104149950D01*
X140530001Y-103950052D01*
X141529999Y-103950052D01*
X141529999Y-104149950D01*
G37*
G36*
X141529999Y-104549949D02*
G01*
X140530001Y-104549949D01*
X140530001Y-104350051D01*
X141529999Y-104350051D01*
X141529999Y-104549949D01*
G37*
G36*
X141529999Y-104949949D02*
G01*
X140530001Y-104949949D01*
X140530001Y-104750051D01*
X141529999Y-104750051D01*
X141529999Y-104949949D01*
G37*
G36*
X141529999Y-105349950D02*
G01*
X140530001Y-105349950D01*
X140530001Y-105150052D01*
X141529999Y-105150052D01*
X141529999Y-105349950D01*
G37*
G36*
X141529999Y-105749950D02*
G01*
X140530001Y-105749950D01*
X140530001Y-105550052D01*
X141529999Y-105550052D01*
X141529999Y-105749950D01*
G37*
G36*
X141529999Y-106149949D02*
G01*
X140530001Y-106149949D01*
X140530001Y-105950051D01*
X141529999Y-105950051D01*
X141529999Y-106149949D01*
G37*
G36*
X141529999Y-106549951D02*
G01*
X140530001Y-106549951D01*
X140530001Y-106350053D01*
X141529999Y-106350053D01*
X141529999Y-106549951D01*
G37*
G36*
X141529999Y-106949950D02*
G01*
X140530001Y-106949950D01*
X140530001Y-106750052D01*
X141529999Y-106750052D01*
X141529999Y-106949950D01*
G37*
G36*
X141529999Y-107349949D02*
G01*
X140530001Y-107349949D01*
X140530001Y-107150051D01*
X141529999Y-107150051D01*
X141529999Y-107349949D01*
G37*
G36*
X143330001Y-103749951D02*
G01*
X142330003Y-103749951D01*
X142330003Y-103550053D01*
X143330001Y-103550053D01*
X143330001Y-103749951D01*
G37*
G36*
X143330001Y-104149950D02*
G01*
X142330003Y-104149950D01*
X142330003Y-103950052D01*
X143330001Y-103950052D01*
X143330001Y-104149950D01*
G37*
G36*
X143330001Y-104549949D02*
G01*
X142330003Y-104549949D01*
X142330003Y-104350051D01*
X143330001Y-104350051D01*
X143330001Y-104549949D01*
G37*
G36*
X143330001Y-104949951D02*
G01*
X142330003Y-104949951D01*
X142330003Y-104750053D01*
X143330001Y-104750053D01*
X143330001Y-104949951D01*
G37*
G36*
X143330001Y-105349950D02*
G01*
X142330003Y-105349950D01*
X142330003Y-105150052D01*
X143330001Y-105150052D01*
X143330001Y-105349950D01*
G37*
G36*
X143330001Y-105749950D02*
G01*
X142330003Y-105749950D01*
X142330003Y-105550052D01*
X143330001Y-105550052D01*
X143330001Y-105749950D01*
G37*
G36*
X143330001Y-106149951D02*
G01*
X142330003Y-106149951D01*
X142330003Y-105950053D01*
X143330001Y-105950053D01*
X143330001Y-106149951D01*
G37*
G36*
X143330001Y-106549951D02*
G01*
X142330003Y-106549951D01*
X142330003Y-106350053D01*
X143330001Y-106350053D01*
X143330001Y-106549951D01*
G37*
G36*
X143330001Y-106949950D02*
G01*
X142330003Y-106949950D01*
X142330003Y-106750052D01*
X143330001Y-106750052D01*
X143330001Y-106949950D01*
G37*
G36*
X143330001Y-107349949D02*
G01*
X142280041Y-107349949D01*
X142280041Y-107150051D01*
X143330001Y-107150051D01*
X143330001Y-107349949D01*
G37*
G04 #@! TD*
D12*
G04 #@! TO.C,C7*
X124640000Y-131650000D03*
X125600000Y-131650000D03*
G04 #@! TD*
D13*
G04 #@! TO.C,R7*
X122570000Y-131650000D03*
X121550000Y-131650000D03*
G04 #@! TD*
D14*
G04 #@! TO.C,C14*
X124079999Y-117870001D03*
X127029999Y-117870001D03*
G04 #@! TD*
D15*
G04 #@! TO.C,R24*
X114830000Y-121860000D03*
X114830000Y-122880000D03*
G04 #@! TD*
D14*
G04 #@! TO.C,C10*
X125430000Y-86310000D03*
X128380000Y-86310000D03*
G04 #@! TD*
D13*
G04 #@! TO.C,R18*
X119087500Y-51550000D03*
X118067500Y-51550000D03*
G04 #@! TD*
D16*
G04 #@! TO.C,C33*
X139250000Y-105890000D03*
X138290000Y-105890000D03*
G04 #@! TD*
D17*
G04 #@! TO.C,SW1*
X126050000Y-137205000D03*
X126050000Y-133055000D03*
G04 #@! TD*
D15*
G04 #@! TO.C,R6*
X129200000Y-117627500D03*
X129200000Y-118647500D03*
G04 #@! TD*
D18*
G04 #@! TO.C,U6*
X128850000Y-67725000D03*
D19*
X128640000Y-68675000D03*
X128640000Y-69475000D03*
X128640000Y-70275000D03*
X128640000Y-71075000D03*
X128640000Y-71875000D03*
X128640000Y-72675000D03*
X128640000Y-73475000D03*
D18*
X128850000Y-74425000D03*
D20*
X129800000Y-74635000D03*
X130600000Y-74635000D03*
X131400000Y-74635000D03*
X132200000Y-74635000D03*
X133000000Y-74635000D03*
X133800000Y-74635000D03*
X134600000Y-74635000D03*
D18*
X135550000Y-74425000D03*
D19*
X135760000Y-73475000D03*
X135760000Y-72675000D03*
X135760000Y-71875000D03*
X135760000Y-71075000D03*
X135760000Y-70275000D03*
X135760000Y-69475000D03*
X135760000Y-68675000D03*
D18*
X135550000Y-67725000D03*
D20*
X134600000Y-67515000D03*
X133800000Y-67515000D03*
X133000000Y-67515000D03*
X132200000Y-67515000D03*
X131400000Y-67515000D03*
X130600000Y-67515000D03*
X129800000Y-67515000D03*
G04 #@! TD*
D16*
G04 #@! TO.C,C18*
X115600000Y-131600000D03*
X114640000Y-131600000D03*
G04 #@! TD*
D21*
G04 #@! TO.C,C19*
X125325000Y-66600000D03*
X126875000Y-66600000D03*
G04 #@! TD*
D13*
G04 #@! TO.C,R17*
X119097500Y-50300000D03*
X118077500Y-50300000D03*
G04 #@! TD*
D14*
G04 #@! TO.C,C4*
X120730000Y-93110000D03*
X123680000Y-93110000D03*
G04 #@! TD*
D22*
G04 #@! TO.C,U1*
X125560000Y-98060000D03*
X124290000Y-98060000D03*
X123020000Y-98060000D03*
X121750000Y-98060000D03*
X121750000Y-103460000D03*
X123020000Y-103460000D03*
X124290000Y-103460000D03*
X125560000Y-103460000D03*
G04 #@! TD*
D13*
G04 #@! TO.C,R25*
X119097500Y-53050000D03*
X118077500Y-53050000D03*
G04 #@! TD*
D23*
G04 #@! TO.C,C21*
X126775000Y-71100000D03*
X126775000Y-72650000D03*
G04 #@! TD*
D21*
G04 #@! TO.C,C11*
X126805000Y-95935000D03*
X128355000Y-95935000D03*
G04 #@! TD*
D12*
G04 #@! TO.C,C29*
X144980000Y-106000000D03*
X144020000Y-106000000D03*
G04 #@! TD*
D17*
G04 #@! TO.C,SW5*
X121150000Y-137200000D03*
X121150000Y-133050000D03*
G04 #@! TD*
D24*
G04 #@! TO.C,C17*
X148370000Y-124380000D03*
X148370000Y-127330000D03*
G04 #@! TD*
D25*
G04 #@! TO.C,D4*
X123550000Y-50400000D03*
X120750000Y-50400000D03*
G04 #@! TD*
D26*
G04 #@! TO.C,C16*
X138970000Y-124780000D03*
X138970000Y-125740000D03*
G04 #@! TD*
D18*
G04 #@! TO.C,U7*
X128825000Y-53855000D03*
D19*
X128615000Y-54805000D03*
X128615000Y-55605000D03*
X128615000Y-56405000D03*
X128615000Y-57205000D03*
X128615000Y-58005000D03*
X128615000Y-58805000D03*
X128615000Y-59605000D03*
D18*
X128825000Y-60555000D03*
D20*
X129775000Y-60765000D03*
X130575000Y-60765000D03*
X131375000Y-60765000D03*
X132175000Y-60765000D03*
X132975000Y-60765000D03*
X133775000Y-60765000D03*
X134575000Y-60765000D03*
D18*
X135525000Y-60555000D03*
D19*
X135735000Y-59605000D03*
X135735000Y-58805000D03*
X135735000Y-58005000D03*
X135735000Y-57205000D03*
X135735000Y-56405000D03*
X135735000Y-55605000D03*
X135735000Y-54805000D03*
D18*
X135525000Y-53855000D03*
D20*
X134575000Y-53645000D03*
X133775000Y-53645000D03*
X132975000Y-53645000D03*
X132175000Y-53645000D03*
X131375000Y-53645000D03*
X130575000Y-53645000D03*
X129775000Y-53645000D03*
G04 #@! TD*
D15*
G04 #@! TO.C,R5*
X120355000Y-102435000D03*
X120355000Y-103455000D03*
G04 #@! TD*
D23*
G04 #@! TO.C,C21*
X130215000Y-76285000D03*
X130215000Y-77835000D03*
G04 #@! TD*
D27*
G04 #@! TO.C,C21*
X130060000Y-51650000D03*
X130060000Y-50100000D03*
G04 #@! TD*
D28*
G04 #@! TO.C,U4*
X123954998Y-113450000D03*
X123954998Y-114400001D03*
X123954998Y-115349999D03*
X126704998Y-115349999D03*
X126704998Y-113450000D03*
G04 #@! TD*
D29*
G04 #@! TO.C,C15*
X126999999Y-110920001D03*
X124049999Y-110920001D03*
G04 #@! TD*
D21*
G04 #@! TO.C,C20*
X126850000Y-52000000D03*
X128400000Y-52000000D03*
G04 #@! TD*
D30*
G04 #@! TO.C,C23*
X130200000Y-65700000D03*
X128650000Y-65700000D03*
G04 #@! TD*
D15*
G04 #@! TO.C,R21*
X114800000Y-60380000D03*
X114800000Y-61400000D03*
G04 #@! TD*
D31*
G04 #@! TO.C,R4*
X119280000Y-103455000D03*
X119280000Y-102435000D03*
G04 #@! TD*
D32*
G04 #@! TO.C,C5*
X123455000Y-95935000D03*
X125355000Y-95935000D03*
G04 #@! TD*
D13*
G04 #@! TO.C,R1*
X127480000Y-131650000D03*
X126460000Y-131650000D03*
G04 #@! TD*
D33*
G04 #@! TO.C,D7*
X115312500Y-50050000D03*
X116887500Y-50050000D03*
G04 #@! TD*
D14*
G04 #@! TO.C,C8*
X125430000Y-89685000D03*
X128380000Y-89685000D03*
G04 #@! TD*
D34*
G04 #@! TO.C,D2*
X130450000Y-117175000D03*
X130450000Y-118750000D03*
G04 #@! TD*
D16*
G04 #@! TO.C,C3*
X125585001Y-105210001D03*
X124625001Y-105210001D03*
G04 #@! TD*
D23*
G04 #@! TO.C,C21*
X126900000Y-57200000D03*
X126900000Y-58750000D03*
G04 #@! TD*
D17*
G04 #@! TO.C,SW2*
X116150000Y-137175000D03*
X116150000Y-133025000D03*
G04 #@! TD*
D25*
G04 #@! TO.C,D6*
X123550000Y-52650000D03*
X120750000Y-52650000D03*
G04 #@! TD*
D15*
G04 #@! TO.C,R23*
X114830000Y-123760000D03*
X114830000Y-124780000D03*
G04 #@! TD*
D30*
G04 #@! TO.C,C21*
X130120000Y-62470000D03*
X128570000Y-62470000D03*
G04 #@! TD*
D23*
G04 #@! TO.C,C13*
X123005001Y-105410001D03*
X123005001Y-106960001D03*
G04 #@! TD*
D14*
G04 #@! TO.C,C9*
X125442812Y-93129793D03*
X128392812Y-93129793D03*
G04 #@! TD*
D12*
G04 #@! TO.C,C12*
X119740000Y-131650000D03*
X120700000Y-131650000D03*
G04 #@! TD*
D33*
G04 #@! TO.C,D9*
X115300000Y-53050000D03*
X116875000Y-53050000D03*
G04 #@! TD*
D35*
G04 #@! TO.C,C26*
X140055000Y-58790000D03*
X140055000Y-57830000D03*
G04 #@! TD*
D33*
G04 #@! TO.C,D8*
X115312500Y-51550000D03*
X116887500Y-51550000D03*
G04 #@! TD*
D35*
G04 #@! TO.C,C25*
X140060000Y-69405000D03*
X140060000Y-68445000D03*
G04 #@! TD*
D36*
G04 #@! TO.C,D1*
X135887500Y-86560000D03*
X132587500Y-86560000D03*
G04 #@! TD*
D13*
G04 #@! TO.C,R8*
X117520000Y-131600000D03*
X116500000Y-131600000D03*
G04 #@! TD*
D37*
G04 #@! TO.C,L1*
X130555000Y-103460000D03*
X130555000Y-99420000D03*
G04 #@! TD*
D15*
G04 #@! TO.C,R22*
X114800000Y-58480000D03*
X114800000Y-59500000D03*
G04 #@! TD*
M02*
