M48
; DRILL file {KiCad 8.0.8} date 2025-02-25T21:21:12+0200
; FORMAT={-:-/ absolute / metric / decimal}
; #@! TF.CreationDate,2025-02-25T21:21:12+02:00
; #@! TF.GenerationSoftware,Kicad,Pcbnew,8.0.8
; #@! TF.FileFunction,Plated,1,4,PTH
FMAT,2
METRIC
; #@! TA.AperFunction,Plated,PTH,ComponentDrill
T1C0.200
; #@! TA.AperFunction,Plated,PTH,ComponentDrill
T2C0.203
; #@! TA.AperFunction,Plated,PTH,ViaDrill
T3C0.300
; #@! TA.AperFunction,Plated,PTH,ComponentDrill
T4C0.600
; #@! TA.AperFunction,Plated,PTH,ComponentDrill
T5C0.730
; #@! TA.AperFunction,Plated,PTH,ComponentDrill
T6C0.800
; #@! TA.AperFunction,Plated,PTH,ComponentDrill
T7C0.950
; #@! TA.AperFunction,Plated,PTH,ComponentDrill
T8C1.000
; #@! TA.AperFunction,Plated,PTH,ComponentDrill
T9C2.700
%
G90
G05
T1
X140.29Y-110.55
X140.29Y-111.95
X140.99Y-109.85
X140.99Y-111.25
X140.99Y-112.65
X141.69Y-110.55
X141.69Y-111.95
X142.39Y-109.85
X142.39Y-111.25
X142.39Y-112.65
X143.09Y-110.55
X143.09Y-111.95
T2
X121.705Y-100.11
X121.705Y-101.41
X123.005Y-100.11
X123.005Y-101.41
X124.305Y-100.11
X124.305Y-101.41
X125.605Y-100.11
X125.605Y-101.41
T3
X112.0Y-54.5
X112.0Y-56.5
X112.5Y-126.5
X113.5Y-55.5
X113.9Y-63.118
X114.5Y-126.5
X114.9Y-109.15
X115.0Y-54.5
X115.0Y-56.5
X115.2Y-112.7
X115.2Y-117.75
X115.5Y-123.35
X115.6Y-93.95
X115.6Y-109.85
X116.0Y-65.0
X116.2Y-94.8
X116.25Y-110.5
X116.5Y-55.5
X116.5Y-58.5
X116.55Y-115.25
X117.0Y-63.5
X117.0Y-111.15
X117.05Y-106.2
X117.1Y-104.0
X117.5Y-118.0
X117.75Y-133.05
X118.0Y-54.5
X118.0Y-56.5
X118.0Y-58.5
X118.0Y-60.5
X118.0Y-62.5
X118.0Y-65.0
X118.0Y-114.5
X118.0Y-119.45
X118.13Y-102.11
X118.51Y-113.73
X118.6Y-108.7
X119.0Y-117.0
X119.4Y-109.5
X119.5Y-126.5
X119.75Y-51.55
X119.9Y-113.9
X120.0Y-54.5
X120.0Y-60.5
X120.0Y-62.5
X120.0Y-65.0
X120.0Y-118.0
X120.05Y-110.05
X120.5Y-124.5
X120.7Y-110.6
X121.0Y-117.0
X121.35Y-111.15
X121.5Y-123.0
X121.5Y-126.5
X122.5Y-118.0
X122.5Y-124.5
X122.8Y-133.05
X123.0Y-126.5
X123.025Y-109.875
X123.025Y-111.0
X123.3Y-109.0
X123.5Y-123.0
X124.1Y-109.0
X124.5Y-124.5
X124.6Y-106.4
X124.75Y-51.55
X124.85Y-72.1
X124.9Y-109.0
X125.0Y-126.5
X125.322Y-127.68
X125.322Y-129.57
X125.475Y-62.575
X125.5Y-123.0
X125.925Y-116.825
X125.95Y-117.65
X125.95Y-118.5
X126.2Y-59.5
X126.3Y-60.2
X126.405Y-73.97
X126.5Y-124.5
X126.5Y-126.5
X126.9Y-59.8
X126.92Y-62.66
X126.935Y-73.65
X126.965Y-74.3
X127.2Y-65.5
X127.25Y-62.1
X127.25Y-87.45
X127.305Y-55.205
X127.428Y-54.224
X127.487Y-68.66
X127.5Y-123.0
X127.5Y-69.46
X127.55Y-133.05
X127.57Y-62.63
X127.6Y-60.475
X127.618Y-74.762
X127.7Y-61.35
X127.752Y-127.57
X127.752Y-129.57
X127.8Y-65.1
X127.8Y-65.8
X127.862Y-67.688
X128.05Y-117.65
X128.05Y-118.5
X128.085Y-53.115
X128.17Y-49.3
X128.51Y-109.24
X128.595Y-130.233
X128.952Y-75.55
X129.02Y-108.46
X129.1Y-49.4
X129.4Y-110.13
X129.5Y-123.0
X129.65Y-107.7
X129.775Y-78.72
X129.883Y-114.933
X130.25Y-107.0
X130.275Y-55.23
X130.275Y-56.605
X130.3Y-57.78
X130.3Y-59.055
X130.375Y-69.225
X130.375Y-70.6
X130.375Y-71.785
X130.375Y-73.06
X130.51Y-79.0
X131.0Y-124.0
X131.16Y-127.57
X131.5Y-50.85
X131.5Y-52.1
X131.5Y-55.23
X131.5Y-56.605
X131.5Y-62.0
X131.5Y-63.25
X131.525Y-57.78
X131.525Y-59.055
X131.525Y-64.97
X131.525Y-66.22
X131.525Y-76.22
X131.525Y-77.47
X131.6Y-69.225
X131.6Y-70.6
X131.6Y-71.785
X131.6Y-73.06
X132.7Y-55.205
X132.7Y-56.58
X132.725Y-57.755
X132.725Y-59.03
X132.75Y-50.85
X132.75Y-52.1
X132.75Y-62.0
X132.75Y-63.25
X132.775Y-64.97
X132.775Y-66.22
X132.775Y-76.22
X132.775Y-77.47
X132.8Y-69.2
X132.8Y-70.575
X132.825Y-71.75
X132.825Y-73.025
X133.075Y-106.575
X133.1Y-111.6
X133.542Y-113.892
X133.55Y-123.79
X133.55Y-125.83
X133.975Y-55.205
X133.975Y-56.58
X134.0Y-50.85
X134.0Y-52.1
X134.0Y-57.755
X134.0Y-59.03
X134.0Y-62.0
X134.0Y-63.25
X134.025Y-64.97
X134.025Y-66.22
X134.025Y-76.22
X134.025Y-77.47
X134.075Y-69.2
X134.075Y-70.575
X134.1Y-71.75
X134.1Y-73.025
X134.1Y-102.5
X135.0Y-85.56
X135.0Y-87.55
X135.05Y-99.0
X135.25Y-50.85
X135.25Y-52.1
X135.25Y-62.0
X135.25Y-63.25
X135.275Y-64.97
X135.275Y-66.22
X135.275Y-76.22
X135.275Y-77.47
X135.291Y-92.089
X135.5Y-121.4
X136.0Y-99.0
X136.249Y-75.196
X136.5Y-50.85
X136.5Y-52.1
X136.525Y-64.97
X136.525Y-66.22
X136.525Y-76.22
X136.525Y-77.47
X136.6Y-67.7
X136.6Y-106.85
X136.7Y-53.9
X136.7Y-74.3
X136.75Y-62.0
X136.75Y-63.25
X136.75Y-85.6
X136.75Y-87.55
X136.8Y-60.4
X136.8Y-121.4
X136.84Y-92.79
X136.875Y-71.075
X136.9Y-57.2
X136.95Y-99.27
X137.025Y-68.47
X137.025Y-69.97
X137.025Y-72.97
X137.1Y-58.0
X137.25Y-54.5
X137.25Y-56.0
X137.25Y-59.0
X137.45Y-67.65
X137.575Y-91.45
X137.65Y-53.625
X137.75Y-50.85
X137.75Y-52.1
X137.75Y-60.85
X137.775Y-64.97
X137.775Y-66.22
X137.775Y-69.22
X137.775Y-70.72
X137.775Y-72.22
X137.775Y-76.22
X137.775Y-77.47
X137.8Y-73.6
X138.0Y-55.25
X138.0Y-56.75
X138.0Y-58.25
X138.0Y-59.75
X138.0Y-62.0
X138.0Y-63.25
X138.07Y-124.77
X138.35Y-90.25
X138.975Y-102.78
X138.975Y-104.1
X139.0Y-50.85
X139.0Y-52.1
X139.025Y-64.97
X139.025Y-66.22
X139.025Y-68.47
X139.025Y-69.72
X139.025Y-76.22
X139.025Y-77.47
X139.25Y-57.25
X139.275Y-71.22
X139.275Y-72.47
X139.275Y-73.72
X139.275Y-74.97
X139.46Y-99.55
X139.5Y-59.5
X139.5Y-60.75
X139.5Y-62.0
X139.5Y-63.25
X139.5Y-116.8
X139.75Y-53.5
X139.75Y-54.75
X139.75Y-56.0
X139.929Y-102.23
X140.025Y-70.22
X140.15Y-92.08
X140.25Y-50.85
X140.25Y-52.1
X140.275Y-64.97
X140.275Y-66.22
X140.275Y-76.22
X140.275Y-77.47
X140.47Y-67.71
X140.5Y-130.0
X140.5Y-136.0
X140.525Y-71.22
X140.525Y-72.47
X140.525Y-73.72
X140.525Y-74.97
X140.55Y-116.9
X140.7Y-96.09
X140.75Y-59.5
X140.75Y-60.75
X140.75Y-62.0
X140.75Y-63.25
X141.0Y-53.5
X141.0Y-54.75
X141.0Y-56.0
X141.0Y-57.25
X141.025Y-68.47
X141.025Y-69.72
X141.5Y-50.85
X141.5Y-52.1
X141.5Y-134.5
X141.57Y-65.99
X141.775Y-64.97
X141.775Y-71.22
X141.775Y-72.47
X141.775Y-73.72
X141.775Y-116.95
X142.025Y-70.22
X142.22Y-67.39
X142.25Y-59.5
X142.25Y-60.75
X142.25Y-62.0
X142.25Y-63.25
X142.275Y-68.47
X142.37Y-81.35
X142.375Y-74.825
X142.4Y-83.95
X142.5Y-54.75
X142.5Y-56.0
X142.5Y-57.25
X143.0Y-133.0
X143.0Y-136.0
X143.025Y-71.22
X143.025Y-72.47
X143.025Y-73.72
X143.05Y-52.9
X143.05Y-117.0
X143.25Y-77.3
X143.275Y-64.97
X143.28Y-65.89
X143.5Y-62.0
X143.5Y-63.25
X143.75Y-54.75
X144.0Y-131.5
X144.0Y-134.5
X144.275Y-72.47
X144.275Y-73.72
X144.325Y-117.0
X144.5Y-51.5
X144.75Y-62.0
X144.75Y-63.25
X144.76Y-65.89
X144.775Y-64.97
X144.892Y-107.01
X144.9Y-91.18
X144.9Y-95.78
X144.91Y-86.56
X144.92Y-81.92
X145.0Y-54.75
X145.5Y-130.0
X145.5Y-133.0
X145.5Y-136.0
X145.525Y-71.22
X145.525Y-72.47
X145.525Y-73.72
X145.6Y-105.4
X145.6Y-117.1
X145.61Y-85.5
X145.7Y-52.9
X145.8Y-107.6
X145.85Y-106.55
X146.166Y-90.334
X146.35Y-95.1
X146.37Y-85.75
X146.5Y-51.0
X146.5Y-131.5
X146.5Y-134.5
X146.85Y-121.15
X146.9Y-102.55
X147.0Y-62.0
X147.0Y-74.0
X147.5Y-52.0
X147.5Y-56.0
X147.566Y-81.016
X147.85Y-123.05
X147.95Y-122.1
X148.0Y-57.5
X148.0Y-130.0
X148.0Y-133.0
X148.0Y-136.0
X148.15Y-102.55
X148.37Y-125.855
X148.39Y-91.16
X148.39Y-95.78
X148.45Y-81.93
X148.45Y-122.6
X148.46Y-86.54
X148.5Y-54.0
X149.0Y-50.0
X149.0Y-131.5
X149.0Y-134.5
T5
X112.7Y-88.0
X112.7Y-89.5
X112.7Y-91.0
X112.7Y-92.5
X112.7Y-94.0
X112.7Y-95.5
X112.75Y-58.4
X112.75Y-59.9
X112.75Y-61.4
X112.75Y-65.75
X112.75Y-67.25
X112.75Y-68.75
X112.75Y-73.1
X112.75Y-74.6
X112.75Y-76.1
X112.75Y-80.45
X112.75Y-81.95
X112.75Y-83.45
X112.75Y-99.8
X112.75Y-101.3
X112.75Y-102.8
X112.75Y-107.15
X112.75Y-108.65
X112.75Y-110.15
X112.75Y-114.4
X112.75Y-115.9
X112.75Y-117.4
X112.75Y-121.65
X112.75Y-123.15
X112.75Y-124.65
T6
X120.76Y-69.9
X121.02Y-57.215
X123.26Y-69.9
X123.52Y-57.215
T7
X142.555Y-122.09
X142.555Y-124.59
X142.555Y-127.09
T8
X112.32Y-129.3
X114.86Y-129.3
X117.4Y-129.3
X119.94Y-129.3
X143.835Y-67.675
X143.835Y-70.175
X143.93Y-57.13
X143.93Y-59.63
T9
X119.64Y-80.53
X124.64Y-80.53
T4
G00X129.23Y-132.105
M15
G01X129.23Y-131.005
M16
G05
G00X129.23Y-136.035
M15
G01X129.23Y-135.435
M16
G05
G00X137.87Y-132.105
M15
G01X137.87Y-131.005
M16
G05
G00X137.87Y-136.035
M15
G01X137.87Y-135.435
M16
G05
M30
