G04 #@! TF.GenerationSoftware,KiCad,Pcbnew,8.0.8*
G04 #@! TF.CreationDate,2025-02-25T21:21:12+02:00*
G04 #@! TF.ProjectId,minisumo_2025,6d696e69-7375-46d6-9f5f-323032352e6b,rev?*
G04 #@! TF.SameCoordinates,Original*
G04 #@! TF.FileFunction,Soldermask,Top*
G04 #@! TF.FilePolarity,Negative*
%FSLAX46Y46*%
G04 Gerber Fmt 4.6, Leading zero omitted, Abs format (unit mm)*
G04 Created by KiCad (PCBNEW 8.0.8) date 2025-02-25 21:21:12*
%MOMM*%
%LPD*%
G01*
G04 APERTURE LIST*
G04 Aperture macros list*
%AMRoundRect*
0 Rectangle with rounded corners*
0 $1 Rounding radius*
0 $2 $3 $4 $5 $6 $7 $8 $9 X,Y pos of 4 corners*
0 Add a 4 corners polygon primitive as box body*
4,1,4,$2,$3,$4,$5,$6,$7,$8,$9,$2,$3,0*
0 Add four circle primitives for the rounded corners*
1,1,$1+$1,$2,$3*
1,1,$1+$1,$4,$5*
1,1,$1+$1,$6,$7*
1,1,$1+$1,$8,$9*
0 Add four rect primitives between the rounded corners*
20,1,$1+$1,$2,$3,$4,$5,0*
20,1,$1+$1,$4,$5,$6,$7,0*
20,1,$1+$1,$6,$7,$8,$9,0*
20,1,$1+$1,$8,$9,$2,$3,0*%
G04 Aperture macros list end*
%ADD10C,0.000000*%
%ADD11RoundRect,0.140000X-0.140000X-0.170000X0.140000X-0.170000X0.140000X0.170000X-0.140000X0.170000X0*%
%ADD12RoundRect,0.135000X0.135000X0.185000X-0.135000X0.185000X-0.135000X-0.185000X0.135000X-0.185000X0*%
%ADD13RoundRect,0.250000X-0.325000X-1.100000X0.325000X-1.100000X0.325000X1.100000X-0.325000X1.100000X0*%
%ADD14RoundRect,0.135000X-0.185000X0.135000X-0.185000X-0.135000X0.185000X-0.135000X0.185000X0.135000X0*%
%ADD15R,1.500000X1.500000*%
%ADD16RoundRect,0.140000X0.140000X0.170000X-0.140000X0.170000X-0.140000X-0.170000X0.140000X-0.170000X0*%
%ADD17RoundRect,0.102000X0.900000X-0.675000X0.900000X0.675000X-0.900000X0.675000X-0.900000X-0.675000X0*%
%ADD18RoundRect,0.292560X-0.259440X-0.259440X0.259440X-0.259440X0.259440X0.259440X-0.259440X0.259440X0*%
%ADD19RoundRect,0.202460X-0.604540X-0.179540X0.604540X-0.179540X0.604540X0.179540X-0.604540X0.179540X0*%
%ADD20RoundRect,0.202460X-0.179540X-0.604540X0.179540X-0.604540X0.179540X0.604540X-0.179540X0.604540X0*%
%ADD21RoundRect,0.102000X-2.500000X-2.500000X2.500000X-2.500000X2.500000X2.500000X-2.500000X2.500000X0*%
%ADD22RoundRect,0.225000X-0.225000X-0.250000X0.225000X-0.250000X0.225000X0.250000X-0.225000X0.250000X0*%
%ADD23C,1.600000*%
%ADD24R,0.599999X1.549999*%
%ADD25C,0.499999*%
%ADD26RoundRect,0.225000X-0.250000X0.225000X-0.250000X-0.225000X0.250000X-0.225000X0.250000X0.225000X0*%
%ADD27RoundRect,0.760000X1.140000X1.140000X-1.140000X1.140000X-1.140000X-1.140000X1.140000X-1.140000X0*%
%ADD28C,4.000000*%
%ADD29RoundRect,0.250000X-1.100000X0.325000X-1.100000X-0.325000X1.100000X-0.325000X1.100000X0.325000X0*%
%ADD30RoundRect,0.250000X0.750000X-0.600000X0.750000X0.600000X-0.750000X0.600000X-0.750000X-0.600000X0*%
%ADD31O,2.000000X1.700000*%
%ADD32R,1.200000X1.200000*%
%ADD33RoundRect,0.140000X-0.170000X0.140000X-0.170000X-0.140000X0.170000X-0.140000X0.170000X0.140000X0*%
%ADD34RoundRect,0.225000X0.250000X-0.225000X0.250000X0.225000X-0.250000X0.225000X-0.250000X-0.225000X0*%
%ADD35R,1.000000X0.599999*%
%ADD36RoundRect,0.250000X0.325000X1.100000X-0.325000X1.100000X-0.325000X-1.100000X0.325000X-1.100000X0*%
%ADD37RoundRect,0.225000X0.225000X0.250000X-0.225000X0.250000X-0.225000X-0.250000X0.225000X-0.250000X0*%
%ADD38RoundRect,0.135000X0.185000X-0.135000X0.185000X0.135000X-0.185000X0.135000X-0.185000X-0.135000X0*%
%ADD39RoundRect,0.250000X-0.250000X-0.475000X0.250000X-0.475000X0.250000X0.475000X-0.250000X0.475000X0*%
%ADD40RoundRect,0.218750X-0.218750X-0.256250X0.218750X-0.256250X0.218750X0.256250X-0.218750X0.256250X0*%
%ADD41RoundRect,0.218750X-0.256250X0.218750X-0.256250X-0.218750X0.256250X-0.218750X0.256250X0.218750X0*%
%ADD42RoundRect,0.250000X0.725000X-0.600000X0.725000X0.600000X-0.725000X0.600000X-0.725000X-0.600000X0*%
%ADD43O,1.950000X1.700000*%
%ADD44R,1.099998X0.199898*%
%ADD45R,0.999998X0.199898*%
%ADD46R,1.700000X1.700000*%
%ADD47O,1.700000X1.700000*%
%ADD48RoundRect,0.140000X0.170000X-0.140000X0.170000X0.140000X-0.170000X0.140000X-0.170000X-0.140000X0*%
%ADD49RoundRect,0.225000X0.225000X0.375000X-0.225000X0.375000X-0.225000X-0.375000X0.225000X-0.375000X0*%
%ADD50RoundRect,0.102000X2.750000X-0.715000X2.750000X0.715000X-2.750000X0.715000X-2.750000X-0.715000X0*%
%ADD51RoundRect,0.250000X-0.615000X0.265000X-0.615000X-0.265000X0.615000X-0.265000X0.615000X0.265000X0*%
%ADD52O,1.730000X1.030000*%
%ADD53C,0.650000*%
%ADD54O,1.000000X1.600000*%
%ADD55O,1.000000X2.100000*%
G04 APERTURE END LIST*
D10*
G04 #@! TO.C,U1*
G36*
X125204999Y-102060000D02*
G01*
X122105001Y-102060000D01*
X122105001Y-99460000D01*
X125204999Y-99460000D01*
X125204999Y-102060000D01*
G37*
G04 #@! TO.C,U5*
G36*
X141529999Y-103749951D02*
G01*
X140530001Y-103749951D01*
X140530001Y-103550053D01*
X141529999Y-103550053D01*
X141529999Y-103749951D01*
G37*
G36*
X141529999Y-104149950D02*
G01*
X140530001Y-104149950D01*
X140530001Y-103950052D01*
X141529999Y-103950052D01*
X141529999Y-104149950D01*
G37*
G36*
X141529999Y-104549949D02*
G01*
X140530001Y-104549949D01*
X140530001Y-104350051D01*
X141529999Y-104350051D01*
X141529999Y-104549949D01*
G37*
G36*
X141529999Y-104949949D02*
G01*
X140530001Y-104949949D01*
X140530001Y-104750051D01*
X141529999Y-104750051D01*
X141529999Y-104949949D01*
G37*
G36*
X141529999Y-105349950D02*
G01*
X140530001Y-105349950D01*
X140530001Y-105150052D01*
X141529999Y-105150052D01*
X141529999Y-105349950D01*
G37*
G36*
X141529999Y-105749950D02*
G01*
X140530001Y-105749950D01*
X140530001Y-105550052D01*
X141529999Y-105550052D01*
X141529999Y-105749950D01*
G37*
G36*
X141529999Y-106149949D02*
G01*
X140530001Y-106149949D01*
X140530001Y-105950051D01*
X141529999Y-105950051D01*
X141529999Y-106149949D01*
G37*
G36*
X141529999Y-106549951D02*
G01*
X140530001Y-106549951D01*
X140530001Y-106350053D01*
X141529999Y-106350053D01*
X141529999Y-106549951D01*
G37*
G36*
X141529999Y-106949950D02*
G01*
X140530001Y-106949950D01*
X140530001Y-106750052D01*
X141529999Y-106750052D01*
X141529999Y-106949950D01*
G37*
G36*
X141529999Y-107349949D02*
G01*
X140530001Y-107349949D01*
X140530001Y-107150051D01*
X141529999Y-107150051D01*
X141529999Y-107349949D01*
G37*
G36*
X143330001Y-103749951D02*
G01*
X142330003Y-103749951D01*
X142330003Y-103550053D01*
X143330001Y-103550053D01*
X143330001Y-103749951D01*
G37*
G36*
X143330001Y-104149950D02*
G01*
X142330003Y-104149950D01*
X142330003Y-103950052D01*
X143330001Y-103950052D01*
X143330001Y-104149950D01*
G37*
G36*
X143330001Y-104549949D02*
G01*
X142330003Y-104549949D01*
X142330003Y-104350051D01*
X143330001Y-104350051D01*
X143330001Y-104549949D01*
G37*
G36*
X143330001Y-104949951D02*
G01*
X142330003Y-104949951D01*
X142330003Y-104750053D01*
X143330001Y-104750053D01*
X143330001Y-104949951D01*
G37*
G36*
X143330001Y-105349950D02*
G01*
X142330003Y-105349950D01*
X142330003Y-105150052D01*
X143330001Y-105150052D01*
X143330001Y-105349950D01*
G37*
G36*
X143330001Y-105749950D02*
G01*
X142330003Y-105749950D01*
X142330003Y-105550052D01*
X143330001Y-105550052D01*
X143330001Y-105749950D01*
G37*
G36*
X143330001Y-106149951D02*
G01*
X142330003Y-106149951D01*
X142330003Y-105950053D01*
X143330001Y-105950053D01*
X143330001Y-106149951D01*
G37*
G36*
X143330001Y-106549951D02*
G01*
X142330003Y-106549951D01*
X142330003Y-106350053D01*
X143330001Y-106350053D01*
X143330001Y-106549951D01*
G37*
G36*
X143330001Y-106949950D02*
G01*
X142330003Y-106949950D01*
X142330003Y-106750052D01*
X143330001Y-106750052D01*
X143330001Y-106949950D01*
G37*
G36*
X143330001Y-107349949D02*
G01*
X142330003Y-107349949D01*
X142330003Y-107150051D01*
X143330001Y-107150051D01*
X143330001Y-107349949D01*
G37*
G04 #@! TD*
D11*
G04 #@! TO.C,C7*
X124640000Y-131650000D03*
X125600000Y-131650000D03*
G04 #@! TD*
D12*
G04 #@! TO.C,R7*
X122570000Y-131650000D03*
X121550000Y-131650000D03*
G04 #@! TD*
D13*
G04 #@! TO.C,C14*
X124079999Y-117870001D03*
X127029999Y-117870001D03*
G04 #@! TD*
D14*
G04 #@! TO.C,R24*
X114830000Y-121860000D03*
X114830000Y-122880000D03*
G04 #@! TD*
D15*
G04 #@! TO.C,TP3*
X115250000Y-103700000D03*
G04 #@! TD*
D13*
G04 #@! TO.C,C10*
X125430000Y-86310000D03*
X128380000Y-86310000D03*
G04 #@! TD*
D12*
G04 #@! TO.C,R18*
X119087500Y-51550000D03*
X118067500Y-51550000D03*
G04 #@! TD*
D15*
G04 #@! TO.C,TP7*
X142400000Y-89050000D03*
G04 #@! TD*
G04 #@! TO.C,TP9*
X142400000Y-81400000D03*
G04 #@! TD*
D16*
G04 #@! TO.C,C33*
X139250000Y-105890000D03*
X138290000Y-105890000D03*
G04 #@! TD*
D17*
G04 #@! TO.C,SW1*
X126050000Y-137205000D03*
X126050000Y-133055000D03*
G04 #@! TD*
D15*
G04 #@! TO.C,TP4*
X115200000Y-117750000D03*
G04 #@! TD*
D14*
G04 #@! TO.C,R6*
X129200000Y-117627500D03*
X129200000Y-118647500D03*
G04 #@! TD*
D18*
G04 #@! TO.C,U6*
X128850000Y-67725000D03*
D19*
X128640000Y-68675000D03*
X128640000Y-69475000D03*
X128640000Y-70275000D03*
X128640000Y-71075000D03*
X128640000Y-71875000D03*
X128640000Y-72675000D03*
X128640000Y-73475000D03*
D18*
X128850000Y-74425000D03*
D20*
X129800000Y-74635000D03*
X130600000Y-74635000D03*
X131400000Y-74635000D03*
X132200000Y-74635000D03*
X133000000Y-74635000D03*
X133800000Y-74635000D03*
X134600000Y-74635000D03*
D18*
X135550000Y-74425000D03*
D19*
X135760000Y-73475000D03*
X135760000Y-72675000D03*
X135760000Y-71875000D03*
X135760000Y-71075000D03*
X135760000Y-70275000D03*
X135760000Y-69475000D03*
X135760000Y-68675000D03*
D18*
X135550000Y-67725000D03*
D20*
X134600000Y-67515000D03*
X133800000Y-67515000D03*
X133000000Y-67515000D03*
X132200000Y-67515000D03*
X131400000Y-67515000D03*
X130600000Y-67515000D03*
X129800000Y-67515000D03*
D21*
X132200000Y-71075000D03*
G04 #@! TD*
D15*
G04 #@! TO.C,TP1*
X115300000Y-106200000D03*
G04 #@! TD*
D16*
G04 #@! TO.C,C18*
X115600000Y-131600000D03*
X114640000Y-131600000D03*
G04 #@! TD*
D15*
G04 #@! TO.C,TP2*
X115200000Y-115250000D03*
G04 #@! TD*
D22*
G04 #@! TO.C,C19*
X125325000Y-66600000D03*
X126875000Y-66600000D03*
G04 #@! TD*
D12*
G04 #@! TO.C,R17*
X119097500Y-50300000D03*
X118077500Y-50300000D03*
G04 #@! TD*
D23*
G04 #@! TO.C,C22*
X123260000Y-69900000D03*
X120760000Y-69900000D03*
G04 #@! TD*
D13*
G04 #@! TO.C,C4*
X120730000Y-93110000D03*
X123680000Y-93110000D03*
G04 #@! TD*
D24*
G04 #@! TO.C,U1*
X125560000Y-98060000D03*
X124290000Y-98060000D03*
X123020000Y-98060000D03*
X121750000Y-98060000D03*
X121750000Y-103460000D03*
X123020000Y-103460000D03*
X124290000Y-103460000D03*
X125560000Y-103460000D03*
D25*
X125605001Y-100109999D03*
X124305001Y-100109999D03*
X123004999Y-100109999D03*
X121704999Y-100109999D03*
X125605001Y-101410001D03*
X124305001Y-101410001D03*
X123004999Y-101410001D03*
X121704999Y-101410001D03*
G04 #@! TD*
D12*
G04 #@! TO.C,R25*
X119097500Y-53050000D03*
X118077500Y-53050000D03*
G04 #@! TD*
D26*
G04 #@! TO.C,C21*
X126775000Y-71100000D03*
X126775000Y-72650000D03*
G04 #@! TD*
D22*
G04 #@! TO.C,C11*
X126805000Y-95935000D03*
X128355000Y-95935000D03*
G04 #@! TD*
D11*
G04 #@! TO.C,C29*
X144980000Y-106000000D03*
X144020000Y-106000000D03*
G04 #@! TD*
D15*
G04 #@! TO.C,TP11*
X142450000Y-99250000D03*
G04 #@! TD*
D17*
G04 #@! TO.C,SW5*
X121150000Y-137200000D03*
X121150000Y-133050000D03*
G04 #@! TD*
D15*
G04 #@! TO.C,TP12*
X142450000Y-91600000D03*
G04 #@! TD*
G04 #@! TO.C,TP8*
X142400000Y-83950000D03*
G04 #@! TD*
G04 #@! TO.C,TP6*
X142400000Y-86500000D03*
G04 #@! TD*
D27*
G04 #@! TO.C,J6*
X124640000Y-80530000D03*
D28*
X119640000Y-80530000D03*
G04 #@! TD*
D29*
G04 #@! TO.C,C17*
X148370000Y-124380000D03*
X148370000Y-127330000D03*
G04 #@! TD*
D15*
G04 #@! TO.C,TP10*
X142450000Y-96700000D03*
G04 #@! TD*
D30*
G04 #@! TO.C,J4*
X143835000Y-70175000D03*
D31*
X143835000Y-67675000D03*
G04 #@! TD*
D32*
G04 #@! TO.C,D4*
X123550000Y-50400000D03*
X120750000Y-50400000D03*
G04 #@! TD*
D33*
G04 #@! TO.C,C16*
X138970000Y-124780000D03*
X138970000Y-125740000D03*
G04 #@! TD*
D15*
G04 #@! TO.C,*
X115200000Y-112700000D03*
G04 #@! TD*
D18*
G04 #@! TO.C,U7*
X128825000Y-53855000D03*
D19*
X128615000Y-54805000D03*
X128615000Y-55605000D03*
X128615000Y-56405000D03*
X128615000Y-57205000D03*
X128615000Y-58005000D03*
X128615000Y-58805000D03*
X128615000Y-59605000D03*
D18*
X128825000Y-60555000D03*
D20*
X129775000Y-60765000D03*
X130575000Y-60765000D03*
X131375000Y-60765000D03*
X132175000Y-60765000D03*
X132975000Y-60765000D03*
X133775000Y-60765000D03*
X134575000Y-60765000D03*
D18*
X135525000Y-60555000D03*
D19*
X135735000Y-59605000D03*
X135735000Y-58805000D03*
X135735000Y-58005000D03*
X135735000Y-57205000D03*
X135735000Y-56405000D03*
X135735000Y-55605000D03*
X135735000Y-54805000D03*
D18*
X135525000Y-53855000D03*
D20*
X134575000Y-53645000D03*
X133775000Y-53645000D03*
X132975000Y-53645000D03*
X132175000Y-53645000D03*
X131375000Y-53645000D03*
X130575000Y-53645000D03*
X129775000Y-53645000D03*
D21*
X132175000Y-57205000D03*
G04 #@! TD*
D14*
G04 #@! TO.C,R5*
X120355000Y-102435000D03*
X120355000Y-103455000D03*
G04 #@! TD*
D26*
G04 #@! TO.C,C21*
X130215000Y-76285000D03*
X130215000Y-77835000D03*
G04 #@! TD*
D34*
G04 #@! TO.C,C21*
X130060000Y-51650000D03*
X130060000Y-50100000D03*
G04 #@! TD*
D35*
G04 #@! TO.C,U4*
X123954998Y-113450000D03*
X123954998Y-114400001D03*
X123954998Y-115349999D03*
X126704998Y-115349999D03*
X126704998Y-113450000D03*
G04 #@! TD*
D36*
G04 #@! TO.C,C15*
X126999999Y-110920001D03*
X124049999Y-110920001D03*
G04 #@! TD*
D22*
G04 #@! TO.C,C20*
X126850000Y-52000000D03*
X128400000Y-52000000D03*
G04 #@! TD*
D37*
G04 #@! TO.C,C23*
X130200000Y-65700000D03*
X128650000Y-65700000D03*
G04 #@! TD*
D14*
G04 #@! TO.C,R21*
X114800000Y-60380000D03*
X114800000Y-61400000D03*
G04 #@! TD*
D38*
G04 #@! TO.C,R4*
X119280000Y-103455000D03*
X119280000Y-102435000D03*
G04 #@! TD*
D39*
G04 #@! TO.C,C5*
X123455000Y-95935000D03*
X125355000Y-95935000D03*
G04 #@! TD*
D15*
G04 #@! TO.C,TP13*
X142450000Y-94150000D03*
G04 #@! TD*
D12*
G04 #@! TO.C,R1*
X127480000Y-131650000D03*
X126460000Y-131650000D03*
G04 #@! TD*
D40*
G04 #@! TO.C,D7*
X115312500Y-50050000D03*
X116887500Y-50050000D03*
G04 #@! TD*
D13*
G04 #@! TO.C,C8*
X125430000Y-89685000D03*
X128380000Y-89685000D03*
G04 #@! TD*
D41*
G04 #@! TO.C,D2*
X130450000Y-117175000D03*
X130450000Y-118750000D03*
G04 #@! TD*
D16*
G04 #@! TO.C,C3*
X125585001Y-105210001D03*
X124625001Y-105210001D03*
G04 #@! TD*
D23*
G04 #@! TO.C,C24*
X123520000Y-57215000D03*
X121020000Y-57215000D03*
G04 #@! TD*
D26*
G04 #@! TO.C,C21*
X126900000Y-57200000D03*
X126900000Y-58750000D03*
G04 #@! TD*
D17*
G04 #@! TO.C,SW2*
X116150000Y-137175000D03*
X116150000Y-133025000D03*
G04 #@! TD*
D32*
G04 #@! TO.C,D6*
X123550000Y-52650000D03*
X120750000Y-52650000D03*
G04 #@! TD*
D42*
G04 #@! TO.C,J2*
X142555000Y-127090000D03*
D43*
X142555000Y-124590000D03*
X142555000Y-122090000D03*
G04 #@! TD*
D14*
G04 #@! TO.C,R23*
X114830000Y-123760000D03*
X114830000Y-124780000D03*
G04 #@! TD*
D44*
G04 #@! TO.C,U5*
X142780002Y-107250000D03*
D45*
X142830002Y-106850001D03*
X142830002Y-106450002D03*
X142830002Y-106050002D03*
X142830002Y-105650001D03*
X142830002Y-105250001D03*
X142830002Y-104850002D03*
X142830002Y-104450000D03*
X142830002Y-104050001D03*
X142830002Y-103650002D03*
X141030000Y-103650002D03*
X141030000Y-104050001D03*
X141030000Y-104450000D03*
X141030000Y-104850000D03*
X141030000Y-105250001D03*
X141030000Y-105650001D03*
X141030000Y-106050000D03*
X141030000Y-106450002D03*
X141030000Y-106850001D03*
X141030000Y-107250000D03*
G04 #@! TD*
D15*
G04 #@! TO.C,TP5*
X115200000Y-112700000D03*
G04 #@! TD*
D37*
G04 #@! TO.C,C21*
X130120000Y-62470000D03*
X128570000Y-62470000D03*
G04 #@! TD*
D26*
G04 #@! TO.C,C13*
X123005001Y-105410001D03*
X123005001Y-106960001D03*
G04 #@! TD*
D13*
G04 #@! TO.C,C9*
X125442812Y-93129793D03*
X128392812Y-93129793D03*
G04 #@! TD*
D11*
G04 #@! TO.C,C12*
X119740000Y-131650000D03*
X120700000Y-131650000D03*
G04 #@! TD*
D40*
G04 #@! TO.C,D9*
X115300000Y-53050000D03*
X116875000Y-53050000D03*
G04 #@! TD*
D46*
G04 #@! TO.C,J3*
X112320000Y-129300000D03*
D47*
X114860000Y-129300000D03*
X117400000Y-129300000D03*
X119940000Y-129300000D03*
G04 #@! TD*
D48*
G04 #@! TO.C,C26*
X140055000Y-58790000D03*
X140055000Y-57830000D03*
G04 #@! TD*
D40*
G04 #@! TO.C,D8*
X115312500Y-51550000D03*
X116887500Y-51550000D03*
G04 #@! TD*
D48*
G04 #@! TO.C,C25*
X140060000Y-69405000D03*
X140060000Y-68445000D03*
G04 #@! TD*
D49*
G04 #@! TO.C,D1*
X135887500Y-86560000D03*
X132587500Y-86560000D03*
G04 #@! TD*
D12*
G04 #@! TO.C,R8*
X117520000Y-131600000D03*
X116500000Y-131600000D03*
G04 #@! TD*
D50*
G04 #@! TO.C,L1*
X130555000Y-103460000D03*
X130555000Y-99420000D03*
G04 #@! TD*
D14*
G04 #@! TO.C,R22*
X114800000Y-58480000D03*
X114800000Y-59500000D03*
G04 #@! TD*
D30*
G04 #@! TO.C,J5*
X143930000Y-59630000D03*
D31*
X143930000Y-57130000D03*
G04 #@! TD*
D51*
G04 #@! TO.C,J10*
X112750000Y-65750000D03*
D52*
X112750000Y-67250000D03*
X112750000Y-68750000D03*
G04 #@! TD*
G04 #@! TO.C,J8*
X112700000Y-88000000D03*
D51*
X112700000Y-89500000D03*
D52*
X112700000Y-91000000D03*
X112700000Y-92500000D03*
X112700000Y-94000000D03*
X112700000Y-95500000D03*
G04 #@! TD*
D53*
G04 #@! TO.C,J1*
X136440000Y-132055000D03*
X130660000Y-132055000D03*
D54*
X137870000Y-135735000D03*
D55*
X137870000Y-131555000D03*
D54*
X129230000Y-135735000D03*
D55*
X129230000Y-131555000D03*
G04 #@! TD*
D51*
G04 #@! TO.C,J11*
X112750000Y-73100000D03*
D52*
X112750000Y-74600000D03*
X112750000Y-76100000D03*
G04 #@! TD*
D51*
G04 #@! TO.C,J15*
X112750000Y-121650000D03*
D52*
X112750000Y-123150000D03*
X112750000Y-124650000D03*
G04 #@! TD*
D51*
G04 #@! TO.C,J12*
X112750000Y-80450000D03*
D52*
X112750000Y-81950000D03*
X112750000Y-83450000D03*
G04 #@! TD*
D51*
G04 #@! TO.C,J13*
X112750000Y-114400000D03*
D52*
X112750000Y-115900000D03*
X112750000Y-117400000D03*
G04 #@! TD*
D51*
G04 #@! TO.C,J14*
X112750000Y-107150000D03*
D52*
X112750000Y-108650000D03*
X112750000Y-110150000D03*
G04 #@! TD*
D51*
G04 #@! TO.C,J16*
X112750000Y-99800000D03*
D52*
X112750000Y-101300000D03*
X112750000Y-102800000D03*
G04 #@! TD*
D51*
G04 #@! TO.C,J9*
X112750000Y-58400000D03*
D52*
X112750000Y-59900000D03*
X112750000Y-61400000D03*
G04 #@! TD*
M02*
