G04 #@! TF.GenerationSoftware,KiCad,Pcbnew,8.0.8*
G04 #@! TF.CreationDate,2025-02-25T21:21:12+02:00*
G04 #@! TF.ProjectId,minisumo_2025,6d696e69-7375-46d6-9f5f-323032352e6b,rev?*
G04 #@! TF.SameCoordinates,Original*
G04 #@! TF.FileFunction,Paste,Bot*
G04 #@! TF.FilePolarity,Positive*
%FSLAX46Y46*%
G04 Gerber Fmt 4.6, Leading zero omitted, Abs format (unit mm)*
G04 Created by KiCad (PCBNEW 8.0.8) date 2025-02-25 21:21:12*
%MOMM*%
%LPD*%
G01*
G04 APERTURE LIST*
G04 Aperture macros list*
%AMRoundRect*
0 Rectangle with rounded corners*
0 $1 Rounding radius*
0 $2 $3 $4 $5 $6 $7 $8 $9 X,Y pos of 4 corners*
0 Add a 4 corners polygon primitive as box body*
4,1,4,$2,$3,$4,$5,$6,$7,$8,$9,$2,$3,0*
0 Add four circle primitives for the rounded corners*
1,1,$1+$1,$2,$3*
1,1,$1+$1,$4,$5*
1,1,$1+$1,$6,$7*
1,1,$1+$1,$8,$9*
0 Add four rect primitives between the rounded corners*
20,1,$1+$1,$2,$3,$4,$5,0*
20,1,$1+$1,$4,$5,$6,$7,0*
20,1,$1+$1,$6,$7,$8,$9,0*
20,1,$1+$1,$8,$9,$2,$3,0*%
G04 Aperture macros list end*
%ADD10RoundRect,0.135000X-0.185000X0.135000X-0.185000X-0.135000X0.185000X-0.135000X0.185000X0.135000X0*%
%ADD11RoundRect,0.140000X-0.140000X-0.170000X0.140000X-0.170000X0.140000X0.170000X-0.140000X0.170000X0*%
%ADD12RoundRect,0.150000X0.150000X0.500000X-0.150000X0.500000X-0.150000X-0.500000X0.150000X-0.500000X0*%
%ADD13RoundRect,0.075000X0.075000X0.575000X-0.075000X0.575000X-0.075000X-0.575000X0.075000X-0.575000X0*%
%ADD14RoundRect,0.135000X0.135000X0.185000X-0.135000X0.185000X-0.135000X-0.185000X0.135000X-0.185000X0*%
%ADD15RoundRect,0.225000X-0.225000X-0.375000X0.225000X-0.375000X0.225000X0.375000X-0.225000X0.375000X0*%
%ADD16RoundRect,0.093750X-0.093750X0.156250X-0.093750X-0.156250X0.093750X-0.156250X0.093750X0.156250X0*%
%ADD17RoundRect,0.075000X-0.075000X0.250000X-0.075000X-0.250000X0.075000X-0.250000X0.075000X0.250000X0*%
%ADD18R,1.200000X1.200000*%
%ADD19RoundRect,0.225000X0.225000X0.250000X-0.225000X0.250000X-0.225000X-0.250000X0.225000X-0.250000X0*%
%ADD20RoundRect,0.225000X-0.225000X-0.250000X0.225000X-0.250000X0.225000X0.250000X-0.225000X0.250000X0*%
%ADD21RoundRect,0.140000X0.170000X-0.140000X0.170000X0.140000X-0.170000X0.140000X-0.170000X-0.140000X0*%
%ADD22RoundRect,0.135000X0.185000X-0.135000X0.185000X0.135000X-0.185000X0.135000X-0.185000X-0.135000X0*%
%ADD23R,0.900000X0.900000*%
%ADD24R,0.900000X1.500000*%
%ADD25R,1.500000X0.900000*%
G04 APERTURE END LIST*
D10*
G04 #@! TO.C,R2*
X135430000Y-125150000D03*
X135430000Y-126170000D03*
G04 #@! TD*
D11*
G04 #@! TO.C,C1*
X148140000Y-120040000D03*
X149100000Y-120040000D03*
G04 #@! TD*
D12*
G04 #@! TO.C,J1*
X136750000Y-130915000D03*
X135950000Y-130915000D03*
D13*
X134800000Y-130915000D03*
X133800000Y-130915000D03*
X133300000Y-130915000D03*
X132300000Y-130915000D03*
D12*
X131150000Y-130915000D03*
X130350000Y-130915000D03*
X130350000Y-130915000D03*
X131150000Y-130915000D03*
D13*
X131800000Y-130915000D03*
X132800000Y-130915000D03*
X134300000Y-130915000D03*
X135300000Y-130915000D03*
D12*
X135950000Y-130915000D03*
X136750000Y-130915000D03*
G04 #@! TD*
D10*
G04 #@! TO.C,R16*
X146650000Y-86790000D03*
X146650000Y-87810000D03*
G04 #@! TD*
D14*
G04 #@! TO.C,R15*
X144820000Y-52900000D03*
X143800000Y-52900000D03*
G04 #@! TD*
D15*
G04 #@! TO.C,D3*
X126612500Y-128570000D03*
X129912500Y-128570000D03*
G04 #@! TD*
D10*
G04 #@! TO.C,R14*
X143150000Y-87000000D03*
X143150000Y-88020000D03*
G04 #@! TD*
G04 #@! TO.C,R20*
X146650000Y-82190000D03*
X146650000Y-83210000D03*
G04 #@! TD*
G04 #@! TO.C,R10*
X146650000Y-91640000D03*
X146650000Y-92660000D03*
G04 #@! TD*
D16*
G04 #@! TO.C,U2*
X133012500Y-124800000D03*
D17*
X133550000Y-124725000D03*
D16*
X134087500Y-124800000D03*
X134087500Y-126500000D03*
D17*
X133550000Y-126575000D03*
D16*
X133012500Y-126500000D03*
G04 #@! TD*
D18*
G04 #@! TO.C,D5*
X123500000Y-51550000D03*
X120700000Y-51550000D03*
G04 #@! TD*
D10*
G04 #@! TO.C,R12*
X146650000Y-96290000D03*
X146650000Y-97310000D03*
G04 #@! TD*
D19*
G04 #@! TO.C,C27*
X128950000Y-76500000D03*
X127400000Y-76500000D03*
G04 #@! TD*
G04 #@! TO.C,C28*
X126346351Y-61355026D03*
X124796351Y-61355026D03*
G04 #@! TD*
D10*
G04 #@! TO.C,R11*
X143150000Y-96090000D03*
X143150000Y-97110000D03*
G04 #@! TD*
G04 #@! TO.C,R9*
X143150000Y-91540000D03*
X143150000Y-92560000D03*
G04 #@! TD*
D11*
G04 #@! TO.C,C32*
X145910000Y-120040000D03*
X146870000Y-120040000D03*
G04 #@! TD*
D10*
G04 #@! TO.C,R19*
X143200000Y-82150000D03*
X143200000Y-83170000D03*
G04 #@! TD*
D20*
G04 #@! TO.C,C2*
X147875000Y-121300000D03*
X149425000Y-121300000D03*
G04 #@! TD*
D21*
G04 #@! TO.C,C6*
X131150000Y-129270000D03*
X131150000Y-128310000D03*
G04 #@! TD*
D22*
G04 #@! TO.C,R13*
X142381398Y-76918228D03*
X142381398Y-75898228D03*
G04 #@! TD*
D23*
G04 #@! TO.C,U3*
X140290000Y-112650000D03*
X141690000Y-112650000D03*
X143090000Y-112650000D03*
X140290000Y-111250000D03*
X141690000Y-111250000D03*
X143090000Y-111250000D03*
X140290000Y-109850000D03*
X141690000Y-109850000D03*
X143090000Y-109850000D03*
D24*
X149410000Y-118500000D03*
X148140000Y-118500000D03*
X146870000Y-118500000D03*
X145600000Y-118500000D03*
X144330000Y-118500000D03*
X143060000Y-118500000D03*
X141790000Y-118500000D03*
X140520000Y-118500000D03*
X139250000Y-118500000D03*
X137980000Y-118500000D03*
X136710000Y-118500000D03*
X135440000Y-118500000D03*
X134170000Y-118500000D03*
X132900000Y-118500000D03*
D25*
X131650000Y-116735000D03*
X131650000Y-115465000D03*
X131650000Y-114195000D03*
X131650000Y-112925000D03*
X131650000Y-111655000D03*
X131650000Y-110385000D03*
X131650000Y-109115000D03*
X131650000Y-107845000D03*
X131650000Y-106575000D03*
X131650000Y-105305000D03*
X131650000Y-104035000D03*
X131650000Y-102765000D03*
D24*
X132900000Y-101000000D03*
X134170000Y-101000000D03*
X135440000Y-101000000D03*
X136710000Y-101000000D03*
X137980000Y-101000000D03*
X139250000Y-101000000D03*
X140520000Y-101000000D03*
X141790000Y-101000000D03*
X143060000Y-101000000D03*
X144330000Y-101000000D03*
X145600000Y-101000000D03*
X146870000Y-101000000D03*
X148140000Y-101000000D03*
X149410000Y-101000000D03*
G04 #@! TD*
D10*
G04 #@! TO.C,R3*
X131680000Y-125135000D03*
X131680000Y-126155000D03*
G04 #@! TD*
M02*
