%TF.GenerationSoftware,KiCad,Pcbnew,8.0.8*%
%TF.CreationDate,2025-02-25T21:21:12+02:00*%
%TF.ProjectId,minisumo_2025,6d696e69-7375-46d6-9f5f-323032352e6b,rev?*%
%TF.SameCoordinates,Original*%
%TF.FileFunction,Drillmap*%
%TF.FilePolarity,Positive*%
%FSLAX45Y45*%
G04 Gerber Fmt 4.5, Leading zero omitted, Abs format (unit mm)*
G04 Created by KiCad (PCBNEW 8.0.8) date 2025-02-25 21:21:12*
%MOMM*%
%LPD*%
G01*
G04 APERTURE LIST*
%ADD10C,0.200000*%
%ADD11C,0.100000*%
G04 APERTURE END LIST*
D10*
X11038438Y-13845000D02*
X15050000Y-13845000D01*
X11038438Y-4845000D02*
X11038438Y-13845000D01*
X15050000Y-4845000D02*
X11038438Y-4845000D01*
X11340038Y-13545000D02*
G75*
G02*
X11140038Y-13545000I-100000J0D01*
G01*
X11140038Y-13545000D02*
G75*
G02*
X11340038Y-13545000I100000J0D01*
G01*
X11340038Y-5145000D02*
G75*
G02*
X11140038Y-5145000I-100000J0D01*
G01*
X11140038Y-5145000D02*
G75*
G02*
X11340038Y-5145000I100000J0D01*
G01*
X15050000Y-13845000D02*
X15050000Y-4845000D01*
D11*
X13033500Y-13173000D02*
X13098500Y-13238000D01*
X13098500Y-13173000D02*
X13033500Y-13238000D01*
X13611500Y-13173000D02*
X13676500Y-13238000D01*
X13676500Y-13173000D02*
X13611500Y-13238000D01*
D10*
X11289214Y-14166484D02*
X11289214Y-13966484D01*
X11289214Y-13966484D02*
X11336833Y-13966484D01*
X11336833Y-13966484D02*
X11365405Y-13976008D01*
X11365405Y-13976008D02*
X11384453Y-13995055D01*
X11384453Y-13995055D02*
X11393976Y-14014103D01*
X11393976Y-14014103D02*
X11403500Y-14052198D01*
X11403500Y-14052198D02*
X11403500Y-14080769D01*
X11403500Y-14080769D02*
X11393976Y-14118865D01*
X11393976Y-14118865D02*
X11384453Y-14137912D01*
X11384453Y-14137912D02*
X11365405Y-14156960D01*
X11365405Y-14156960D02*
X11336833Y-14166484D01*
X11336833Y-14166484D02*
X11289214Y-14166484D01*
X11489214Y-14166484D02*
X11489214Y-14033150D01*
X11489214Y-14071246D02*
X11498738Y-14052198D01*
X11498738Y-14052198D02*
X11508262Y-14042674D01*
X11508262Y-14042674D02*
X11527310Y-14033150D01*
X11527310Y-14033150D02*
X11546357Y-14033150D01*
X11613024Y-14166484D02*
X11613024Y-14033150D01*
X11613024Y-13966484D02*
X11603500Y-13976008D01*
X11603500Y-13976008D02*
X11613024Y-13985531D01*
X11613024Y-13985531D02*
X11622548Y-13976008D01*
X11622548Y-13976008D02*
X11613024Y-13966484D01*
X11613024Y-13966484D02*
X11613024Y-13985531D01*
X11736833Y-14166484D02*
X11717786Y-14156960D01*
X11717786Y-14156960D02*
X11708262Y-14137912D01*
X11708262Y-14137912D02*
X11708262Y-13966484D01*
X11841595Y-14166484D02*
X11822548Y-14156960D01*
X11822548Y-14156960D02*
X11813024Y-14137912D01*
X11813024Y-14137912D02*
X11813024Y-13966484D01*
X12070167Y-14166484D02*
X12070167Y-13966484D01*
X12070167Y-13966484D02*
X12136834Y-14109341D01*
X12136834Y-14109341D02*
X12203500Y-13966484D01*
X12203500Y-13966484D02*
X12203500Y-14166484D01*
X12384453Y-14166484D02*
X12384453Y-14061722D01*
X12384453Y-14061722D02*
X12374929Y-14042674D01*
X12374929Y-14042674D02*
X12355881Y-14033150D01*
X12355881Y-14033150D02*
X12317786Y-14033150D01*
X12317786Y-14033150D02*
X12298738Y-14042674D01*
X12384453Y-14156960D02*
X12365405Y-14166484D01*
X12365405Y-14166484D02*
X12317786Y-14166484D01*
X12317786Y-14166484D02*
X12298738Y-14156960D01*
X12298738Y-14156960D02*
X12289214Y-14137912D01*
X12289214Y-14137912D02*
X12289214Y-14118865D01*
X12289214Y-14118865D02*
X12298738Y-14099817D01*
X12298738Y-14099817D02*
X12317786Y-14090293D01*
X12317786Y-14090293D02*
X12365405Y-14090293D01*
X12365405Y-14090293D02*
X12384453Y-14080769D01*
X12479691Y-14033150D02*
X12479691Y-14233150D01*
X12479691Y-14042674D02*
X12498738Y-14033150D01*
X12498738Y-14033150D02*
X12536834Y-14033150D01*
X12536834Y-14033150D02*
X12555881Y-14042674D01*
X12555881Y-14042674D02*
X12565405Y-14052198D01*
X12565405Y-14052198D02*
X12574929Y-14071246D01*
X12574929Y-14071246D02*
X12574929Y-14128388D01*
X12574929Y-14128388D02*
X12565405Y-14147436D01*
X12565405Y-14147436D02*
X12555881Y-14156960D01*
X12555881Y-14156960D02*
X12536834Y-14166484D01*
X12536834Y-14166484D02*
X12498738Y-14166484D01*
X12498738Y-14166484D02*
X12479691Y-14156960D01*
X12660643Y-14147436D02*
X12670167Y-14156960D01*
X12670167Y-14156960D02*
X12660643Y-14166484D01*
X12660643Y-14166484D02*
X12651119Y-14156960D01*
X12651119Y-14156960D02*
X12660643Y-14147436D01*
X12660643Y-14147436D02*
X12660643Y-14166484D01*
X12660643Y-14042674D02*
X12670167Y-14052198D01*
X12670167Y-14052198D02*
X12660643Y-14061722D01*
X12660643Y-14061722D02*
X12651119Y-14052198D01*
X12651119Y-14052198D02*
X12660643Y-14042674D01*
X12660643Y-14042674D02*
X12660643Y-14061722D01*
D11*
X10963438Y-14462500D02*
X11028438Y-14527500D01*
X11028438Y-14462500D02*
X10963438Y-14527500D01*
D10*
X11327310Y-14386484D02*
X11346357Y-14386484D01*
X11346357Y-14386484D02*
X11365405Y-14396008D01*
X11365405Y-14396008D02*
X11374929Y-14405531D01*
X11374929Y-14405531D02*
X11384453Y-14424579D01*
X11384453Y-14424579D02*
X11393976Y-14462674D01*
X11393976Y-14462674D02*
X11393976Y-14510293D01*
X11393976Y-14510293D02*
X11384453Y-14548388D01*
X11384453Y-14548388D02*
X11374929Y-14567436D01*
X11374929Y-14567436D02*
X11365405Y-14576960D01*
X11365405Y-14576960D02*
X11346357Y-14586484D01*
X11346357Y-14586484D02*
X11327310Y-14586484D01*
X11327310Y-14586484D02*
X11308262Y-14576960D01*
X11308262Y-14576960D02*
X11298738Y-14567436D01*
X11298738Y-14567436D02*
X11289214Y-14548388D01*
X11289214Y-14548388D02*
X11279691Y-14510293D01*
X11279691Y-14510293D02*
X11279691Y-14462674D01*
X11279691Y-14462674D02*
X11289214Y-14424579D01*
X11289214Y-14424579D02*
X11298738Y-14405531D01*
X11298738Y-14405531D02*
X11308262Y-14396008D01*
X11308262Y-14396008D02*
X11327310Y-14386484D01*
X11479691Y-14567436D02*
X11489214Y-14576960D01*
X11489214Y-14576960D02*
X11479691Y-14586484D01*
X11479691Y-14586484D02*
X11470167Y-14576960D01*
X11470167Y-14576960D02*
X11479691Y-14567436D01*
X11479691Y-14567436D02*
X11479691Y-14586484D01*
X11660643Y-14386484D02*
X11622548Y-14386484D01*
X11622548Y-14386484D02*
X11603500Y-14396008D01*
X11603500Y-14396008D02*
X11593976Y-14405531D01*
X11593976Y-14405531D02*
X11574929Y-14434103D01*
X11574929Y-14434103D02*
X11565405Y-14472198D01*
X11565405Y-14472198D02*
X11565405Y-14548388D01*
X11565405Y-14548388D02*
X11574929Y-14567436D01*
X11574929Y-14567436D02*
X11584453Y-14576960D01*
X11584453Y-14576960D02*
X11603500Y-14586484D01*
X11603500Y-14586484D02*
X11641595Y-14586484D01*
X11641595Y-14586484D02*
X11660643Y-14576960D01*
X11660643Y-14576960D02*
X11670167Y-14567436D01*
X11670167Y-14567436D02*
X11679691Y-14548388D01*
X11679691Y-14548388D02*
X11679691Y-14500769D01*
X11679691Y-14500769D02*
X11670167Y-14481722D01*
X11670167Y-14481722D02*
X11660643Y-14472198D01*
X11660643Y-14472198D02*
X11641595Y-14462674D01*
X11641595Y-14462674D02*
X11603500Y-14462674D01*
X11603500Y-14462674D02*
X11584453Y-14472198D01*
X11584453Y-14472198D02*
X11574929Y-14481722D01*
X11574929Y-14481722D02*
X11565405Y-14500769D01*
X11860643Y-14386484D02*
X11765405Y-14386484D01*
X11765405Y-14386484D02*
X11755881Y-14481722D01*
X11755881Y-14481722D02*
X11765405Y-14472198D01*
X11765405Y-14472198D02*
X11784453Y-14462674D01*
X11784453Y-14462674D02*
X11832072Y-14462674D01*
X11832072Y-14462674D02*
X11851119Y-14472198D01*
X11851119Y-14472198D02*
X11860643Y-14481722D01*
X11860643Y-14481722D02*
X11870167Y-14500769D01*
X11870167Y-14500769D02*
X11870167Y-14548388D01*
X11870167Y-14548388D02*
X11860643Y-14567436D01*
X11860643Y-14567436D02*
X11851119Y-14576960D01*
X11851119Y-14576960D02*
X11832072Y-14586484D01*
X11832072Y-14586484D02*
X11784453Y-14586484D01*
X11784453Y-14586484D02*
X11765405Y-14576960D01*
X11765405Y-14576960D02*
X11755881Y-14567436D01*
X11993976Y-14386484D02*
X12013024Y-14386484D01*
X12013024Y-14386484D02*
X12032072Y-14396008D01*
X12032072Y-14396008D02*
X12041595Y-14405531D01*
X12041595Y-14405531D02*
X12051119Y-14424579D01*
X12051119Y-14424579D02*
X12060643Y-14462674D01*
X12060643Y-14462674D02*
X12060643Y-14510293D01*
X12060643Y-14510293D02*
X12051119Y-14548388D01*
X12051119Y-14548388D02*
X12041595Y-14567436D01*
X12041595Y-14567436D02*
X12032072Y-14576960D01*
X12032072Y-14576960D02*
X12013024Y-14586484D01*
X12013024Y-14586484D02*
X11993976Y-14586484D01*
X11993976Y-14586484D02*
X11974929Y-14576960D01*
X11974929Y-14576960D02*
X11965405Y-14567436D01*
X11965405Y-14567436D02*
X11955881Y-14548388D01*
X11955881Y-14548388D02*
X11946357Y-14510293D01*
X11946357Y-14510293D02*
X11946357Y-14462674D01*
X11946357Y-14462674D02*
X11955881Y-14424579D01*
X11955881Y-14424579D02*
X11965405Y-14405531D01*
X11965405Y-14405531D02*
X11974929Y-14396008D01*
X11974929Y-14396008D02*
X11993976Y-14386484D01*
X12146357Y-14586484D02*
X12146357Y-14453150D01*
X12146357Y-14472198D02*
X12155881Y-14462674D01*
X12155881Y-14462674D02*
X12174929Y-14453150D01*
X12174929Y-14453150D02*
X12203500Y-14453150D01*
X12203500Y-14453150D02*
X12222548Y-14462674D01*
X12222548Y-14462674D02*
X12232072Y-14481722D01*
X12232072Y-14481722D02*
X12232072Y-14586484D01*
X12232072Y-14481722D02*
X12241595Y-14462674D01*
X12241595Y-14462674D02*
X12260643Y-14453150D01*
X12260643Y-14453150D02*
X12289214Y-14453150D01*
X12289214Y-14453150D02*
X12308262Y-14462674D01*
X12308262Y-14462674D02*
X12317786Y-14481722D01*
X12317786Y-14481722D02*
X12317786Y-14586484D01*
X12413024Y-14586484D02*
X12413024Y-14453150D01*
X12413024Y-14472198D02*
X12422548Y-14462674D01*
X12422548Y-14462674D02*
X12441595Y-14453150D01*
X12441595Y-14453150D02*
X12470167Y-14453150D01*
X12470167Y-14453150D02*
X12489215Y-14462674D01*
X12489215Y-14462674D02*
X12498738Y-14481722D01*
X12498738Y-14481722D02*
X12498738Y-14586484D01*
X12498738Y-14481722D02*
X12508262Y-14462674D01*
X12508262Y-14462674D02*
X12527310Y-14453150D01*
X12527310Y-14453150D02*
X12555881Y-14453150D01*
X12555881Y-14453150D02*
X12574929Y-14462674D01*
X12574929Y-14462674D02*
X12584453Y-14481722D01*
X12584453Y-14481722D02*
X12584453Y-14586484D01*
X12974929Y-14376960D02*
X12803500Y-14634103D01*
X13232072Y-14386484D02*
X13251119Y-14386484D01*
X13251119Y-14386484D02*
X13270167Y-14396008D01*
X13270167Y-14396008D02*
X13279691Y-14405531D01*
X13279691Y-14405531D02*
X13289215Y-14424579D01*
X13289215Y-14424579D02*
X13298738Y-14462674D01*
X13298738Y-14462674D02*
X13298738Y-14510293D01*
X13298738Y-14510293D02*
X13289215Y-14548388D01*
X13289215Y-14548388D02*
X13279691Y-14567436D01*
X13279691Y-14567436D02*
X13270167Y-14576960D01*
X13270167Y-14576960D02*
X13251119Y-14586484D01*
X13251119Y-14586484D02*
X13232072Y-14586484D01*
X13232072Y-14586484D02*
X13213024Y-14576960D01*
X13213024Y-14576960D02*
X13203500Y-14567436D01*
X13203500Y-14567436D02*
X13193977Y-14548388D01*
X13193977Y-14548388D02*
X13184453Y-14510293D01*
X13184453Y-14510293D02*
X13184453Y-14462674D01*
X13184453Y-14462674D02*
X13193977Y-14424579D01*
X13193977Y-14424579D02*
X13203500Y-14405531D01*
X13203500Y-14405531D02*
X13213024Y-14396008D01*
X13213024Y-14396008D02*
X13232072Y-14386484D01*
X13384453Y-14567436D02*
X13393977Y-14576960D01*
X13393977Y-14576960D02*
X13384453Y-14586484D01*
X13384453Y-14586484D02*
X13374929Y-14576960D01*
X13374929Y-14576960D02*
X13384453Y-14567436D01*
X13384453Y-14567436D02*
X13384453Y-14586484D01*
X13517786Y-14386484D02*
X13536834Y-14386484D01*
X13536834Y-14386484D02*
X13555881Y-14396008D01*
X13555881Y-14396008D02*
X13565405Y-14405531D01*
X13565405Y-14405531D02*
X13574929Y-14424579D01*
X13574929Y-14424579D02*
X13584453Y-14462674D01*
X13584453Y-14462674D02*
X13584453Y-14510293D01*
X13584453Y-14510293D02*
X13574929Y-14548388D01*
X13574929Y-14548388D02*
X13565405Y-14567436D01*
X13565405Y-14567436D02*
X13555881Y-14576960D01*
X13555881Y-14576960D02*
X13536834Y-14586484D01*
X13536834Y-14586484D02*
X13517786Y-14586484D01*
X13517786Y-14586484D02*
X13498738Y-14576960D01*
X13498738Y-14576960D02*
X13489215Y-14567436D01*
X13489215Y-14567436D02*
X13479691Y-14548388D01*
X13479691Y-14548388D02*
X13470167Y-14510293D01*
X13470167Y-14510293D02*
X13470167Y-14462674D01*
X13470167Y-14462674D02*
X13479691Y-14424579D01*
X13479691Y-14424579D02*
X13489215Y-14405531D01*
X13489215Y-14405531D02*
X13498738Y-14396008D01*
X13498738Y-14396008D02*
X13517786Y-14386484D01*
X13660643Y-14405531D02*
X13670167Y-14396008D01*
X13670167Y-14396008D02*
X13689215Y-14386484D01*
X13689215Y-14386484D02*
X13736834Y-14386484D01*
X13736834Y-14386484D02*
X13755881Y-14396008D01*
X13755881Y-14396008D02*
X13765405Y-14405531D01*
X13765405Y-14405531D02*
X13774929Y-14424579D01*
X13774929Y-14424579D02*
X13774929Y-14443627D01*
X13774929Y-14443627D02*
X13765405Y-14472198D01*
X13765405Y-14472198D02*
X13651119Y-14586484D01*
X13651119Y-14586484D02*
X13774929Y-14586484D01*
X13955881Y-14386484D02*
X13860643Y-14386484D01*
X13860643Y-14386484D02*
X13851119Y-14481722D01*
X13851119Y-14481722D02*
X13860643Y-14472198D01*
X13860643Y-14472198D02*
X13879691Y-14462674D01*
X13879691Y-14462674D02*
X13927310Y-14462674D01*
X13927310Y-14462674D02*
X13946358Y-14472198D01*
X13946358Y-14472198D02*
X13955881Y-14481722D01*
X13955881Y-14481722D02*
X13965405Y-14500769D01*
X13965405Y-14500769D02*
X13965405Y-14548388D01*
X13965405Y-14548388D02*
X13955881Y-14567436D01*
X13955881Y-14567436D02*
X13946358Y-14576960D01*
X13946358Y-14576960D02*
X13927310Y-14586484D01*
X13927310Y-14586484D02*
X13879691Y-14586484D01*
X13879691Y-14586484D02*
X13860643Y-14576960D01*
X13860643Y-14576960D02*
X13851119Y-14567436D01*
X14136834Y-14386484D02*
X14098738Y-14386484D01*
X14098738Y-14386484D02*
X14079691Y-14396008D01*
X14079691Y-14396008D02*
X14070167Y-14405531D01*
X14070167Y-14405531D02*
X14051119Y-14434103D01*
X14051119Y-14434103D02*
X14041596Y-14472198D01*
X14041596Y-14472198D02*
X14041596Y-14548388D01*
X14041596Y-14548388D02*
X14051119Y-14567436D01*
X14051119Y-14567436D02*
X14060643Y-14576960D01*
X14060643Y-14576960D02*
X14079691Y-14586484D01*
X14079691Y-14586484D02*
X14117786Y-14586484D01*
X14117786Y-14586484D02*
X14136834Y-14576960D01*
X14136834Y-14576960D02*
X14146358Y-14567436D01*
X14146358Y-14567436D02*
X14155881Y-14548388D01*
X14155881Y-14548388D02*
X14155881Y-14500769D01*
X14155881Y-14500769D02*
X14146358Y-14481722D01*
X14146358Y-14481722D02*
X14136834Y-14472198D01*
X14136834Y-14472198D02*
X14117786Y-14462674D01*
X14117786Y-14462674D02*
X14079691Y-14462674D01*
X14079691Y-14462674D02*
X14060643Y-14472198D01*
X14060643Y-14472198D02*
X14051119Y-14481722D01*
X14051119Y-14481722D02*
X14041596Y-14500769D01*
X14232072Y-14386484D02*
X14232072Y-14424579D01*
X14308262Y-14386484D02*
X14308262Y-14424579D01*
X14603501Y-14662674D02*
X14593977Y-14653150D01*
X14593977Y-14653150D02*
X14574929Y-14624579D01*
X14574929Y-14624579D02*
X14565405Y-14605531D01*
X14565405Y-14605531D02*
X14555881Y-14576960D01*
X14555881Y-14576960D02*
X14546358Y-14529341D01*
X14546358Y-14529341D02*
X14546358Y-14491246D01*
X14546358Y-14491246D02*
X14555881Y-14443627D01*
X14555881Y-14443627D02*
X14565405Y-14415055D01*
X14565405Y-14415055D02*
X14574929Y-14396008D01*
X14574929Y-14396008D02*
X14593977Y-14367436D01*
X14593977Y-14367436D02*
X14603501Y-14357912D01*
X14670167Y-14405531D02*
X14679691Y-14396008D01*
X14679691Y-14396008D02*
X14698739Y-14386484D01*
X14698739Y-14386484D02*
X14746358Y-14386484D01*
X14746358Y-14386484D02*
X14765405Y-14396008D01*
X14765405Y-14396008D02*
X14774929Y-14405531D01*
X14774929Y-14405531D02*
X14784453Y-14424579D01*
X14784453Y-14424579D02*
X14784453Y-14443627D01*
X14784453Y-14443627D02*
X14774929Y-14472198D01*
X14774929Y-14472198D02*
X14660643Y-14586484D01*
X14660643Y-14586484D02*
X14784453Y-14586484D01*
X15022548Y-14586484D02*
X15022548Y-14386484D01*
X15108262Y-14586484D02*
X15108262Y-14481722D01*
X15108262Y-14481722D02*
X15098739Y-14462674D01*
X15098739Y-14462674D02*
X15079691Y-14453150D01*
X15079691Y-14453150D02*
X15051120Y-14453150D01*
X15051120Y-14453150D02*
X15032072Y-14462674D01*
X15032072Y-14462674D02*
X15022548Y-14472198D01*
X15232072Y-14586484D02*
X15213024Y-14576960D01*
X15213024Y-14576960D02*
X15203501Y-14567436D01*
X15203501Y-14567436D02*
X15193977Y-14548388D01*
X15193977Y-14548388D02*
X15193977Y-14491246D01*
X15193977Y-14491246D02*
X15203501Y-14472198D01*
X15203501Y-14472198D02*
X15213024Y-14462674D01*
X15213024Y-14462674D02*
X15232072Y-14453150D01*
X15232072Y-14453150D02*
X15260643Y-14453150D01*
X15260643Y-14453150D02*
X15279691Y-14462674D01*
X15279691Y-14462674D02*
X15289215Y-14472198D01*
X15289215Y-14472198D02*
X15298739Y-14491246D01*
X15298739Y-14491246D02*
X15298739Y-14548388D01*
X15298739Y-14548388D02*
X15289215Y-14567436D01*
X15289215Y-14567436D02*
X15279691Y-14576960D01*
X15279691Y-14576960D02*
X15260643Y-14586484D01*
X15260643Y-14586484D02*
X15232072Y-14586484D01*
X15413024Y-14586484D02*
X15393977Y-14576960D01*
X15393977Y-14576960D02*
X15384453Y-14557912D01*
X15384453Y-14557912D02*
X15384453Y-14386484D01*
X15565405Y-14576960D02*
X15546358Y-14586484D01*
X15546358Y-14586484D02*
X15508262Y-14586484D01*
X15508262Y-14586484D02*
X15489215Y-14576960D01*
X15489215Y-14576960D02*
X15479691Y-14557912D01*
X15479691Y-14557912D02*
X15479691Y-14481722D01*
X15479691Y-14481722D02*
X15489215Y-14462674D01*
X15489215Y-14462674D02*
X15508262Y-14453150D01*
X15508262Y-14453150D02*
X15546358Y-14453150D01*
X15546358Y-14453150D02*
X15565405Y-14462674D01*
X15565405Y-14462674D02*
X15574929Y-14481722D01*
X15574929Y-14481722D02*
X15574929Y-14500769D01*
X15574929Y-14500769D02*
X15479691Y-14519817D01*
X15651120Y-14576960D02*
X15670167Y-14586484D01*
X15670167Y-14586484D02*
X15708262Y-14586484D01*
X15708262Y-14586484D02*
X15727310Y-14576960D01*
X15727310Y-14576960D02*
X15736834Y-14557912D01*
X15736834Y-14557912D02*
X15736834Y-14548388D01*
X15736834Y-14548388D02*
X15727310Y-14529341D01*
X15727310Y-14529341D02*
X15708262Y-14519817D01*
X15708262Y-14519817D02*
X15679691Y-14519817D01*
X15679691Y-14519817D02*
X15660643Y-14510293D01*
X15660643Y-14510293D02*
X15651120Y-14491246D01*
X15651120Y-14491246D02*
X15651120Y-14481722D01*
X15651120Y-14481722D02*
X15660643Y-14462674D01*
X15660643Y-14462674D02*
X15679691Y-14453150D01*
X15679691Y-14453150D02*
X15708262Y-14453150D01*
X15708262Y-14453150D02*
X15727310Y-14462674D01*
X15803501Y-14662674D02*
X15813024Y-14653150D01*
X15813024Y-14653150D02*
X15832072Y-14624579D01*
X15832072Y-14624579D02*
X15841596Y-14605531D01*
X15841596Y-14605531D02*
X15851120Y-14576960D01*
X15851120Y-14576960D02*
X15860643Y-14529341D01*
X15860643Y-14529341D02*
X15860643Y-14491246D01*
X15860643Y-14491246D02*
X15851120Y-14443627D01*
X15851120Y-14443627D02*
X15841596Y-14415055D01*
X15841596Y-14415055D02*
X15832072Y-14396008D01*
X15832072Y-14396008D02*
X15813024Y-14367436D01*
X15813024Y-14367436D02*
X15803501Y-14357912D01*
X16165405Y-14662674D02*
X16155882Y-14653150D01*
X16155882Y-14653150D02*
X16136834Y-14624579D01*
X16136834Y-14624579D02*
X16127310Y-14605531D01*
X16127310Y-14605531D02*
X16117786Y-14576960D01*
X16117786Y-14576960D02*
X16108263Y-14529341D01*
X16108263Y-14529341D02*
X16108263Y-14491246D01*
X16108263Y-14491246D02*
X16117786Y-14443627D01*
X16117786Y-14443627D02*
X16127310Y-14415055D01*
X16127310Y-14415055D02*
X16136834Y-14396008D01*
X16136834Y-14396008D02*
X16155882Y-14367436D01*
X16155882Y-14367436D02*
X16165405Y-14357912D01*
X16241596Y-14453150D02*
X16241596Y-14586484D01*
X16241596Y-14472198D02*
X16251120Y-14462674D01*
X16251120Y-14462674D02*
X16270167Y-14453150D01*
X16270167Y-14453150D02*
X16298739Y-14453150D01*
X16298739Y-14453150D02*
X16317786Y-14462674D01*
X16317786Y-14462674D02*
X16327310Y-14481722D01*
X16327310Y-14481722D02*
X16327310Y-14586484D01*
X16451120Y-14586484D02*
X16432072Y-14576960D01*
X16432072Y-14576960D02*
X16422548Y-14567436D01*
X16422548Y-14567436D02*
X16413024Y-14548388D01*
X16413024Y-14548388D02*
X16413024Y-14491246D01*
X16413024Y-14491246D02*
X16422548Y-14472198D01*
X16422548Y-14472198D02*
X16432072Y-14462674D01*
X16432072Y-14462674D02*
X16451120Y-14453150D01*
X16451120Y-14453150D02*
X16479691Y-14453150D01*
X16479691Y-14453150D02*
X16498739Y-14462674D01*
X16498739Y-14462674D02*
X16508263Y-14472198D01*
X16508263Y-14472198D02*
X16517786Y-14491246D01*
X16517786Y-14491246D02*
X16517786Y-14548388D01*
X16517786Y-14548388D02*
X16508263Y-14567436D01*
X16508263Y-14567436D02*
X16498739Y-14576960D01*
X16498739Y-14576960D02*
X16479691Y-14586484D01*
X16479691Y-14586484D02*
X16451120Y-14586484D01*
X16574929Y-14453150D02*
X16651120Y-14453150D01*
X16603501Y-14386484D02*
X16603501Y-14557912D01*
X16603501Y-14557912D02*
X16613024Y-14576960D01*
X16613024Y-14576960D02*
X16632072Y-14586484D01*
X16632072Y-14586484D02*
X16651120Y-14586484D01*
X16870167Y-14453150D02*
X16870167Y-14653150D01*
X16870167Y-14462674D02*
X16889215Y-14453150D01*
X16889215Y-14453150D02*
X16927310Y-14453150D01*
X16927310Y-14453150D02*
X16946358Y-14462674D01*
X16946358Y-14462674D02*
X16955882Y-14472198D01*
X16955882Y-14472198D02*
X16965406Y-14491246D01*
X16965406Y-14491246D02*
X16965406Y-14548388D01*
X16965406Y-14548388D02*
X16955882Y-14567436D01*
X16955882Y-14567436D02*
X16946358Y-14576960D01*
X16946358Y-14576960D02*
X16927310Y-14586484D01*
X16927310Y-14586484D02*
X16889215Y-14586484D01*
X16889215Y-14586484D02*
X16870167Y-14576960D01*
X17079691Y-14586484D02*
X17060644Y-14576960D01*
X17060644Y-14576960D02*
X17051120Y-14557912D01*
X17051120Y-14557912D02*
X17051120Y-14386484D01*
X17241596Y-14586484D02*
X17241596Y-14481722D01*
X17241596Y-14481722D02*
X17232072Y-14462674D01*
X17232072Y-14462674D02*
X17213025Y-14453150D01*
X17213025Y-14453150D02*
X17174929Y-14453150D01*
X17174929Y-14453150D02*
X17155882Y-14462674D01*
X17241596Y-14576960D02*
X17222548Y-14586484D01*
X17222548Y-14586484D02*
X17174929Y-14586484D01*
X17174929Y-14586484D02*
X17155882Y-14576960D01*
X17155882Y-14576960D02*
X17146358Y-14557912D01*
X17146358Y-14557912D02*
X17146358Y-14538865D01*
X17146358Y-14538865D02*
X17155882Y-14519817D01*
X17155882Y-14519817D02*
X17174929Y-14510293D01*
X17174929Y-14510293D02*
X17222548Y-14510293D01*
X17222548Y-14510293D02*
X17241596Y-14500769D01*
X17308263Y-14453150D02*
X17384453Y-14453150D01*
X17336834Y-14386484D02*
X17336834Y-14557912D01*
X17336834Y-14557912D02*
X17346358Y-14576960D01*
X17346358Y-14576960D02*
X17365406Y-14586484D01*
X17365406Y-14586484D02*
X17384453Y-14586484D01*
X17527310Y-14576960D02*
X17508263Y-14586484D01*
X17508263Y-14586484D02*
X17470167Y-14586484D01*
X17470167Y-14586484D02*
X17451120Y-14576960D01*
X17451120Y-14576960D02*
X17441596Y-14557912D01*
X17441596Y-14557912D02*
X17441596Y-14481722D01*
X17441596Y-14481722D02*
X17451120Y-14462674D01*
X17451120Y-14462674D02*
X17470167Y-14453150D01*
X17470167Y-14453150D02*
X17508263Y-14453150D01*
X17508263Y-14453150D02*
X17527310Y-14462674D01*
X17527310Y-14462674D02*
X17536834Y-14481722D01*
X17536834Y-14481722D02*
X17536834Y-14500769D01*
X17536834Y-14500769D02*
X17441596Y-14519817D01*
X17708263Y-14586484D02*
X17708263Y-14386484D01*
X17708263Y-14576960D02*
X17689215Y-14586484D01*
X17689215Y-14586484D02*
X17651120Y-14586484D01*
X17651120Y-14586484D02*
X17632072Y-14576960D01*
X17632072Y-14576960D02*
X17622548Y-14567436D01*
X17622548Y-14567436D02*
X17613025Y-14548388D01*
X17613025Y-14548388D02*
X17613025Y-14491246D01*
X17613025Y-14491246D02*
X17622548Y-14472198D01*
X17622548Y-14472198D02*
X17632072Y-14462674D01*
X17632072Y-14462674D02*
X17651120Y-14453150D01*
X17651120Y-14453150D02*
X17689215Y-14453150D01*
X17689215Y-14453150D02*
X17708263Y-14462674D01*
X17784453Y-14662674D02*
X17793977Y-14653150D01*
X17793977Y-14653150D02*
X17813025Y-14624579D01*
X17813025Y-14624579D02*
X17822548Y-14605531D01*
X17822548Y-14605531D02*
X17832072Y-14576960D01*
X17832072Y-14576960D02*
X17841596Y-14529341D01*
X17841596Y-14529341D02*
X17841596Y-14491246D01*
X17841596Y-14491246D02*
X17832072Y-14443627D01*
X17832072Y-14443627D02*
X17822548Y-14415055D01*
X17822548Y-14415055D02*
X17813025Y-14396008D01*
X17813025Y-14396008D02*
X17793977Y-14367436D01*
X17793977Y-14367436D02*
X17784453Y-14357912D01*
M02*
